<svg xmlns="http://www.w3.org/2000/svg" viewBox="0 0 288 415"><defs/><filter id="prefix__a"><feGaussianBlur stdDeviation="12"/></filter><rect width="100%" height="100%" fill="#ced6d3"/><g filter="url(#prefix__a)"><g fill-opacity=".5" transform="translate(.8 .8) scale(1.6211)"><circle r="1" fill="#002442" transform="matrix(-.4013 -33.0042 176.98692 -2.15203 82.2 95.3)"/><circle r="1" fill="#fff" transform="matrix(-135.64655 -17.13864 9.00179 -71.24614 65.7 200.4)"/><ellipse cx="86" cy="28" fill="#fff" rx="177" ry="34"/><path fill="#0a4951" d="M45.4 126.4l1.2-64 70 1.2-1.2 64z"/><ellipse cx="149" cy="108" fill="#a88fb0" rx="32" ry="49"/><ellipse cx="24" cy="88" fill="#41c3ad" rx="45" ry="27"/><circle cx="63" cy="245" r="119" fill="#fffff1"/><ellipse cx="120" cy="29" fill="#fffffd" rx="177" ry="33"/><path fill="#c5a686" d="M68 245l12-44 22 44z"/><path fill="#fffcee" d="M126 90h45v7h-45z"/><ellipse cx="133" cy="130" fill="#fff" rx="81" ry="4"/><path fill="#6e796a" d="M152 152.6l-25.2 2.8-.9-22.8 23.9 21.9z"/><path fill="#096e71" d="M0 111h47v16H0z"/><path fill="#635a8c" d="M121 116.2l94 1.6v10l-94-1.6z"/><circle cx="20" cy="194" r="61" fill="#fffffa"/><path fill="#7e6d9e" d="M117 63h61v25h-61z"/><ellipse cx="96" cy="163" fill="#b3afa9" rx="27" ry="4"/><path fill="#78846e" d="M171.2 151.7l-13.7 3.1-4.7-20.5 13.7-3.1z"/><path fill="#fffff3" d="M187.8 202.4L188 88l-27.5 101.2 2.3-47z"/><circle r="1" fill="#fffff3" transform="matrix(136.486 -10.26243 2.25444 29.98303 70.2 31.4)"/><path fill="#fffff2" d="M193 145.9l-48-18.5 1.6 59.4 6.9-63.7z"/><path fill="#304456" d="M79 64h36v63H79z"/><circle r="1" fill="#fffff8" transform="matrix(-97.89276 -20.94283 4.20844 -19.67145 152.3 213.4)"/><circle r="1" fill="#fffff8" transform="matrix(-30.2328 9.59041 -3.04614 -9.60266 96.7 141.4)"/><path fill="#323f2e" d="M139 137h4v17h-4z"/><path fill="#5ea89e" d="M0 63h67v17H0z"/><path fill="#cebaa1" d="M105.3 230l3.1 19.2-38.8-38.7L80 242.9z"/><path fill="#746b97" d="M117 106h61v21h-61z"/><path fill="#e3dac4" d="M104 175h69v12h-69z"/><circle r="1" fill="#fffff4" transform="matrix(-7.23891 10.92207 -2.51285 -1.66546 148.5 140.5)"/><path fill="#fffbf0" d="M193 155.9L80.6 236.4 193 222.1l-70.9-68.2z"/><circle r="1" fill="#bab5c2" transform="matrix(13.97971 .04123 -.00956 3.24176 137.5 67.2)"/></g></g></svg>