<svg xmlns="http://www.w3.org/2000/svg" viewBox="0 0 850 380"><defs/><filter id="prefix__a"><feGaussianBlur stdDeviation="12"/></filter><rect width="100%" height="100%" fill="#efefef"/><g filter="url(#prefix__a)"><g fill-opacity=".5" transform="translate(1.7 1.7) scale(3.32031)"><path fill="#aeaeae" d="M182 83h69v25h-69z"/><path fill="#111" d="M31 50h165v2H31z"/><path fill="#151515" d="M41 33h152v2H41z"/><ellipse cx="89" cy="23" rx="50" ry="1"/><circle r="1" fill="#fff" transform="matrix(-21.02795 29.4823 -86.97872 -62.0367 223.1 25.9)"/><path fill="#444" d="M38.6 75.7l-.3-1 69-26.4.4 1z"/><ellipse cx="152" cy="98" fill="#fff" rx="27" ry="35"/><path fill="#7d7d7d" d="M179.6 68l-41-17.5 16.1 11.7 42.9 15.3z"/><ellipse cx="96" cy="11" fill="#929292" rx="52" ry="3"/><path fill="#3b3b3b" d="M5 90h54v2H5z"/><ellipse cx="102" cy="99" rx="27" ry="1"/><path fill="#7f7f7f" d="M18 81h31v5H18z"/><path fill="#767676" d="M74 86h53v3H74z"/><ellipse cx="80" cy="76" fill="#656565" rx="44" ry="1"/><ellipse cx="230" cy="100" fill="#fff" rx="111" ry="3"/><ellipse cx="20" cy="74" fill="#303030" rx="40" ry="1"/><circle r="1" fill="#fff" transform="matrix(-27.10423 66.16489 -20.1036 -8.23538 9.9 23)"/><path fill="#858585" d="M99.7 52.5l7.2 3.5-6.6 13.5-7.2-3.5z"/><ellipse cx="224" cy="106" fill="#191919" rx="41" ry="1"/><ellipse cx="34" cy="113" fill="#fff" rx="53" ry="22"/><circle cx="229" cy="44" r="38" fill="#fff"/><ellipse cx="227" cy="83" rx="18" ry="1"/><ellipse cx="31" cy="34" fill="#555" rx="9" ry="2"/><path fill="#fbfbfb" d="M9.7 80.4l31.8-1.1 26.8-14.8-30.4 10.4z"/><path fill="#7d7d7d" d="M204.1 88.7l-.5.9-43.7-26.3.5-.9z"/><ellipse cx="137" cy="1" fill="#fff" rx="198" ry="9"/><path fill="#5a5a5a" d="M53.4 74.3l-.4-1 33.6-15.6.4 1z"/><path fill="#4e4e4e" d="M75.7 75l1 .1L74.2 97l-1-.1z"/><ellipse cx="201" cy="91" fill="#fff" rx="124" ry="3"/><ellipse cx="89" cy="22" fill="#727272" rx="49" ry="1"/><ellipse cx="92" cy="110" fill="#fff" rx="98" ry="10"/><path fill="#fff" d="M142 0h114v31H142z"/></g></g></svg>