<svg xmlns="http://www.w3.org/2000/svg" viewBox="0 0 750 563"><defs/><filter id="prefix__a"><feGaussianBlur stdDeviation="12"/></filter><rect width="100%" height="100%" fill="#091863"/><g filter="url(#prefix__a)"><g fill-opacity=".5" transform="translate(1.5 1.5) scale(2.92969)"><ellipse cx="172" cy="95" rx="48" ry="55"/><circle r="1" fill="#2e65c6" transform="matrix(-111.36961 -64.5587 5.999 -10.3488 86.7 118.7)"/><circle r="1" fill="#498ad0" transform="matrix(73.48347 -45.22934 5.62115 9.1326 125.2 53.4)"/><circle r="1" fill="#030000" transform="rotate(-1.8 3182 -5461.4) scale(48.26423 52.45652)"/><ellipse cx="103" cy="96" fill="#030000" rx="21" ry="22"/><path fill="#4e8acb" d="M213 37h12v118h-12z"/><path fill="#59a3e6" d="M223 138l-62 59 26-48z"/><circle r="1" fill="#00007b" transform="matrix(146.1806 -64.12047 20.3567 46.40882 55.8 27.1)"/><path fill="#6da0ad" d="M181.3 179.8L114 124.7l15.6-77.5-5.4 67.8z"/><path fill="#64b1ed" d="M220 50l-31-7-22-43z"/><path fill="#81c1dd" d="M124 82l-14-8 35-35z"/><path fill="#7ec1d6" d="M54.5 85.6L88 125.7h22.8l-26.4-18.1z"/><circle r="1" fill="#00078f" transform="matrix(-83.98533 -51.92631 10.31246 -16.67931 93.7 148.6)"/><ellipse cx="102" cy="96" rx="20" ry="21"/><circle cx="170" cy="97" r="48"/><path fill="#050000" d="M168 27h14v138h-14z"/><circle r="1" fill="#00007f" transform="rotate(-90.1 164.2 -75) scale(164.55603 16.56868)"/><path fill="#9ed6d8" d="M135 148h37v5h-37z"/><path fill="#80c8e5" d="M86 74h34L75 59z"/><path fill="#8fd1ea" d="M91.6 125.6l33-16.8 1.8 3.6-33 16.8z"/><circle r="1" fill="#00005f" transform="matrix(-23.80482 2.418 -23.27913 -229.17878 13.4 110.1)"/><circle r="1" fill="#00088b" transform="matrix(26.77787 -2.25626 3.21837 38.19643 208.1 4.1)"/><path fill="#7dafc0" d="M126 39h76v4h-76z"/><ellipse cx="207" cy="185" fill="#00058b" rx="24" ry="36"/><circle r="1" fill="#00108d" transform="matrix(4.30792 30.41481 -15.85481 2.24566 114 40.2)"/><path fill="#2157cf" d="M219.1 110.5L208.2 95l10.7-7.4 10.9 15.6z"/><circle cx="186" cy="116" r="31"/><path fill="#9cd7db" d="M181 175l-21-26 8 22z"/><path fill="#0034b1" d="M104.9 59.5l-74.6 52.2-9.2-13.2 74.6-52.2z"/><circle r="1" fill="#010000" transform="rotate(120 70.3 91) scale(31.66192 33.42785)"/><path fill="#bdead3" d="M94 68L81 90l-9-1z"/><path fill="#d4ffe4" d="M165 26l12-7-14 16z"/></g></g></svg>