<svg xmlns="http://www.w3.org/2000/svg" viewBox="0 0 620 338"><defs/><filter id="prefix__a"><feGaussianBlur stdDeviation="12"/></filter><rect width="100%" height="100%" fill="#f5f5f5"/><g filter="url(#prefix__a)"><g fill-opacity=".5" transform="translate(1.2 1.2) scale(2.42188)"><path fill="#c6c7c6" d="M195 86l-73 40h135z"/><ellipse cx="104" cy="71" rx="21" ry="1"/><ellipse cx="21" cy="71" rx="21" ry="1"/><ellipse cx="34" cy="23" rx="89" ry="1"/><path fill="#d0d0d0" d="M192 41l52 35-117 1z"/><ellipse cx="209" cy="76" fill="#a2a2a2" rx="2" ry="71"/><path fill="#fff" d="M124 51l71 4 29 52zm50.2 73l1.7-24 27.9 2-1.7 24z"/><ellipse cx="7" cy="123" fill="#383838" rx="36" ry="1"/><path fill="#969696" d="M168 102v22l22-36z"/><path fill="#959595" d="M84.1 71.8L64.4 40.3l-4.6-10.6 20 31z"/><path fill="#b7b7b7" d="M174.3 54.6l-3.8-8.4-5.3 36 33.2-50.9z"/><ellipse cx="76" cy="8" fill="#fff" rx="102" ry="14"/><path fill="#a8a9a8" d="M238.9 130.7l-14.5-36-2.7 32.1 15.6-12.3z"/><path fill="#a0a0a0" d="M81 122h55v3H81z"/><path fill="#949494" d="M167 14h49v2h-49z"/><circle r="1" fill="#fff" transform="matrix(4.94495 -3.34798 10.92165 16.1312 183.8 116.8)"/><path fill="#fff" d="M265.9 60.4l-46.3 64-12-29.9 63.4 45.3z"/><path fill="#c1c1c1" d="M117.4 37.8l51.3 1.3L146.6 25l-7.4 10.3z"/><path fill="#313131" d="M186.4 92.6l.6-1.9 8.6 2.7-.6 1.9z"/><circle r="1" fill="#8d8d8d" transform="rotate(120.3 10 42.9) scale(22.42281 1)"/><path fill="#fff" d="M167.8 105.9l-23.5-30.4-32.8 17 55.3 31.6z"/><ellipse cx="168" cy="102" fill="#585858" rx="1" ry="33"/><path fill="#989998" d="M184.4 134.9l-38.9-22.7 10 15.3 7.6-2.7z"/><path fill="#fff" d="M266.8 64.4l-96.7 7.5 24.8 20.6 27.9-58.9z"/><path fill="#2b2c2f" d="M146 99h3v9h-3z"/><path fill="#a0a0a0" d="M240 79h16l-32-16z"/><path fill="#fff" d="M60 71l-76 5 41 54z"/><ellipse cx="102" cy="46" fill="#fff" rx="30" ry="22"/><path fill="#a1a2a1" d="M210 118V92l-14 43z"/><path fill="#2a3632" d="M175.9 133.6l3.3-9.5.9.3-3.3 9.5z"/><path fill="#bcbcbc" d="M208 39l24-12 20 12z"/></g></g></svg>