<svg xmlns="http://www.w3.org/2000/svg" viewBox="0 0 250 180"><defs/><filter id="prefix__a"><feGaussianBlur stdDeviation="12"/></filter><rect width="100%" height="100%" fill="#f5f5f5"/><g filter="url(#prefix__a)"><g fill-opacity=".5" transform="translate(.5 .5)"><path d="M111 8h25v27h-25z"/><circle cx="74" cy="31" r="16" fill="#2a2a2a"/><path d="M227.2 195l4.6-38 14.2 11.5-17.4 10.6zm-37.3-55.1l-.8-15 15-.8.8 15zM174 19h11v11h-11zm-40 30l-12 16-8-16z"/><circle r="1" transform="matrix(2.00039 4.26741 -6.83403 3.20351 162.9 95)"/><path d="M4.7 41.5l-.4-4.3 4.1-12.7 12.3 13.9zM124 8l12 32-32-18z"/><circle cx="72" cy="31" r="8" fill="#fff"/><path d="M155 8h5v11h-5z"/><ellipse cx="84" cy="32" rx="5" ry="8"/><path fill="#fff" d="M134.8 10.9L265 70.7l-51.5 65.2-84.2-111.2zM99 20h26v5H99z"/><circle cx="79" cy="115" r="66" fill="#fff"/><path fill="#fff" d="M256.4 195L-16 174.7l193.2-75.9 27 55.6z"/><path d="M122.9 37.7l6.9-34.6L138 6l-18.8 26.1zM155 85h8v15h-8z"/><path fill="#fff" d="M82 25l65-29-89-12z"/><path d="M81 25h9v16h-9zM59 37l18.3 13.5h-5.9l-9.3-27.2z"/><circle cx="179" cy="24" r="5"/><path d="M5 30.2l7 .7-1 9-7-.8zm116 .8l-11-16 1 12zm121.5 145.6l-8-10.7 14.3.1-21.1 6.2zM127 49l3 11-11 4z"/><ellipse cx="32" cy="67" fill="#fff" rx="18" ry="249"/><path fill="#fff" d="M71.6 19L61.3 45.3l51.2-10.8L135.3 195zm58.4-4h23v15h-23zm70 120h34v25h-34zM-16 27l120-43-51 47z"/><path d="M118 12.5l-9.6 9.2 27.2-8-.9-8.4z"/></g></g></svg>