<svg xmlns="http://www.w3.org/2000/svg" viewBox="0 0 225 225"><defs/><filter id="prefix__a"><feGaussianBlur stdDeviation="12"/></filter><rect width="100%" height="100%" fill="#c2c2c2"/><g filter="url(#prefix__a)"><g fill-opacity=".5" transform="translate(.5 .5)"><path d="M144 105h59v16h-59zm-39-80h17v56h-17zm-1 120h16v59h-16zm-82-40h60v15H22z"/><path d="M23 103.1l63.2 3.3-8.9 13.4-51.7.4zM105 24h15v57h-15zm37 79h60v17h-60z"/><path fill="#f3f3f3" d="M126 125h54v95h-54z"/><path d="M106 144h17v54h-17z"/><path fill="#e9e9e9" d="M124 2v125L240 8z"/><ellipse cx="152" cy="22" fill="#696969" rx="207" ry="3"/><path fill="#f1f1f1" d="M5 125h74v95H5z"/><path fill="#f0f0f0" d="M80.3 4.6l-1.6 94-73-1.2 1.6-94z"/><ellipse cx="62" cy="118" fill="#676767" rx="3" ry="173"/><ellipse cx="42" cy="106" fill="#676767" rx="3" ry="159"/><path fill="#fff" d="M85 28h15v193H85z"/><ellipse cx="70" cy="62" fill="#6e6e6e" rx="208" ry="3"/><ellipse cx="137" cy="182" fill="#6e6e6e" rx="185" ry="3"/><ellipse cx="162" cy="113" fill="#6d6d6d" rx="3" ry="163"/><ellipse cx="138" cy="162" fill="#707070" rx="202" ry="3"/><path fill="#fff" d="M205 4h15v218h-15z"/><ellipse cx="103" cy="42" fill="#6c6c6c" rx="193" ry="3"/><path fill="#676767" d="M0 80h225v5H0z"/><ellipse cx="161" cy="203" fill="#676767" rx="222" ry="2"/><ellipse cx="22" cy="107" fill="#696969" rx="3" ry="158"/><path fill="#696969" d="M140 45h5v157h-5z"/><path fill="#fff" d="M185 123h15v99h-15z"/><ellipse cx="194" cy="102" fill="#7b7b7b" rx="224" ry="3"/><path fill="#666" d="M0 140h180v5H0z"/><ellipse cx="54" cy="2" fill="#727272" rx="224" ry="3"/><ellipse cx="109" cy="224" fill="#727272" rx="224" ry="5"/><ellipse cx="182" cy="110" fill="#7f7f7f" rx="3" ry="147"/></g></g></svg>