<svg xmlns="http://www.w3.org/2000/svg" viewBox="0 0 600 338"><defs/><filter id="prefix__a"><feGaussianBlur stdDeviation="12"/></filter><rect width="100%" height="100%" fill="#150f7a"/><g filter="url(#prefix__a)"><g fill-opacity=".5" transform="translate(1.2 1.2) scale(2.34375)"><circle r="1" fill="#a19b65" transform="matrix(32.11138 -32.76265 18.85814 18.48327 89.5 52.6)"/><path fill="#ff6d00" d="M94 29l32 3-11 24z"/><path fill="#ff7f00" d="M76 51l31 15-21 15z"/><path fill="#85ffd8" d="M82.7 94.1l48.4-66.7-1.2 1.1L129 48z"/><circle r="1" fill="#51d4e6" transform="matrix(-3.22344 -2.70031 21.73842 -25.9498 81.8 34.4)"/><path fill="#000197" d="M-2.8-16l97.7 76.4 13.2-4.7-8.9-15z"/><path fill="#01007d" d="M-4 159l-6-103 281 88z"/><path fill="#9d1200" d="M112.5 57.9L105.6 41l10.2-31 10 19.6z"/><path fill="#95ffe4" d="M74.7 44l12.8-15.3 3.8 3.2-12.8 15.4z"/><ellipse cx="107" cy="12" fill="#ffcc28" rx="10" ry="4"/><path fill="#b00000" d="M103 69.1L75 85.3l9.1-28.4.7.9z"/><circle r="1" fill="#010081" transform="matrix(-25.81792 37.42521 -18.85648 -13.00822 68.1 15.4)"/><ellipse cx="194" cy="47" fill="#04007c" rx="66" ry="254"/><path fill="#0000b5" d="M96.1 24.6l14 6.1 8.3-6.8-15.1-9.7z"/><circle r="1" fill="#52e4ff" transform="rotate(-97.2 80.7 2.2) scale(3.13796 13.38104)"/><path fill="#0000ba" d="M65 55h13v19H65z"/><circle r="1" fill="#0332ff" transform="matrix(-1.32325 -1.15029 27.92864 -32.12822 108.1 69.2)"/><path fill="#e0ff37" d="M128.1 44.1L124 29.2l-8.8 21.1-27.3 32.1z"/><circle r="1" fill="#e6d127" transform="matrix(2.20105 -3.19867 9.6391 6.6328 98 33.6)"/><path fill="#b9620f" d="M57.2 54.8l2.3 24.9 22.8 2.5-17.5-13.5z"/><circle r="1" fill="#04007f" transform="matrix(-35.88302 -67.48614 12.72646 -6.76678 34 53.2)"/><path fill="#ffff28" d="M79 49l-1 20 10-13z"/><path fill="#000096" d="M84.8 51l8.5-9.8L109.2 55l-8.5 9.8z"/><path fill="#8c0000" d="M72.7 81.6L83.2 61l11.3 1.8 7.4 6.3z"/><path fill="#680000" d="M123 21l-19 21 18-5z"/><path fill="#f9ff14" d="M74.7 84l23.5-13.1 5.1-.1-10.9 9.8z"/><path fill="#4c8fd5" d="M101.9 4.4l19.3 8.3 5.4 33.6 7.4-18.9z"/><path fill="#cc3e00" d="M99.7 16.2l.9-5.9 21.7 3.5-.9 5.9z"/><path fill="#001aaf" d="M96 21h20v10H96z"/><path fill="#5cfff7" d="M107 66l-2.8-1 4.8-13 2.8 1z"/><path fill="#90ffcc" d="M97 30h14v3H97z"/><path fill="#50e8fc" d="M52.2 61.9l13.2-4.8 29.8-38.3-27.6 30z"/></g></g></svg>