<svg xmlns="http://www.w3.org/2000/svg" viewBox="0 0 706 346"><defs/><filter id="prefix__a"><feGaussianBlur stdDeviation="12"/></filter><rect width="100%" height="100%" fill="#f2f1f2"/><g filter="url(#prefix__a)"><g fill-opacity=".5" transform="translate(1.4 1.4) scale(2.75781)"><path fill="#c90000" d="M163 21h10v8h-10z"/><path fill="#c30000" d="M168 73.1l-8-8.9 6-5.3 8 8.9z"/><path fill="#cd0000" d="M199 58h8v10h-8z"/><path fill="#787978" d="M146 117h14v6h-14z"/><circle cx="200" cy="62" r="4" fill="#e40000"/><ellipse cx="173" fill="#6566b9" rx="171" ry="1"/><path fill="#5d5eb5" d="M255 2h1v105h-1z"/><ellipse cx="56" cy="118" fill="#c3c4c3" rx="35" ry="5"/><ellipse cx="167" cy="25" fill="#db0000" rx="4" ry="6"/><circle r="1" fill="#fff" transform="matrix(-30.8034 21.09114 -13.26481 -19.37312 124.4 106)"/><path fill="#c5c6c5" d="M182 116h42v8h-42z"/><ellipse cx="174" cy="108" fill="#8485c7" rx="182" ry="1"/><path fill="#5d5eb5" d="M-1 106l-15-40L0 12z"/><circle cx="164" cy="65" r="4" fill="#f10000"/><ellipse cx="40" cy="102" fill="#fff" rx="67" ry="14"/><path fill="#e7ebea" d="M192.5 60.7l-17.7 31.9-19-39.3-12.4 24.8z"/><ellipse cx="126" cy="10" fill="#fff" rx="255" ry="10"/><path fill="#fff" d="M265.5 140l-11.3-37.7.2-107.3-37.3 145z"/><path fill="#a0a0a0" d="M23 116h14v7H23z"/><path fill="#e10000" d="M202.8 67.4l-6-6.7 4.4-4 6 6.6z"/><path fill="#f6f8fc" d="M113.2 82.5L123-16l38.8 81.2 18.9-45.8z"/><ellipse cx="123" cy="77" fill="#9f9fd1" rx="1" ry="107"/><ellipse cx="43" cy="124" fill="#fff" rx="7" ry="16"/><path fill="#fff" d="M1 79h24v46H1z"/><path fill="#babadf" d="M131.8 150.5l-2.6-151h1l2.6 151z"/><path fill="#f60000" d="M168 62h3v6h-3z"/><path fill="#fff" d="M138 89h108v19H138zm-82 51h106l-35-37z"/><path fill="#e6e8e7" d="M253 77.4l-55.3 28.3 43.5-60.3-42.3 11.2z"/><path fill="#eeefee" d="M222 20l-29 47-28-65z"/><path fill="#dbdcdb" d="M76 48L44 4l26 19z"/><path fill="#f30000" d="M163 61h7v5h-7z"/></g></g></svg>