<svg xmlns="http://www.w3.org/2000/svg" viewBox="0 0 436 294"><defs/><filter id="prefix__a"><feGaussianBlur stdDeviation="12"/></filter><rect width="100%" height="100%" fill="#f9f9fb"/><g filter="url(#prefix__a)"><g transform="translate(.9 .9) scale(1.70313)"><circle r="1" fill="#888872" fill-opacity=".5" transform="matrix(.2682 -5.1799 8.5949 .445 187 163.7)"/><ellipse cx="139" cy="125" fill="#656563" fill-opacity=".5" rx="130" ry="1"/><path fill="#525234" fill-opacity=".5" d="M50 160h13v6H50z"/><circle r="1" fill="#6a6aff" fill-opacity=".5" transform="matrix(30.00696 4.80634 -.15816 .98741 205.2 115.3)"/><ellipse cx="124" cy="153" fill="#868684" fill-opacity=".5" rx="126" ry="1"/><path fill="#b4b4b2" fill-opacity=".5" d="M121 6h3v144h-3z"/><path fill="#7f7f7d" fill-opacity=".5" d="M1.5 151h-1V7h1z"/><path fill="#6767ff" fill-opacity=".5" d="M32.1 120.8L53 52.9l1 .3-21 67.9z"/><path fill="#5959ff" fill-opacity=".5" d="M145.3 75.9l-8.2-49.3.5-4.5.9 1.3z"/><ellipse cx="134" cy="52" fill="#868684" fill-opacity=".5" rx="1" ry="96"/><ellipse cx="17" cy="49" fill="#939391" fill-opacity=".5" rx="1" ry="101"/><ellipse cx="216" cy="1" fill="#868684" fill-opacity=".5" rx="213" ry="1"/><path fill="#959593" fill-opacity=".5" d="M68.2 139.4l-15.4-3.2 6.5 8.2-8 2.7z"/><path fill="#6161ff" fill-opacity=".5" d="M77 110.8l2.6 4-18.7-68.1 5.2 24z"/><ellipse cx="253" cy="121" fill="#999998" fill-opacity=".5" rx="1" ry="161"/><path fill="#b4b4ff" fill-opacity=".5" d="M149.4 80.4l17.6 27.1L142.3 79l-.1-30.2z"/><path fill="#8e8eff" fill-opacity=".5" d="M183.7 114.4l39.5 4.8-54.9-11.4-18-18.6z"/><circle cx="197" cy="57" r="53" fill="#fff" fill-opacity=".5"/><circle r="1" fill="#292929" fill-opacity=".5" transform="rotate(-90.4 99.4 39.7) scale(3.07016 1)"/><ellipse cx="93" cy="47" fill="#fff" fill-opacity=".5" rx="28" ry="46"/><path fill="#55f" fill-opacity=".5" d="M58.5 45.3l8 15-1 .4-8-15z"/><path fill="#fff" fill-opacity=".5" d="M122 29h1v143h-1z"/><path fill="#fff" fill-opacity=".5" d="M176 187L76 160l105-3z"/><ellipse cx="237" cy="165" fill="#fff" fill-opacity=".5" rx="43" ry="12"/><path fill="#585840" fill-opacity=".5" d="M182.3 160l11.6 3-.2 1-11.6-3z"/><path fill="#fff" fill-opacity=".5" d="M0 154h51v18H0z"/><path fill="#fffffd" fill-opacity=".5" d="M53 154h2v18h-2z"/><path fill="#9c9c89" fill-opacity=".5" d="M49.8 165l13.3 4.9-.2-11.9-7.4 6.2z"/><ellipse cx="18" cy="78" fill="#b9b9b7" fill-opacity=".5" rx="1" ry="73"/><path fill="#5151ff" fill-opacity=".5" d="M237 119.8l-.2 1-15.8-2.6.2-1z"/><path fill="#fff" fill-opacity=".5" d="M59.5 138.3l48.6-11.4 34.9-11.5-51.1 38.2z"/><path fill="none" stroke="#55f" stroke-opacity=".5" stroke-width=".5" d="M74.7 103.8q-6.5-33.4-10.3-43.4"/></g></g></svg>