<svg xmlns="http://www.w3.org/2000/svg" viewBox="0 0 850 596"><defs/><filter id="prefix__a"><feGaussianBlur stdDeviation="12"/></filter><rect width="100%" height="100%" fill="#f2f2f2"/><g filter="url(#prefix__a)"><g fill-opacity=".5" transform="translate(1.7 1.7) scale(3.32031)"><ellipse cx="220" cy="53" fill="#9a9a9a" rx="32" ry="77"/><path fill="#787878" d="M209.6 52.5l-22-19 6.2-13.4 62.6-18z"/><circle r="1" fill="#fff" transform="matrix(71.19061 -17.3544 3.39893 13.94296 206.9 1.9)"/><path fill="#b4b4b4" d="M257 194l-11.9-98.8-63.6 3.3 85.4 72.3z"/><path fill="#fff" d="M17 0h174v165H17z"/><ellipse cx="227" cy="87" fill="#fff" rx="3" ry="100"/><path fill="#fff" d="M-7.5 8.4l203.3 30 6.5 8.6-76.8 135.2z"/><path fill="#898989" d="M226.1 82.7l-3-68.3-39.5 7.6 34.6 44.6z"/><path fill="#fff" d="M127 57l83 125 17-48z"/><path fill="#a4a4a4" d="M229 133l20 24-1-66z"/><path fill="#fff" d="M250 0h6v164h-6z"/><path fill="#fff" d="M204-16l-69 50L251 3z"/><path fill="#5f5f5f" d="M197 108l-5-17-4 14z"/><path fill="#fff" d="M225 0h4v117h-4z"/><circle cx="101" cy="79" r="85" fill="#fff"/><path fill="#818181" d="M230 9l21-5-12 36z"/><path fill="#969696" d="M5 62l1 7 16-3z"/><ellipse cx="132" cy="178" fill="#fff" rx="255" ry="8"/><ellipse cx="212" cy="66" fill="#fff" rx="1" ry="98"/><circle r="1" fill="#b0b0b0" transform="matrix(-6.52441 -.43757 .34178 -5.09612 10.9 36.6)"/><path fill="#b8b8b8" d="M8.2 153l12.8-1.1-8.3 10.6-11.4-6.1z"/><path fill="#686868" d="M182 25.1l17-5.5 28.5-8.4-6 10.5z"/><ellipse cx="217" cy="167" fill="#d7d7d7" rx="231" ry="3"/><path fill="#fff" d="M162.6 91.2l6.2-65.2 35.1 19.6-10.2 19.1z"/><ellipse cx="197" cy="9" fill="#f3f3f3" rx="2" ry="109"/><path fill="#747474" d="M249.6 152.6l-.6.8-50.6-44 .6-.8z"/><path fill="#fff" d="M216.7 126l-21-16.3-114.8 59.2 154.8-26.5z"/><path fill="#747474" d="M5 122h4v8H5z"/><ellipse cx="255" cy="28" fill="#fff" rx="6" ry="137"/><path fill="#ececec" d="M231 95l-5 24 18 20z"/><ellipse cy="96" fill="#b3b3b3" rx="21" ry="3"/><path fill="#fff" d="M225 0h3v163h-3z"/></g></g></svg>