<svg xmlns="http://www.w3.org/2000/svg" viewBox="0 0 320 240"><defs/><filter id="prefix__a"><feGaussianBlur stdDeviation="12"/></filter><rect width="100%" height="100%" fill="#0d2c73"/><g filter="url(#prefix__a)"><g fill-opacity=".5" transform="matrix(1.25 0 0 1.25 .6 .6)"><circle r="1" transform="rotate(89.6 37.7 147.8) scale(63.10098 56.59775)"/><circle cx="183" cy="108" r="57"/><circle r="1" transform="matrix(-8.27872 23.24304 -22.13685 -7.88472 102.9 108.9)"/><circle r="1" fill="#1345c2" transform="rotate(-26.9 142.7 -42.8) scale(254.57036 57.0612)"/><circle r="1" fill="#1446c3" transform="matrix(-110.6429 -41.91489 16.02552 -42.30262 79.2 171.7)"/><ellipse cx="245" cy="113" fill="#164dcc" rx="14" ry="255"/><ellipse cx="101" cy="108" rx="21" ry="24"/><path fill="#030000" d="M179 29h16v163h-16z"/><circle r="1" fill="#194ebe" transform="matrix(23.77274 17.33538 -13.2084 18.11323 218.4 31.1)"/><circle cx="182" cy="115" r="53"/><path fill="#1f5dd7" d="M200 200.2l-5.3-29.5 39.4-7 5.2 29.6z"/><path fill="#2061e2" d="M225 109.8L239.8 95l9.2 9.2-14.8 14.8z"/><circle r="1" fill="#3874c5" transform="matrix(16.66783 -35.10236 4.52983 2.15092 140.1 59.6)"/><path fill="#397cd7" d="M70.2 136.2l32.6-1.7 25.9-11 9.9 25z"/><path fill="#010000" d="M148 53h78v108h-78z"/><path fill="#2362c2" d="M39.4 110.4l70.7-45-42.5 43.3 46.9 41.8z"/><ellipse cx="103" cy="109" rx="23" ry="24"/><ellipse cx="160" cy="174" fill="#2d6dcd" rx="21" ry="7"/><path fill="#3f7ecc" d="M186 46l-44 4 25-14z"/><path fill="#346fbe" d="M121 83l-39 2 79-34z"/><path fill="#010000" d="M114 115.7L238 143l-3-13.5-46.3-91.4z"/><path fill="#010000" d="M151.5 167.1l81.1-66.9 5.1-25-90.4-20.9z"/><path fill="#3d75ba" d="M192 188l51.4-51.4-49.9 57.7-42.9-10.5z"/><path fill="#020000" d="M70 103h102v11H70z"/><path fill="#4583c9" d="M218 55l-26-14 44 8z"/><circle r="1" fill="#0b3197" transform="matrix(47.1653 6.20943 -29.78138 226.21205 15.5 88)"/><path fill="#5187b6" d="M134.3 153.1l-5.3-18.6 20.8 22.3-3.2 18.8z"/><path fill="#296ece" d="M177 19l24-10-41 41z"/><path fill="#3d77cb" d="M103.3 83.3l20.6 8.1 3.2 14 5.7-31.4z"/><circle r="1" transform="matrix(-8.34455 -.24589 .14828 -5.03193 188 35.3)"/><path fill="#050000" d="M179 157l16 18-9 24z"/><circle cx="231" cy="18" r="33" fill="#09319c"/><path fill="#2d69c1" d="M215.8 44l-21.9-20.4 3.4 18.4-11 6.2z"/><path fill="#010000" d="M162 49h50v34h-50z"/><path fill="#285eb5" d="M235 68h8v71h-8z"/><path fill="#4879b3" d="M129 153.9l-48.4-29.8 4.9-3.9L57.4 107z"/><path fill="#70a9d6" d="M183.4 169.5l.1 1-29 2v-1z"/><ellipse cx="190" cy="139" rx="39" ry="31"/><path fill="#4a76a0" d="M221.6 164.4l-29.7 6.4 6.2 13.2 25.2-28.7z"/><path fill="#599bd9" d="M234 71l-6-6 5-15z"/><path fill="#0c3297" d="M0 1h173v44H0z"/><circle cx="227" cy="57" r="4" fill="#080000"/><path fill="#020000" d="M89 85h4v49h-4z"/><path fill="#68a4cb" d="M86 88l-14 14 7 1z"/><path fill="#4f92d5" d="M174 177l5 30h20z"/><ellipse cx="187" cy="179" rx="9" ry="8"/><path fill="#062e99" d="M268.1 201.5l-64.6 6.8-3.6-33.8 64.6-6.8z"/><path fill="#020100" d="M136.5 150.5l25.3-26.6 68.9 33.8.3 6z"/><path fill="#0e39a2" d="M275.5 113.4L240 132.2l-13.6-25.6L262 87.8z"/><path fill="#090300" d="M178 33l12-10 5 48z"/><path d="M139.4 70.8l-9.7 53.8 86.9-17.7-79.4-41.8z"/><path fill="#3c79d4" d="M125.3 131.1l-2.9-1 4.3-13.2 2.9 1z"/><path fill="#0a40b2" d="M135.7 55.5L127.5 86l-.2-1.9-59.8-5.5z"/><path fill="#030300" d="M179.9 171.8l-35-14.7 6 12.3 33.6-76.5z"/><path fill="#568dc1" d="M164.3 165.5l-35.2 10.3 29.5-12.7 5.2 6.3z"/><path fill="#4c84c2" d="M217 163l-7.8 3.5 35.2-2-9.5-1.3z"/><path fill="#6999b9" d="M173 46l-7-5-12 14z"/><circle cx="208" cy="87" r="27"/><path fill="#316fc5" d="M230 145l1 28 12-34z"/><path fill="#010000" d="M104 82L82 97l22 38z"/><path fill="#1956c5" d="M85 149l-5-38-13 10z"/><path fill="#06319e" d="M131.8 184.9l27.1-17 13.3 21.2-27.1 17z"/><path fill="#010000" d="M69 105h73v8H69z"/><path fill="#083eb1" d="M76 138h54v13H76z"/></g></g></svg>