<svg xmlns="http://www.w3.org/2000/svg" viewBox="0 0 700 525"><defs/><filter id="prefix__a"><feGaussianBlur stdDeviation="12"/></filter><rect width="100%" height="100%" fill="#816864"/><g filter="url(#prefix__a)"><g fill-opacity=".5" transform="translate(1.4 1.4) scale(2.73438)"><circle r="1" fill="#ffff6b" transform="rotate(-171.9 124.4 38) scale(33.57125 229.97131)"/><circle r="1" fill="#2b84f1" transform="rotate(-56 155 -74.7) scale(73.39424 73.18201)"/><ellipse cx="151" cy="86" fill="#ffffc2" rx="36" ry="33"/><circle r="1" fill="#fff" transform="matrix(-26.20483 7.54436 -24.17866 -83.98294 244.8 39.9)"/><circle r="1" fill="#860000" transform="matrix(-65.83654 245.70532 -41.7306 -11.18168 25.3 70.2)"/><circle r="1" fill="#fa0" transform="matrix(-93.30846 81.71154 -29.30393 -33.46289 221.5 174.6)"/><circle r="1" fill="#003" transform="matrix(-13.82182 5.28747 -27.46638 -71.79909 186.3 24.7)"/><path fill="#00008f" d="M60 96l146 34-84 29z"/><circle r="1" fill="#bb2f00" transform="matrix(-89.06057 -19.41834 5.73023 -26.28123 53.3 182.7)"/><path fill="#1c001d" d="M219-6L33 54l60-70z"/><path fill="#00005c" d="M215 30l1 77-56 45z"/><path fill="#4bccff" d="M42.6 57l15.8-13.8 19 21.9-15.8 13.7z"/><path fill="#002eb7" d="M89.6 138.7l-11-89.3 33.8-4.1 11 89.3z"/><ellipse cx="153" cy="84" fill="#de7400" rx="14" ry="16"/><circle cx="255" cy="10" r="46" fill="#efffff"/><path fill="#0b6fed" d="M85 149l-37 11-1-35z"/><path fill="#1a0027" d="M174-14l39 62L67-10z"/><circle r="1" fill="#fa8700" transform="rotate(178.9 103.7 91) scale(59.09752 26.68488)"/><path fill="#7dbbe3" d="M115 36.2l31.5-6.6L96.2 9.4l4.1 24.9z"/><path fill="#b24700" d="M56 203L3-16l-18 221z"/><path fill="#ffffd8" d="M67 125h21v17H67z"/><circle r="1" fill="#ffec5d" transform="rotate(-117.2 152.4 -18) scale(38.56313 21.13837)"/><path fill="#560c14" d="M83.1 148.3l83.1 56.1-134-51.6 22.4 23.4z"/><path fill="#effff6" d="M142 121l-5-67-21 46z"/><path fill="#6bc2f0" d="M188 100l-49-87 50 39z"/><circle cx="74" cy="65" r="10" fill="#fcffd1"/><circle r="1" fill="#731305" transform="rotate(57.3 33.1 60.6) scale(35.19779 66.20182)"/><ellipse cx="36" cy="97" fill="#5f110e" rx="21" ry="44"/><path fill="#faffe0" d="M129 153h12v18h-12z"/><path fill="#0966d9" d="M83.6 61.9L81.3 74l95.9-28.5L126.4 29z"/><circle cx="100" cy="144" r="8" fill="#ffffca"/><circle r="1" fill="#000472" transform="rotate(139.8 69 91.4) scale(50.57598 8.19823)"/></g></g></svg>