<svg xmlns="http://www.w3.org/2000/svg" viewBox="0 0 889 300"><defs/><filter id="prefix__a"><feGaussianBlur stdDeviation="12"/></filter><rect width="100%" height="100%" fill="#f9f8f8"/><g filter="url(#prefix__a)"><g fill-opacity=".5" transform="translate(1.7 1.7) scale(3.47266)"><ellipse cx="88" cy="51" fill="#643b4c" rx="58" ry="3"/><ellipse cx="180" cy="52" fill="#8299aa" rx="114" ry="2"/><circle r="1" fill="#b1b6b0" transform="matrix(39.21849 -.27891 .01691 2.3782 116 69)"/><path fill="#fff" d="M93-3l30 104 5-117z"/><path fill="#ff4a17" d="M47 50h35v4H47z"/><path fill="#b2b8b3" d="M35 5h36v7H35z"/><path fill="#adb2ac" d="M82 23h33v7H82z"/><circle cx="170" cy="21" r="43" fill="#fff"/><path fill="#0054ba" d="M138.8 54.3l-10-.7.4-4 10 .8z"/><path fill="#584a46" d="M47 16h1v42h-1z"/><path fill="#a49c97" d="M196 50h48v4h-48z"/><circle r="1" fill="#fff" transform="matrix(24.26436 -6.3204 25.95223 99.63213 23.5 60.9)"/><path fill="#a3a7a0" d="M79 63l-5 7 17 2z"/><circle r="1" fill="#fff" transform="matrix(41.31341 10.14913 -5.02851 20.46925 202.6 74.6)"/><path fill="#fff" d="M262 0L138-16l133 84z"/><path fill="#1d292f" d="M98 35h1v16h-1z"/><ellipse cx="150" cy="51" fill="#627b8e" rx="68" ry="1"/><path fill="#1363af" d="M82 50h27v3H82z"/><path fill="#fff" d="M30.5-.3L174.3-16l22.2 73.3-46.9-19.5z"/><circle cx="13" cy="49" r="3" fill="#707775"/><path fill="#bfc3bf" d="M124 67h40v6h-40z"/><path fill="#fff" d="M91 0h20v26H91z"/><path fill="#0b78c0" d="M126 49h13v4h-13z"/><ellipse cx="130" cy="85" fill="#fff" rx="255" ry="14"/><path fill="#fff" d="M120 100l-16-71 21 18zm55 1l26-51 70 27z"/><circle r="1" fill="#fff" transform="matrix(-5.91054 -16.85667 36.79572 -12.90187 39.4 76)"/><path fill="#fff" d="M83.8 15.4l-1.7 33-32-1.8 1.8-33z"/><path fill="#afb4b1" d="M135 71.6l-10-.2v-7l10 .2z"/><circle cx="37" cy="8" r="3" fill="#696969"/><path fill="#686c6a" d="M84 27h24v1H84z"/><path fill="#fff" d="M69.1-16L39.7 9.1l54.6-7.4 1.4 39.6z"/><circle r="1" fill="#fd8b72" transform="matrix(-19.6208 .8463 -.10382 -2.40692 59.9 51.7)"/><path fill="#fff" d="M232 101l39-76.9L165.1-16l82.1 59.6z"/><path fill="#b0aeac" d="M199 48l14 6 11-3z"/><path fill="#131517" d="M98.5 68.6l9-.2v1l-9 .2z"/><circle r="1" fill="#858584" transform="matrix(1.87871 -.7202 .7883 2.05636 98.5 37.3)"/><path fill="#6a829b" d="M84 51h43v2H84z"/><path fill="#fcfefc" d="M129 55h4v25h-4z"/><circle cx="85" cy="25" r="3" fill="#787976"/><path fill="#151716" d="M147 69.3v-1l8 .4v1z"/><circle cx="47" cy="47" r="2" fill="#3f4540"/><path fill="#fff" d="M17 15h29v36H17zm67.3 49.4l-57-8.7 87-.9-37.6 17.8z"/><ellipse cx="162" cy="52" fill="#ada8a4" rx="21" ry="1"/><path fill="#2b282a" d="M10 52h2v2h-2z"/><path fill="#5f5b5b" d="M109 26h4v2h-4z"/><path fill="#fff" d="M145 53h56v16h-56z"/><ellipse cx="225" cy="23" fill="#fff" rx="110" ry="26"/><path fill="#fff" d="M168 101h-47l79-62z"/><path fill="#446ba3" d="M82 50h19v4H82z"/><path fill="#fff" d="M256.9 38.8l-2 62.2-25.7-51.2-19 51.2zm-217-20.5L-16-16l38 65.7-14 9.8z"/><path fill="#bdbfbb" d="M42 8h27v3H42z"/><path fill="#c0e8f9" d="M83 49h50v1H83z"/><path fill="#89908c" d="M88 69h5v3h-5z"/><path fill="#fff" d="M64.4-7.2L61 13.6l-16.1.8 9.8 12.1z"/><path fill="#9e9c95" d="M158 63h2v9h-2z"/><circle cx="79" cy="68" r="3" fill="#919797"/><ellipse cx="108" cy="80" fill="#fff" rx="2" ry="28"/><ellipse cx="159" cy="60" fill="#fff" rx="39" ry="8"/><ellipse cx="59" cy="51" fill="#e75f48" rx="17" ry="2"/><path fill="#9c9f99" d="M41.8 14l3.6-4.7.8.6-3.6 4.8z"/><path fill="#fff" d="M86 98l-11 3 7-34z"/></g></g></svg>