<svg xmlns="http://www.w3.org/2000/svg" viewBox="0 0 1200 210"><defs/><filter id="prefix__a"><feGaussianBlur stdDeviation="12"/></filter><rect width="100%" height="100%" fill="#f2f1f1"/><g filter="url(#prefix__a)"><g fill-opacity=".5" transform="translate(2.3 2.3) scale(4.6875)"><path fill="#745464" d="M31 21h210v4H31z"/><path fill="#fff" d="M151.2-16L-16 2.4l168.4 17.3-33.8 19z"/><circle r="1" fill="#ff8d6d" transform="matrix(31.10914 .11949 -.00829 2.1575 202 22)"/><circle r="1" fill="#fff" transform="matrix(-70.20462 -58.74733 3.36164 -4.01725 63.4 36)"/><path fill="#f4faf7" d="M166.6 15.8l10.9 26.1-78.9-22.5 26.8 38z"/><path fill="#fff" d="M193.1 58l36.1-48.8L111 6.7 271-16z"/><path fill="#babeb9" d="M14 32h121v3H14z"/><path fill="#0261ad" d="M79 21h20v4H79z"/><path fill="#ff6136" d="M54 20h19v5H54z"/><path fill="#0073c3" d="M230 21h13v4h-13z"/><ellipse cx="33" cy="23" fill="#005cb1" rx="7" ry="2"/><path fill="#b3b8b3" d="M169 35v-6h24v6z"/><path fill="#b5bbb5" d="M189 11h30v5h-30z"/><path fill="#fff" d="M67 58l7-31-87 19z"/><path fill="#afb4ae" d="M140 10h25v5h-25z"/><path fill="#939892" d="M221 32h26v3h-26z"/><path fill="#b5bbb4" d="M58 10h25v6H58z"/><path fill="#fff" d="M108 59l14-75-21 21z"/><ellipse cx="174" cy="41" fill="#fff" rx="96" ry="8"/><ellipse cx="194" cy="22" fill="#f46042" rx="27" ry="2"/><circle r="1" fill="#fff" transform="matrix(-.06747 -11.60795 175.31624 -1.01898 124.6 0)"/><ellipse cx="122" cy="23" fill="#006cc5" rx="6" ry="2"/><path fill="#0054c0" d="M158.4 21.7l.1 1-10.9 1.6-.1-1z"/><path fill="#fff" d="M21.1 29.2L70.6-16-16-10 3.3 54.3z"/><path fill="#b0b2af" d="M115 31h29v4h-29z"/><path fill="#fff" d="M217 0h39v22h-39zM39 0h17v28H39z"/><circle r="1" fill="#7c837b" transform="rotate(43.4 -25.6 16.4) scale(1 3.78891)"/><ellipse cx="32" cy="22" fill="#4c748e" rx="14" ry="1"/><path fill="#fff" d="M126 23.7l22-.4v7l-22 .4z"/><ellipse cx="105" cy="17" fill="#fff" rx="218" ry="3"/><ellipse cx="117" cy="22" fill="#4b7ea1" rx="41" ry="1"/><path fill="#fff" d="M164 25h92v5h-92z"/><path fill="#b8bdb8" d="M72.8 29.1l8.4 1.4 13.9 3.3-17 2.3z"/><path fill="#fff" d="M129 42l42-23-15 40z"/><path fill="#fdfffd" d="M131.2 33.1l20.6-3.4-29.6-42.5 5.3 39.9z"/><path fill="#fa5b39" d="M62 21h13v4H62z"/><ellipse cx="122" cy="43" fill="#fff" rx="201" ry="8"/><path fill="#0274bf" d="M148 23.3v-3l10 .4v3z"/><path fill="#606560" d="M23 29l-5 6 2-6z"/><ellipse cx="72" cy="27" fill="#fff" rx="231" ry="2"/><ellipse cx="37" cy="33" fill="#868988" rx="11" ry="1"/><path fill="#a3a5a0" d="M142 9l-3 4 11 2z"/><ellipse cx="88" cy="22" fill="#6282a8" rx="14" ry="3"/><path fill="#939893" d="M221 29h5v5h-5z"/><circle cx="61" cy="12" r="3" fill="#8a8d8a"/><path fill="#f2826a" d="M170 21h49v4h-49z"/><ellipse cx="68" cy="18" fill="#feffff" rx="62" ry="3"/><path fill="#f2f8f5" d="M231.3 21.8L216.4 34l6.9-20.1 2.7 28.3z"/><path fill="#fff" d="M50 27h22v17H50zM87 0h54v20H87z"/><circle cx="30" cy="22" r="2" fill="#0163ac"/><path fill="#b8bbb7" d="M156 12l13 2 1-5z"/><circle cx="116" cy="31" r="2" fill="#6e6f6c"/><path fill="#bec2be" d="M169 31h28v4h-28z"/><path fill="#2873ab" d="M231 20.7l12-.4v3l-12 .4z"/><circle cx="191" cy="11" r="3" fill="#929592"/><path fill="#a9aba6" d="M39 22h17v2H39z"/><circle cx="75" cy="31" r="2" fill="#747670"/><path fill="#fff" d="M261.7 59L240.3-4.2l1.9 33.5L252.7-16z"/><path fill="#fff" d="M132.3 7.6l47.8 7.1L258.8-16 58.1 12.5zM154 49.1l24.1-20.4L165.3 59l27-27.7z"/><circle cx="171" cy="31" r="3" fill="#8e8f8c"/><path fill="#5a574f" d="M250 30h1v4h-1z"/></g></g></svg>