<svg xmlns="http://www.w3.org/2000/svg" viewBox="0 0 773 300"><defs/><filter id="prefix__a"><feGaussianBlur stdDeviation="12"/></filter><rect width="100%" height="100%" fill="#f5f4f4"/><g filter="url(#prefix__a)"><g fill-opacity=".5" transform="translate(1.5 1.5) scale(3.01953)"><ellipse cx="130" cy="73" fill="#765b7a" rx="109" ry="2"/><ellipse cx="74" cy="35" fill="#d91300" rx="20" ry="4"/><ellipse cx="161" cy="35" fill="#617380" rx="79" ry="2"/><path fill="#003999" d="M137 69h18v6h-18z"/><ellipse cx="176" cy="35" fill="#00469a" rx="11" ry="4"/><path fill="#df2780" d="M82 69h35v7H82z"/><path fill="#858985" d="M86.6 92.3l-.1-6 31-.6v6z"/><path fill="#fff" d="M152 74h104v25H152z"/><path fill="#b1b7b1" d="M157 16h50v9h-50z"/><path fill="#9ca19a" d="M52 17h38v6H52z"/><path fill="#fff" d="M91 36h78v14H91z"/><path fill="#969c96" d="M131 54h46v5h-46z"/><ellipse cx="6" cy="71" fill="#fff" rx="48" ry="176"/><path fill="#fff" d="M189 36h67v36h-67z"/><path fill="#8a8f8a" d="M54.3 54l20.9-2 .5 6-20.9 1.8z"/><ellipse cx="193" cy="8" fill="#fff" rx="161" ry="10"/><path fill="#fff" d="M26 38h215v11H26z"/><path fill="#757974" d="M14 67l9-3-12 12z"/><circle r="1" fill="#a1959b" transform="rotate(-29.8 175 -145) scale(1 32.21094)"/><ellipse cx="46" cy="34" fill="#8b8784" rx="12" ry="2"/><path fill="#888c87" d="M16.1 27.2l-5.4 11 9.2-7 1.3-5.4z"/><path fill="#fff" d="M38 74h44v25H38z"/><path fill="#1178af" d="M137 69h16v7h-16z"/><path fill="#92958d" d="M63 13l-11 7-3-6z"/><path fill="#8f948f" d="M133.1 47.9l-3.2 11.4 8.7-6.8 9.9 5.6z"/><path fill="#504f4c" d="M183 20h17v2h-17z"/><path fill="#fff" d="M134.2 70.6l-34.6-1.2-7.5-13.9 97.5 12z"/><circle cx="94" cy="67" r="2" fill="#000301"/><path fill="#fff" d="M119 74h18v25h-18z"/><path fill="#656660" d="M167 14l-7 6-1-6z"/><ellipse cx="193" cy="88" fill="#fff" rx="75" ry="15"/><ellipse cx="127" cy="9" fill="#fff" rx="34" ry="24"/><ellipse cx="64" cy="73" fill="#766869" rx="27" ry="1"/><path fill="#fff" d="M258.6-3.2l-3.4 38.8-49.8-4.4 3.4-38.8zM16.7 65.4l46.2-67L5-16 38.8 84.6z"/><path fill="#7a8285" d="M112 34h130v2H112z"/><path fill="#1b77b5" d="M175 32h14v6h-14z"/><path fill="#fff" d="M187 36h69v35h-69z"/><path fill="#898a83" d="M81 86h7v6h-7z"/><path fill="#fff" d="M92 36h76v10H92z"/><path fill="#ef5a39" d="M60 32h32v5H60z"/><path fill="#a6adab" d="M89 16h8v7h-8z"/><ellipse cx="165" cy="63" fill="#fff" rx="14" ry="7"/><ellipse cx="219" cy="72" fill="#818a80" rx="23" ry="1"/><path fill="#627569" d="M150 73h93v1h-93z"/><ellipse cx="124" cy="80" fill="#fff" rx="226" ry="5"/><path fill="#e95333" d="M56 36.9l-.9-5 5-.8.8 5z"/><path fill="#fff" d="M191.2-8.5l-5.2 40 81.3-1.5-82.5-8zM34 33l31-16-8 15z"/><ellipse cx="100" cy="72" fill="#e460a2" rx="19" ry="3"/><path fill="#fff" d="M25 74h57v25H25z"/><path fill="#293134" d="M177 51h1v7h-1z"/><path fill="#a1a2a0" d="M147 55.4l.2-3 23.9 2.2-.3 3z"/><path fill="#46515e" d="M90 14h2v3h-2z"/><circle cx="58" cy="52" r="4" fill="#adb0ac"/><path fill="#fff" d="M181.4 18.2l21.6 2.1L220.1-16 125.5 9.4z"/><path fill="#fff" d="M-16 4.5l71.2 28-3.6-18.6L271-12.8zM157 54h19l-13-17zM93 36h36v28H93z"/><path fill="#a4a6a4" d="M166.8 28.3l-.8-.6 7.2-12 .8.6z"/><path fill="#090a10" d="M53.1 13.5l.8 7h-1l-.8-7z"/><path fill="#0d1723" d="M101 83h1v4h-1z"/><path fill="#919390" d="M18 30l-5-6 1 12z"/><path fill="#fff" d="M89.9-16l6.7 48.9L86.3 2.2-16 39.1z"/></g></g></svg>