<svg xmlns="http://www.w3.org/2000/svg" viewBox="0 0 917 300"><defs/><filter id="prefix__a"><feGaussianBlur stdDeviation="12"/></filter><rect width="100%" height="100%" fill="#f5f4f3"/><g filter="url(#prefix__a)"><g fill-opacity=".5" transform="translate(1.8 1.8) scale(3.58203)"><circle cx="207" cy="67" r="9" fill="#006d00"/><path fill="#d75f98" d="M181 24h50v16h-50z"/><path fill="#da1600" d="M52.6 25.6l-23 .8-.2-4 23-.8z"/><ellipse cx="76" cy="46" fill="#96799d" rx="57" ry="2"/><ellipse cx="104" cy="24" fill="#005299" rx="7" ry="3"/><path fill="#fff" d="M198 0h18v40h-18z"/><path fill="#3cae01" d="M198 60h15v16h-15z"/><circle r="1" fill="#fff" transform="matrix(10.4253 32.81628 -69.25463 22.00129 123.6 69.7)"/><path fill="#d44c92" d="M218 22h15v15h-15z"/><ellipse cx="189" cy="29" fill="#d54890" rx="8" ry="9"/><circle r="1" fill="#fff" transform="matrix(19.32814 -6.32686 21.62358 66.0586 24.8 61.2)"/><path fill="#878c94" d="M48 23h94v2H48z"/><ellipse cx="173" cy="56" fill="#999d98" rx="15" ry="2"/><path fill="#bd9c94" d="M28 33h26v5H28z"/><path fill="#a3a8a4" d="M224 65h21v5h-21z"/><path fill="#5097be" d="M98.7 46.8L82.4 50l-3.6-1.8 6.1-5.1z"/><path fill="#a3a9a5" d="M52 56h18v5H52z"/><circle r="1" fill="#fff" transform="matrix(-1.2246 19.8939 -54.28639 -3.34167 158.8 4.2)"/><path fill="#989d98" d="M96 14h32v3H96z"/><path fill="#999e99" d="M76 35h31v3H76z"/><path fill="#989e99" d="M29 13h27v3H29z"/><ellipse cx="57" cy="47" fill="#e23488" rx="12" ry="2"/><path fill="#fff" d="M215.6 98l-21.3-33.2-82-18L-16 81.5z"/><circle r="1" fill="#fff" transform="rotate(74 104.4 175.4) scale(97.50776 11.19324)"/><path fill="#a2a6a3" d="M199 40h17v4h-17z"/><path fill="#fff" d="M174 20v30L87 27z"/><ellipse cx="74" cy="3" fill="#fff" rx="221" ry="8"/><path fill="#bd2200" d="M204 29h5v4h-5z"/><path fill="#feffff" d="M238.9-16l-45.6 56.6L245.2 98l-47.7-72.9z"/><path fill="#5b5d59" d="M186.2 12.4l-.7-.7 4.3-4.1.7.7z"/><path fill="#fff" d="M215.6 34.3l20.2 17.5L271 78.4l-59.7-24.8z"/><path fill="#004a9f" d="M91.4 46l.1 1-11 1v-1z"/><path fill="#fff" d="M18.8 61l149.9 37 39.7-45.4-26.4 6.7z"/><path fill="#5a2740" d="M54.5 42l.9.4-1.9 3.6-.9-.4z"/><path fill="#be83a1" d="M193.2 40.4l4.4 15.3L187.1 36l9.6-2.1z"/><ellipse cx="5" cy="45" fill="#7e827b" rx="2" ry="3"/><path fill="#fff" d="M52 0h45v23H52z"/><ellipse cx="133" cy="47" fill="#828382" rx="12" ry="1"/><path fill="#d11a06" d="M48 34h4v4h-4z"/><path fill="#fff" d="M77 24l-30 1 32 28z"/><path fill="#fefffe" d="M193.3-16l74.6 73.5-42.2-37.6-17.6 11.5z"/><circle r="1" fill="#54ad2f" transform="matrix(-8.20455 -2.90538 2.33546 -6.59514 206.4 69.7)"/><path fill="#a3a6a3" d="M45 57h24v3H45z"/><ellipse cx="84" cy="47" fill="#a097a0" rx="63" ry="1"/><circle cx="29" cy="13" r="3" fill="#91928c"/><ellipse cx="248" cy="77" fill="#fff" rx="39" ry="7"/><path fill="#9a9f98" d="M9 23H2l6-5z"/><circle cx="223" cy="11" r="4" fill="#b8bcb6"/><path fill="#949695" d="M20.6 25l8.4-3 .3 1-8.5 2.8z"/><path fill="#fff" d="M100 35l-24-5 23-8z"/><ellipse cx="174" cy="56" fill="#c9ccc9" rx="18" ry="3"/><path fill="#fff" d="M42 30h5v16h-5z"/><circle cx="99" cy="14" r="3" fill="#949893"/><ellipse cx="124" cy="42" fill="#fff" rx="51" ry="4"/><path fill="#9c7262" d="M204 29h10v2h-10z"/><circle r="1" fill="#fff" transform="matrix(-22.2965 10.30243 -5.37469 -11.63189 239.6 47.5)"/><circle r="1" fill="#fff" transform="matrix(21.21092 -17.98817 23.47469 27.6804 29.1 81.6)"/><circle r="1" fill="#fff" transform="matrix(11.1519 10.902 -21.40203 21.89261 163.2 26)"/><path fill="#d95095" d="M219 34h11v5h-11z"/><path fill="#b8bcb8" d="M83.2 39.8L80.7 28l-2 9.3 16.6 1.2z"/><path fill="#feffff" d="M213 30l-12 6 20 4z"/><path fill="#005fb2" d="M105 22h5v3h-5z"/><path fill="#fff" d="M0 26h44v9H0zm69 23h92v34H69z"/></g></g></svg>