<svg xmlns="http://www.w3.org/2000/svg" viewBox="0 0 1322 300"><defs/><filter id="prefix__a"><feGaussianBlur stdDeviation="12"/></filter><rect width="100%" height="100%" fill="#f5f4f4"/><g filter="url(#prefix__a)"><g fill-opacity=".5" transform="translate(2.6 2.6) scale(5.16406)"><ellipse cx="152" cy="16" fill="#b09fa3" rx="147" ry="2"/><ellipse cx="59" cy="35" fill="#7d4687" rx="23" ry="2"/><path fill="#87457d" d="M166 35h43v3h-43z"/><ellipse cx="196" cy="51" fill="#8a8b8b" rx="24" ry="2"/><circle r="1" fill="#fff" transform="rotate(76 37.8 100.9) scale(49.93187 32.02343)"/><ellipse cx="62" cy="50" fill="#858686" rx="20" ry="2"/><path fill="#9ca29d" d="M195 26h40v3h-40z"/><path fill="#f85531" d="M26 15h19v4H26z"/><ellipse cx="165" cy="17" fill="#eb684c" rx="14" ry="2"/><circle r="1" fill="#fff" transform="rotate(-144.8 127.9 -9.6) scale(21.0445 76.94539)"/><path fill="#2779b3" d="M208 16h29v3h-29z"/><circle r="1" fill="#fbfffe" transform="rotate(-100.9 98.4 -68.5) scale(24.39699 13.63787)"/><ellipse cx="241" cy="9" fill="#c3c7c3" rx="106" ry="2"/><ellipse cx="132" cy="36" fill="#9a8a99" rx="114" ry="1"/><path fill="#fff" d="M219 2l-3 22 14-2z"/><ellipse cx="53" cy="43" fill="#fff" rx="215" ry="7"/><path fill="#fff" d="M23.8-16l33.7 50.9L59 49.7 87.5-1.7z"/><path fill="#c6321e" d="M166 24h4v5h-4z"/><path fill="#acb1ab" d="M64 25h26v4H64z"/><circle r="1" fill="#c27e7d" transform="matrix(4.66531 8.24592 -.87036 .49242 43.3 28.5)"/><path fill="#3f8ec3" d="M79 15h14v4H79z"/><ellipse cx="32" cy="8" fill="#aab1aa" rx="8" ry="3"/><path fill="#b3b7b2" d="M79 7h26v4H79z"/><ellipse cx="200" cy="35" fill="#417da2" rx="7" ry="2"/><path fill="#fff" d="M-2.4 14.9l39.8 3.5-5 56.7-39.8-3.5z"/><ellipse cx="80" cy="29" fill="#fffffe" rx="4" ry="19"/><ellipse cx="78" cy="16" fill="#848388" rx="41" ry="1"/><ellipse cx="105" cy="35" fill="#b0b3b0" rx="28" ry="1"/><path fill="#fff" d="M160.5 6.6L84.4 9l94.1-25L199 18z"/><ellipse cx="131" cy="22" fill="#fff" rx="12" ry="108"/><ellipse cx="175" cy="35" fill="#ed4b97" rx="9" ry="2"/><ellipse cx="174" cy="55" fill="#fff" rx="149" ry="4"/><ellipse cx="120" fill="#fff" rx="255" ry="6"/><ellipse cx="194" cy="27" fill="#a4a8a2" rx="4" ry="3"/><circle cx="71" cy="35" r="3" fill="#1f8ec5"/><path fill="#d86b5c" d="M37.7 30l-.6-.8 7.2-5.2.6.8z"/><circle cx="206" cy="36" r="3" fill="#ff9571"/><path fill="#888a7f" d="M129.5 37.6l-.8-.6 3.8-4.6.8.6z"/><circle r="1" fill="#b9beb8" transform="matrix(2.46405 2.3383 -1.80882 1.9061 7.8 36.4)"/><circle r="1" fill="#e0aec3" transform="matrix(.04816 -1.02119 25.66814 1.21048 44.1 36.7)"/><path fill="#f9fef9" d="M202 10h3v31h-3z"/><path fill="#fff" d="M239 12l19 61 13-71z"/><ellipse cx="152" cy="7" fill="#8b8f8e" rx="2" ry="3"/><ellipse cx="220" cy="8" fill="#c0c2bf" rx="29" ry="2"/><ellipse cx="64" cy="51" fill="#a5a5a5" rx="21" ry="2"/><path fill="#aeb3ad" d="M43 6h5v5h-5z"/><path fill="#fff" d="M46 19h191v6H46z"/><path fill="#f6421f" d="M154 16h15v2h-15z"/><path fill="#fff" d="M218 17l9 4-2-37z"/><path fill="#848d88" d="M131 13h4v3h-4z"/><path fill="#fff" d="M80.3-5.8l.4 21-29 .6-.4-21z"/><path fill="#2f79b1" d="M239.5 15.5v3h-11v-3z"/><path fill="#fff" d="M175 15h31L176 3z"/><path fill="#879fad" d="M171 17h55v1h-55z"/><ellipse cx="84" cy="27" fill="#767875" rx="6" ry="1"/><path fill="#f93991" d="M42 35h13v2H42z"/><circle r="1" fill="#a4aaa4" transform="matrix(1.69476 -3.2646 .88753 .46075 6.2 16.5)"/><circle cx="171" cy="32" r="2" fill="#8d8e8e"/><path fill="#fff" d="M126 31.8l30.5 29.9 22.7-22.1-132.8-7.3z"/><circle cx="174" cy="50" r="3" fill="#acacac"/><path fill="#fff" d="M-16 19.7l31.9 15.2 29.2-3.3L19 17.1z"/><ellipse cx="88" cy="16" fill="#0264b3" rx="4" ry="2"/><path fill="#fff" d="M238 10h18v24h-18zM83 38h89v20H83z"/></g></g></svg>