<svg xmlns="http://www.w3.org/2000/svg" viewBox="0 0 1314 360"><defs/><filter id="prefix__a"><feGaussianBlur stdDeviation="12"/></filter><rect width="100%" height="100%" fill="#f7f6f6"/><g filter="url(#prefix__a)"><g fill-opacity=".5" transform="translate(2.6 2.6) scale(5.13281)"><ellipse cx="41" cy="22" fill="#b49d9e" rx="244" ry="2"/><path fill="#c86f9c" d="M56.6 40.6l-30.2-1.1 1.4.3 15.6-4.5z"/><path fill="#8ba1b0" d="M197 38h47v3h-47z"/><path fill="#929393" d="M155 61h44v3h-44z"/><circle r="1" fill="#fff" transform="matrix(-19.63955 58.81817 -32.92081 -10.99235 112.3 54.2)"/><path fill="#989999" d="M32 60h31v3H32z"/><path fill="#ce89ac" d="M183.1 41.1l-5.7-.8.1-2.9L137 40z"/><ellipse cx="128" cy="39" fill="#9d8b98" rx="112" ry="1"/><ellipse cx="164" cy="22" fill="#b47171" rx="19" ry="2"/><ellipse cx="169" cy="15" fill="#aeb3ae" rx="25" ry="2"/><circle r="1" fill="#fff" transform="matrix(-23.11833 4.21398 -23.41018 -128.43084 4.4 50.7)"/><ellipse cx="63" cy="15" fill="#babfba" rx="44" ry="2"/><path fill="#fff" d="M219.6 46.2L271 15.8l-72.8 26.7L248-16z"/><path fill="#fc461f" d="M39 22l-7-2-5 3z"/><ellipse cx="65" cy="22" fill="#767987" rx="51" ry="1"/><ellipse cx="205" cy="61" fill="#989999" rx="7" ry="2"/><path fill="#656666" d="M206 3h12v2h-12z"/><path fill="#caa89f" d="M164.2 28.2l-11.8 3.9-1.5 1.8 18-2.4z"/><path fill="#888e87" d="M49 48H35v-2h14z"/><path fill="#fff" d="M258 36l-73 23 71 2z"/><ellipse cx="97" fill="#fff" rx="106" ry="15"/><path fill="#a0a6a0" d="M176.8 44l.3 1.9-13.9 2.2-.3-2z"/><path fill="#a7ada8" d="M229 44.7v3l-18-.4v-3z"/><path fill="#fff" d="M166 0h7v37h-7zm-36 63h126v7H130zm-56.2-2.8l6.8-65.5-2.8 11.6-40.1 54.8z"/><ellipse cx="182" cy="22" fill="#c6746e" rx="41" ry="1"/><path fill="#fff" d="M192 60.3l16.3-41.1-29.8-1.6 34.2 43zm-43-.3l31-6-83-35z"/><path fill="#fff" d="M271 13.7L15.8-16 82.5 85 47.8 10.5z"/><path fill="#919491" d="M106 38h14v3h-14z"/><circle cx="214" cy="39" r="2" fill="#0052ad"/><path fill="#004bb0" d="M59 21h3v3h-3z"/><path fill="#d46fa1" d="M179 39l-10-4-12 4z"/><path fill="#c1bbb4" d="M146.7 29.7l18.9 1.6-.3 3-18.9-1.6z"/><path fill="#aeb2ac" d="M22 29h10v4H22z"/><circle cx="177" cy="23" r="3" fill="#38a8e9"/><path fill="#fff" d="M167 25h68v13h-68z"/><ellipse cx="105" cy="61" fill="#fff" rx="43" ry="22"/><circle r="1" fill="#0f79c0" transform="matrix(-4.67911 .09729 -.02616 -1.258 83.5 22.5)"/><ellipse cx="220" cy="22" fill="#b8948f" rx="32" ry="1"/><path fill="#fff" d="M271 22l-62.2-5.5 23.3 29.2-2.6-61.6z"/><path fill="#c07469" d="M205 23l4-7v5z"/><circle cx="7" cy="37" r="2" fill="#909793"/><circle r="1" fill="#e65ca0" transform="rotate(176.9 22.2 20) scale(8.27956 1)"/><circle cx="24" cy="14" r="2" fill="#737875"/><ellipse cx="133" cy="27" fill="#fefffe" rx="16" ry="20"/><path fill="#969696" d="M148.5 62.6l25-2.2v1l-25 2.2z"/><path fill="#a4a9a4" d="M206 44h6v5h-6z"/><circle r="1" fill="#939993" transform="rotate(164.9 2.2 10.5) scale(2.07393 1)"/><circle cx="163" cy="30" r="2" fill="#df5142"/><path fill="#fff" d="M27.8 85H-16L26.3 3.8.1-16z"/><path fill="#c0c4c1" d="M52 38h45v2H52z"/><path fill="#7b7f78" d="M131 36h3v3h-3z"/><path fill="#0065b7" d="M173 22h8v2h-8z"/><path fill="#8d908e" d="M107 23l-1-3 10 2z"/><ellipse cx="149" cy="54" fill="#fff" rx="255" ry="6"/><path fill="#fff" d="M100 0h6v70h-6z"/><path fill="#ff6c4b" d="M25 21h12v3H25z"/><circle r="1" fill="#006ebc" transform="matrix(-.76111 .64862 -1.09418 -1.28394 57.6 22.4)"/><path fill="#fff" d="M174 40h59v5h-59z"/><ellipse cx="135" cy="69" fill="#fff" rx="255" ry="6"/><circle cx="63" cy="22" r="2" fill="#1178bc"/><path fill="#fff" d="M41.6 37.2l6-14 77.9 6.1 10.2 7.4z"/></g></g></svg>