<svg xmlns="http://www.w3.org/2000/svg" viewBox="0 0 1066 360"><defs/><filter id="prefix__a"><feGaussianBlur stdDeviation="12"/></filter><rect width="100%" height="100%" fill="#f7f5f5"/><g filter="url(#prefix__a)"><g fill-opacity=".5" transform="translate(2 2) scale(4.16406)"><path fill="#ce5d56" d="M22 34h60v4H22z"/><ellipse cx="64" cy="54" fill="#c5251d" rx="25" ry="2"/><circle r="1" fill="#af9faa" transform="matrix(.0179 -1.55305 148.01006 1.70592 157.6 37.5)"/><circle r="1" fill="#be9da1" transform="rotate(179.9 91.5 28.7) scale(52.92483 1)"/><path fill="#0f70ad" d="M244.5 36.2v4l-21-.4v-4z"/><ellipse cx="194" cy="80" fill="#818383" rx="19" ry="2"/><path fill="#599cc7" d="M88.5 33.3l24 1.4 4.5 1.2-11.9 4.2z"/><circle r="1" fill="#fff" transform="matrix(10.13594 83.89585 -18.72036 2.26172 136.3 52.2)"/><path fill="#717373" d="M54 79h30v2H54z"/><ellipse cx="165" cy="38" fill="#e7390f" rx="10" ry="2"/><path fill="#acb2ad" d="M193 30h52v3h-52z"/><ellipse cx="90" cy="29" fill="#abb0ac" rx="28" ry="2"/><ellipse cx="226" cy="10" fill="#fff" rx="57" ry="19"/><ellipse cx="181" cy="65" fill="#acb2ad" rx="28" ry="2"/><path fill="#aab0aa" d="M27 62h47v3H27z"/><path fill="#fcffff" d="M82-16L46 64l59-67z"/><path fill="#d87885" d="M172 55h27v4h-27z"/><ellipse cx="12" cy="77" fill="#fff" rx="14" ry="179"/><path fill="#abb1aa" d="M18 6h22v4H18z"/><path fill="#fff" d="M85 101h49L85 13z"/><path fill="#ff3c0f" d="M26 35h32v2H26z"/><circle r="1" fill="#fff" transform="matrix(22.47026 -35.31265 16.37773 10.42153 240.7 71.6)"/><ellipse cx="89" cy="54" fill="#ac6f5e" rx="28" ry="1"/><path fill="#abb1ab" d="M148 8h21v4h-21z"/><path fill="#a5a9a7" d="M152.2 18.4l29.7 4.2-.1 1-29.7-4.2z"/><path fill="#003a94" d="M101 36.4l13.9-1.7.1 1-13.9 1.6z"/><ellipse cx="57" cy="18" fill="#bfc4c0" rx="13" ry="3"/><circle r="1" fill="#fff" transform="matrix(-61.5621 -10.19154 2.60127 -15.71302 94 9.5)"/><path fill="#fff" d="M224.7 29.6l17.4 71.4L219 36.5 203.3-8.6z"/><ellipse cx="29" cy="54" fill="#818a8d" rx="13" ry="1"/><ellipse cx="213" cy="38" fill="#666987" rx="33" ry="1"/><ellipse cx="53" cy="72" fill="#fff" rx="247" ry="6"/><path fill="#fff" d="M203-3l-19 70-3-73zM84 38h59v16H84z"/><path fill="#cac9c6" d="M54.2 30.6l8.5 4-11.6 19.9 10.7-33.1z"/><path fill="#9e818f" d="M196 56l-.9-.6 15-21.3.8.5z"/><ellipse cx="231" cy="36" fill="#fff" rx="58" ry="1"/><path fill="#b9b6b4" d="M26 13h2v33h-2z"/><path fill="#978196" d="M45 56.5L36 42l1-.6L46 56z"/><ellipse cx="68" cy="55" fill="#ef6c4a" rx="14" ry="2"/><path fill="#a1918b" d="M155 16h2v24h-2z"/><path fill="#b3b9b4" d="M10.6 56.7L7.4 59l-4-5.7L6.6 51z"/><path fill="#c5c5c3" d="M171 27h3v32h-3z"/><path fill="#bbbfba" d="M67 26h12v6H67z"/><path fill="#acadad" d="M50 78h33v3H50z"/><path fill="#fff" d="M30.6 80.7l24.2-21 6.6 7.6-24.2 21zm96.5-40.5L165.7 17 71 28.8 105.9-16z"/><path fill="#beb2ae" d="M81.4 36.7L86.2 59l-3.3-.8-.8-9.6z"/><path fill="#fff" d="M59 33h44v2H59z"/><path fill="#595e5d" d="M136.2 53.7l.8.7-3.2 3.9-.8-.7z"/><path fill="#fff" d="M184 60l-46 39 38-13z"/><ellipse cx="230" cy="57" fill="#c3c7c7" rx="16" ry="2"/><path fill="#ef58a0" d="M206 36h8v4h-8z"/><path fill="#f23c0b" d="M190 56h6v2h-6z"/><path fill="#bab9bb" d="M68.8 41.4l4.3-13.3.9 10.7-11.6 12.3z"/><path fill="#fff" d="M209 58h47v20h-47z"/><circle r="1" fill="#fff" transform="matrix(-67.38251 -13.32265 4.83566 -24.45752 211 0)"/><path fill="#fff" d="M30 37l12 16-58-12z"/><ellipse cx="230" cy="47" fill="#fff" rx="29" ry="7"/><circle r="1" fill="#fff" transform="rotate(108.9 39.4 89.5) scale(19.73025 55.54471)"/><circle cx="6" cy="85" r="30" fill="#fff"/><path fill="#0064b0" d="M227 39.1v-1l14-1.2v1z"/><path fill="#a5aba8" d="M5 32h4v6H5z"/><circle cx="135" cy="36" r="2" fill="#878f87"/></g></g></svg>