<svg xmlns="http://www.w3.org/2000/svg" viewBox="0 0 1069 380"><defs/><filter id="prefix__a"><feGaussianBlur stdDeviation="12"/></filter><rect width="100%" height="100%" fill="#f7f6f6"/><g filter="url(#prefix__a)"><g fill-opacity=".5" transform="translate(2 2) scale(4.17578)"><path fill="#d32e0d" d="M21 36h43v3H21z"/><circle r="1" fill="#bcb5b9" transform="matrix(-.02506 1.43587 -132.8187 -2.31836 176.8 39.5)"/><path fill="#7e7f7f" d="M153 83h78v3h-78z"/><path fill="#8a8b8b" d="M22 80h83v3H22z"/><path fill="#888296" d="M148 58h96v2h-96z"/><path fill="#857f94" d="M117 55.7v1l-90 1.6v-1z"/><ellipse cx="130" cy="77" fill="#fff" rx="24" ry="99"/><circle r="1" fill="#ed3510" transform="rotate(89.6 63 103.5) scale(1 10.40517)"/><path fill="#b1bbc7" d="M187.4 49.6l34.4 3.5-48.8 8h33.7z"/><path fill="#0667ad" d="M224 41h-12l4-4z"/><path fill="#0d67ab" d="M106 36l-14-2 11 5z"/><path fill="#abafaa" d="M91 28h26v4H91z"/><path fill="#d8b3aa" d="M56 19l7 13-12 25z"/><circle cx="38" cy="47" r="3" fill="#c85040"/><path fill="#fff" d="M181.5-37.4l85 18-12 56.8-85-18z"/><ellipse cx="2" cy="43" fill="#fff" rx="23" ry="47"/><path fill="#0061a8" d="M65.4 58.8l.2-4 9 .4-.2 4z"/><path fill="#b7bcb5" d="M205.6 34.8l-.2-5 19-.6.2 5z"/><path fill="#bd9796" d="M175.6 68.4l-4.2-40.7 1-.1 4.2 40.7z"/><path fill="#b7bcb6" d="M62 48h32v4H62z"/><ellipse cx="59" cy="15" fill="#a6aba6" rx="13" ry="2"/><path fill="#b0b3af" d="M162 20h21v4h-21z"/><path fill="#fff" d="M81-16l110 5L58 41z"/><path fill="#005daa" d="M194.6 60.9l-.2-3 9-.8.2 3z"/><ellipse cx="182" cy="68" fill="#a5aaa5" rx="13" ry="2"/><circle r="1" fill="#a9aea8" transform="matrix(.0585 -1.84394 9.43584 .2994 25.7 9)"/><ellipse cx="156" cy="29" fill="#8b7e7a" rx="1" ry="13"/><path fill="#9ea49f" d="M149 10h22v3h-22z"/><path fill="#acb2ac" d="M35 63h24v4H35z"/><ellipse cx="247" cy="62" fill="#fff" rx="46" ry="23"/><path fill="#fff" d="M110.6 106l39.7-22.2 31.5-23.7-87 2.7z"/><path fill="#fff" d="M25 82h126v9H25z"/><ellipse cx="54" cy="37" fill="#b87264" rx="39" ry="1"/><path fill="#fff" d="M57 34h43v3H57z"/><ellipse cx="241" cy="59" fill="#a098a2" rx="95" ry="1"/><path fill="#787674" d="M26 11h1v26h-1z"/><ellipse cx="51" cy="73" fill="#fff" rx="162" ry="6"/><path fill="#e8563b" d="M158 40h13v2h-13z"/><path fill="#bdbeb5" d="M191 50h27v4h-27z"/><path fill="#e193a9" d="M170 45l7 16 6-3z"/><path fill="#fff" d="M180 41h76v10h-76zM22 7.7l16 28.7 17.7-2.8.5-11.7z"/><path fill="#e6408d" d="M41 55h10v3H41z"/><path fill="#a5a8a3" d="M207 32.9v-1l24 1.2v1z"/><path fill="#fc563a" d="M56.9 36.1v1l-31.8 2.8v-1z"/><path fill="#fff" d="M263.4-2.1l-88.9-9.4 18.8 65-38.1 8.8z"/><ellipse cx="219" cy="40" fill="#0059a1" rx="4" ry="2"/><path fill="#b00" d="M53 46h3v3h-3z"/><path fill="#fff" d="M193.2 80.9l72.4 1.8-67.2-17.9-.5 41.2z"/><circle r="1" fill="#b3b7b3" transform="matrix(-3.11908 2.60665 -.9126 -1.092 6.3 35.7)"/><path fill="#fff" d="M31 0l78 29 79-45z"/><path fill="#caa09d" d="M44.2 57.5l-2.1-1.3L29.8 33l12.3 19.2z"/><path fill="#797e7d" d="M135 56h3v4h-3z"/><path fill="#fff" d="M58 59h81v18H58z"/><path fill="#c4c7c2" d="M3 56h35v2H3z"/><path fill="#fff" d="M168.3 23l-1.5-6.3L215.5-16l44.9 31.4zM59.8 73l14 33-16.2-58.9L69 42.2z"/><circle cx="233" cy="84" r="2" fill="#828383"/><path fill="#fff" d="M175 26h34v13h-34z"/><path fill="#7a7b79" d="M16.8 5.8l4-.6.4 3-4 .6z"/><ellipse cx="136" cy="39" fill="#bbc0bb" rx="3" ry="4"/><path fill="#db887e" d="M61 31l-4-6-2 7z"/><ellipse cx="112" cy="44" fill="#fff" rx="57" ry="5"/><path fill="#1164a4" d="M97.6 39.4l-.1-1 10.9-1.8.1 1z"/></g></g></svg>