<svg xmlns="http://www.w3.org/2000/svg" viewBox="0 0 1035 380"><defs/><filter id="prefix__a"><feGaussianBlur stdDeviation="12"/></filter><rect width="100%" height="100%" fill="#f7f3f4"/><g filter="url(#prefix__a)"><g fill-opacity=".5" transform="translate(2 2) scale(4.04297)"><path fill="#da71a3" d="M246.4 28.6l-89.9.4-2.8 11.2 87.6 2.1z"/><path fill="#007c00" d="M198.5 65l9.7 8.6-6.7 7.5-9.7-8.7z"/><ellipse cx="65" cy="33" fill="#b082a7" rx="56" ry="2"/><path fill="#8d9190" d="M85 86h93v3H85z"/><path fill="#9d8787" d="M32 15h101v2H32z"/><path fill="#d33716" d="M84 49h21v3H84z"/><path fill="#3da906" d="M199.7 65.7l.3 13.6 8.9-9.6-3.6-3.4z"/><path fill="#b05382" d="M124 68.2l-38 2.6v-1l38-2.6z"/><path fill="#fff" d="M207.3 57.5l-17.6 13.1 8.4-59L216.8-16z"/><circle r="1" fill="#fdffff" transform="rotate(-143.6 26.8 26.5) scale(62.64762 35.29931)"/><ellipse cx="136" cy="27" fill="#fff" rx="20" ry="60"/><circle cx="216" cy="35" r="7" fill="#d12e82"/><path fill="#fff" d="M168 0h15v75h-15z"/><circle cx="162" cy="34" r="7" fill="#d12d81"/><path fill="#d7418e" d="M185.9 26.8l10 6.3-8.2 10.9-4.7-6.2z"/><circle r="1" fill="#fff" transform="matrix(-15.43717 -32.81574 21.8174 -10.26333 233.5 73.4)"/><ellipse cx="72" cy="68" fill="#9d828f" rx="42" ry="1"/><path fill="#dc5f9f" d="M232.2 41.6l.1-13.8 12 1.8 1.7 12.1z"/><path fill="#fafffe" d="M233.7 27.4l-8.5 41-4.2-58.3 42.8 29.5z"/><path fill="#fff" d="M118 41h76v45h-76z"/><ellipse cx="69" cy="51" fill="#aaa6a3" rx="55" ry="1"/><path fill="#f5502b" d="M41 14h17v3H41z"/><ellipse cx="86" cy="33" fill="#955d86" rx="40" ry="1"/><path fill="#fff" d="M203.1 78.9L271 66.3l-74.1 41.3-28.4-28.8z"/><path fill="#888988" d="M2 34h13v3H2z"/><path fill="#fff" d="M32.7-16L-16 19.3 99.2-13.3 74.4 40.6z"/><path fill="#818584" d="M195.9 8.5l.2 2-12 1-.2-2z"/><path fill="#7a7e7d" d="M157.1 11.2l1-4.7.7 2.1 8.4 1.4z"/><ellipse cx="201" cy="35" fill="#c98197" rx="35" ry="2"/><circle r="1" fill="#c0b8b5" transform="matrix(-.62632 .77957 -21.87781 -17.57705 176.2 52.9)"/><circle r="1" fill="#cd8d8e" transform="matrix(-9.4463 10.25778 -.7356 -.67741 99.4 41.5)"/><path fill="#9ea59e" d="M216 74l12-3-14-2z"/><circle r="1" fill="#3fa80a" transform="matrix(4.17463 5.13534 -2.8313 2.30163 199.5 73.2)"/><path fill="#d19798" d="M54.4 30.2l6 4.9L50.5 14 52 27.8z"/><path fill="#848584" d="M3 59l-1-4 11 3z"/><ellipse cx="5" cy="14" fill="#949897" rx="9" ry="2"/><ellipse cx="254" cy="30" fill="#fff" rx="11" ry="170"/><ellipse cx="98" cy="15" fill="#2c86c0" rx="6" ry="2"/><circle r="1" fill="#fff" transform="rotate(-52.8 59.8 -120.4) scale(24.20923 42.22097)"/><path fill="#fff" d="M194-16l36 7-34 51z"/><path fill="#979b9a" d="M221 9h13v3h-13z"/><path fill="#f8fffc" d="M75.3 51.5l16.5 7.6 16.8-16.6-17 43.1z"/><ellipse cx="91" cy="78" fill="#fff" rx="104" ry="8"/><ellipse cx="50" cy="69" fill="#c0c1bf" rx="33" ry="1"/><path fill="#fff" d="M89.2 38.5l-10-20.1 66.2-.4 35.9-34z"/><circle cx="188" cy="34" r="7" fill="#dc5a9d"/><ellipse cx="203" cy="3" fill="#fff" rx="254" ry="5"/><path fill="#e34f99" d="M99.1 69.3l-.1-1 15.9-1.6.1 1z"/><circle cx="237" cy="36" r="6" fill="#d94e94"/><ellipse cy="40" fill="#fff" rx="3" ry="120"/><path fill="#fff" d="M213.8 90l-23.3-73.4 11.4 21.1 23.5 7z"/><circle cx="175" cy="23" r="11" fill="#feffff"/><path fill="#cc9475" d="M172 33h7v4h-7z"/><circle cx="79" cy="32" r="3" fill="#409ecb"/><path fill="#ef4593" d="M68 31.9v1L54 34v-1z"/><path fill="#067fba" d="M82 31h3v4h-3z"/><path fill="#fff" d="M76 28h70v4H76z"/><path fill="#f6fefa" d="M180.4 45.3l-10.5-13.2L159 68.4 182.9 28z"/><path fill="#ca4c39" d="M52 23h4v4h-4z"/><path fill="#bfc1c1" d="M80.5 49.6v1l-51 1.8v-1z"/><path fill="#fff" d="M228.3 35L271 79.5l-30.3-4.8-43.8-13.9z"/><path fill="#bdbabb" d="M94 52l10 16-3-10z"/><path fill="#f9fcf9" d="M13 5h18v66H13z"/><path fill="#fbfffc" d="M239.5 26l-12.7 9.1-5.3-4.2L210.6.1z"/></g></g></svg>