<svg xmlns="http://www.w3.org/2000/svg" viewBox="0 0 1004 350"><defs/><filter id="prefix__a"><feGaussianBlur stdDeviation="12"/></filter><rect width="100%" height="100%" fill="#f9f6f6"/><g filter="url(#prefix__a)"><g transform="translate(2 2) scale(3.92188)"><ellipse cx="64" cy="37" fill="#d31a00" fill-opacity=".5" rx="40" ry="3"/><path fill="#7b6973" fill-opacity=".5" d="M26 64h144v2H26z"/><ellipse cx="231" cy="52" fill="#6f7272" fill-opacity=".5" rx="43" ry="2"/><path fill="#7b7e7e" fill-opacity=".5" d="M33 73h52v4H33z"/><path fill="#d89ca0" fill-opacity=".5" d="M99 66.2l30.6-.9-30.5-3.7-74.6-26.4z"/><ellipse cx="119" cy="37" fill="#804f46" fill-opacity=".5" rx="52" ry="1"/><ellipse cx="129" cy="13" fill="#e2948a" fill-opacity=".5" rx="22" ry="3"/><path fill="#9ca59f" fill-opacity=".5" d="M35 24h33v4H35z"/><path fill="#959d97" fill-opacity=".5" d="M94 75h29v5H94z"/><ellipse cx="222" cy="19" fill="#fff" fill-opacity=".5" rx="65" ry="29"/><ellipse cx="11" cy="60" fill="#feffff" fill-opacity=".5" rx="26" ry="120"/><circle r="1" fill="#fff" fill-opacity=".5" transform="matrix(-80.51157 19.57076 -5.79492 -23.83954 255 75.7)"/><path fill="#d4afa3" fill-opacity=".5" d="M26 33.7l.4-.9 47.7 27.5-.5.9z"/><path fill="#888481" fill-opacity=".5" d="M100 22h3v14h-3z"/><path fill="#d54c82" fill-opacity=".5" d="M91 58l23 7-12 1z"/><path fill="#d64f3f" fill-opacity=".5" d="M91.8 8.3l5 .5-.6 5-5-.6z"/><path fill="#fff" fill-opacity=".5" d="M104 15h145v21H104z"/><ellipse cx="129" cy="49" fill="#fff" fill-opacity=".5" rx="57" ry="11"/><ellipse cx="178" cy="83" fill="#fff" fill-opacity=".5" rx="60" ry="17"/><path fill="#f36042" fill-opacity=".5" d="M47 35h52v4H47z"/><path fill="#888d89" fill-opacity=".5" d="M11 61l-5-3-1 9z"/><ellipse cx="7" cy="35" fill="#8d938d" fill-opacity=".5" rx="3" ry="4"/><path fill="#a6aca9" fill-opacity=".5" d="M34 22l3 8 5-12z"/><ellipse cx="138" cy="36" fill="#aaadad" fill-opacity=".5" rx="34" ry="1"/><path fill="#fff" fill-opacity=".5" d="M-16 6L96 33 86-16z"/><circle r="1" fill="#fff" fill-opacity=".5" transform="matrix(104.38952 16.5326 -1.20069 7.58133 165.4 57)"/><ellipse cx="209" cy="51" fill="#a9aaaa" fill-opacity=".5" rx="25" ry="2"/><path fill="#dcb8ab" fill-opacity=".5" d="M46 42l9 16-26-25z"/><path fill="#fff" fill-opacity=".5" d="M113 84l-89 20-38-34zm136.3-32.8L83.2-12.1 271-.4 250.3 104z"/><circle cx="53" cy="57" r="2" fill="#bc1f02" fill-opacity=".5"/><path fill="#fff" fill-opacity=".5" d="M0 38h37v19H0z"/><path fill="#949595" fill-opacity=".5" d="M242 50h8v5h-8z"/><path fill="#feffff" fill-opacity=".5" d="M53.4-5.6L40.7 35.7 34-13.1-5.3 62.1z"/><path fill="#fff" fill-opacity=".5" d="M114 65l28 39 69-36z"/><ellipse cx="120" cy="13" fill="#eab3ac" fill-opacity=".5" rx="29" ry="2"/><ellipse cx="30" cy="37" fill="#5b787c" fill-opacity=".5" rx="7" ry="1"/><path fill="#b9bebb" fill-opacity=".5" d="M9 64h32v2H9z"/><path fill="#ca5340" fill-opacity=".5" d="M69 60h6v2h-6z"/><path fill="none" stroke="#cd876e" stroke-opacity=".5" stroke-width=".5" d="M101 64.2q-12.7-6.7-40-14.8"/><path fill="#fff" fill-opacity=".5" d="M59 67h3v22h-3zm-2-19l42 15-22-1z"/><path fill="#e87e64" fill-opacity=".5" d="M91 35h12v5H91z"/><path fill="#fff" fill-opacity=".5" d="M5 16l21 19 22-3zm59.6 53.2l13.2 30.3-88.4-52.2 76.1 51z"/><ellipse cx="109" cy="65" fill="#db5ba6" fill-opacity=".5" rx="5" ry="3"/><path fill="#303333" fill-opacity=".5" d="M62 72h3v1h-3z"/><path fill="#fff" fill-opacity=".5" d="M246.6 52.7L162.9-16l57.6 69.4 17.7-24z"/><path fill="none" stroke="#cd826e" stroke-opacity=".5" stroke-width=".5" d="M39.8 42.1q23.3 6.6 30.7 11.6"/><ellipse cx="174" cy="43" fill="#fff" fill-opacity=".5" rx="98" ry="6"/><path fill="#fff" fill-opacity=".5" d="M111.4-16l4.2 34.6-4.5-7L16.7-1.3z"/><path fill="#feffff" fill-opacity=".5" d="M126.5 56l-24.1-5.8-1.9-28.5L67.6 5.9z"/><path fill="#edbda9" fill-opacity=".5" d="M39 39h56v1H39z"/><circle cx="36" cy="25" r="3" fill="#83827e" fill-opacity=".5"/><path fill="#c5c9c5" fill-opacity=".5" d="M69 28H40l24-7z"/><circle cx="117" cy="9" r="3" fill="#eab5ad" fill-opacity=".5"/><path fill="#feffff" fill-opacity=".5" d="M84 72h105v4H84z"/><path fill="#242829" fill-opacity=".5" d="M101.6 25.5l-2-2.4.8-.6 2 2.4z"/><path fill="#fdfffe" fill-opacity=".5" d="M20 54.2l6.2 6.6L8 77.8l-6.1-6.6z"/><ellipse cx="45" cy="64" fill="#949b98" fill-opacity=".5" rx="23" ry="1"/><path fill="#b4bab9" fill-opacity=".5" d="M12.8 40.1l-2.6-12.7-5 11.5 7.7-4.8z"/><path fill="#ee6248" fill-opacity=".5" d="M38 36h39v3H38z"/><path fill="#fff" fill-opacity=".5" d="M201 104l-28-5 20-52zM99 63l45-24-32-1z"/></g></g></svg>