<svg xmlns="http://www.w3.org/2000/svg" viewBox="0 0 786 480"><defs/><filter id="prefix__a"><feGaussianBlur stdDeviation="12"/></filter><rect width="100%" height="100%" fill="#f9f8f7"/><g filter="url(#prefix__a)"><g fill-opacity=".5" transform="translate(1.5 1.5) scale(3.07031)"><ellipse cx="205" cy="72" fill="#9e4f49" rx="55" ry="2"/><ellipse cx="116" cy="146" fill="#757677" rx="71" ry="2"/><path fill="#923f3c" d="M27 84h73v3H27z"/><circle cx="67" cy="13" r="7" fill="#3ec000"/><path fill="#a77d7e" d="M12 63.7l37.4-2.9 49.4 2.7-43.3 2.9z"/><path fill="#11376c" d="M217 93h19v4h-19z"/><path fill="#e48a72" d="M189 8h11v11h-11z"/><path fill="#cf3d1d" d="M160 94l12 2v-4z"/><path fill="#ff2e05" d="M27 62h25v3H27z"/><circle r="1" fill="#fff" transform="matrix(15.8326 -9.74028 55.4957 90.20698 250.7 65.8)"/><path fill="#fb4a24" d="M32 85h36v3H32z"/><circle cx="119" cy="12" r="47" fill="#fff"/><path fill="#006bc5" d="M195 70h10v4h-10z"/><path fill="#fff" d="M-12 137l159-61-122 94z"/><ellipse cx="229" cy="104" fill="#949a95" rx="16" ry="2"/><path fill="#498bb1" d="M83 85h36v2H83z"/><path fill="#79a3ba" d="M74.8 66.7l-25.6-4.6 76.9 1.1-53.1.7z"/><path fill="#fff" d="M135 136.9l-45 8.6L68.5 83 37.3 41.4z"/><path fill="#a1a6a2" d="M152 120h24v4h-24z"/><ellipse cx="170" cy="71" fill="#f2694b" rx="18" ry="2"/><path fill="#a4a8a5" d="M172 48h23v4h-23z"/><path fill="#b3b7b4" d="M212 82l-26 3 1-8z"/><path fill="#b1b6b3" d="M22 111h27v4H22z"/><path fill="#a5aaa5" d="M65 54h24v4H65z"/><path fill="#d4c6c2" d="M187.1 94.1l-16.4 25.8-1.2-18.1 49.8-7.7z"/><path fill="#fff" d="M274.2 173.5l-103.4-37.6 15-41.4 103.4 37.6z"/><path fill="#a6a9a7" d="M84 76h27v4H84z"/><path fill="#aab0ac" d="M18 27h20v5H18z"/><ellipse cx="158" cy="38" fill="#9ea39e" rx="13" ry="2"/><path fill="#acafad" d="M42 39h21v5H42z"/><path fill="#fff" d="M181.7 67.4l8.4 16.2 39-99.6L271 73.5z"/><ellipse cx="92" cy="63" fill="#445c6f" rx="27" ry="1"/><ellipse cx="182" cy="113" fill="#9ea2a0" rx="14" ry="2"/><path fill="#587181" d="M174 94h51v1h-51z"/><path fill="#acafad" d="M54 106h23v4H54z"/><circle cx="118" cy="110" r="34" fill="#fff"/><ellipse cx="105" cy="144" fill="#b7b8b8" rx="47" ry="1"/><circle cx="187" cy="145" r="3" fill="#8b8c8d"/><path fill="#fff" d="M33.7 83L2.4 158.9-16 53.6l72.3 20.8zm66.6 52.5l152.3 15.7-188-43 29.5 46.7z"/><path fill="#969797" d="M178 144h13v4h-13z"/><path fill="#fff" d="M177.3 50.4l-1.6-31 35-1.8 1.6 31z"/><circle r="1" fill="#fff" transform="matrix(2.52948 -17.77306 49.6757 7.0699 10.2 9)"/><path fill="#fffffe" d="M231.8 136.5l-2.3-44-47.7-7.5 51.1-4.7z"/><path fill="#e5a596" d="M25 36h2v30h-2z"/><ellipse cx="219" cy="72" fill="#826a6e" rx="30" ry="1"/><path fill="#dcb2a5" d="M156 38h2v35h-2z"/><ellipse cx="50" cy="74" fill="#fff" rx="34" ry="10"/><path fill="#fff" d="M271 5l-50-21-15 95z"/><path fill="#f48467" d="M231.3 96.2l3.2-5 4.2 2.6-3.2 5z"/><path fill="#fff" d="M73 0h65v55H73z"/><path fill="#f1674c" d="M155 71h27v3h-27z"/><path fill="#0b7fcb" d="M96 86l-14-2 11-2z"/><path fill="#fff" d="M3.6 171L-16 87.8l81.9 63.5 205.1-3.8z"/><path fill="#ff5d37" d="M216 70h15v3h-15z"/><circle r="1" fill="#056fbf" transform="rotate(-7.7 501.3 -485.2) scale(6.21616 1)"/><circle cx="8" cy="84" r="2" fill="#717572"/><path fill="#fff" d="M169-16l24.4 31.2-10 2.8L70.5 71.1z"/><path fill="#ce4b3f" d="M177 100h5v5h-5z"/><path fill="#fff" d="M48 40L23-16l58 53z"/><ellipse cx="163" cy="94" fill="#a06f64" rx="13" ry="1"/><path fill="#959b9a" d="M11.9 61.2l-3.3-1.7-1.5 1.2.7 3.5z"/><ellipse cx="176" cy="97" fill="#fff" rx="68" ry="2"/><path fill="#fff" d="M118 43h38v29h-38z"/></g></g></svg>