<svg xmlns="http://www.w3.org/2000/svg" viewBox="0 0 1321 380"><defs/><filter id="prefix__a"><feGaussianBlur stdDeviation="12"/></filter><rect width="100%" height="100%" fill="#f9f6f5"/><g filter="url(#prefix__a)"><g fill-opacity=".5" transform="translate(2.6 2.6) scale(5.16016)"><ellipse cx="195" cy="36" fill="#d40c00" rx="49" ry="2"/><path fill="#d90500" d="M24 35h26v3H24z"/><path fill="#d6a7a3" d="M45 58l15-22-4-18z"/><ellipse cx="215" cy="29" fill="#958f8e" rx="27" ry="2"/><ellipse cx="24" cy="54" fill="#7c6f78" rx="89" ry="1"/><path fill="#878a8b" d="M76 28h39v3H76z"/><path fill="#835f73" d="M143 54h98v1h-98z"/><ellipse cx="132" cy="12" fill="#fff" rx="179" ry="17"/><path fill="#d894a8" d="M165.5 43.6L178.6 56l-6.4.1L161 41.4z"/><path fill="#a0a6a0" d="M145 8h23v3h-23z"/><ellipse cx="39" cy="10" fill="#ced4d0" rx="29" ry="3"/><ellipse cx="82" cy="36" fill="#816d6a" rx="32" ry="1"/><path fill="#989e98" d="M247.8 16L224 13l.2-1 23.8 3z"/><path fill="#ccacb9" d="M218.3 42.4l1.9 13.2 13.5 1.8-22.2-14.5z"/><path fill="#807671" d="M154 13h1v27h-1z"/><path fill="#bc6975" d="M34.3 42l10.2 13.5-.8.6-10.2-13.6z"/><circle r="1" fill="#fff" transform="matrix(-5.45984 69.93993 -25.94472 -2.02537 0 69.3)"/><path fill="#a9b0ab" d="M34 60l19 1-16 4z"/><path fill="#c38578" d="M186 39l-7 10 4-14z"/><path fill="#fff" d="M151 29l20 59H59zm120-14.8l-37.9 19.1L211.2-16l58.3 104z"/><ellipse cx="238" cy="26" fill="#bf7b71" rx="2" ry="6"/><path fill="#bec5c1" d="M168 60.1l-2.7-2.8-4.7 7.3 29.2.2z"/><ellipse cx="223" cy="72" fill="#fff" rx="45" ry="17"/><path fill="#969797" d="M25 15h2v20h-2z"/><ellipse cx="79" cy="72" fill="#fff" rx="193" ry="9"/><path fill="#bec2bd" d="M44 11h24v4H44z"/><path fill="#f05c3c" d="M58 35l-12-1 7 3z"/><ellipse cx="95" cy="45" fill="#fff" rx="41" ry="8"/><path fill="#fff" d="M149.9 30.7L83.2-11.8 52.7 58.9l7.6-36.8z"/><path fill="#fff" d="M59 56h104v17H59z"/><circle cx="57" cy="29" r="3" fill="#da7f70"/><circle cx="134" cy="52" r="2" fill="#8f948d"/><ellipse cx="204" cy="36" fill="#f25b30" rx="33" ry="1"/><path fill="#fff" d="M165 0h28v34h-28z"/><ellipse cx="24" cy="9" fill="#abadaa" rx="7" ry="2"/><path fill="#e01f82" d="M230.3 52.8l.2 1-6.8 1.4-.2-1z"/><path fill="#cd6446" d="M17 36h31v1H17z"/><path fill="#858a84" d="M4 36l5-4H5z"/><path fill="#7d837e" d="M6 51l-3 3 5-2z"/><path fill="#d7c5c5" d="M240.6 26.9l-13.5 30.7L240 41.9l-3.9 4.4z"/><ellipse cx="56" cy="42" fill="#fff" rx="206" ry="2"/><circle cx="165" cy="45" r="3" fill="#d67a65"/><path fill="#fff" d="M29 14h26v21H29z"/><path fill="#d98579" d="M51 43h4v7h-4z"/><path fill="#fff" d="M9 48h117v5H9z"/><circle cx="38" cy="45" r="2" fill="#d3543f"/><path fill="#fff" d="M105 5l-55 6-25-27z"/><path fill="#62a852" d="M215.9 49.3l-.8-.6 3-4 .8.6z"/><path fill="#d766a3" d="M167 53h12v3h-12z"/><path fill="#fff" d="M72 26l10 7-28 2z"/><ellipse cx="255" cy="40" fill="#fff" rx="17" ry="27"/><circle r="1" fill="#acb3ac" transform="matrix(.96815 .25038 -.73403 2.83828 134.2 34.2)"/><path fill="#fff" d="M121.5 4l-10.7 42 24 42-3.1-59.5z"/><path fill="#909490" d="M229 10h3v6h-3z"/><circle cx="180" cy="46" r="2" fill="#d76558"/><path fill="#feffff" d="M64.2 14l-43.7 2.5L45.2 7l-.8 24.3z"/><path fill="#dc78b1" d="M38 53h14v3H38z"/><path fill="#fff" d="M214 39l4 14-53-2z"/><circle cx="47" cy="11" r="2" fill="#808382"/><path fill="#fff" d="M236.5 15.3L271-11.2 129.1 18.4l90.2-12.3z"/><path fill="#fff" d="M226.1 16.2l20-26.9-118.2 8.5 117.3 30z"/><path fill="#fff" d="M57 35l124-51L75-8z"/><ellipse cx="55" cy="58" fill="#fff" rx="255" ry="2"/></g></g></svg>