<svg xmlns="http://www.w3.org/2000/svg" viewBox="0 0 1249 450"><defs/><filter id="prefix__a"><feGaussianBlur stdDeviation="12"/></filter><rect width="100%" height="100%" fill="#f9f8f7"/><g filter="url(#prefix__a)"><g transform="translate(2.4 2.4) scale(4.8789)"><ellipse cx="51" cy="45" fill="#9f6c73" fill-opacity=".5" rx="43" ry="2"/><path fill="#a96f6d" fill-opacity=".5" d="M141 45h115v2H141z"/><circle cx="193" cy="10" r="6" fill="#40c100" fill-opacity=".5"/><ellipse cx="120" cy="85" fill="#858687" fill-opacity=".5" rx="36" ry="2"/><ellipse cx="154" cy="62" fill="#baa6b7" fill-opacity=".5" rx="140" ry="2"/><path fill="#e58b73" fill-opacity=".5" d="M51.4 4l7.9-1 1.3 11-7.9 1z"/><ellipse cx="130" cy="14" fill="#fff" fill-opacity=".5" rx="59" ry="27"/><ellipse cx="68" cy="39" fill="#b3b8b4" fill-opacity=".5" rx="32" ry="2"/><circle r="1" fill="#fff" fill-opacity=".5" transform="matrix(-10.72528 -79.651 10.44087 -1.4059 220.1 40)"/><path fill="#fff" fill-opacity=".5" d="M53 49h93v36H53zM-16 1l30 51 62-66z"/><path fill="#a3a9a5" fill-opacity=".5" d="M167 37h23v3h-23z"/><path fill="#f45f3b" fill-opacity=".5" d="M148 44h19v3h-19z"/><path fill="#999a9b" fill-opacity=".5" d="M62 25h20v3H62z"/><ellipse cx="130" cy="62" fill="#9c8b98" fill-opacity=".5" rx="114" ry="1"/><path fill="#8a8f8b" fill-opacity=".5" d="M215.5 73h-19v-2h19z"/><ellipse cx="196" cy="26" fill="#8e8f90" fill-opacity=".5" rx="9" ry="2"/><path fill="#fff" fill-opacity=".5" d="M120 67l-4-75 69 109z"/><path fill="#a4aaa5" fill-opacity=".5" d="M160.9 71.4l.3-4 16 1.2-.4 4z"/><path fill="#717273" fill-opacity=".5" d="M104 44h10v3h-10z"/><path fill="#0060b9" fill-opacity=".5" d="M176 45h6v3h-6z"/><path fill="#fff" fill-opacity=".5" d="M244.6-1.7L271 107l-50.8-.2 40.6-73.5z"/><path fill="#9ba09c" fill-opacity=".5" d="M34 69h17v3H34z"/><ellipse cx="44" cy="91" fill="#fff" fill-opacity=".5" rx="47" ry="21"/><ellipse cx="238" cy="12" fill="#fff" fill-opacity=".5" rx="38" ry="32"/><ellipse cx="41" cy="45" fill="#b47f80" fill-opacity=".5" rx="75" ry="1"/><path fill="#0042a3" fill-opacity=".5" d="M211.5 62.5l-6.7 2-.3-1 6.7-2z"/><path fill="#fffbf9" fill-opacity=".5" d="M36.5 43l10.2 10.7 26.2-25.3L85.3 61z"/><circle r="1" fill="#fff" fill-opacity=".5" transform="matrix(-19.82678 22.268 -6.62106 -5.8952 191 63.3)"/><path fill="#b07d95" fill-opacity=".5" d="M164 55l3 8 1-4z"/><path fill="#ccc1c7" fill-opacity=".5" d="M35 50l10 12-23-9z"/><circle r="1" fill="#fff" fill-opacity=".5" transform="matrix(1.93003 7.17287 -53.90578 14.50461 11.8 39)"/><path fill="#adb3ae" fill-opacity=".5" d="M148 53.5l10.6-.6-1.1 1.6L160 58z"/><circle cx="83" cy="45" r="2" fill="#005dc7" fill-opacity=".5"/><ellipse cx="216" cy="85" fill="#fff" fill-opacity=".5" rx="63" ry="12"/><path fill="#c89a93" fill-opacity=".5" d="M192 38h4v8h-4z"/><ellipse cx="30" cy="45" fill="#ff5c34" fill-opacity=".5" rx="9" ry="2"/><path fill="#eb4d9a" fill-opacity=".5" d="M160 61h14v3h-14z"/><path fill="#6c726e" fill-opacity=".5" d="M108.5 62.6l9-.2v1l-9 .2z"/><circle cx="58" cy="11" r="5" fill="#eaab9b" fill-opacity=".5"/><path fill="#ca928a" fill-opacity=".5" d="M68.8 45.8l3.7-.6-2.1-6.9-1.8 2.2z"/><path fill="#ea3e93" fill-opacity=".5" d="M34 61h15v3H34z"/><circle cx="53" cy="45" r="2" fill="#006abd" fill-opacity=".5"/><ellipse cx="166" cy="20" fill="#fff" fill-opacity=".5" rx="192" ry="6"/><ellipse cx="229" cy="42" fill="#fff" fill-opacity=".5" rx="3" ry="98"/><circle cx="4" cy="43" r="2" fill="#8f918c" fill-opacity=".5"/><path fill="#fff" fill-opacity=".5" d="M81 0h107v38H81z"/><path fill="#b2b5b1" fill-opacity=".5" d="M104.5 38v1l-29 1v-1z"/><ellipse cx="235" cy="54" fill="#fff" fill-opacity=".5" rx="70" ry="7"/><circle r="1" fill="#fff" fill-opacity=".5" transform="matrix(-52.11472 -10.36177 4.86232 -24.4551 14.3 91)"/><path fill="#0057bf" fill-opacity=".5" d="M49 45h3v2h-3z"/><path fill="#979c98" fill-opacity=".5" d="M131 42h4v3h-4z"/><circle cx="42" cy="37" r="2" fill="#959994" fill-opacity=".5"/><circle r="1" fill="#fff" fill-opacity=".5" transform="rotate(-151.4 12.1 5.3) scale(30.68944 28.19781)"/><ellipse cx="173" cy="62" fill="#b697a5" fill-opacity=".5" rx="31" ry="1"/><ellipse cx="172" cy="66" fill="#fff" fill-opacity=".5" rx="163" ry="3"/><path fill="#b4bab5" fill-opacity=".5" d="M10 64l-7-2 1-4z"/><path fill="#7f867f" fill-opacity=".5" d="M131 60h4v2h-4z"/><path fill="#b5b9b6" fill-opacity=".5" d="M198 70l1.5-1.3L204 74l-1.5 1.3z"/><path fill="#fff" fill-opacity=".5" d="M100 62l18-9-19-11z"/><ellipse cx="211" cy="45" fill="#de9f95" fill-opacity=".5" rx="14" ry="1"/><path fill="none" stroke="#f6fcf3" stroke-opacity=".5" stroke-width=".5" d="M198.6 6.8q-13.3 14.7-42 7.4"/><path fill="#fff" fill-opacity=".5" d="M253.9 107L271-8.7l-24.2 76L130 92.1zM37 55l-4 6-1-10z"/></g></g></svg>