<svg xmlns="http://www.w3.org/2000/svg" viewBox="0 0 1189 450"><defs/><filter id="prefix__a"><feGaussianBlur stdDeviation="12"/></filter><rect width="100%" height="100%" fill="#f8f7f7"/><g filter="url(#prefix__a)"><g fill-opacity=".5" transform="translate(2.3 2.3) scale(4.64453)"><circle cx="189" cy="9" r="6" fill="#47c504"/><ellipse cx="60" cy="49" fill="#9f7075" rx="45" ry="2"/><ellipse cx="126" cy="87" fill="#8c8d8d" rx="40" ry="2"/><ellipse cx="192" cy="51" fill="#c1928e" rx="59" ry="2"/><ellipse cx="176" cy="36" fill="#496275" rx="49" ry="1"/><ellipse cx="198" cy="69" fill="#a898ad" rx="55" ry="2"/><path fill="#ae8499" d="M19 65h81v2H19z"/><circle r="1" fill="#ebb29f" transform="matrix(6.60654 .41348 -.42094 6.7257 49.9 11)"/><ellipse cx="119" cy="34" fill="#fff" rx="32" ry="48"/><path fill="#9a9e9a" d="M153 42h18v3h-18z"/><path fill="#fff" d="M155 70h101v26H155z"/><circle r="1" fill="#c8cdc8" transform="matrix(-30.41985 .37167 -.0263 -2.15265 196.2 26.4)"/><path fill="#0963a4" d="M212 34l-9 1 8 3z"/><path fill="#b9beb9" d="M43 41h64v3H43z"/><path fill="#8ab3cc" d="M173 35h8v19h-8z"/><ellipse cx="167" cy="72" fill="#d5acbf" rx="9" ry="7"/><path fill="#005d9a" d="M208.3 72.8l-3.2-3.8 4.6-3.8 3.2 3.8z"/><path fill="#fff" d="M39.4 28.8L88.1-8l20.5 27.1L59.9 56zM163 38h82v13h-82z"/><path fill="#f36342" d="M149 50h16v4h-16z"/><circle r="1" fill="#fff" transform="matrix(61.07255 51.31576 -18.1523 21.60364 226.8 0)"/><path fill="#ff3508" d="M36.5 49.9l-15 .2v-2l15-.2z"/><ellipse cx="167" cy="72" fill="#fff" rx="85" ry="3"/><circle r="1" fill="#fff" transform="matrix(-23.3575 -20.0198 16.50873 -19.26107 18.4 18.4)"/><path fill="#828383" d="M185 58h16v2h-16z"/><path fill="#9da29d" d="M34 73h14v3H34z"/><circle r="1" fill="#fff" transform="matrix(-59.43978 -6.87742 1.74698 -15.09868 30.6 89.8)"/><path fill="#797a7a" d="M64 56h13v2H64z"/><circle cx="51" cy="49" r="2" fill="#0057bb"/><ellipse cx="120" cy="8" fill="#fff" rx="61" ry="26"/><path fill="#a4a4a4" d="M108 89l-26-1v-3l26 1z"/><path fill="#3a93cb" d="M77.2 46.9l6 3.6 5.9.2.6-2z"/><path fill="#dd7dae" d="M48.4 62.2l.2 5-17 .6-.2-5z"/><path fill="#9a9e9f" d="M209.9 36.5l1 .1-2.8 30.9-1-.1z"/><path fill="#9da09a" d="M124 35h13v3h-13z"/><path fill="#1c6fad" d="M175 51h9v3h-9z"/><ellipse cx="167" cy="68" fill="#de4c94" rx="9" ry="2"/><path fill="#a1a7a2" d="M21 56h10v4H21z"/><circle r="1" fill="#f9fefb" transform="matrix(70.62954 1.95152 -.03742 1.35437 67.2 64.3)"/><path fill="#57c71c" d="M187 15l7-5-3 5z"/><ellipse cx="167" cy="50" fill="#effbfb" rx="128" ry="1"/><path fill="#848484" d="M80.7 55.3l.3 1-9.7 2.4-.3-1z"/><path fill="#fff" d="M193.7 36.3l20-51.4L271 36.2l-84.4-15.6z"/><path fill="#dd4d32" d="M45.6 14l6-6.7.8.7-6 6.7z"/><circle cx="131" cy="50" r="2" fill="#888d87"/><path fill="#939c9d" d="M232 52h17v2h-17z"/><path fill="#c5c8c4" d="M184.3 28.6l-16.4-1.2-2.9 5.3 2.1-9z"/><ellipse cx="151" cy="60" fill="#9ca29b" rx="4" ry="2"/><path fill="#fff" d="M94.3 111l90-21-80.8-2.1-30.7 2.2zM220 74.9l51-31.5-14.6 36L228.1 50z"/><path fill="#cb1700" d="M192 50h3v2h-3z"/><circle cx="178" cy="37" r="3" fill="#3d7daf"/><path fill="#fffbf8" d="M210.2 42.4l-29.5 14.9 4.1-18.9-43.7-1.2z"/><ellipse cx="87" cy="76" fill="#fff" rx="42" ry="10"/><path fill="#d6c8c0" d="M62.3 41.5l5.9 9 10.3-3.2-41.1-4.7z"/><path fill="#fff" d="M139 34L38-3l150 6z"/><ellipse cx="166" cy="42" fill="#b1b4af" rx="9" ry="2"/><path fill="#d0babc" d="M35.6 60.5l-5.4-7.3 12 13.4-12-21z"/><path fill="#b7cabe" d="M178.6 75.3l-.2 4-15-.6.2-4z"/><ellipse cx="48" cy="27" fill="#fff" rx="83" ry="14"/><ellipse cx="217" cy="92" fill="#fff" rx="56" ry="22"/><ellipse cx="69" cy="49" fill="#8e7581" rx="29" ry="1"/><path fill="#fff" d="M2.7-15l74.4 67.9 6.5-41.3L-8.5 51z"/><path fill="#b2b4b0" d="M203 26h20v2h-20z"/></g></g></svg>