<svg xmlns="http://www.w3.org/2000/svg" viewBox="0 0 752 360"><defs/><filter id="prefix__a"><feGaussianBlur stdDeviation="12"/></filter><rect width="100%" height="100%" fill="#f6f6f5"/><g filter="url(#prefix__a)"><g fill-opacity=".5" transform="translate(1.5 1.5) scale(2.9375)"><path fill="#b87875" d="M60 47h153v4H60z"/><ellipse cx="131" cy="109" fill="#6d6d6e" rx="72" ry="2"/><path fill="#8f7793" d="M72 74h157v3H72z"/><path fill="#5d9d88" d="M75 23h111v3H75z"/><path fill="#969995" d="M5 59h35v6H5z"/><circle r="1" fill="#0d6aa3" transform="matrix(-7.03078 1.3412 -.56374 -2.95521 166.9 75)"/><path fill="#a5a9a5" d="M104 11h75v4h-75z"/><circle cx="228" cy="59" r="60" fill="#fff"/><path fill="#003fa3" d="M161 23h11v5h-11z"/><circle r="1" fill="#8a8d8e" transform="matrix(.08092 2.10526 -14.6021 .56123 221 49.2)"/><path fill="#006ebd" d="M113.3 52.6l-.6-6 12-1.2.6 6z"/><ellipse cx="167" cy="34" fill="#656e75" rx="1" ry="44"/><path fill="#8c8c8d" d="M156.7 57.4l-.5 5-20.9-1.8.5-5z"/><path fill="#004ca4" d="M125.2 23l-.4 5-12-1 .4-5z"/><path fill="#df2f85" d="M90 73h26v5H90z"/><path fill="#b4b7b3" d="M88 84h26v7H88z"/><path fill="#f9532f" d="M81.4 52.5l20.9-5-15.1-.4H73.1z"/><path fill="#afbaaa" d="M24.5 23.2l7.1 4.3 43.6-2.9L28.5 21z"/><circle r="1" fill="#fff" transform="matrix(-29.16442 20.64956 -25.56702 -36.1096 22.2 105.7)"/><path fill="#fff" d="M50 0h55v45H50z"/><path fill="#878b87" d="M202 73h19v5h-19z"/><path fill="#fffffc" d="M155-16l-32 43 4 67z"/><ellipse cx="115" cy="24" fill="#5b8f50" rx="79" ry="1"/><path fill="#b7bbb8" d="M71 60h26v6H71z"/><path fill="#5e758a" d="M117 20h2v31h-2z"/><ellipse cx="137" cy="72" fill="#fff" rx="28" ry="3"/><ellipse cx="116" fill="#fff" rx="255" ry="9"/><path fill="#fff" d="M12-13l28 71-56 1z"/><ellipse cx="169" cy="76" fill="#0662a5" rx="5" ry="3"/><circle r="1" fill="#fff" transform="matrix(6.34633 37.30133 -10.25547 1.74483 60.2 57.2)"/><path fill="#fff" d="M116 78h140v27H116z"/><path fill="#fffffd" d="M122.4 25.1l42.4 43-6-49.1-34.7 16.9z"/><path fill="#bfbfc0" d="M61.4 103.5l-6.1 8.9 83.5-4.8-76.6-.9z"/><path fill="#a1a6a0" d="M56 75h37v2H56z"/><path fill="#919592" d="M47.6 74l-2.3-2.8-3.4 3.3-.3 4.9z"/><ellipse cx="159" cy="49" fill="#c76b61" rx="36" ry="1"/><path fill="#fff" d="M26.7 109.3l214.2-11.2-149.6-4.6V62z"/><ellipse cx="126" cy="120" fill="#fff" rx="255" ry="9"/><path fill="#ac9fa0" d="M96.6 62.7l5.9 13.1L85.7 49 98 63.5z"/><circle cx="132" cy="58" r="3" fill="#848486"/><path fill="#dd7c6d" d="M144.4 48.2l1.4-1.9-11-2.3 10.9 8.4z"/><path fill="#6b6f6b" d="M42 44h3v6h-3z"/><path fill="#fff" d="M177 52h79v23h-79zM86.6 65.7l30.6-23.4L30 16.7l134.1 56.4z"/><path fill="#a4818f" d="M61 76h88v1H61z"/><path fill="#fff" d="M95 27h155v1H95z"/><circle cx="203" cy="48" r="3" fill="#859192"/><path fill="#949693" d="M104 9h5v8h-5z"/><ellipse cx="126" cy="18" fill="#fff" rx="132" ry="4"/><path fill="#ef5336" d="M72 48h26v3H72z"/><path fill="#382b35" d="M99 73.8l1-3.9 1 .3-1 3.9z"/><path fill="#a7a9a7" d="M92 86h27v4H92z"/><path fill="#959a92" d="M173 75h24v2h-24z"/><circle cx="152" cy="11" r="3" fill="#7e827e"/><path fill="#fff" d="M118 61h37v14h-37zM0 79h201v7H0z"/><ellipse cx="223" cy="117" fill="#fff" rx="32" ry="22"/><path fill="#65615d" d="M117.5 25h1v20h-1z"/><path fill="#ffe2d2" d="M75 46h50v1H75z"/><path fill="#9da4a3" d="M182 15l2-9h3z"/><circle r="1" fill="#fff" transform="matrix(-9.61493 14.05896 -38.0765 -26.04053 221.5 22.4)"/><path fill="#aeaeae" d="M170 106h18v3h-18z"/><ellipse cx="169" cy="48" fill="#d68e8a" rx="23" ry="1"/><path fill="#8a8a89" d="M59.2 110.7l-.2-1 17.8-2.4.2 1z"/></g></g></svg>