<svg xmlns="http://www.w3.org/2000/svg" viewBox="0 0 761 350"><defs/><filter id="prefix__a"><feGaussianBlur stdDeviation="12"/></filter><rect width="100%" height="100%" fill="#f8f9f8"/><g filter="url(#prefix__a)"><g fill-opacity=".5" transform="translate(1.5 1.5) scale(2.97266)"><path fill="#41c000" d="M56 6h12v12H56z"/><ellipse cx="115" cy="107" fill="#878687" rx="75" ry="2"/><path fill="#354656" d="M22 68h101v1H22z"/><path fill="#7e7079" d="M20 45h92v2H20z"/><path fill="#7d737c" d="M148 45h101v2H148z"/><path fill="#00378a" d="M187 66h14v4h-14z"/><path fill="#7aa0b9" d="M59.5 58l1 13-14 1-1-13z"/><circle r="1" fill="#fff" transform="rotate(171.5 18.4 49) scale(79.0172 16.37829)"/><path fill="#00479f" d="M214 44h11v4h-11z"/><ellipse cx="194" cy="12" fill="#e69c89" rx="6" ry="9"/><ellipse cx="214" cy="68" fill="#7e8b93" rx="66" ry="1"/><path fill="#00268d" d="M78.2 46.7l-.2-1 13.8-2.4.2 1z"/><path fill="#f54b25" d="M156 44h16v3h-16z"/><path fill="#a2a6a2" d="M178 59h32v3h-32z"/><ellipse cx="30" cy="37" fill="#a5a8a5" rx="11" ry="3"/><path fill="#acaeac" d="M76 40l20-3-20-5z"/><ellipse cx="183" cy="107" fill="#8a898a" rx="17" ry="2"/><path fill="#bdbeba" d="M147.5 38.7L156 35l22.2 1.1-9.2 4.7z"/><ellipse cx="218" cy="38" fill="#949692" rx="12" ry="2"/><ellipse cx="127" fill="#fff" rx="27" ry="106"/><ellipse cx="238" cy="95" fill="#fff" rx="41" ry="50"/><path fill="#0359a4" d="M45 67h16v3H45z"/><path fill="#f0310a" d="M23 46l13.7-3 .3 1-13.7 3z"/><ellipse cx="21" cy="107" fill="#fff" rx="43" ry="39"/><path fill="#fff" d="M169 46h46v6h-46zM2 65.5l86-4.3-50.4 7-45.8-76z"/><ellipse cx="152" cy="87" fill="#fff" rx="255" ry="19"/><ellipse cx="116" cy="27" fill="#fff" rx="196" ry="9"/><path fill="#fff" d="M126.6-16L47.7 63.8l31.4-77-17.9 26.8z"/><circle cx="58" cy="14" r="5" fill="#9adb74"/><path fill="#a4a3a4" d="M69 106h30v4H69z"/><path fill="#fff" d="M256.3 43.7l-59.7-30.4 29-57 59.8 30.4z"/></g></g></svg>