<svg xmlns="http://www.w3.org/2000/svg" viewBox="0 0 790 400"><defs/><filter id="prefix__a"><feGaussianBlur stdDeviation="12"/></filter><rect width="100%" height="100%" fill="#f7f7f7"/><g filter="url(#prefix__a)"><g fill-opacity=".5" transform="translate(1.5 1.5) scale(3.08594)"><ellipse cx="214" cy="65" fill="#9099a3" rx="237" ry="2"/><ellipse cx="164" cy="20" fill="#949ca6" rx="179" ry="2"/><path fill="#717c8c" d="M0 109h189v2H0z"/><path fill="#fff" d="M189 14h31v115h-31z"/><ellipse cx="108" cy="54" fill="#b2b6b2" rx="85" ry="2"/><path fill="#717171" d="M218 108h23v4h-23z"/><ellipse cx="75" cy="98" fill="#cdd0cc" rx="120" ry="3"/><circle r="1" fill="#fff" transform="rotate(56.8 -94.8 66.7) scale(64.6336 26.85816)"/><path fill="#005ea9" d="M177 19h10v5h-10z"/><ellipse cx="139" cy="11" fill="#afb3af" rx="68" ry="2"/><circle r="1" fill="#fff" transform="matrix(-7.57411 74.56574 -13.10508 -1.33117 115.1 58.2)"/><ellipse cx="95" cy="65" fill="#6b717b" rx="87" ry="1"/><path fill="#fff" d="M245 0h11v129h-11z"/><path fill="#0053a0" d="M133 19h12v4h-12z"/><ellipse cx="53" cy="10" fill="#9c9f9a" rx="12" ry="3"/><ellipse cx="171" cy="33" fill="#fff" rx="255" ry="11"/><path fill="#fff" d="M20.9 97.8L271 78.3 45.4 67.6 34.6 48.9z"/><path fill="#c69f92" d="M9 108h45v4H9z"/><path fill="#003395" d="M93 22l2-3-9 1z"/><ellipse cx="175" cy="109" fill="#297ab2" rx="7" ry="3"/><path fill="#3586bd" d="M174 63h13v5h-13z"/><path fill="#ff2b00" d="M45 64h8v3h-8z"/><path fill="#005eab" d="M128 107h7v5h-7z"/><path fill="#00469b" d="M81 111l-8-4h12z"/><path fill="#a19f9c" d="M222 18h22v6h-22z"/><ellipse cx="50" cy="21" fill="#f03811" rx="6" ry="2"/><ellipse cx="200" cy="117" fill="#fff" rx="21" ry="72"/><path fill="#989693" d="M216 63h28v5h-28z"/><path fill="#fff" d="M61 30h11v99H61zm133 63l-83 1 54-44zm8-109l31 60-35 49z"/><path fill="#060906" d="M176.6 99.8l-.1-1 7-.6v1z"/></g></g></svg>