<svg xmlns="http://www.w3.org/2000/svg" viewBox="0 0 657 260"><defs/><filter id="prefix__a"><feGaussianBlur stdDeviation="12"/></filter><rect width="100%" height="100%" fill="#f6f5f5"/><g filter="url(#prefix__a)"><g fill-opacity=".5" transform="translate(1.3 1.3) scale(2.5664)"><path fill="#675a72" d="M34 83h140v2H34z"/><ellipse cx="68" cy="52" fill="#4d3731" rx="108" ry="1"/><path fill="#7c5365" d="M27 24h145v2H27z"/><path fill="#df3c1a" d="M46 50h21v5H46z"/><ellipse cx="134" cy="24" fill="#005baa" rx="7" ry="3"/><path fill="#a2a8a3" d="M211.8 82.1l25 1.8-.6 8-25-1.8z"/><circle r="1" fill="#fff" transform="matrix(19.96294 3.19754 -22.07163 137.79778 10.9 62.3)"/><path fill="#0059a3" d="M126.7 82l13.8-2 .8 6-13.8 2z"/><circle r="1" fill="#d8dcd9" transform="matrix(5.5501 -31.15813 15.92884 2.83736 223 43.8)"/><path fill="#f14821" d="M41.3 23.8l4.8 3.6 12.8.6-1.8-5.6z"/><path fill="#90948f" d="M126 10l26 4-28 4z"/><path fill="#9ca09c" d="M119 71h36v4h-36z"/><path fill="#8e928d" d="M39 62h29v4H39z"/><path fill="#b1b6b1" d="M40 10h33v7H40z"/><ellipse cx="46" cy="94" fill="#fff" rx="141" ry="11"/><path fill="#d54a8d" d="M109 84l-18 1 11-9z"/><path fill="#da5299" d="M83 23h21v5H83z"/><path fill="#979a98" d="M210 65h22v7h-22z"/><ellipse cx="192" cy="41" fill="#fff" rx="16" ry="184"/><circle cx="210" cy="19" r="3" fill="#474b4b"/><circle r="1" fill="#fff" transform="matrix(-10.87981 141.39576 -16.14233 -1.24208 246 97.7)"/><ellipse cx="110" cy="40" fill="#fff" rx="118" ry="11"/><path fill="#6c706d" d="M235 36.7l-.1 1-27.9-2.4.1-1z"/><path fill="#8d8e8b" d="M206 50h28v3h-28z"/><circle r="1" fill="#c3bfbd" transform="matrix(-29.48644 -29.60157 .70848 -.70573 77.4 53.6)"/><path fill="#fff" d="M94 54h162v12H94z"/><ellipse cx="227" cy="21" fill="#393b39" rx="9" ry="1"/><ellipse cx="88" cy="3" fill="#fff" rx="255" ry="8"/><path fill="#8e928a" d="M15 80l-5 8 1-10z"/><circle cx="14" cy="51" r="4" fill="#a2a9a2"/><path fill="#fff" d="M27 66h97v15H27zm193.4-31.1l49.2-12.2-59.9 2.7 9.8 83.7z"/></g></g></svg>