<svg xmlns="http://www.w3.org/2000/svg" viewBox="0 0 1020 200"><defs/><filter id="prefix__a"><feGaussianBlur stdDeviation="12"/></filter><rect width="100%" height="100%" fill="#ebebeb"/><g filter="url(#prefix__a)"><g fill-opacity=".5" transform="translate(2 2) scale(3.98438)"><path fill="#474747" d="M48 36h199v4H48z"/><path fill="#828282" d="M0 21h227v5H0z"/><ellipse cx="45" cy="37" fill="#838383" rx="44" ry="3"/><circle r="1" fill="#fff" transform="matrix(-21.11847 -20.05984 16.42358 -17.29031 243.9 10.7)"/><ellipse cx="129" cy="13" fill="#fff" rx="255" ry="7"/><ellipse cx="40" cy="31" fill="#fff" rx="232" ry="5"/><ellipse cx="109" cy="49" fill="#fff" rx="253" ry="9"/><circle r="1" fill="#848484" transform="matrix(-.4656 -5.4733 7.39722 -.62927 229.3 38.4)"/><path fill="#fff" d="M22.4-16l-34.6 41.7 58.8-15.2-8.9 22.6z"/><circle r="1" fill="#c2c2c2" transform="matrix(-227.91172 -.39778 .00175 -1 8.6 6)"/><path fill="#fff" d="M100.6 4.7l75-4.6-92.3-.8 11.8 34.9zM81.3 31.2L74.9 2.9l.5-10.6-4.8 43.5z"/><path fill="#fff" d="M173.7 27.8l-40.2-33 19.1 35.8L171.5-16z"/><path fill="#7c7c7c" d="M5 36h47v4H5z"/><path fill="#fbfbfb" d="M138.1 20.7l-33.6 17.2 8.9-24.6L125 38.5z"/><ellipse cx="101" cy="1" fill="#fff" rx="151" ry="4"/><path fill="#fff" d="M212.7 37.2l-28-9.4 1.3-12.6 39.3 32.3z"/><path fill="#636363" d="M4 20l10-1-10 6z"/><path fill="#fff" d="M-16 41L5 65 3-16z"/><path fill="#606060" d="M120 20h10v3h-10z"/><ellipse cx="131" cy="49" fill="#fff" rx="132" ry="10"/><path fill="#fff" d="M21.5 28.8L71.7 37 9.4 33 25.1 9z"/><path fill="#959595" d="M248 37.5l-21.8-4.9-1.6 10.8 29.6-5.7z"/><path fill="#fff" d="M205 9h8v27h-8z"/><circle r="1" fill="#838383" transform="matrix(6.44139 .468 -.12908 1.77665 85.7 21.4)"/><path fill="#fff" d="M63-4l-5 40-4-19z"/><path fill="#949494" d="M175 20h50v4h-50z"/><path fill="#f9f9f9" d="M186.1 7.4l8 .2-.2 17-8-.2z"/><path fill="#767676" d="M190.3 5l.4 18h-1l-.4-18z"/><circle r="1" fill="#fff" transform="matrix(4.37547 16.55709 -25.15757 6.64828 249.8 17.5)"/><path fill="#8f8f8f" d="M114 8h1v34h-1z"/><path fill="#fff" d="M0 27h226v8H0z"/></g></g></svg>