<svg xmlns="http://www.w3.org/2000/svg" viewBox="0 0 965 240"><defs/><filter id="prefix__a"><feGaussianBlur stdDeviation="12"/></filter><rect width="100%" height="100%" fill="#f5f6f5"/><g filter="url(#prefix__a)"><g fill-opacity=".5" transform="translate(1.9 1.9) scale(3.76953)"><path fill="#517da0" d="M136.2 39.4l74.3-.7 23.9-.5 6 3z"/><path fill="#115a96" d="M46 38h47v3H46z"/><path fill="#838c7e" d="M35 55h66v3H35z"/><ellipse cx="83" cy="16" fill="#ccb6b2" rx="191" ry="2"/><path fill="#fff" d="M43.8-16l21.3 76.9 17.3-28.6 107.5-2.8z"/><path fill="#7d7c7d" d="M179 55h51v3h-51z"/><path fill="#acafaa" d="M46 30h54v4H46z"/><ellipse cx="212" cy="31" fill="#adb0ab" rx="36" ry="2"/><ellipse cx="60" cy="39" fill="#5b6f80" rx="57" ry="1"/><path fill="#1567a5" d="M184.7 42.2l-.3-2 16.9-2.4.3 2z"/><ellipse cx="94" cy="17" fill="#ac8c85" rx="76" ry="1"/><ellipse cx="136" cy="62" fill="#fff" rx="19" ry="140"/><path fill="#f04525" d="M30 14l-7 4h13z"/><circle r="1" fill="#fff" transform="matrix(22.68643 -8.4607 21.64474 58.038 1.3 24.8)"/><ellipse cx="188" cy="47" fill="#fff" rx="252" ry="7"/><path fill="#0360a9" d="M237 37l-8 4-9-4z"/><ellipse cx="230" cy="8" fill="#fff" rx="56" ry="8"/><path fill="#a2a5a0" d="M154 7h22v4h-22z"/><path fill="#b0b3af" d="M16 7h26v4H16z"/><circle r="1" fill="#f0745a" transform="rotate(1.3 -604 7052.8) scale(7.32657 1)"/><circle r="1" fill="#fff" transform="rotate(20 -4.2 731.4) scale(15.81143 40.03258)"/><circle cx="36" cy="55" r="3" fill="#6bdc2c"/><path fill="#fff" d="M204.3-9.8l10.8 42.4L200 78l16.9-93.3z"/><path fill="#fffefb" d="M75.9 32.3L86.2 21l-49 37.1L82 46.6z"/><path fill="#fff" d="M172 0h84v16h-84z"/><path fill="#fe2a05" d="M160 16h10v2h-10z"/><ellipse cx="68" cy="39" fill="#6f8598" rx="50" ry="1"/><path fill="#004ea2" d="M190 38h10v2h-10z"/><path fill="#fff" d="M176.2 52.7l7.2-34.9L116 27l83.1 16z"/><path fill="#6d7b86" d="M200 39h56v1h-56z"/><ellipse cx="166" cy="39" fill="#89796d" rx="18" ry="1"/><path fill="#b1b3ae" d="M139 35l5 6-9-2z"/></g></g></svg>