<svg xmlns="http://www.w3.org/2000/svg" viewBox="0 0 829 320"><defs/><filter id="prefix__a"><feGaussianBlur stdDeviation="12"/></filter><rect width="100%" height="100%" fill="#f5f5f4"/><g filter="url(#prefix__a)"><g fill-opacity=".5" transform="translate(1.6 1.6) scale(3.23828)"><ellipse cx="183" cy="25" fill="#d10400" rx="27" ry="2"/><ellipse cx="92" cy="59" fill="#657887" rx="156" ry="1"/><ellipse cx="69" cy="25" fill="#68372e" rx="46" ry="1"/><ellipse cx="218" cy="91" fill="#999899" rx="60" ry="2"/><ellipse cx="196" cy="42" fill="#6b4943" rx="44" ry="1"/><ellipse cx="48" cy="42" fill="#ca2706" rx="13" ry="2"/><path fill="#3d80b2" d="M215.4 75.1l5 4.5 11.3-2.8-3.9-4z"/><path fill="#004f9f" d="M77 58l-17-2-1 5z"/><path fill="#a0a49e" d="M102.8 93l-21.7-3.7-51.2 2.6 33.3 2z"/><path fill="#296ea3" d="M85 74h20v4H85z"/><ellipse cx="127" cy="40" fill="#fff" rx="29" ry="244"/><path fill="#003a95" d="M192 57h8v4h-8z"/><path fill="#f25536" d="M47.1 26.3l-15.9 1.4-.3-4 15.9-1.4z"/><ellipse cx="49" cy="75" fill="#7a858d" rx="68" ry="1"/><ellipse cx="95" cy="42" fill="#585858" rx="23" ry="1"/><ellipse cx="4" cy="46" fill="#fff" rx="19" ry="169"/><ellipse cx="230" cy="25" fill="#4f5253" rx="20" ry="1"/><path fill="#828f9a" d="M150 75h97v2h-97z"/><path fill="#f43d19" d="M180 42l-12 1 6-4z"/><path fill="#a2a7a3" d="M24 16h24v4H24z"/><ellipse cx="73" cy="9" fill="#fff" rx="121" ry="15"/><ellipse cx="173" cy="17" fill="#bbc0bb" rx="13" ry="4"/><path fill="#fff" d="M242.3 78.2L253.2-16 271 101.4l-74.3-25z"/><path fill="#79d347" d="M27 89h7v6h-7z"/><path fill="#abb0ac" d="M52 48h25v5H52z"/><path fill="#a9aeaa" d="M166 33h24v5h-24z"/><ellipse cx="86" cy="68" fill="#9fa29f" rx="13" ry="2"/><path fill="#828683" d="M235.9 66.2v1l-23.8 2.6v-1z"/><path fill="#a1a5a2" d="M55.1 39.1l-20.7-3.3.5-3 20.7 3.4z"/><circle r="1" fill="#a1a6a2" transform="rotate(-90.2 126 -74.6) scale(1 14.23765)"/><ellipse cx="235" cy="4" fill="#fff" rx="75" ry="20"/><path fill="#fff" d="M70.2 25.6L57.1 51.4l-5.2-18.3 128.5 18.4z"/></g></g></svg>