<svg xmlns="http://www.w3.org/2000/svg" viewBox="0 0 833 320"><defs/><filter id="prefix__a"><feGaussianBlur stdDeviation="12"/></filter><rect width="100%" height="100%" fill="#f5f5f4"/><g filter="url(#prefix__a)"><g fill-opacity=".5" transform="translate(1.6 1.6) scale(3.2539)"><ellipse cx="47" cy="28" fill="#cf1100" rx="27" ry="2"/><path fill="#d60000" d="M159.5 28.2v-1l49 2.6v1z"/><path fill="#cad5db" d="M43 43h58v33H43z"/><path fill="#3674a5" d="M185 58h48v3h-48z"/><path fill="#608eb2" d="M195 74h46v3h-46z"/><ellipse cx="71" cy="58" fill="#5e90b7" rx="30" ry="2"/><ellipse cx="58" cy="88" fill="#919d8a" rx="29" ry="2"/><ellipse cx="218" cy="44" fill="#6e544f" rx="67" ry="1"/><circle r="1" fill="#fff" transform="rotate(81.3 48.2 84.8) scale(85.00099 34.27741)"/><path fill="#909091" d="M177 87h61v3h-61z"/><path fill="#fff" d="M80 43l13 45-41-42zm114.7 42.1l33.6-33.2-33.4 4.9 50.3 31.9z"/><ellipse cx="38" cy="43" fill="#cf2d0c" rx="8" ry="2"/><path fill="#7c95a8" d="M17 73h98v2H17z"/><ellipse cx="229" fill="#fff" rx="77" ry="28"/><path fill="#e56d48" d="M157 28h50v3h-50z"/><ellipse cx="212" cy="68" fill="#adb0ae" rx="30" ry="2"/><circle r="1" fill="#fff" transform="matrix(.72415 -16.65029 100.42365 4.3676 92.7 7.9)"/><path fill="#cca194" d="M167.9 35.5l15 1-.8 10-15-1z"/><ellipse cx="99" cy="28" fill="#5d5d5e" rx="14" ry="1"/><path fill="#c6c9c6" d="M180 49h58v5h-58z"/><ellipse cx="22" cy="73" fill="#fff" rx="30" ry="29"/><path fill="#fff" d="M262.3 115.5l-31.3-6.7 16.7-78.3 31.3 6.7z"/><ellipse cx="50" cy="59" fill="#839aab" rx="62" ry="1"/><ellipse cx="186" cy="59" fill="#698397" rx="44" ry="1"/><path fill="#a5aaa6" d="M31 35h22v4H31z"/><path fill="#fff" d="M217.4 62.4l11.4 24.8-36.2-33.4L217 46z"/><path fill="#a1a5a0" d="M165 20h19v4h-19z"/><ellipse cx="83" cy="43" fill="#9c9996" rx="30" ry="1"/><path fill="#003a95" d="M65.3 76l-7-1 .4-3 7 1z"/><path fill="#2979b3" d="M91 72h13v4H91z"/><ellipse cx="195" cy="74" fill="#3074aa" rx="6" ry="2"/></g></g></svg>