<svg xmlns="http://www.w3.org/2000/svg" viewBox="0 0 946 320"><defs/><filter id="prefix__a"><feGaussianBlur stdDeviation="12"/></filter><rect width="100%" height="100%" fill="#f3f4f3"/><g filter="url(#prefix__a)"><g fill-opacity=".5" transform="translate(1.8 1.8) scale(3.69531)"><ellipse cx="74" cy="54" fill="#628cae" rx="50" ry="2"/><path fill="#b4c7d1" d="M202 45h40v24h-40z"/><path fill="#dd1000" d="M166 37h15v3h-15z"/><ellipse cx="73" cy="68" fill="#779ab6" rx="53" ry="2"/><ellipse cx="35" cy="39" fill="#d32503" rx="10" ry="2"/><path fill="#c55a46" d="M153 23h52v2h-52z"/><ellipse cx="33" cy="24" fill="#cc6e5c" rx="15" ry="2"/><circle r="1" fill="#fff" transform="rotate(-156.9 54.4 -11.1) scale(56.60556 43.06141)"/><ellipse cx="74" cy="39" fill="#9f7871" rx="52" ry="1"/><circle r="1" fill="#fffffe" transform="matrix(32.79399 .84193 -.633 24.65576 19.3 65)"/><path fill="#98a192" d="M35 79h46v3H35z"/><circle r="1" fill="#fff" transform="matrix(-50.09516 15.41128 -6.38281 -20.74766 249 11.6)"/><ellipse cx="243" cy="67" fill="#5f7589" rx="90" ry="1"/><path fill="#8f8e8f" d="M178 79h47v3h-47z"/><ellipse cx="77" cy="24" fill="#919496" rx="44" ry="1"/><path fill="#fffff9" d="M210 65.5l-9.3 1.5 28.8-29.7-.3 31.4z"/><circle r="1" fill="#fff" transform="matrix(54.42447 -5.84054 1.31116 12.21792 125.7 81.4)"/><ellipse cx="230" cy="53" fill="#6f899f" rx="80" ry="1"/><ellipse cx="182" cy="16" fill="#b0b2ae" rx="27" ry="2"/><path fill="#b0b3af" d="M48 61h73v3H48z"/><path fill="#fffefb" d="M63 45h18v33H63z"/><path fill="#fff" d="M38.1 24.7L254.2 7.3 271 0H-16z"/><ellipse cx="228" cy="38" fill="#a18883" rx="74" ry="1"/><ellipse cx="87" cy="46" fill="#b9bcb9" rx="49" ry="2"/><path fill="#004d9a" d="M229 52h14v2h-14z"/><ellipse cx="255" cy="32" fill="#fff" rx="16" ry="96"/><ellipse cx="59" cy="68" fill="#6d8395" rx="57" ry="1"/><path fill="#fff" d="M109 101L91 49l16-12z"/><path fill="#5381a4" d="M43 53h78v2H43z"/><path fill="#aaa8a3" d="M203 60h48v2h-48z"/><path fill="#acafab" d="M168 30h22v4h-22z"/><ellipse cx="47" cy="33" fill="#b7bab6" rx="25" ry="2"/></g></g></svg>