<svg xmlns="http://www.w3.org/2000/svg" viewBox="0 0 503 280"><defs/><filter id="prefix__a"><feGaussianBlur stdDeviation="12"/></filter><rect width="100%" height="100%" fill="#f6f6f6"/><g filter="url(#prefix__a)"><g fill-opacity=".5" transform="translate(1 1) scale(1.96484)"><ellipse cx="100" cy="103" fill="#688194" rx="144" ry="2"/><ellipse cx="109" cy="76" fill="#794e56" rx="48" ry="3"/><ellipse cx="21" cy="49" fill="#5a413c" rx="221" ry="1"/><path fill="#8b8b8b" d="M68 125h91v5H68z"/><path fill="#dc3211" d="M40 47h29v5H40z"/><ellipse cx="109" cy="63" fill="#b8bab7" rx="53" ry="4"/><ellipse cx="193" cy="103" fill="#4780ae" rx="43" ry="3"/><ellipse cx="188" cy="89" fill="#a1a3a0" rx="47" ry="3"/><path fill="#fff" d="M199 74l-42 66 60 17zM-.3 2.5l78 135-55.4 32-78-135z"/><ellipse cx="183" cy="76" fill="#5f5557" rx="158" ry="1"/><ellipse cx="180" cy="16" fill="#fff" rx="171" ry="31"/><path fill="#9fa39f" d="M30 31l35 6-35 4z"/><path fill="#fff" d="M113.4 59l-6.4 41.2-33.4 2.5 36.6-48.9z"/><ellipse cx="204" cy="50" fill="#848686" rx="139" ry="1"/><path fill="#fff" d="M65 104h95v19H65z"/><path fill="#0063c9" d="M73 74h18v4H73z"/><path fill="#ff653c" d="M126 72l-13 6 28-1z"/><path fill="#fff" d="M208.5 61L61.4 102l98.6.6-38.5-49.7zM245 1.1l25 .9-5 140.9-25-.9z"/><ellipse cx="140" cy="103" fill="#4d555d" rx="103" ry="1"/><circle cx="9" cy="73" r="3" fill="#646863"/><path fill="#515552" d="M155 85.5l-1.1 6-5-1 1.2-6z"/><path fill="#2377b7" d="M207 100h20v6h-20z"/><path fill="#767a75" d="M6.8 51.8L9.3 43l3.9 1.1-2.5 8.7z"/><path fill="#005cab" d="M162 101h15v5h-15z"/><path fill="#989898" d="M84 126h87v3H84z"/><ellipse cx="143" cy="133" fill="#fff" rx="239" ry="5"/><path fill="#dfaf9e" d="M51 121h10v11H51z"/><path fill="#b1b1ae" d="M3.8 114.3l4.8-13.1 7.5.3L8 95z"/><path fill="#aaaca8" d="M124 16l-6-12-5 6z"/><path fill="#52564f" d="M69.6 60.6l-6.5 2.6-.7-1.8 6.5-2.6z"/></g></g></svg>