<svg xmlns="http://www.w3.org/2000/svg" viewBox="0 0 1202 320"><defs/><filter id="prefix__a"><feGaussianBlur stdDeviation="12"/></filter><rect width="100%" height="100%" fill="#f6f5f5"/><g filter="url(#prefix__a)"><g fill-opacity=".5" transform="translate(2.3 2.3) scale(4.69531)"><circle r="1" fill="#ae4235" transform="rotate(-90.1 33 -16.1) scale(1.67863 33.94237)"/><path fill="#7c2277" d="M187 35h40v3h-40z"/><path fill="#906469" d="M154 15h47v3h-47z"/><path fill="#91859d" d="M17 35h105v2H17z"/><ellipse cx="60" cy="44" fill="#9da29d" rx="27" ry="2"/><circle r="1" fill="#fff" transform="rotate(174.6 60.4 27.1) scale(37.97323 72.1128)"/><ellipse cx="190" cy="60" fill="#808181" rx="20" ry="2"/><ellipse cx="56" cy="9" fill="#a8ada8" rx="32" ry="2"/><path fill="#858686" d="M73 61.5H47v-3h26z"/><path fill="#9fa29e" d="M152 8h54v2h-54z"/><path fill="#1d78b6" d="M62.1 34.7l.1 2.8 7.5 1 1.6-5.4z"/><path fill="#fff" d="M166 32l16-48 4 37z"/><path fill="#8697a6" d="M61 16h60v2H61z"/><path fill="#afb4ae" d="M204 43l-26-4 8 8z"/><path fill="#adb3ae" d="M210 24l-10 6 22-1z"/><ellipse cx="196" cy="35" fill="#bba7ba" rx="53" ry="2"/><ellipse cx="43" cy="36" fill="#e11f7e" rx="6" ry="2"/><circle r="1" fill="#fff" transform="matrix(-24.3096 -15.96843 52.11244 -79.3336 240.8 65.6)"/><path fill="#0063af" d="M186.8 37.6l-.3-1 8.7-2.2.3 1z"/><circle r="1" fill="#fff" transform="matrix(19.96938 51.26152 -23.77061 9.26005 4.1 34)"/><path fill="#8ea7b5" d="M187 16h69v2h-69z"/><path fill="#ff6b47" d="M155 15h19v3h-19z"/><circle r="1" fill="#d3bbc4" transform="matrix(-31.21034 -11.70007 .35102 -.93637 191.7 30.1)"/><ellipse cx="68" cy="18" fill="#6e90b0" rx="6" ry="4"/><path fill="#fff" d="M46 61h210v7H46z"/><ellipse cx="51" cy="16" fill="#fd5b39" rx="11" ry="2"/><path fill="#adadad" d="M39 58h29v4H39z"/><ellipse cx="183" cy="52" fill="#fff" rx="213" ry="7"/><path fill="#fff" d="M97-4l92 37-131 1zm166.3-.2L258 19.2l-65.2-15 5.4-23.4z"/><ellipse cx="36" cy="16" fill="#f66444" rx="13" ry="2"/><path fill="#fff" d="M0 19h70v8H0z"/></g></g></svg>