<svg xmlns="http://www.w3.org/2000/svg" viewBox="0 0 425 282"><defs/><filter id="prefix__a"><feGaussianBlur stdDeviation="12"/></filter><rect width="100%" height="100%" fill="#a8bcd3"/><g filter="url(#prefix__a)"><g fill-opacity=".5" transform="translate(.8 .8) scale(1.66016)"><circle r="1" fill="#5c2100" transform="matrix(-10.96345 -62.81773 40.52972 -7.07357 135 155.2)"/><circle r="1" fill="#030000" transform="matrix(-24.30706 4.85715 -2.36224 -11.82155 86.8 55.3)"/><path fill="#410800" d="M165 55h38v25h-38z"/><circle r="1" fill="#dff" transform="matrix(-254.83737 -9.10563 1.45972 -40.85273 72.4 8)"/><circle r="1" fill="#0d72c3" transform="matrix(71.51867 11.07168 -4.31499 27.87313 243 168.7)"/><path fill="#e5f8ff" d="M1 37l149 89-166-1z"/><path fill="#80471c" d="M178 67l-47 22-70-15z"/><circle r="1" fill="#def6ff" transform="matrix(-68.19575 32.11294 -14.61406 -31.03473 228.2 89.4)"/><circle r="1" fill="#2382cc" transform="matrix(-2.45101 25.45474 -58.18014 -5.60211 40.2 162.5)"/><path fill="#32252d" d="M89.3 169.9l83.1-34.4 24.8 35.6-50.2-7.9z"/><path fill="#311912" d="M179 64h26v16h-26z"/><path fill="#8f6b57" d="M62 180l104-42-36-67z"/><path fill="#160000" d="M56 55h45v11H56z"/><path fill="#eefeff" d="M134 82l58-2-19 50z"/><path fill="#cde7ff" d="M39.7 143.6L127 82.7l-29.4-1.5L8.4 71.1z"/><circle cx="142" cy="30" r="39" fill="#dbecff"/><circle r="1" fill="#bedcff" transform="matrix(-30.81508 -5.32269 16.1455 -93.47247 237 52.3)"/><path fill="#5d4233" d="M121 108l-11.1-1.1 12.8-34.8L149 100z"/><path fill="#bdddff" d="M75-30.4L35.2 142.1-33 126.4 6.8-46.1z"/><path fill="#bfa08a" d="M79 151l80-17-51-32z"/><circle r="1" fill="#77668e" transform="matrix(1.92615 8.39532 -14.58894 3.34716 195.7 54.1)"/><path fill="#665a88" d="M107.8 54.9l1.8-10.5-38-4.7-18.2 15.9z"/><circle r="1" fill="#070c12" transform="matrix(-27.8491 -2.928 .43315 -4.1198 124.1 159.8)"/><path fill="#6cb5f4" d="M85.4 163.7l1-28.4-100-8.7 10.2 13.7z"/><path fill="#d3ac7d" d="M53 67h90v7H53z"/><path fill="#e0eefd" d="M82.8 146.5l16.6-27.6-40.8-27.1 64.3-12.1z"/><path fill="#5eb1f2" d="M182 133h74v29h-74z"/><path fill="#6d6488" d="M22 165h208v4H22z"/><path fill="#725042" d="M136 71h68v10h-68z"/><path fill="#e6faff" d="M128 39l-27 23h65z"/><path fill="#cab0b0" d="M175.9 69.1l-47.2 2.1 67.1-34-22.6 25.1z"/><ellipse cx="135" cy="19" fill="#c2e1ff" rx="255" ry="22"/></g></g></svg>