<svg xmlns="http://www.w3.org/2000/svg" viewBox="0 0 800 213"><defs/><filter id="prefix__a"><feGaussianBlur stdDeviation="12"/></filter><rect width="100%" height="100%" fill="#f6ecf4"/><g filter="url(#prefix__a)"><g fill-opacity=".5" transform="translate(1.6 1.6) scale(3.125)"><path fill="#c25eb0" d="M34 29h208v15H34z"/><path fill="#00c0ff" d="M123 29h31v16h-31z"/><ellipse cx="132" cy="5" fill="#fff" rx="255" ry="24"/><ellipse cx="128" cy="59" fill="#fff" rx="255" ry="15"/><path fill="#9ba39b" d="M148 13h51v5h-51z"/><path fill="#ff9dc4" d="M155 29h88v16h-88z"/><path fill="#8e968f" d="M126 59.3l.1-4 26 1.4-.2 4z"/><path fill="#ffa4c7" d="M33 29h92v16H33z"/><ellipse cx="58" cy="8" fill="#fff" rx="94" ry="20"/><path fill="#8d9a8f" d="M9 35h15v4H9z"/><path fill="#fff" d="M-3 35l1 48 162-13zm156-9h2v42h-2zm42-26h61v29h-61z"/><circle r="1" fill="#99d2fb" transform="rotate(1.1 -376.7 7392.7) scale(1 35.52115)"/><path fill="#fff" d="M152 45h104v23H152z"/><path fill="#43a7ff" d="M126 30h26v13h-26z"/><circle cx="139" cy="36" r="5" fill="#c3e3f7"/><path fill="#fff" d="M123 15h2v53h-2z"/><path fill="#fdffff" d="M184 48.5h-1l3-59h1z"/><circle r="1" fill="#fff" transform="matrix(-.99324 -.1161 10.93086 -93.51018 212.8 45.1)"/><path fill="#fff" d="M242.6-8.7L-16 9l50.7 34.4.6-21.7z"/><circle r="1" fill="#fff" transform="matrix(3.56363 -52.30984 1.0912 .07434 95 21)"/><path fill="#fff" d="M132.9 48.1L65.7 83l-4.1-58.9 8.8 30.3z"/><ellipse cx="253" cy="22" fill="#fff" rx="11" ry="113"/><path fill="#faecf0" d="M194 33h10v8h-10z"/><circle cx="192" cy="14" r="3" fill="#7d7e7c"/><path fill="#fcf6f7" d="M102.5 34.6l11-.2v5l-11 .2z"/><path fill="#f8dee9" d="M173.3 40.5l3.5-6.3-13.8-.1-.5 6.6z"/><path fill="#fff" d="M131.3 28.1l-99.1-1.3-37.5 13.5L6.2-16z"/><circle r="1" fill="#339dfb" transform="rotate(-100.4 83.7 -43.3) scale(2.57687 5.56749)"/><circle cx="136" cy="37" r="3" fill="#ddf0f9"/><path fill="#fae4ec" d="M223 34h10v7h-10z"/></g></g></svg>