<svg xmlns="http://www.w3.org/2000/svg" viewBox="0 0 638 360"><defs/><filter id="prefix__a"><feGaussianBlur stdDeviation="12"/></filter><rect width="100%" height="100%" fill="#f7f4f6"/><g filter="url(#prefix__a)"><g fill-opacity=".5" transform="translate(1.2 1.2) scale(2.49219)"><ellipse cx="56" cy="50" fill="#002689" rx="7" ry="8"/><path fill="#003691" d="M195 41.1l11.5 2.5.3 11.2-14 .5z"/><path fill="#e57cb0" d="M8 91h96v11H8zm144-1h97v12h-97z"/><path fill="#fff" d="M49 56h15v72H49zm143.1 25.5l39.8 37.7 3.6-43.9-42.4 62.3zm-13.5-10.6l-19.5 38L7.2 159H183z"/><path fill="#9cad96" d="M28 132h52v4H28z"/><path fill="#fff" d="M20 54h16v75H20z"/><path fill="#d3468c" d="M17.6 105.4l3.1-7.5-2.6-9.6L4.4 99.1z"/><circle cx="99" cy="97" r="7" fill="#cf267a"/><circle r="1" fill="#fff" transform="matrix(35.8257 3.07443 -6.74516 78.59996 131.1 36.6)"/><circle cx="214" cy="97" r="6" fill="#cd2378"/><path fill="#cf2178" d="M46.3 105l-10-1 1.4-13 10 1z"/><path fill="#777a78" d="M183 133h51v3h-51z"/><path fill="#fff" d="M77 85h15v48H77z"/><path fill="#d33684" d="M66 90h10v14H66z"/><circle r="1" fill="#fff" transform="matrix(-.36852 -22.90309 204.98112 -3.29827 122.4 4.6)"/><circle r="1" fill="#d13683" transform="matrix(-2.32228 -4.33657 6.53327 -3.49864 186 94.7)"/><circle cx="200" cy="48" r="7" fill="#0062a8"/><ellipse cx="65" cy="29" fill="#adb7b4" rx="40" ry="2"/><circle r="1" fill="#d03180" transform="matrix(-6.07204 .53963 -.58786 -6.61478 158.8 96.2)"/><path fill="#ddb6af" d="M171 25h72v4h-72z"/><path fill="#9ea49f" d="M78 58h33v4H78z"/><path fill="#cf2a7c" d="M241.4 104.6l-6.2-7.8 9.4-7.4 6.2 7.8z"/><path fill="#0066ab" d="M49 45h11v9H49z"/><ellipse cx="149" cy="71" fill="#f1aaa2" rx="18" ry="3"/><path fill="#8e948f" d="M106 75l-17-3 7-3z"/><path fill="#f8ffff" d="M232 130l6-58-26-12z"/><path fill="#fff" d="M211 43l-8 86-13-54z"/><ellipse cx="239" cy="64" fill="#9fa5a0" rx="11" ry="3"/><path fill="#afb6b0" d="M48.2 48.7l-22-.8-1 1.9 22.6 3.5z"/></g></g></svg>