<svg xmlns="http://www.w3.org/2000/svg" viewBox="0 0 832 536"><defs/><filter id="prefix__a"><feGaussianBlur stdDeviation="12"/></filter><rect width="100%" height="100%" fill="#eeedee"/><g filter="url(#prefix__a)"><g fill-opacity=".5" transform="matrix(3.25 0 0 3.25 1.6 1.6)"><path fill="#8f908f" d="M78 13h155v6H78z"/><ellipse cx="158" cy="141" fill="#929392" rx="201" ry="3"/><path fill="#a0a1a0" d="M212 28h10v97h-10z"/><path fill="#fff" d="M243.1 183.2l-22-209.8 43.8-4.6 22 209.8z"/><path fill="#a7a8a7" d="M172 29h11v103h-11z"/><path fill="#fff" d="M106 19.2l37 .6-3 163-37-.6z"/><path fill="#9f9f9e" d="M140 152h106v5H140z"/><path fill="#6b6b6a" d="M44 152h37v5H44z"/><ellipse cx="198" cy="76" fill="#4b4c4b" rx="1" ry="52"/><ellipse cx="88" cy="78" fill="#767776" rx="146" ry="1"/><ellipse cy="59" fill="#fff" rx="24" ry="143"/><circle r="1" fill="#fff" transform="matrix(-17.66707 .67429 -5.1098 -133.8816 244.7 96.4)"/><ellipse cx="67" cy="51" fill="#494a49" rx="45" ry="1"/><path fill="#494949" d="M61 122l-1-56h1l1 56z"/><ellipse cx="224" cy="105" fill="#828382" rx="206" ry="1"/><path fill="#a2a3a2" d="M20 13h77v5H20z"/><ellipse cx="120" cy="3" fill="#fff" rx="255" ry="8"/><path fill="#c1c2c1" d="M41 27h63v12H41z"/><ellipse cx="124" cy="80" fill="#fff" rx="14" ry="63"/><ellipse cx="52" cy="118" fill="#6e6f6e" rx="59" ry="1"/><ellipse cx="192" cy="91" fill="#858685" rx="174" ry="1"/><ellipse cx="36" cy="64" fill="#8a8b8a" rx="75" ry="1"/><ellipse cx="146" cy="88" fill="#a6a7a6" rx="2" ry="44"/><path fill="#a1a1a0" d="M163 29h65v5h-65z"/><path fill="#fff" d="M-16 119.2l89.6 17-53.4 2L13.1-16z"/><path fill="#abacab" d="M97 38h4v59h-4z"/><ellipse cx="253" cy="89" fill="#fff" rx="19" ry="83"/><ellipse cx="155" cy="82" fill="#5c5d5c" rx="1" ry="49"/><ellipse cx="86" cy="47" fill="#808180" rx="1" ry="84"/><ellipse cx="174" cy="51" fill="#525352" rx="37" ry="1"/><path fill="#fff" d="M112 18h25v111h-25z"/><path fill="#b0b0b0" d="M72 28h4v96h-4z"/></g></g></svg>