<svg xmlns="http://www.w3.org/2000/svg" viewBox="0 0 610 600"><defs/><filter id="prefix__a"><feGaussianBlur stdDeviation="12"/></filter><rect width="100%" height="100%" fill="#f1f1f0"/><g filter="url(#prefix__a)"><g fill-opacity=".5" transform="translate(1.2 1.2) scale(2.38281)"><ellipse cx="235" cy="217" fill="#27788b" rx="12" ry="26"/><path fill="#00382d" d="M114.2 129.7l.6-18 17 .6-.6 18z"/><path fill="#000027" d="M46 221h15v16H46z"/><ellipse cx="234" cy="116" fill="#9e907e" rx="10" ry="69"/><path fill="#560000" d="M45 140h19v15H45z"/><path fill="#9aa400" d="M82 57h16v45H82z"/><path fill="#006fff" d="M45 56h18v17H45z"/><path fill="#0af" d="M227 139h17v17h-17z"/><path fill="#ea0076" d="M114 85h19v15h-19z"/><path fill="#fff" d="M104 211h152v13H104z"/><path fill="#fff" d="M145 266L125-11l119 33z"/><circle cx="236" cy="64" r="9" fill="#2ef100"/><path fill="#8d0045" d="M227 85h16v17h-16z"/><circle cx="235" cy="119" r="9" fill="#ff8a00"/><path fill="#fffdff" d="M121.4 72.6l.2 12-49 .8-.2-12z"/><path fill="#003178" d="M46 223h17v14H46z"/><path fill="#fff" d="M98 127h129v124H98z"/><circle r="1" fill="#fff" transform="rotate(-179.3 9.2 58.5) scale(28.75638 146.16694)"/><path fill="#ff2e9f" d="M227 167h18v15h-18z"/><path fill="#7c7c7d" d="M40 8h88v4H40z"/><path fill="#ff8200" d="M81 102l21-12-21-7z"/><circle cx="234" cy="232" r="9" fill="#003070"/><path fill="#90004d" d="M46 141h16v16H46z"/><path fill="#22e920" d="M81 57h18v16H81z"/><path fill="#006e57" d="M227 197h17v14h-17z"/><circle r="1" fill="#fff" transform="matrix(31.5371 1.54242 -.27124 5.5459 241 106.8)"/><ellipse cx="255" cy="139" fill="#fff" rx="12" ry="255"/><ellipse cx="220" cy="10" fill="#7f7f80" rx="24" ry="3"/><path fill="#00a2f9" d="M62.9 71l-17 1-.8-15 17-1z"/><path fill="#fff" d="M214.6 127.2l2.7 15.2 48.5-5.9-14.1-8.1z"/><path fill="#fff" d="M205.7 164.3l22.8-80.6 42.5 1.8-63.7-21.1z"/><circle cx="123" cy="119" r="9" fill="#007670"/></g></g></svg>