<svg xmlns="http://www.w3.org/2000/svg" viewBox="0 0 485 600"><defs/><filter id="prefix__a"><feGaussianBlur stdDeviation="12"/></filter><rect width="100%" height="100%" fill="#eceeee"/><g filter="url(#prefix__a)"><g fill-opacity=".5" transform="translate(1.2 1.2) scale(2.34375)"><path fill="#00526a" d="M165 198h19v49h-19z"/><path fill="#000040" d="M111.7 136.1l.6 17-22 .8-.6-17z"/><path fill="#002e23" d="M126 105h20v18h-20z"/><path fill="#4a0000" d="M51 137h18v17H51z"/><circle cx="175" cy="83" r="11" fill="#780026"/><path fill="#0076ff" d="M49.8 45.4l21-1.8 1.4 17-21 1.8z"/><path fill="#05cc00" d="M90 44h19v19H90z"/><path fill="#16cf00" d="M165 44h19v19h-19z"/><path fill="#0077fc" d="M166 137h18v18h-18z"/><ellipse cx="98" cy="222" fill="#fff" rx="206" ry="7"/><path fill="#f00579" d="M127 76h19v19h-19z"/><circle r="1" fill="#f02a8d" transform="matrix(-5.4191 -6.06997 8.87277 -7.92136 174.8 174.5)"/><ellipse cx="18" cy="89" fill="#fff" rx="32" ry="206"/><ellipse cx="114" cy="215" fill="#fff" rx="52" ry="63"/><path fill="#009ffc" d="M51 44h18v18H51z"/><ellipse cx="199" cy="125" fill="#fff" rx="16" ry="203"/><path fill="#00467c" d="M108.2 135.2l.6 19-19 .6-.6-19z"/><circle cx="175" cy="238" r="10" fill="#003274"/><path fill="#008a84" d="M145.6 124.1l-18.8-.3.9-18.8 18.8 2.4z"/><path fill="#fefdfc" d="M109 82h18v160h-18z"/><ellipse cx="102" cy="2" fill="#fff" rx="203" ry="18"/><path fill="#9d0054" d="M66.2 138l3.9 13.4-16.3 4.7-3.9-13.5z"/><path fill="#fff" d="M152.4 214.2l32 1.6-.8 14-32-1.6z"/><ellipse cx="62" cy="25" fill="#858383" rx="8" ry="6"/><path fill="#727070" d="M130 19h12v10h-12z"/><path fill="#7a7878" d="M93 19h12v10H93z"/><path fill="#fcfaf7" d="M152.7 54.4l45.4 20.9-26.9.7-128-5.4z"/><path fill="#9f206f" d="M165 80h19v14h-19z"/><path fill="#8b8d88" d="M168 22h24v5h-24z"/><path fill="#00b2f5" d="M168 137h16v17h-16z"/><path fill="#006d53" d="M164.4 197.8l19-.6.2 5-19 .6z"/><path fill="#fff" d="M139.8 102.3l-47.7-6 69.5-5.2 60.4 77z"/></g></g></svg>