<svg xmlns="http://www.w3.org/2000/svg" viewBox="0 0 1229 400"><defs/><filter id="prefix__a"><feGaussianBlur stdDeviation="12"/></filter><rect width="100%" height="100%" fill="#f8eded"/><g filter="url(#prefix__a)"><g fill-opacity=".5" transform="translate(2.4 2.4) scale(4.80078)"><path fill="#be0000" d="M170 42h26v13h-26z"/><path fill="#bdb930" d="M65 17h23v41H65z"/><path fill="#e17f91" d="M24 17h133v12H24z"/><path fill="#e47a8b" d="M26.1 41.2l154 2.6-.2 11-154-2.6z"/><ellipse cx="85" cy="35" fill="#fff" rx="255" ry="7"/><ellipse cx="70" cy="74" fill="#fff" rx="255" ry="20"/><path fill="#d90900" d="M168 44h26v9h-26z"/><ellipse cx="75" cy="24" fill="#a7c602" rx="15" ry="6"/><path fill="#a8c300" d="M61.5 42.5h25v11h-25z"/><circle r="1" fill="#fff" transform="matrix(.15972 88.2824 -5.07737 .00919 92.7 30.4)"/><circle r="1" fill="#feffff" transform="rotate(-149.7 113 -18.4) scale(132.0687 30.53958)"/><ellipse cx="56" cy="15" fill="#fff" rx="5" ry="117"/><ellipse cx="128" cy="24" fill="#fff" rx="5" ry="50"/><path fill="#fff" d="M31.7 9.6L167.1-16l-9.8 87.6 24.9-52.2z"/><path fill="#fff" d="M0 30h136v11H0z"/><ellipse cx="242" cy="48" fill="#9badb1" rx="38" ry="2"/><ellipse cx="32" cy="6" fill="#fff" rx="152" ry="11"/><circle r="1" fill="#009732" transform="matrix(4.34135 -2.34587 1.50898 2.79257 75 48)"/><path fill="#87908b" d="M120 74h19v3h-19z"/><path fill="#199d36" d="M71 18h9v8h-9z"/><path fill="#f26cc3" d="M160.6 28.4l-17.9 2.2-1.3-11 17.9-2.2z"/><path fill="#faffff" d="M160 11h9v72h-9z"/><circle r="1" fill="#fff" transform="matrix(48.25573 22.32001 -12.12813 26.22094 240.2 15.6)"/><path fill="#f273ca" d="M26 43h27v11H26z"/><path fill="#949d98" d="M175 9h18v4h-18z"/><path fill="#d82b04" d="M170 42h24v12h-24z"/><path fill="#f27bcd" d="M98 41h24v14H98z"/><path fill="#f476cc" d="M27 17h25v12H27z"/><ellipse cx="220" cy="74" fill="#fff" rx="52" ry="24"/><path fill="#f9ffff" d="M0 55h256v19H0z"/><circle r="1" fill="#fff" transform="matrix(-.53828 25.69742 -4.63711 -.09713 56.9 37.7)"/><path fill="#f278cb" d="M136 42h25v13h-25z"/></g></g></svg>