<svg xmlns="http://www.w3.org/2000/svg" viewBox="0 0 1114 420"><defs/><filter id="prefix__a"><feGaussianBlur stdDeviation="12"/></filter><rect width="100%" height="100%" fill="#f4ecf0"/><g filter="url(#prefix__a)"><g fill-opacity=".5" transform="translate(2.2 2.2) scale(4.35156)"><path fill="#bf809d" d="M34 60h131v12H34z"/><path fill="#dcb0c0" d="M32 12h133v38H32z"/><path fill="#55922d" d="M91.1 47.4l-14-31.7 9.6-5.9-8.1 37.6z"/><ellipse cx="63" cy="31" fill="#fff" rx="160" ry="7"/><path fill="#9e55ae" d="M172 36h26v12h-26z"/><path fill="#e37b41" d="M127.8 12.8l-15.8-.1 10.4 36.5-12-3.9z"/><circle r="1" fill="#fff" transform="rotate(-46.1 195.4 -222.8) scale(154.59943 39.12958)"/><path fill="#fff" d="M103.7 69.4l-.3-85.4L86 111l185-29.9z"/><path fill="#0194c3" d="M142 14h20v8h-20z"/><path fill="#459d1d" d="M76 72.8l13.9-6.1-1.7 1.4-6.4-12.3z"/><circle r="1" fill="#fff" transform="matrix(-5.18863 -.08151 1.25059 -79.60842 64.1 59.3)"/><ellipse cx="134" cy="56" fill="#fff" rx="5" ry="96"/><path fill="#1aaacf" d="M139 63h22v7h-22z"/><ellipse cx="11" cy="46" fill="#fff" rx="24" ry="179"/><path fill="#e27d0a" d="M119.2 62l3.2 6.7-9.6 4.9-.6-11.5z"/><circle r="1" fill="#fff" transform="matrix(-3.3378 16.83209 -119.17684 -23.63272 191.1 2.9)"/><circle cx="146" cy="42" r="5" fill="#0ecca9"/><circle cx="83" cy="17" r="4" fill="#068b00"/><path fill="#0988dd" d="M199 42l-11 2-1-10z"/><path fill="#797d7b" d="M243.5 65v3l-27-1v-3z"/><circle cx="81" cy="40" r="4" fill="#088900"/><path fill="#feffff" d="M5 24h207v10H5z"/><ellipse cx="126" cy="5" fill="#fff" rx="255" ry="7"/><path fill="#6b6f6d" d="M218 27h16v3h-16z"/><path fill="#dd78ae" d="M35 36h25v12H35z"/><ellipse cx="117" cy="41" fill="#e86b79" rx="13" ry="6"/><ellipse cx="61" cy="86" fill="#fff" rx="255" ry="15"/><path fill="#f367b4" d="M161.5 36.5l-1 12-12-1 1-12z"/><path fill="#de84b5" d="M38 12h22v13H38z"/><ellipse cx="99" cy="53" fill="#feffff" rx="255" ry="6"/><path fill="#ec768e" d="M105 13h25v11h-25z"/><ellipse cx="99" cy="48" fill="#fff" rx="5" ry="96"/></g></g></svg>