<svg xmlns="http://www.w3.org/2000/svg" viewBox="0 0 1097 420"><defs/><filter id="prefix__a"><feGaussianBlur stdDeviation="12"/></filter><rect width="100%" height="100%" fill="#f4ebef"/><g filter="url(#prefix__a)"><g fill-opacity=".5" transform="translate(2.1 2.1) scale(4.28516)"><ellipse cx="101" cy="45" fill="#c685a0" rx="100" ry="6"/><path fill="#bf809d" d="M23 15h135v12H23z"/><path fill="#a7798b" d="M97 66h98v10H97z"/><ellipse cx="232" cy="57" fill="#fff" rx="39" ry="255"/><path fill="#fff" d="M123 0h9v98h-9z"/><path fill="#d767a0" d="M51 63.5v13H25v-13z"/><path fill="#48b12c" d="M71 16h6v34h-6z"/><ellipse cx="56" cy="44" fill="#fff" rx="6" ry="108"/><path fill="#fffcff" d="M86.1 26.3L95.9-16l1.4 71.2-50.6-31.3z"/><path fill="#009a00" d="M105 66h9v8h-9z"/><ellipse cx="163" cy="71" fill="#fff" rx="6" ry="146"/><ellipse cx="146" cy="21" fill="#19a6d6" rx="11" ry="5"/><path fill="#0076e4" d="M180 41h10v9h-10z"/><ellipse cx="5" cy="64" fill="#fff" rx="20" ry="205"/><path fill="#e6791e" d="M118 50l-8-13-8 12z"/><path fill="#01afe3" d="M173 67h16v8h-16z"/><circle r="1" fill="#fff" transform="matrix(150.84348 -1.55253 .1062 10.31811 157.8 4.3)"/><ellipse cx="115" cy="89" fill="#fff" rx="255" ry="13"/><path fill="#dc6f00" d="M103.5 22.4l5.5-7.1 5.5 4.3-5.5 7.1z"/><path fill="#e87900" d="M149 73l-5-13-5 14z"/><circle cx="139" cy="44" r="5" fill="#27d7b6"/><ellipse cx="242" cy="70" fill="#a4a9a7" rx="34" ry="2"/><path fill="#509127" d="M69.5 41.4l.1 7.4 14.8-.2-8.6-7.8z"/><circle r="1" fill="#fff" transform="rotate(-144.3 108.2 -23.7) scale(89.69934 28.51296)"/><path fill="#888b8a" d="M213 34l16-4-16-2z"/><ellipse cx="91" cy="26" fill="#fff" rx="4" ry="109"/><path fill="#1d9300" d="M75.8 15.4l2.4 3.2-8 6-2.4-3.2z"/><path fill="#e587b9" d="M26 39h25v13H26z"/><ellipse cx="127" cy="79" fill="#fff" rx="5" ry="134"/><path fill="#e8a0c9" d="M113 49h79v3h-79z"/><path fill="#f9809b" d="M134 64h23v13h-23z"/><circle r="1" fill="#fff" transform="matrix(4.7377 -.10362 .74579 34.09723 163.7 63.7)"/></g></g></svg>