<svg xmlns="http://www.w3.org/2000/svg" viewBox="0 0 852 420"><defs/><filter id="prefix__a"><feGaussianBlur stdDeviation="12"/></filter><rect width="100%" height="100%" fill="#f6f2f4"/><g filter="url(#prefix__a)"><g fill-opacity=".5" transform="translate(1.7 1.7) scale(3.32813)"><circle r="1" fill="#d6bac8" transform="matrix(-1.3113 -25.18267 93.15502 -4.85072 100.1 57.6)"/><path fill="#007a00" d="M49.7 82L42 74.4l6.4-6.4 7.8 7.8z"/><circle cx="50" cy="46" r="7" fill="#297600"/><path fill="#357fb9" d="M123 70h26v12h-26z"/><ellipse cx="26" cy="60" fill="#fff" rx="255" ry="8"/><path fill="#f19292" d="M77 39h26v43H77z"/><path fill="#958cc8" d="M116 39h74v13h-74z"/><path fill="#fff" d="M144 140l127-18-123-91zm-26.6-68.9l-67.8-9.8 97.9-70.2L-6.6.6z"/><circle r="1" fill="#fff" transform="matrix(-.08279 13.1712 -129.03615 -.81103 114.2 25.4)"/><ellipse cx="141" cy="11" fill="#8b8f8d" rx="20" ry="3"/><circle r="1" fill="#fff" transform="matrix(-90.10517 8.62993 -3.17724 -33.17361 42.8 115)"/><path fill="#cf7700" d="M86 70h12v10H86z"/><path fill="#ca7000" d="M96 38l-3 13-8-9z"/><path fill="#7d817f" d="M211 74h42v3h-42z"/><circle cx="140" cy="45" r="5" fill="#0075e5"/><path fill="#007fe3" d="M175 39h10v10h-10z"/><path fill="#fff" d="M122.6 68.9l-15-84.9-1.5 64.9-83.2 16.3z"/><ellipse cx="247" cy="14" fill="#fff" rx="88" ry="30"/><path fill="#cc7188" d="M33 67h31v15H33z"/><circle r="1" fill="#fff" transform="matrix(-10.65232 -155.47552 21.0237 -1.44043 11.4 34.6)"/><path fill="#ff6fb0" d="M159 40h17v13h-17z"/><path fill="#787c7a" d="M221 47l18-1-18-4z"/><path fill="#e797bc" d="M60.8 67.2l-9.7-30.9L7.8 48.8l55.4-10.2z"/><path fill="#09b800" d="M45 70h8v10h-8z"/><path fill="#13e8a3" d="M129.1 40.4l3.2 8.4-7.4 2.8-3.2-8.4z"/><path fill="#fff" d="M65 0h10v118H65z"/><path fill="#f865b1" d="M33 40h10v13H33z"/><path fill="#a0a7a1" d="M148.5 113.2v4l-23-.4v-4z"/><ellipse cx="226" cy="111" fill="#fff" rx="81" ry="34"/><circle cx="49" cy="44" r="5" fill="#1da000"/><path fill="#fff" d="M112.7-16l7.6 157L-16 113.7 105.2 98z"/></g></g></svg>