<svg xmlns="http://www.w3.org/2000/svg" viewBox="0 0 1080 420"><defs/><filter id="prefix__a"><feGaussianBlur stdDeviation="12"/></filter><rect width="100%" height="100%" fill="#f3f0f0"/><g filter="url(#prefix__a)"><g fill-opacity=".5" transform="translate(2.1 2.1) scale(4.21875)"><ellipse cx="103" cy="34" fill="#a58981" rx="91" ry="7"/><path fill="#a38695" d="M79 56h118v13H79z"/><circle r="1" fill="#fff" transform="matrix(24.16953 -24.50938 145.20662 143.19318 28.7 69.5)"/><circle r="1" fill="#009100" transform="matrix(3.60995 -3.01374 3.13205 3.75166 87.5 64.3)"/><ellipse cx="222" cy="76" fill="#fff" rx="33" ry="255"/><ellipse cx="87" cy="35" fill="#008e00" rx="6" ry="5"/><path fill="#508dc8" d="M163 28h23v14h-23z"/><path fill="#fff" d="M110.5 101.3l-4-76 13-.6 4 76z"/><circle cx="53" cy="35" r="5" fill="#008900"/><path fill="#fff" d="M141.2-16L-16 11.3l177.9 15.4-4.5 87.3z"/><path fill="#ed6e00" d="M126.8 56.2l8.8 1.9-2.4 11.7-8.8-1.9z"/><circle cx="182" cy="63" r="5" fill="#0070f7"/><path fill="#ed6e00" d="M95.4 31.6l10.6-2.9 2.6 9.7L98 41.3z"/><path fill="#727373" d="M217 62h29v3h-29z"/><path fill="#ec6c00" d="M123 30h10v10h-10z"/><ellipse cx="110" cy="11" fill="#bdbebe" rx="62" ry="3"/><path fill="#fff" d="M73.6 78l6-41.2L102.9-16 68.2 25.9z"/><ellipse cx="139" cy="92" fill="#fff" rx="255" ry="22"/><path fill="#8e8f8f" d="M218 31.2l-9.3 4.6 22.2 1.2-.9-3.2z"/><path fill="#3bd0b9" d="M145.1 69.7l-9-1.1 4.3-8.6 8.9-.9z"/><path fill="#21cfbb" d="M149 35l-11 6 2-12z"/><path fill="#ff6ac1" d="M93 57h14v13H93z"/><ellipse cx="168" cy="64" fill="#20d6b5" rx="5" ry="6"/><ellipse cx="155" cy="75" fill="#fff" rx="6" ry="63"/><path fill="#ff63bc" d="M39 30.3l7.8-1.4 2.3 12.8-8 1.4z"/><path fill="#0082f0" d="M175.4 33.4l8.6-5.1 2.6 4.3-8.6 5.1z"/><circle r="1" fill="#fff" transform="matrix(-5.3326 25.30042 -46.3573 -9.7708 210.5 5.4)"/><circle cx="87" cy="62" r="5" fill="#3a9d05"/><circle r="1" fill="#fff" transform="rotate(140.1 5.3 13.6) scale(51.91624 23.0845)"/><path fill="#fff" d="M110 13h9v86h-9z"/><path fill="#fff" d="M112.6 28.1l-21-30.9-23 64.5-.3-34.7zm122.5-16.3L130.9 28.1 121.6-16l22.1 29.6z"/></g></g></svg>