<svg xmlns="http://www.w3.org/2000/svg" viewBox="0 0 1173 300"><defs/><filter id="prefix__a"><feGaussianBlur stdDeviation="12"/></filter><rect width="100%" height="100%" fill="#e5e4ee"/><g filter="url(#prefix__a)"><g fill-opacity=".5" transform="translate(2.3 2.3) scale(4.58203)"><path fill="#008eff" d="M33 39h89v12H33z"/><ellipse cx="76" cy="13" fill="#1c8fe8" rx="51" ry="6"/><ellipse cx="229" cy="44" fill="#ed7080" rx="108" ry="6"/><path fill="#a1332e" d="M195 7h25v11h-25z"/><path fill="#fff" d="M61.9-5.1l3.2 94-9 .2-3.2-94z"/><path fill="#e67fa8" d="M101 7h84v11h-84z"/><ellipse cx="91" cy="64" fill="#fff" rx="5" ry="114"/><path fill="#f23100" d="M197 40h21v10h-21z"/><path fill="#0082ff" d="M30 7h23v11H30z"/><ellipse cx="5" cy="33" fill="#fff" rx="26" ry="51"/><path fill="#fff" d="M273.4 46l-60.2-9.6 7.4-46.4 60.2 9.6z"/><circle r="1" fill="#fff" transform="matrix(4.9203 -.258 4.0073 76.42 158 45)"/><circle r="1" fill="#fff" transform="matrix(-1.98682 -71.27361 4.59558 -.1281 124.3 31.2)"/><path fill="#fff" d="M181.2 37.7L30 37.4 198.5 18l-8.3 62z"/><path fill="#0080ef" d="M242 39h9v8h-9z"/><path fill="#fff" d="M216.8 19.1l7.5 60.9 42.2-56.9L244.1 80z"/><ellipse cx="124" fill="#fff" rx="255" ry="7"/><path fill="#0e8eff" d="M62 7h25v11H62z"/><circle r="1" fill="#fff" transform="rotate(.6 -6061.4 14054) scale(128.64803 5.12582)"/><path fill="#0c87fa" d="M30 40h23v10H30z"/><path fill="#11b1ff" d="M119.6 11l-.6 6.6-10.4 1.5L115.7 5z"/><path fill="#fff" d="M83 29l15 39-6-77zM54 0h9v65h-9z"/><path fill="#02a7ff" d="M201 9h9v8h-9z"/><path fill="#e89400" d="M103 9h9v8h-9z"/><ellipse cx="45" cy="28" fill="#fffffe" rx="129" ry="11"/><path fill="#1c8ff9" d="M63 39h25v10H63z"/><path fill="#ca7900" d="M232 40h7v8h-7z"/><path fill="#fc7ac3" d="M130 38h21v13h-21z"/><path fill="#1d9eff" d="M105 18.4l-10.8-3.9 1.4-7.2 5.4-.4z"/><circle cx="196" cy="12" r="4" fill="#ff4713"/><circle r="1" fill="#fff" transform="matrix(-2.63376 -71.82668 3.59976 -.132 189.8 25.7)"/></g></g></svg>