<svg xmlns="http://www.w3.org/2000/svg" viewBox="0 0 1146 294"><defs/><filter id="prefix__a"><feGaussianBlur stdDeviation="12"/></filter><rect width="100%" height="100%" fill="#dee7f1"/><g filter="url(#prefix__a)"><g fill-opacity=".5" transform="translate(2.2 2.2) scale(4.47656)"><path fill="#001e85" d="M12 34h223v13H12z"/><ellipse cx="114" cy="15" fill="#fff" rx="255" ry="19"/><path fill="#ff87b0" d="M51 34h25v14H51z"/><ellipse cx="133" cy="58" fill="#fff" rx="255" ry="12"/><path fill="#057ab9" d="M82 35h140v11H82z"/><path fill="#0069b0" d="M8 35h41v11H8z"/><circle r="1" fill="#fff" transform="matrix(-121.58008 -15.23058 1.85617 -14.8171 192.3 15.7)"/><ellipse cx="91" cy="18" fill="#a8a89e" rx="22" ry="4"/><ellipse cx="248" cy="54" fill="#fff" rx="15" ry="160"/><ellipse cx="203" cy="60" fill="#fff" rx="255" ry="14"/><ellipse cx="30" fill="#fff" rx="47" ry="34"/><path fill="#004fa0" d="M7 34h6v13H7z"/><path fill="#fff" d="M163.8 33.9l-130.2.5L166.3 3.5l1.4 76.5z"/><circle r="1" fill="#fff" transform="rotate(2.4 -1097 717.7) scale(1 167.61901)"/><path fill="#fff" d="M142 0h2v65h-2z"/><path fill="#ff68a4" d="M52 35h23v12H52z"/><path fill="#fff" d="M97 0h2v65h-2z"/><circle r="1" fill="#feffff" transform="matrix(-6.68127 -131.89026 .99872 -.0506 189.8 57)"/><ellipse cx="211" cy="60" fill="#fff" rx="1" ry="64"/><path fill="#fff" d="M120 35l-3 36 12 9z"/><circle cx="226" cy="40" r="7" fill="#0071b4"/><ellipse cx="205" cy="9" fill="#fff" rx="94" ry="25"/><path fill="#f8ffff" d="M51 28h2v36h-2z"/><ellipse cx="75" cy="57" fill="#fff" rx="254" ry="11"/><circle cx="80" cy="39" r="5" fill="#006db1"/><circle r="1" fill="#fff" transform="rotate(86.9 4.6 10.7) scale(28.71392 48.6892)"/><path fill="#108bf5" d="M63 7h1v25h-1z"/><path fill="#fff" d="M78.2 80l-3.4-50-1.3 22.1L261 45.7zM-6 91.7l-3-85 15-.4 3 85z"/><path fill="#b3b5b3" d="M83 16h30v5H83z"/><path fill="#fff" d="M42.9-16l28.8 33.8 44.4-4.4L269.8 5z"/><path fill="#1f6cb0" d="M150 35h15v11h-15z"/></g></g></svg>