<svg xmlns="http://www.w3.org/2000/svg" viewBox="0 0 938 600"><defs/><filter id="prefix__a"><feGaussianBlur stdDeviation="12"/></filter><rect width="100%" height="100%" fill="#eeefef"/><g filter="url(#prefix__a)"><g fill-opacity=".5" transform="translate(1.8 1.8) scale(3.66406)"><ellipse cx="233" cy="106" fill="#737792" rx="6" ry="84"/><path fill="#004861" d="M205 74h11v27h-11z"/><ellipse cx="102" cy="162" fill="#869193" rx="6" ry="141"/><path fill="#e20000" d="M162 57h11v10h-11z"/><path fill="#9fa800" d="M54 39h10v29H54z"/><circle r="1" fill="#002e68" transform="rotate(-175.6 21.2 73) scale(7.06652 6.11588)"/><path fill="#68000c" d="M31 92h10v11H31z"/><circle cx="166" cy="96" r="7" fill="#7b002b"/><path fill="#006056" d="M70 77l13 7 3-14z"/><path fill="#0073ff" d="M31 39h10v11H31z"/><ellipse cx="135" cy="57" fill="#fff" rx="27" ry="255"/><path fill="#0084ff" d="M162 39h11v12h-11z"/><path fill="#008a74" d="M172.5 126.9l-2.1 11.8-8.9-1.6 2.1-11.8z"/><ellipse cx="234" cy="43" fill="red" rx="7" ry="5"/><ellipse cx="173" cy="87" fill="#fff" rx="255" ry="4"/><ellipse cx="169" cy="8" fill="#fff" rx="255" ry="31"/><path fill="#fff" d="M62 154h194v9H62z"/><path fill="#c92074" d="M75.2 66l-.9-8.4 34.3 9.9-1.4-11.1z"/><circle cx="233" cy="61" r="6" fill="#a3003b"/><circle cx="102" cy="78" r="6" fill="#ff8d00"/><circle cx="103" cy="44" r="6" fill="#4bf209"/><path fill="#2a869c" d="M96.7 154l-.4-27.9 11-.2.4 28z"/><path fill="#fff" d="M49 136h143v7H49z"/><path fill="#003470" d="M228 143h11v10h-11z"/><path fill="#fffafd" d="M0 101h256v25H0z"/><path fill="#fff" d="M0 49h143v7H0z"/><path fill="#f14499" d="M205.7 67.5l-1.9-10.4 11.5-3.2 2 10.2z"/><ellipse cx="4" cy="133" fill="#fff" rx="27" ry="255"/><circle cx="234" cy="96" r="5" fill="#00b6ff"/><circle cx="103" cy="96" r="6" fill="#00b2ff"/><ellipse cx="155" cy="69" fill="#fffbfb" rx="130" ry="4"/><path fill="#fffffd" d="M146 136h110v8H146z"/></g></g></svg>