<svg xmlns="http://www.w3.org/2000/svg" viewBox="0 0 975 600"><defs/><filter id="prefix__a"><feGaussianBlur stdDeviation="12"/></filter><rect width="100%" height="100%" fill="#efefee"/><g filter="url(#prefix__a)"><g fill-opacity=".5" transform="translate(1.9 1.9) scale(3.8086)"><path fill="#757b73" d="M232 32h10v116h-10z"/><path fill="#7f8c85" d="M92 30h9v122h-9z"/><path fill="#000046" d="M191 87h12v10h-12z"/><path fill="#abb714" d="M170 37h12v28h-12z"/><path fill="#004237" d="M222.4 46.5l-12 1-.8-10 12-1z"/><path fill="#00074d" d="M37 136l1 14-12-13z"/><path fill="#00453a" d="M69 69h11v11H69z"/><circle r="1" fill="#7c002f" transform="matrix(5.93551 -.14027 .15718 6.6509 216 108.8)"/><path fill="#a6b104" d="M48 37h11v27H48z"/><path fill="#900e54" d="M24.1 96.4l9.5-16.3L41.3 96l-3.3.7z"/><ellipse cx="156" fill="#fff" rx="250" ry="38"/><circle cx="154" cy="41" r="6" fill="#0071ff"/><circle cx="32" cy="42" r="6" fill="#0078ff"/><circle r="1" fill="#fff" transform="matrix(-38.6439 -49.30132 33.12377 -25.96344 149.5 128.8)"/><ellipse cx="45" cy="49" fill="#fff" rx="255" ry="3"/><path fill="#9e004a" d="M101.7 64.5L90 61.2l2.2-7.7 11.6 3.3z"/><path fill="#ea1681" d="M149 70h11v11h-11z"/><path fill="#ff8b00" d="M92 71h9v9h-9z"/><circle cx="95" cy="143" r="6" fill="#004387"/><path fill="#fff" d="M0 147h256v10H0z"/><path fill="#ef3a95" d="M67 54h14v10H67z"/><circle r="1" fill="#00c1ff" transform="matrix(5.52058 2.63411 -2.17613 4.56075 238 91.7)"/><path fill="#13c1ff" d="M101.7 96.3l2.9-4.8-13-5.4-.3 13z"/><path fill="#ffa200" d="M243.7 79.2l-9.9 1.5-1.5-9.9 9.9-1.5z"/><circle r="1" fill="#4c8aa0" transform="matrix(-.23617 -15.03396 6.36861 -.10005 237.1 134.4)"/><path fill="#007c74" d="M91 128l8-10 4 12z"/><path fill="#ffecf5" d="M264.4 140.6l-79.8-65.5 86.4 34.3-41.5 26.4z"/><path fill="#fff" d="M102 168.5v-181h38v181z"/><ellipse cx="9" cy="60" fill="#fff" rx="19" ry="252"/><path fill="#a30049" d="M232.6 54l10 1-1.2 11-10-1z"/><path fill="#fef6fa" d="M48 78l-37 61 121-28z"/><circle cx="176" cy="60" r="5" fill="#ff7100"/></g></g></svg>