<svg xmlns="http://www.w3.org/2000/svg" viewBox="0 0 377 360"><defs/><filter id="prefix__a"><feGaussianBlur stdDeviation="12"/></filter><rect width="100%" height="100%" fill="#f4f1f4"/><g filter="url(#prefix__a)"><g fill-opacity=".5" transform="translate(.7 .7) scale(1.47266)"><circle cx="113" cy="61" r="15" fill="#00137f"/><ellipse cx="142" cy="160" fill="#c9005d" rx="14" ry="15"/><circle r="1" fill="#cc0266" transform="matrix(12.1251 -5.91381 6.8755 14.09687 84.1 161.7)"/><ellipse cx="25" cy="160" fill="#ca005d" rx="14" ry="15"/><ellipse cx="202" cy="161" fill="#c9005b" rx="15" ry="14"/><path fill="#838683" d="M145.7 226.1l77.1 4.8-193.7.9.2-6.5z"/><path fill="#a5aca4" d="M151 56h96v10h-96z"/><circle cy="69" r="75" fill="#fff"/><circle cx="112" cy="61" r="14" fill="#006cae"/><circle r="1" fill="#9aa099" transform="matrix(33.94689 -.71445 .08292 3.9398 160 19.4)"/><circle r="1" fill="#fff" transform="matrix(50.18105 -13.95487 40.1639 144.4275 255 111.7)"/><path fill="#8f948e" d="M54.8 54.2l33.7 4.7-1.3 9L53.5 63z"/><path fill="#878c86" d="M74.2 13.6l.6 9-25 1.8-.6-9z"/><ellipse cx="177" cy="227" fill="#868886" rx="29" ry="3"/><ellipse cx="148" cy="199" fill="#fff" rx="229" ry="26"/><path fill="#0283e1" d="M105 8h2v35h-2z"/><ellipse cx="187" cy="109" fill="#fff" rx="150" ry="40"/><path fill="#67b7eb" d="M113.9 77l7.1 3.5 15.5 71.9 2-13.5z"/><ellipse cx="117" cy="35" fill="#3499e0" rx="2" ry="30"/><path fill="#909590" d="M77 196l19 2-15-13z"/><path fill="#676c68" d="M138 188h9v8h-9z"/><path fill="#a0a2a0" d="M151 60h95v5h-95z"/><path fill="#737975" d="M200 185l6 10-13 2z"/><path fill="#a0a5a0" d="M17.9 197.9l19.3 3.7L26 186.2l-5 2.9z"/><path fill="#fff" d="M168.8 24.1L271 31.3 135.6 65.5 115 43.6z"/><path fill="#afb3af" d="M48 16h47v8H48z"/><ellipse cx="245" cy="233" fill="#fff" rx="41" ry="100"/><path fill="#bb9cac" d="M207.2 162.3L182.6 134l-8.3-8.2-5.6-1.6z"/><circle r="1" fill="#fff" transform="matrix(34.26035 -1.19527 2.74906 78.79679 19.7 68.1)"/><path fill="#a89ca1" d="M102.3 94.8l-16 43.3 3.7 14.3-3.9 1.1z"/><path fill="#718996" d="M175.8 128.7l-.8.6-68.8-82 .8-.6z"/><path fill="#a07289" d="M12.6 170l-.7-.7L63.4 112l.7.6z"/></g></g></svg>