<svg xmlns="http://www.w3.org/2000/svg" viewBox="0 0 1131 360"><defs/><filter id="prefix__a"><feGaussianBlur stdDeviation="12"/></filter><rect width="100%" height="100%" fill="#e0e8f1"/><g filter="url(#prefix__a)"><g transform="translate(2.2 2.2) scale(4.41797)"><ellipse cx="73" cy="62" fill="#00348e" fill-opacity=".5" rx="175" ry="6"/><path fill="#002485" fill-opacity=".5" d="M6 27h109v10H6z"/><circle r="1" fill="#fff" fill-opacity=".5" transform="matrix(-5.9626 23.20453 -151.31531 -38.88174 199.1 30)"/><ellipse cx="41" cy="47" fill="#fff" fill-opacity=".5" rx="137" ry="11"/><ellipse cx="213" cy="63" fill="#1573b4" fill-opacity=".5" rx="15" ry="7"/><circle r="1" fill="#fff" fill-opacity=".5" transform="matrix(20.44973 -2.54835 9.16634 73.55725 240.3 26.6)"/><ellipse cx="101" cy="11" fill="#fff" fill-opacity=".5" rx="236" ry="17"/><ellipse cx="129" cy="80" fill="#fff" fill-opacity=".5" rx="255" ry="13"/><path fill="#ff90b5" fill-opacity=".5" d="M153 57h19v13h-19z"/><ellipse cx="1" cy="48" fill="#fff" fill-opacity=".5" rx="5" ry="89"/><path fill="#ff76a9" fill-opacity=".5" d="M40 28h23v10H40z"/><path fill="#1177b5" fill-opacity=".5" d="M10 59h143v8H10z"/><path fill="#0877b5" fill-opacity=".5" d="M6 28h33v10H6z"/><path fill="#fff" fill-opacity=".5" d="M115 0h137v58H115z"/><path fill="#1783bb" fill-opacity=".5" d="M62 28h48v10H62z"/><path fill="#176db0" fill-opacity=".5" d="M170 58h56v10h-56z"/><ellipse cx="193" cy="46" fill="#9ea09a" fill-opacity=".5" rx="23" ry="3"/><ellipse cx="157" cy="77" fill="#fff" fill-opacity=".5" rx="252" ry="10"/><path fill="#a5a59e" fill-opacity=".5" d="M70.1 11.1L95.5 14l-7.3 2.2-33 .7z"/><ellipse cx="2" cy="39" fill="#fff" fill-opacity=".5" rx="4" ry="77"/><path fill="#fff" fill-opacity=".5" d="M9 38h154v17H9z"/><circle r="1" fill="#fff" fill-opacity=".5" transform="matrix(-39.26887 6.21958 -2.8102 -17.74286 22.3 8.6)"/><path fill="#ff71a6" fill-opacity=".5" d="M153 58h19v10h-19z"/><path fill="#468abe" fill-opacity=".5" d="M63 27h53v8H63z"/><path fill="#fff" fill-opacity=".5" d="M23 5h1v76h-1z"/><ellipse cx="97" cy="15" fill="#fff" fill-opacity=".5" rx="1" ry="95"/><ellipse cx="208" cy="57" fill="#fff" fill-opacity=".5" rx="1" ry="107"/><path fill="#fdfffd" fill-opacity=".5" d="M62.2 45l-.4 28h-2l.4-28z"/><ellipse cx="114" cy="58" fill="#026dad" fill-opacity=".5" rx="37" ry="1"/><ellipse cx="116" cy="46" fill="#fff" fill-opacity=".5" rx="1" ry="79"/><path fill="none" stroke="#fff" stroke-opacity=".5" stroke-width=".5" d="M76.6-9.3q3 58.6 3 81.4"/><path fill="#fff" fill-opacity=".5" d="M262.6 95.2l-35-52.7-.6 28.1 38.3-48.1z"/></g></g></svg>