<svg xmlns="http://www.w3.org/2000/svg" viewBox="0 0 1013 600"><defs/><filter id="prefix__a"><feGaussianBlur stdDeviation="12"/></filter><rect width="100%" height="100%" fill="#efefef"/><g filter="url(#prefix__a)"><g fill-opacity=".5" transform="translate(2 2) scale(3.95703)"><path fill="#797970" d="M231 36h10v115h-10z"/><circle r="1" fill="#879190" transform="rotate(-179.6 57.9 59) scale(4.68132 94.19299)"/><path fill="#000036" d="M71 86h9v10h-9z"/><ellipse cx="195" cy="40" fill="#3cb39c" rx="27" ry="6"/><circle cx="94" cy="107" r="6" fill="#69000e"/><path fill="#000045" d="M212 68h10v11h-10z"/><path fill="#41b965" d="M90 37h32v10H90z"/><path fill="#a7ac00" d="M51 38h10v26H51z"/><path fill="#930b53" d="M181.1 116.1l-13-13.1 15.9-2.8-1.7 14.4z"/><path fill="#f1613a" d="M173 54h29v9h-29z"/><ellipse cx="146" cy="96" fill="#fff" rx="27" ry="255"/><path fill="#0084fe" d="M31 34h9v12h-9z"/><ellipse cx="187" cy="80" fill="#fff" rx="6" ry="127"/><circle cx="216" cy="41" r="6" fill="#005652"/><ellipse cx="172" cy="148" fill="#fff" rx="255" ry="6"/><ellipse cx="35" cy="7" fill="#fff" rx="230" ry="30"/><path fill="#8e0033" d="M118.8 64l-8.9-1.2 1.3-8.9 8.9 1.3z"/><circle cx="34" cy="73" r="5" fill="#ea006d"/><ellipse cx="105" cy="42" fill="#fff" rx="5" ry="182"/><path fill="#2a849d" d="M231 118h10v27h-10z"/><path fill="#fff" d="M169 127h87v7h-87z"/><circle cx="114" cy="73" r="6" fill="#ff9c00"/><path fill="#006b88" d="M119.1 142.8l-9.5-1.8 12.1-18.4-8.3-6.8z"/><circle r="1" fill="#fff" transform="matrix(-10.57776 36.4089 -67.77726 -19.69111 30.7 117.3)"/><path fill="#fdfdff" d="M0 46h85v8H0z"/><circle cx="235" cy="88" r="6" fill="#05c3ff"/><path fill="#00667e" d="M91.8 36.5l-1.1 12.4 9.9-6.5-4.1-6.6z"/><circle cx="236" cy="73" r="6" fill="#ffa800"/><circle cx="114" cy="90" r="6" fill="#00b3ff"/><path fill="#51e500" d="M173.1 36.3l10 .4-.2 7-10-.4z"/><ellipse cx="207" cy="49" fill="#fffdfd" rx="185" ry="4"/><ellipse cx="214" cy="66" fill="#fffefd" rx="142" ry="3"/></g></g></svg>