<svg xmlns="http://www.w3.org/2000/svg" viewBox="0 0 584 600"><defs/><filter id="prefix__a"><feGaussianBlur stdDeviation="12"/></filter><rect width="100%" height="100%" fill="#f1f1f1"/><g filter="url(#prefix__a)"><g fill-opacity=".5" transform="translate(1.2 1.2) scale(2.34375)"><path fill="#cbcbcb" d="M121 6L10 8l96 162z"/><ellipse cx="193" cy="15" fill="#949494" rx="248" ry="3"/><path fill="#484848" d="M25 237h55v5H25z"/><ellipse cx="215" cy="167" fill="#fff" rx="59" ry="112"/><ellipse cx="147" cy="202" fill="#5e5e5e" rx="51" ry="3"/><path fill="#939393" d="M41.1 227.4l12.5-5.6 22.9-23.4 6.3 30.5z"/><path fill="#4f4f4f" d="M70 150h42v5H70z"/><path fill="#4b4b4b" d="M184 52h30v5h-30z"/><ellipse cx="109" cy="66" fill="#fff" rx="248" ry="10"/><ellipse cx="106" cy="245" fill="#474747" rx="132" ry="1"/><path fill="#505050" d="M160 40h36v4h-36z"/><path fill="#4d4d4d" d="M43 77h55v4H43z"/><circle r="1" fill="#fff" transform="matrix(-42.06603 5.01607 -8.7529 -73.40404 29 145)"/><ellipse cx="48" cy="29" fill="#636363" rx="25" ry="3"/><circle r="1" fill="#fff" transform="matrix(-24.13484 -6.6728 37.08332 -134.12644 230 91.2)"/><ellipse cx="137" cy="103" fill="#969696" rx="47" ry="3"/><path fill="#969696" d="M108 138h97v5h-97z"/><ellipse cx="137" cy="8" fill="#1e1e1e" rx="129" ry="1"/><path fill="#9a9a9a" d="M45 52h109v5H45z"/><path fill="#6a6a6a" d="M73 114h41v4H73z"/><path fill="#636363" d="M58 89h34v5H58z"/><path fill="#fff" d="M76 33h23v43H76z"/><path fill="#484848" d="M152 112h10v6h-10z"/><ellipse cx="135" cy="223" fill="#fff" rx="56" ry="20"/><ellipse cx="72" cy="219" fill="#fff" rx="242" ry="3"/><ellipse cx="183" cy="22" fill="#7b7b7b" rx="175" ry="1"/><path fill="#595959" d="M56 40h25v4H56z"/><ellipse cx="156" cy="74" fill="#fff" rx="59" ry="20"/><path fill="#8e8e8e" d="M97 40h48v4H97z"/><path fill="#fff" d="M248-16l16 283-91-81zM19 218L71 84v124z"/><path fill="#696969" d="M39.5 228.2v-5l35 .6v5z"/></g></g></svg>