<svg xmlns="http://www.w3.org/2000/svg" viewBox="0 0 910 400"><defs/><filter id="prefix__a"><feGaussianBlur stdDeviation="12"/></filter><rect width="100%" height="100%" fill="#f8f5f6"/><g filter="url(#prefix__a)"><g fill-opacity=".5" transform="translate(1.8 1.8) scale(3.55469)"><circle cx="192" cy="27" r="6" fill="#000377"/><path fill="#ea89ab" d="M136 65h120v11H136z"/><path fill="#002f8f" d="M48 21h12v12H48z"/><circle r="1" fill="#ec92ac" transform="matrix(-.0363 6.4805 -49.32617 -.27633 55.4 70.2)"/><path fill="#e72000" d="M60.2 71.8l6.1-7.9 5.5 4.3-6.1 7.9z"/><path fill="#eb794d" d="M161.3 66.9v-2.3l14.6-.3-8.1 20.8z"/><path fill="#ca1478" d="M88 65h10v10H88z"/><circle cx="41" cy="69" r="6" fill="#cd2482"/><path fill="#ca1477" d="M15 77l-3.6-11.6 7.7-2.3 3.5 11.5z"/><path fill="#feffff" d="M235.7 35.3l4.6 66.8L271 56.3l-55.1 43.1z"/><circle cx="118" cy="20" r="50" fill="#fff"/><ellipse cx="43" cy="102" fill="#a2a8a3" rx="31" ry="2"/><path fill="#fff" d="M199 1h14v95h-14z"/><path fill="#cd247f" d="M138 65h11v9h-11z"/><path fill="#fff" d="M48 48h14v64H48z"/><path fill="#fff" d="M146.8 74.8L43.7 76.6l105.7 45.7 20.7-83.7z"/><circle cx="217" cy="69" r="6" fill="#d03288"/><path fill="#feffff" d="M174 47h13v39h-13z"/><ellipse cx="191" cy="100" fill="#b0b7b2" rx="42" ry="2"/><path fill="#fff" d="M20.3 62.3L-16-16l55.8 52.5-5.7 62z"/><path fill="#0280b9" d="M187 24h12v10h-12z"/><path fill="#fff" d="M67.8 9.5L97.6 107l-11.4 3.5L56.4 13z"/><circle cx="243" cy="69" r="6" fill="#ce2781"/><circle cx="193" cy="70" r="5" fill="#cb1578"/><circle r="1" fill="#fff" transform="matrix(99.26859 79.5618 -20.39032 25.44082 255 30.6)"/><path fill="#eb4925" d="M163 66h11v7h-11z"/><ellipse cx="68" cy="70" fill="#ea5326" rx="5" ry="6"/><path fill="#aab0ab" d="M181 14l4-5-19 1z"/><path fill="#989f9a" d="M27 26h19v3H27z"/><path fill="#006daf" d="M58 21l-10 6 9 7z"/><path fill="#fcffff" d="M122.6 76.5l76.4 25.9 27.4-62.8-26.8 37.5z"/><ellipse cx="231" cy="96" fill="#fff" rx="9" ry="39"/></g></g></svg>