<svg xmlns="http://www.w3.org/2000/svg" viewBox="0 0 800 400"><defs/><filter id="prefix__a"><feGaussianBlur stdDeviation="12"/></filter><rect width="100%" height="100%" fill="#f7f4f6"/><g filter="url(#prefix__a)"><g fill-opacity=".5" transform="translate(1.6 1.6) scale(3.125)"><ellipse cx="85" cy="77" fill="#f1a0b5" rx="169" ry="7"/><ellipse cx="63" cy="27" fill="#001882" rx="8" ry="7"/><circle r="1" fill="#00499c" transform="matrix(-.82608 -7.03207 9.10254 -1.0693 195 27.4)"/><ellipse cx="137" cy="71" fill="#fff" rx="24" ry="255"/><path fill="#e52100" d="M171.3 71l3.7 10.3-10.3 3.7-3.7-10.3z"/><circle cx="79" cy="77" r="7" fill="#e62300"/><path fill="#c82279" d="M224 64l10 19-12-1z"/><path fill="#cc1f7d" d="M195.5 69.8l8.5 9.8-7.5 6.6-8.5-9.8z"/><circle cx="48" cy="76" r="8" fill="#d0368b"/><path fill="#cf3088" d="M12 70h13v14H12z"/><path fill="#ce2984" d="M103 73h13v11h-13z"/><path fill="#adb4ae" d="M151 114h82v4h-82z"/><circle cx="62" cy="26" r="7" fill="#0064ab"/><path fill="#fff" d="M139 106L50-16l143 34z"/><path fill="#afb6b0" d="M20.8 117.8l-3.4-1.1 6.2-4.5 84.8 3.5z"/><path fill="#fff" d="M79.9 111.9L34.5 48.1l71.7 60.7-13.4-88.6zM-1-16L35-6 1 112zm200 130l17-128 51 4z"/><ellipse cx="182" cy="70" fill="#f9ffff" rx="8" ry="85"/><circle r="1" fill="#fff" transform="rotate(109.1 -12 52) scale(32.13602 8.02741)"/><path fill="#0a6aad" d="M204 24.4l-5.7 10.7-9.8-6.3 3.7-10.5z"/><ellipse cx="249" cy="83" fill="#fff" rx="17" ry="255"/><path fill="#a6aaa5" d="M165 7h24v5h-24z"/><path fill="#a0a7a0" d="M33 22.1L47.7 24l-.7 6-15-2z"/><path fill="#9da09b" d="M186.1 29l-18.9-2 .7-6 18.9 2z"/><path fill="#aeb4ae" d="M60 10L28 8l19-5z"/><path fill="#feffff" d="M55 66L84-8l187 70z"/><circle cx="225" cy="76" r="7" fill="#db559a"/><circle cx="167" cy="75" r="6" fill="#eb6039"/><path fill="#fff" d="M118 63l94 39-106 19z"/><ellipse cx="194" cy="125" fill="#fff" rx="237" ry="9"/><path fill="#fff" d="M37.7 65.8L27.6-16-16 34.2l61.8 59.1z"/></g></g></svg>