<svg xmlns="http://www.w3.org/2000/svg" viewBox="0 0 727 600"><defs/><filter id="prefix__a"><feGaussianBlur stdDeviation="12"/></filter><rect width="100%" height="100%" fill="#f1f1f1"/><g filter="url(#prefix__a)"><g fill-opacity=".5" transform="translate(1.4 1.4) scale(2.83984)"><circle cx="183" cy="181" r="11" fill="#540000"/><path fill="#5c0000" d="M227.7 104.2l1.5 18-18.9 1.6-1.5-18z"/><path fill="#0075ff" d="M55 70h20v21H55z"/><circle cx="106" cy="114" r="11" fill="#01ca00"/><path fill="#1cd000" d="M229.8 68.9l-.6 19-21-.8.6-19z"/><path fill="#007dfd" d="M230.2 190.9l-21-.8.6-19 21 .8z"/><path fill="#eb0072" d="M153.8 136.8l-.6 19-19-.6.6-19z"/><ellipse cx="130" cy="14" fill="#797979" rx="74" ry="3"/><circle cx="220" cy="146" r="11" fill="#ea1780"/><circle r="1" fill="#fff" transform="matrix(12.57339 207.56208 -33.38966 2.02263 21.6 69.4)"/><path fill="#009dfd" d="M56 71h20v17H56z"/><path fill="#90004a" d="M174 173h20v17h-20z"/><circle r="1" fill="#fff" transform="matrix(4.74154 35.07667 -63.30262 8.55702 111.4 189.3)"/><ellipse cx="252" cy="146" fill="#fff" rx="23" ry="248"/><path fill="#575757" d="M61 43h14v8H61z"/><path fill="#626262" d="M100 43h12v8h-12z"/><ellipse cx="146" cy="46" fill="#7b7b7b" rx="8" ry="6"/><path fill="#898989" d="M171.7 45.6l17.8 7.2 2.4-9.5-15-2.4z"/><ellipse cx="91" cy="28" fill="#fff" rx="252" ry="13"/><ellipse cx="184" cy="126" fill="#c5b5b8" rx="3" ry="63"/><circle r="1" fill="#a71277" transform="rotate(-128.1 137.3 3.4) scale(8.36412 11.66416)"/><path fill="#04b2f8" d="M209.8 188.8l2.5-17.1 18.1 4.3-3.1 17.2z"/><path fill="#969b96" d="M216.2 50l23.9-5-14.6-2.3-14.6-1z"/><path fill="#fff" d="M115 51h141v19H115z"/><path fill="#fffefe" d="M31 89h66v122H31z"/><ellipse cx="174" cy="206" fill="#fff" rx="255" ry="16"/><path fill="#636363" d="M26.6 75.7l6 .7-1.2 10-6-.8z"/><path fill="#65d91e" d="M98 104h20v19H98z"/><path fill="#fdfdfd" d="M99 123h37v51H99z"/><path fill="#60d724" d="M216 71h12v18h-12z"/><ellipse cx="132" fill="#fff" rx="255" ry="11"/><path fill="#7f8080" d="M28 175l6 7-9 5z"/></g></g></svg>