<svg xmlns="http://www.w3.org/2000/svg" viewBox="0 0 882 450"><defs/><filter id="prefix__a"><feGaussianBlur stdDeviation="12"/></filter><rect width="100%" height="100%" fill="#fbf7f8"/><g filter="url(#prefix__a)"><g fill-opacity=".5" transform="translate(1.7 1.7) scale(3.44531)"><ellipse cx="140" cy="86" fill="#e998c1" rx="194" ry="6"/><ellipse cx="114" cy="40" fill="#fff" rx="21" ry="140"/><circle cx="62" cy="85" r="6" fill="#cd2177"/><ellipse cx="241" cy="85" fill="#ca0c6c" rx="5" ry="6"/><path fill="#d13482" d="M134.2 82.4l8.7-2.6 3.2 11.2-8.1 2.2z"/><path fill="#d13181" d="M7 80h10v13H7z"/><circle cx="190" cy="85" r="6" fill="#cd2077"/><path fill="#cb116e" d="M223 86.2l-5.5 5.8-6.5-6.2 5.5-5.8z"/><path fill="#d6458e" d="M33.1 89l-.1-7.9 5.7-4.9 4.5 16.4z"/><circle cx="90" cy="85" r="5" fill="#cc1772"/><path fill="#8e9691" d="M35 116h27v4H35z"/><circle cx="165" cy="86" r="6" fill="#ca1771"/><ellipse cx="76" cy="84" fill="#fff" rx="7" ry="166"/><path fill="#fff" d="M44 20h15v95H44zm129.6 60.7l-21.3 63.7L207.9 74l7.6 36.3z"/><path fill="#aab1ad" d="M177 116h33v5h-33z"/><ellipse cx="152" cy="116" fill="#fff" rx="8" ry="247"/><ellipse cx="229" cy="43" fill="#fff" rx="8" ry="82"/><path fill="#fff" d="M172.5 106.7l30.2-50.8L271-9.7l-103-.8zM18 0h14v121H18z"/><ellipse cx="114" cy="90" fill="#fff" rx="20" ry="255"/><path fill="#fff" d="M248.3 105.5l.3-69.5 22.4 96.6-108.6-3zM9-16l-25 71 20 75z"/><path fill="#da5b9b" d="M84 80h7v13h-7z"/><path fill="#fff" d="M197 44h14v70h-14z"/><path fill="#d6488f" d="M44.9 86.3l-5.2 3.1-4.6-7.7 5.2-3.1z"/><ellipse cx="10" cy="94" fill="#fff" rx="192" ry="4"/><path fill="#d2d9d5" d="M61 43h7v32h-7z"/><path fill="#dbe1dd" d="M7.2 73.8l5.4-62.6 1.5 63L-6.2 77z"/><path fill="#fff" d="M44 63l2 47 23-65zm197 33l-13-19-27 53z"/><ellipse cx="141" cy="71" fill="#9ba39e" rx="4" ry="3"/></g></g></svg>