<svg xmlns="http://www.w3.org/2000/svg" viewBox="0 0 878 600"><defs/><filter id="prefix__a"><feGaussianBlur stdDeviation="12"/></filter><rect width="100%" height="100%" fill="#f7f7f6"/><g filter="url(#prefix__a)"><g fill-opacity=".5" transform="translate(1.7 1.7) scale(3.42969)"><ellipse cx="81" cy="152" fill="#8c8c8d" rx="219" ry="3"/><path fill="#545455" d="M88 125h99v4H88z"/><path fill="#636364" d="M25 21h4v79h-4z"/><path fill="#757576" d="M6 163h37v5H6z"/><path fill="#fff" d="M9.6 81.9l67.1 45.3-26.3 39-67.1-45.4z"/><circle r="1" fill="#a6a4a3" transform="rotate(89.8 45.6 58.8) scale(1.85806 45.42142)"/><circle r="1" fill="#8783de" transform="matrix(-41.12276 5.69595 -.1372 -.99054 80.2 92)"/><path fill="#fff" d="M259-8l5 177L131 40z"/><circle r="1" fill="#6a65d0" transform="matrix(-57.02155 3.08818 -.05408 -.99854 162.3 84)"/><path fill="#f3c864" d="M105 29h41v3h-41z"/><path fill="#767677" d="M45 106h169v1H45z"/><path fill="#fff" d="M28 102L4-16l-14 205z"/><path fill="#f1c259" d="M58.3 86.5l-.9-.5 18.3-34.5.9.5z"/><path fill="#f4ce78" d="M176 13h41v3h-41z"/><path fill="#fff" d="M40 81l76 66-132-6z"/><path fill="#f3ca72" d="M175.5 16.2l-3.8 5.1-4.7.8-35.2 12.4z"/><ellipse cx="169" cy="171" fill="#fff" rx="139" ry="16"/><path fill="#6762ce" d="M74.8 92.5l-.1-1 76.5-8 .1 1z"/><path fill="#ababab" d="M43.6 92.4l2.5-6.8 9.9 4.9-5.7 1.5z"/><path fill="#848485" d="M83.6 109.2l1.6 5.8-6.8 1.8-1.6-5.8z"/><path fill="#ecb23b" d="M72.6 57l20.1-20.8.7.7-20.1 20.9z"/><path fill="#afafaf" d="M140.2 157.4l-21.6-3.9 1.2-6.9 21.6 3.9z"/><path fill="#fff" d="M113.9 133.2l14.3-7.3-1.9 9.4-7.6 42.8z"/><path fill="#9a9a9b" d="M200 110.8l.8 5-8.9 1.4-.7-5z"/><path fill="#808081" d="M45 21h7v5h-7z"/><path fill="#fff" d="M157.3 160.2L138.6 130l132.4-4.1-111.7 24.2z"/><ellipse cx="116" cy="58" fill="#fff" rx="33" ry="28"/><path fill="#fff" d="M190.6 154.5l10.8-48 5.6 65.2 4.2-29.6z"/><path fill="#9d9d9e" d="M134 111h9v5h-9z"/><path fill="#fff" d="M271 147.2L97.1 128.5l17.1 60.5-6.3-45z"/><ellipse cy="43" fill="#fff" rx="8" ry="248"/><ellipse cx="37" cy="48" fill="#fff" rx="8" ry="115"/></g></g></svg>