<svg xmlns="http://www.w3.org/2000/svg" viewBox="0 0 982 600"><defs/><filter id="prefix__a"><feGaussianBlur stdDeviation="12"/></filter><rect width="100%" height="100%" fill="#efefee"/><g filter="url(#prefix__a)"><g fill-opacity=".5" transform="translate(2 2) scale(3.83594)"><path fill="#71776e" d="M232 36h9v111h-9z"/><path fill="#767586" d="M109 56h10v90h-10z"/><path fill="#69c79b" d="M26 37h100v9H26z"/><circle cx="172" cy="92" r="6" fill="#66000b"/><circle cx="173" cy="141" r="6" fill="#00003f"/><path fill="#a4ab00" d="M189 38h11v26h-11z"/><path fill="#775787" d="M103.2 102l-10.6 16-24.2-44.9 2.3 24.2z"/><circle cx="214" cy="74" r="6" fill="#003e33"/><path fill="#0094ff" d="M169 37h12v11h-12z"/><ellipse cx="142" cy="48" fill="#fff" rx="25" ry="255"/><circle r="1" fill="#f87a00" transform="rotate(-99.1 51.4 7) scale(6.0223 6.21193)"/><circle cx="73" cy="90" r="6" fill="#00326a"/><ellipse cx="71" cy="45" fill="#fff8f9" rx="14" ry="42"/><path fill="#fa6e34" d="M109 54h9v26h-9z"/><circle r="1" fill="#fff" transform="matrix(-22.53337 29.04984 -97.56283 -75.6775 37.9 130)"/><circle cx="31" cy="75" r="5" fill="#ec006f"/><ellipse cx="134" cy="100" fill="#fffeff" rx="160" ry="5"/><ellipse cx="129" cy="2" fill="#fff" rx="255" ry="22"/><path fill="#ea0070" d="M211 54h9v10h-9z"/><path fill="#036f77" d="M96 35.4l3.2 6.9-9.3 5.1-7.1-7.1z"/><path fill="#0096ff" d="M39 36.7l-1 10-13-1.4 1-10z"/><ellipse cx="182" cy="50" fill="#fffdff" rx="109" ry="4"/><circle cx="92" cy="107" r="6" fill="#970039"/><circle cx="236" cy="75" r="6" fill="#ffa200"/><circle cx="112" cy="139" r="5" fill="#003b7a"/><path fill="#3d879e" d="M230.3 148l2.5-29 11 1-2.6 29z"/><path fill="#fffffe" d="M180 130h76v7h-76z"/><ellipse cx="235" cy="92" fill="#0bf" rx="7" ry="5"/><path fill="#fffeff" d="M226 80.2l-4.3 90.8-66.9-53.1 100.6-38.2z"/><path fill="#00baff" d="M118.4 94l-10 1-.8-9 10-1z"/><ellipse cx="118" cy="66" fill="#fff" rx="25" ry="3"/><path fill="#fff" d="M36 0h12v55H36z"/></g></g></svg>