<svg xmlns="http://www.w3.org/2000/svg" viewBox="0 0 491 400"><defs/><filter id="prefix__a"><feGaussianBlur stdDeviation="12"/></filter><rect width="100%" height="100%" fill="#f1f2f5"/><g filter="url(#prefix__a)"><g fill-opacity=".5" transform="translate(1 1) scale(1.91797)"><circle r="1" fill="#1a77c5" transform="matrix(29.41722 -18.63328 4.23059 6.67903 145.2 170.4)"/><path fill="#5c2c6f" d="M35 58L20 99l66-68z"/><path fill="#551661" d="M43 177l-18-38 63 50z"/><path fill="#00367c" d="M176.5 142h-8l-1-60h8z"/><path fill="#571561" d="M161 56l-46-20 58 55z"/><path fill="#00003d" d="M21 90h6v48h-6z"/><path fill="#2d73b0" d="M170.4 134.1l-7.8 43.3-98.7 11.5 51.4 3.2z"/><path fill="#001851" d="M94.6 32L53 48.2l45.3-7.9 43.8 7.1z"/><path fill="#fff" d="M158 198L68 45 29 85z"/><path fill="#fff" d="M232-16l39 221-133 18z"/><path fill="#002e5f" d="M40.7 161.4l-2.7 1.2-18.7-42 2.7-1.2z"/><path fill="#002a56" d="M99.8 192.9l33-10.1-39.3 2.7-45.3-8.1z"/><path fill="#fff" d="M174 0h82v98h-82z"/><circle r="1" fill="#fff" transform="matrix(25.84229 -7.75892 13.655 45.48012 54.3 125.9)"/><path fill="#105a81" d="M122.1 36.4l-34.3-.2 60.6 16.1-30.6-18.8z"/><path fill="#fff" d="M106.2 40.5l25.2 7.8 25.3 18.1-110.9-7.3zM0 0h212v36H0zm61 72h77v105H61z"/><ellipse cx="42" cy="63" fill="#fd4693" rx="12" ry="11"/><path fill="#0e5798" d="M171.9 145.4l-51 44.5 35.1-21 21.2-68.7z"/><circle r="1" fill="#fa4b96" transform="matrix(11.78442 -1.02535 .8396 9.64972 49.9 168.5)"/><circle cx="154" cy="63" r="11" fill="#ff4593"/><path fill="#004f78" d="M17.1 122.9l17.2-46.6-1.5-5.8-7.6 11.4z"/><circle r="1" fill="#fff" transform="matrix(-2.9458 35.08066 -15.08442 -1.26667 155.4 118.5)"/><path fill="#979892" d="M90 64h36v7H90z"/><path fill="#868883" d="M119 102h34v6h-34z"/><path fill="#b1b3ae" d="M223.3 100l38.1 4.7-9.4 3.7-41.5.9z"/><path fill="#36b3ff" d="M140 161h21v16h-21z"/><path fill="#001e4e" d="M171.9 99l-10.6-24.8 2.8-1.2 10.6 24.8z"/><path fill="#00123a" d="M121.8 184.2l16.3-9.8 2 3.4-16.2 9.8z"/><path fill="#02527b" d="M28.8 150.5l-8.7-27 22.4 38.1-8.4-2.3z"/><path fill="#044b77" d="M42.1 59.9l26.3-20.7 53.3-3.7-43.2 7z"/></g></g></svg>