<svg xmlns="http://www.w3.org/2000/svg" viewBox="0 0 873 450"><defs/><filter id="prefix__a"><feGaussianBlur stdDeviation="12"/></filter><rect width="100%" height="100%" fill="#f4f4f6"/><g filter="url(#prefix__a)"><g fill-opacity=".5" transform="translate(1.7 1.7) scale(3.41016)"><path fill="#a25b7d" d="M193.5 106.3l23.3-63.9-21.4-17.9 25.9 43.6z"/><path fill="#4f3d77" d="M54.4 19L17.8 33.1 5.9 68.5l18.3-33.7z"/><path fill="#616599" d="M48.7 106l42-39.9L80 38.2l3.7 47.4z"/><path fill="#7b749e" d="M148 96.1l-7-46-4.1 22.2 50.3 30.7z"/><path fill="#55115e" d="M165 26l-19 9-6 16z"/><path fill="#856f9b" d="M44.8 22.8l18.7 1.5 13.2 9.3 13.5 18z"/><path fill="#572d6f" d="M26 94L11 75l37 24z"/><path fill="#405c8a" d="M160 28.1l22.8-8.6 28.8 19.1-24.9-11.4z"/><path fill="#4a5389" d="M172.2 101.4l28.8-5.7 12.7-24.8-2.2 15.5z"/><path fill="#124976" d="M9.2 63.2l4.1 14.9 4.5.1-8-22.7z"/><ellipse cx="141" cy="60" fill="#002f62" rx="2" ry="12"/><circle r="1" fill="#4d8cb5" transform="matrix(-.136 -2.36098 21.9241 -1.26283 49 97)"/><path fill="#d90100" d="M208.2 65.3l8.7-2.2 3 11.6L211 77z"/><ellipse cx="180" cy="9" fill="#fff" rx="255" ry="15"/><circle r="1" fill="#002056" transform="matrix(-.0471 -.99889 13.13595 -.61948 46.6 25.2)"/><circle cx="47" cy="66" r="31" fill="#fff"/><circle r="1" fill="#fff" transform="matrix(6.58922 28.77006 -31.92413 7.3116 178 67)"/><circle cx="113" cy="110" r="42" fill="#fff"/><circle r="1" fill="#fff" transform="rotate(-35.5 273.7 -332.3) scale(81.7178 31.4313)"/><path fill="#e31e7d" d="M210 90.7l-6 3.5-4-7 6-3.4z"/><path fill="#b42b76" d="M78 93l2-14-13 14z"/><path fill="#0069b3" d="M217 61l-4-16-1 14z"/><path fill="#004c8e" d="M165 97h27v3h-27z"/><path fill="#dd65a0" d="M21.8 95.5L33.5 87l-.1-1.7-17.2-1.7z"/><path fill="#004781" d="M84 50h3v24h-3z"/><path fill="#99498d" d="M159 99l-18-25 18 14z"/><ellipse cx="111" cy="93" fill="#fff" rx="26" ry="255"/><path fill="#002b61" d="M10 49h3v23h-3z"/><path fill="#fff" d="M214.1 55.5l-.6 11.2-71.5-1.6 14.7-32.9z"/><circle r="1" fill="#fffefd" transform="matrix(-10.66392 -25.87262 14.91706 -6.14837 65.3 54.9)"/><path fill="#e8338b" d="M199.3 38.8l10.1-6.6 3.3 5-10.1 6.6z"/><path fill="#f4599c" d="M25.8 34.2l-5.5-3.9-7 8 11.8 5.1z"/></g></g></svg>