<svg xmlns="http://www.w3.org/2000/svg" viewBox="0 0 881 450"><defs/><filter id="prefix__a"><feGaussianBlur stdDeviation="12"/></filter><rect width="100%" height="100%" fill="#f4f4f7"/><g filter="url(#prefix__a)"><g fill-opacity=".5" transform="translate(1.7 1.7) scale(3.4414)"><path fill="#9592b2" d="M126.8 67.4l22.7-27.3-7 50.6 48.9 16.7z"/><path fill="#584e8a" d="M49.9 103.5l33.2-13.1 2.2-41.6L88.4 72z"/><path fill="#5d6395" d="M220.9 79.7l-10.5-48.2-38.1-9.1 34.4 16.8z"/><path fill="#555587" d="M8.1 59.4L17 91.1l46 11.1-29.7-2.9z"/><path fill="#9388ae" d="M90.1 63.2L57.3 18.9.1 40.6l78.2-11.5z"/><path fill="#8086a7" d="M139.9 78.2l10.5-54 35 .9-44.3 19.1z"/><path fill="#5c4d81" d="M5.8 82.8l10.1-47.2 27.6-11.3-25.6 17.9z"/><path fill="#3f729d" d="M178.4 103.9l-16.7-8.5-2.4 3.3 50.3-5.2z"/><path fill="#0c3b68" d="M206 87l11-28-1 19z"/><path fill="#fff" d="M87 0h53v130H87z"/><circle r="1" fill="#fff" transform="matrix(9.43953 -22.9203 26.53848 10.92965 49.5 52.6)"/><path fill="#485f97" d="M85 47L58.4 23.8l16.9 9.9 14.2 36.9z"/><path fill="#fff" d="M201.9 11.3l-78.3 33.8L-16 3.1 271-8.6z"/><circle cx="176" cy="60" r="32" fill="#fff"/><path fill="#013a6a" d="M185.1 25l21.7 9.7-24-7.1-17 .6z"/><path fill="#ab4d8c" d="M153 42l-13-4 26-11z"/><path fill="#e41d77" d="M20 86h10v9H20z"/><path fill="#00003d" d="M140.2 64.2l8.6 21.3-1 .3-8.6-21.3z"/><path fill="#001b52" d="M57.5 25.4l-25 2.2v-1l25-2.2z"/><path fill="#db4e90" d="M209.8 34l2.3 13.8-11.3-4.9 2.6-10z"/><circle r="1" fill="#fff" transform="matrix(-23.07212 -6.42016 30.3792 -109.17371 238 81.6)"/><ellipse cx="221" cy="8" fill="#fff" rx="35" ry="29"/><path fill="#001851" d="M10 56h3v14h-3z"/><path fill="#893980" d="M170 99l-17-3-5-12z"/><path fill="#e44c93" d="M30 39l-16 5 3-11z"/><path fill="#206a9d" d="M46.1 101.7l24.1-4.9-45.1 2.4 6.1-5.8z"/><path fill="#003966" d="M87.6 61.3L79.3 87l-1-.3L86.8 61z"/><path fill="#fff" d="M11.5 78.5L6.3-16-16 127.1l72.1 6.4zM52 144l113-17-50-115z"/><ellipse cx="49" cy="63" fill="#fff" rx="35" ry="34"/><path fill="#003b6b" d="M18.6 40.3L11 50.1l2.3 26L11 60z"/><path fill="#f93686" d="M74.9 31l8 5.9-5.8 8-8-5.8z"/></g></g></svg>