<svg xmlns="http://www.w3.org/2000/svg" viewBox="0 0 984 400"><defs/><filter id="prefix__a"><feGaussianBlur stdDeviation="12"/></filter><rect width="100%" height="100%" fill="#f5f5f8"/><g filter="url(#prefix__a)"><g fill-opacity=".5" transform="translate(2 2) scale(3.84375)"><path fill="#000037" d="M22 78h212v4H22z"/><path fill="#0093ff" d="M88 74h15v12H88z"/><circle cx="213" cy="80" r="7" fill="#f21679"/><path fill="#f12480" d="M50 74h12v13H50z"/><path fill="#f32c85" d="M153 85.5v-13h12v13z"/><ellipse cx="195" cy="12" fill="#fff" rx="255" ry="62"/><ellipse cx="108" cy="79" fill="#004a8e" rx="44" ry="2"/><ellipse cx="126" cy="29" fill="#0079db" rx="33" ry="1"/><path fill="#83867f" d="M173 6.5v3h-28v-3z"/><path fill="#06427d" d="M20 78h30v4H20z"/><path fill="#4e80a7" d="M160 14h1v45h-1z"/><path fill="#027ce0" d="M74 39h1v41h-1z"/><path fill="#003875" d="M171 78h38v3h-38z"/><path fill="#bdd1db" d="M53 39h70v5H53z"/><path fill="#3ea8ff" d="M90.1 72.9l11-.8.8 11-11 .8z"/><circle cx="15" cy="37" r="41" fill="#fff"/><path fill="#e776ac" d="M208.1 83.7l-2.3-6.5 10-6.2 5.2 9.6z"/><path fill="#bdc1ba" d="M185.6 31.7l-19 .6-.2-6 19-.6z"/><ellipse cx="105" cy="96" fill="#fff" rx="254" ry="11"/><path fill="#4394d1" d="M96 29h2v19h-2z"/><path fill="#d67da7" d="M160.9 95.7l-6.3 2 11.8-20.6-13.5-4.1z"/><circle cx="55" cy="79" r="7" fill="#e15f9e"/><ellipse cx="74" cy="15" fill="#fff" rx="26" ry="28"/><path fill="#9a9c94" d="M92 60h7v6h-7z"/><circle r="1" fill="#fff" transform="matrix(50.60929 67.64316 -27.7682 20.77563 248.4 44.4)"/><path fill="#a8ada7" d="M211 93h6v7h-6z"/><ellipse cx="226" cy="79" fill="#00326f" rx="6" ry="2"/><circle r="1" fill="#7e817b" transform="matrix(1.16638 -1.0175 1.90552 2.18434 94.8 95.5)"/><path fill="#959892" d="M52 93h6v5h-6z"/><path fill="#fff" d="M133.3 40l-33 15.5.8 22.7 112.6-8.8z"/><path fill="#399eff" d="M102 79.5l-6.3 9-5.7-4 6.3-9z"/><path fill="#c5c9c2" d="M155.1 67.9l1.5-6.2-.5-4.9 9.2 4.9z"/></g></g></svg>