<svg xmlns="http://www.w3.org/2000/svg" viewBox="0 0 406 600"><defs/><filter id="prefix__a"><feGaussianBlur stdDeviation="12"/></filter><rect width="100%" height="100%" fill="#eee"/><g filter="url(#prefix__a)"><g fill-opacity=".5" transform="translate(1.2 1.2) scale(2.34375)"><ellipse cx="56" cy="173" fill="#2e2248" rx="9" ry="23"/><path fill="#00576e" d="M143 204h16v40h-16z"/><circle r="1" fill="#00002d" transform="matrix(-8.15863 .0415 -.03994 -7.85244 89.2 162.3)"/><path fill="#b39247" d="M143 72h17v74h-17z"/><path fill="#18b589" d="M47 76h18v42H47z"/><path fill="#ff5800" d="M81 102h16v16H81z"/><circle cx="151" cy="161" r="9" fill="#0083fa"/><path fill="#fff" d="M14 271l155-49-185-15z"/><path fill="#ec0073" d="M112.6 117.6l.8-16 14 .8-.8 16z"/><ellipse cx="86" cy="97" fill="#fff" rx="172" ry="6"/><path fill="#7c0057" d="M145.1 143.6l-1.2-14 15-1.2 1.2 14z"/><path fill="#fff" d="M0 170h104v9H0z"/><ellipse cx="107" cy="31" fill="#fff" rx="162" ry="47"/><circle cx="152" cy="186" r="9" fill="#ea2489"/><circle cx="54" cy="186" r="8" fill="#00795c"/><path fill="#007dff" d="M62 78v12H48V78z"/><path fill="#75e600" d="M61.5 117.5h-15v-17h15z"/><circle r="1" fill="#ff9a00" transform="matrix(-7.9349 -5.5149 4.07389 -5.86156 151.3 110.8)"/><ellipse cx="14" cy="115" fill="#fff" rx="34" ry="170"/><path fill="#a0002d" d="M61 155v14H47v-14z"/><path fill="#00518b" d="M81.8 154.6l18 1.9-1.6 14.9-18-1.9z"/><circle r="1" fill="#8d8d8d" transform="matrix(-.03087 2.22087 -30.0603 -.4179 78.7 7.6)"/><path fill="#fff" d="M84 271l21-170 42 101z"/><path fill="#fff" d="M188 231.9l-28.6-173-.2 163.4-48.5 5.4z"/><path fill="#46fe3c" d="M145 77h15v16h-15z"/><path fill="#fff" d="M144.6 128.2l43.4-2.7-59-11.9-6 134.3z"/><ellipse cx="141" cy="59" fill="#c7c8c7" rx="105" ry="4"/><circle cx="152" cy="237" r="8" fill="#002c74"/><ellipse cx="71" cy="169" fill="#fefdfc" rx="9" ry="160"/><path fill="#949792" d="M35 27L8 30l17 6z"/><path fill="#fc9600" d="M82.9 116.4l.2-13 14 .2-.2 13z"/><path fill="#f6f1f5" d="M38 91h135v12H38z"/></g></g></svg>