<svg xmlns="http://www.w3.org/2000/svg" viewBox="0 0 516 400"><defs/><filter id="prefix__a"><feGaussianBlur stdDeviation="12"/></filter><rect width="100%" height="100%" fill="#f4f4f5"/><g filter="url(#prefix__a)"><g fill-opacity=".5" transform="translate(1 1) scale(2.01563)"><path fill="#82596d" d="M163.8 64.7L93.5 24.8l79.7 22.9 14.2 98.9z"/><path fill="#004c99" d="M75 147l39 11-57-45z"/><path fill="#6a3136" d="M61 51l1 23 45-40z"/><path fill="#3681c0" d="M185.9 115.8l-45.2 46.7-8.6-8.3 45.2-46.7z"/><circle r="1" fill="#603975" transform="matrix(5.44552 -27.8825 3.5582 .69492 58 98.3)"/><path fill="#752b66" d="M141.5 150.6l-16.3 12.3-10.9.5L89.6 150z"/><ellipse cx="110" cy="37" fill="#c41e00" rx="9" ry="10"/><ellipse cx="162" cy="57" fill="#d90000" rx="8" ry="9"/><circle cx="132" cy="112" r="36" fill="#fff"/><path fill="#8a1563" d="M189 87l-18-18 9 27z"/><path fill="#c83978" d="M48 99h19v15H48z"/><path fill="#fff" d="M135.3 40L78.6 54.3l72.7 90.6 3-96.1z"/><ellipse cx="18" cy="75" fill="#fff" rx="38" ry="255"/><ellipse cx="235" cy="81" fill="#fff" rx="49" ry="255"/><circle r="1" fill="#3071aa" transform="matrix(18.60313 -14.85069 1.95802 2.45277 165.1 135.8)"/><path fill="#003b75" d="M147.1 36.6h-29.2l34.8 10.7-14.5-11.1z"/><path fill="#fff" d="M89.1 46l1.1 101.4 29.7 10.2-54.7-33.9z"/><path fill="#0173d5" d="M179 98l-13 21 14 8z"/><ellipse cx="166" cy="17" fill="#fff" rx="26" ry="32"/><path fill="#003d69" d="M59.9 100.9l-2.3-3.5-.2-8.7 8.7-29.1z"/><path fill="#876393" d="M81.8 148.5l-25.2-48.3 10.3-4.3-21.7 6.7z"/><path fill="#fff" d="M128.5 158.9l62-23.8 80.5 54.6L130.4 213z"/><circle cx="71" cy="57" r="9" fill="#fd5c34"/><path fill="#104576" d="M104.4 35.6l1.3 2.7-37 19.4 20.2-15.1z"/><circle r="1" fill="#305979" transform="matrix(-14.6247 5.93847 -.9988 -2.45977 139 152.7)"/><circle r="1" fill="#fff" transform="matrix(21.50123 15.72554 -18.2909 25.0088 75 18.9)"/><path fill="#dd4d8e" d="M123 143l-3 23-9-16z"/><path fill="#d8dfdd" d="M194 114l-29 22 67 4z"/><path fill="#fff" d="M79.6 53.9l11.7 95.9 81.9-73.9-79.1-31.7z"/><path fill="#13a2ff" d="M75 137l6 14 7-17z"/><ellipse cx="131" cy="119" fill="#fff" rx="32" ry="31"/><circle r="1" fill="#fff" transform="matrix(7.41805 17.92244 -19.11219 7.91048 128.6 59.8)"/></g></g></svg>