<svg xmlns="http://www.w3.org/2000/svg" viewBox="0 0 905 420"><defs/><filter id="prefix__a"><feGaussianBlur stdDeviation="12"/></filter><rect width="100%" height="100%" fill="#f2f3f4"/><g filter="url(#prefix__a)"><g transform="translate(1.8 1.8) scale(3.53516)"><path fill="#73455a" fill-opacity=".5" d="M207 86l2-49 10 23z"/><path fill="#5a7c8e" fill-opacity=".5" d="M65.6 99l-40-8.3-6.8-45.8 10.5 34z"/><path fill="#758794" fill-opacity=".5" d="M145.7 82.4l.4-35.3 27.8-32.7-38.1 31z"/><path fill="#1b3a57" fill-opacity=".5" d="M26.7 33.4l-5.9 28.9 10.6-27.4 34.3-16.4z"/><path fill="#545188" fill-opacity=".5" d="M87 87L61 97l32-29z"/><path fill="#678a88" fill-opacity=".5" d="M176.3 91.6l35.6-8-38.7 17.6-25.9-17.1z"/><path fill="#6275a1" fill-opacity=".5" d="M86.3 30.4l9.1 65.4L93 40.1 48.3 18.7z"/><path fill="#7b4d87" fill-opacity=".5" d="M210.4 42.9L186.8 24l-7-5.7 28.6 12.5z"/><path fill="#003569" fill-opacity=".5" d="M167 21h23v4h-23z"/><path fill="#002a61" fill-opacity=".5" d="M58.5 22.9l-19.3 4.3L64.9 26l13.2 3.1z"/><circle r="1" fill="#fff" fill-opacity=".5" transform="rotate(-13 261.2 -491.5) scale(21.77876 75.86545)"/><path fill="#5c9d6a" fill-opacity=".5" d="M33 93l38-2-19 9z"/><circle r="1" fill="#002f65" fill-opacity=".5" transform="matrix(4.90192 13.65304 -.94118 .33792 146.5 71.2)"/><path fill="#855372" fill-opacity=".5" d="M215 48.2l-8.9 38.9-23.1 7.5 35.2-26.5z"/><circle cx="59" cy="62" r="31" fill="#fff" fill-opacity=".5"/><circle r="1" fill="#fff" fill-opacity=".5" transform="rotate(84.1 57.9 127.1) scale(22.16041 33.70967)"/><circle r="1" fill="#fff" fill-opacity=".5" transform="matrix(-19.12905 -108.4862 31.31744 -5.5221 242.4 28.2)"/><path fill="#6f5997" fill-opacity=".5" d="M92.7 73.9l-4.3-43.7-7.6 7.4 15.3 13.9z"/><path fill="#626a84" fill-opacity=".5" d="M146.9 32.4l-9 42 11.9-36.7 22.5-15.9z"/><path fill="#fff" fill-opacity=".5" d="M0 0h248v22H0zm82 95h174v23H82z"/><path fill="#b94960" fill-opacity=".5" d="M28 32h9v9h-9z"/><path fill="#fff" fill-opacity=".5" d="M55 124L-16 13v100z"/><circle cx="179" cy="51" r="28" fill="#fff" fill-opacity=".5"/><path fill="red" fill-opacity=".5" d="M208.1 65.2l2.2-3.3 7.6 4.9-2.2 3.3z"/><path fill="#003169" fill-opacity=".5" d="M21 46h3v24h-3z"/><path fill="none" stroke="#053a5e" stroke-opacity=".5" stroke-width=".5" d="M143.9 66.7q6.6 27.9 42 27.2"/><path fill="#969994" fill-opacity=".5" d="M155 43h23v3h-23z"/><ellipse cx="55" cy="78" fill="#babdb8" fill-opacity=".5" rx="13" ry="3"/><path fill="#e5458a" fill-opacity=".5" d="M79 31h7v10h-7z"/><path fill="#556680" fill-opacity=".5" d="M27.1 76.4l1.1 9.4 21.3 9.9-12.8-9.5z"/><path fill="#003e67" fill-opacity=".5" d="M91.1 67.4l.8-15 3 .2-.8 15z"/></g></g></svg>