<svg xmlns="http://www.w3.org/2000/svg" viewBox="0 0 847 420"><defs/><filter id="prefix__a"><feGaussianBlur stdDeviation="12"/></filter><rect width="100%" height="100%" fill="#f2f4f7"/><g filter="url(#prefix__a)"><g fill-opacity=".5" transform="translate(1.7 1.7) scale(3.3086)"><path fill="#4a6b9b" d="M44 106.7h28.2L94.3 58l-5 37z"/><path fill="#3d5489" d="M20.9 45.3L50 22.7 15.3 44l-4.1 40.8z"/><path fill="#724b83" d="M211.3 39.1l9.2 19.2L184.6 27l38.5 17.4z"/><path fill="#2e4981" d="M169.8 20.5L137.9 65l9.5 30.6-7.8-42.2z"/><path fill="#7f7ea5" d="M25.8 33.4l35.8-1.6 34 30.6-24.2-39.3z"/><path fill="#7495b1" d="M209.6 94.8l-45.5 13 50.8-4.3 6-72.5z"/><path fill="#5a6c9c" d="M70 121.8L16.3 92.9l-5.7-44.1 8.9 37.8z"/><ellipse cx="181" cy="29" fill="#000b48" rx="14" ry="2"/><path fill="#00002b" d="M178.2 105.5l-.2 1-22.2-6 .2-1z"/><ellipse cx="114" fill="#fff" rx="135" ry="31"/><circle r="1" fill="#084377" transform="matrix(1.78528 .03256 -.19962 10.94572 90.2 69)"/><path fill="#194a75" d="M151 92l-12-14 2-10z"/><circle r="1" fill="#fff" transform="matrix(40.82214 -31.38735 16.82657 21.8845 228.7 111.4)"/><path fill="#696a9a" d="M138.8 43.7l45.9-23.1-31.3 19.7-2.9.8z"/><path fill="#003566" d="M24.6 38.2l27-9-.2-2.1-15.2 4.7z"/><circle r="1" fill="#fff" transform="matrix(23.7629 14.49181 -24.9268 40.87364 107.9 107.2)"/><path fill="#2972af" d="M217 45l2.6 30.7-7.8-24.4 5.9 2.6z"/><path fill="#744a8a" d="M84.9 49.5l4.5 13.3-1.7-21-20.8-10.9z"/><path fill="#1a4271" d="M26.7 98.5l1.1-.8 10.6 8.2 20.4.5z"/><path fill="#003162" d="M13 57h3v24h-3z"/><path fill="#003" d="M67 31.2l-.3 1-15.6-3.4.2-1z"/><ellipse cx="175" cy="71" fill="#fff" rx="33" ry="26"/><ellipse cx="216" cy="66" fill="#10508d" rx="2" ry="14"/><circle r="1" fill="#fff" transform="matrix(13.1233 27.0194 -20.19378 9.8081 64.8 62.5)"/><path fill="#a28caf" d="M17.7 40.1L51 44.8l-36.8 5.8 23.2-19.8z"/><path fill="#5b4f8d" d="M93.2 65.3L82.6 98.2 61.4 105l23.2-19.3z"/><circle r="1" fill="#fff" transform="rotate(70.7 90.4 189.7) scale(76.59969 25.84877)"/><path fill="#003467" d="M140 54h3v22h-3z"/><circle r="1" fill="#fff" transform="matrix(-10.58767 26.37485 -59.7085 -23.96881 91 10.6)"/><path fill="#fff" d="M-14 128l117-35 124 33z"/><circle r="1" fill="#f8ffff" transform="matrix(-6.85013 2.61581 -17.84715 -46.73707 16.7 103.7)"/><path fill="#124879" d="M195.5 105.5h-27v-3h27z"/></g></g></svg>