<svg xmlns="http://www.w3.org/2000/svg" viewBox="0 0 658 420"><defs/><filter id="prefix__a"><feGaussianBlur stdDeviation="12"/></filter><rect width="100%" height="100%" fill="#f3f2f4"/><g filter="url(#prefix__a)"><g fill-opacity=".5" transform="translate(1.3 1.3) scale(2.57031)"><path fill="#a56363" d="M117.6 147.7l51.5-76.3 13.3 9-51.5 76.2z"/><path fill="#001755" d="M120.5 13.1l55.4 28.6-52.6-22.9-58.4 2.6z"/><path fill="#2b2576" d="M64 120l23 20 36-4z"/><path fill="#492769" d="M44 92.9l4.7-32.5 7.9 37.3 21.2 41z"/><path fill="#591b65" d="M89 18L48 62l9-30z"/><path fill="#826285" d="M151.3 122.9l30.2-31.1L136 17l41.2 35.4z"/><path fill="#fff" d="M163.6 104l-17.2 16.6-79.8-90 71.7-5.9z"/><path fill="#d90000" d="M148.4 134.6l-14.8-2.4 2-12.8 14.8 2.4z"/><path fill="#fff" d="M118.1 139.1L271 107.5 250.9 178-16 157.6z"/><path fill="#ff0900" d="M162 82h12v15h-12z"/><circle cx="230" cy="23" r="69" fill="#fff"/><path fill="#003160" d="M52.6 48.4l3.8 1-7 28.2-3.8-1z"/><path fill="#003260" d="M129 132l-9 7-22-4z"/><ellipse cx="169" cy="70" fill="#00509e" rx="3" ry="14"/><circle cx="52" cy="94" r="9" fill="#f74b94"/><ellipse cx="12" cy="57" fill="#fff" rx="35" ry="139"/><path fill="#003468" d="M113 18.6l-30.3-1.9 26.9-2.3 32.2 6.6z"/><path fill="#d55599" d="M166.3 50.5l-16.6-6-7.6-8 16.4-10.8z"/><circle r="1" fill="#fff" transform="matrix(-10.94002 28.0597 -26.72467 -10.41951 111 105.5)"/><circle r="1" fill="#f1ffff" transform="rotate(84.6 52.8 137) scale(32.07402 12.47491)"/><path fill="#25304b" d="M164.4 100.7l2.3 1.9-27 34.7-2.4-1.9z"/><path fill="#fff" d="M59 44h100v64H59z"/><path fill="#002c5c" d="M69 28l25-9H79z"/><path fill="#00416a" d="M52 101l33 30-24-12z"/><ellipse cx="185" cy="138" fill="#a2aaa9" rx="30" ry="3"/><circle cx="46" cy="144" r="31" fill="#fff"/><circle r="1" fill="#f22a00" transform="matrix(6.13934 -3.5697 4.30238 7.39943 140 127.8)"/><path fill="#fff" d="M-16-2.7l11.9 61.1 79-33.5L142.4-16z"/><path fill="#0065ab" d="M167 51l-10-8 14 22z"/><ellipse cx="137" cy="99" fill="#fbfffd" rx="24" ry="21"/><path fill="#a9b3b3" d="M185 91h57v5h-57z"/><ellipse cx="63" cy="37" fill="#ff4e98" rx="8" ry="9"/></g></g></svg>