<svg xmlns="http://www.w3.org/2000/svg" viewBox="0 0 635 380"><defs/><filter id="prefix__a"><feGaussianBlur stdDeviation="12"/></filter><rect width="100%" height="100%" fill="#f8edf2"/><g filter="url(#prefix__a)"><g fill-opacity=".5" transform="translate(1.2 1.2) scale(2.48047)"><path fill="#ecaec9" d="M30 76h104v69H30z"/><ellipse cx="58" cy="54" fill="#c57088" rx="39" ry="7"/><ellipse cx="41" cy="28" fill="#91554a" rx="16" ry="8"/><path fill="#df83ac" d="M210.3 143.2l-57.7 1.2-163.8-7.5 222.6-7.1z"/><circle r="1" fill="#fff" transform="matrix(31.12395 -56.66551 165.03839 90.64854 181.4 31.6)"/><path fill="#dd7da7" d="M68 103h105v13H68z"/><ellipse cx="99" cy="122" fill="#fff" rx="125" ry="8"/><ellipse cx="95" cy="96" fill="#fff" rx="103" ry="8"/><ellipse cx="60" cy="92" fill="#fff" rx="5" ry="168"/><ellipse cx="79" cy="82" fill="#d78ca7" rx="56" ry="7"/><ellipse cx="99" cy="46" fill="#fff" rx="6" ry="156"/><path fill="#d45f91" d="M27 102h26v14H27z"/><path fill="#fff" d="M133 33h10v120h-10z"/><path fill="#00a000" d="M33 54h15v4H33z"/><path fill="#fff" d="M56 30h10v123H56z"/><path fill="#3db427" d="M27 26h40v4H27z"/><ellipse cx="1" cy="88" fill="#fcffff" rx="25" ry="255"/><circle r="1" fill="#fff" transform="matrix(27.25043 -55.29423 198.83589 97.99146 171.4 24)"/><path fill="#299900" d="M89.9 53.5l.2 4-18 1-.2-4z"/><path fill="#4f9522" d="M78.9 85.4l5.3-1.1 3.5-3.7-13.2.1z"/><path fill="#de6fa2" d="M55.5 142.5h-27v-13h27z"/><path fill="#fff" d="M172 64h10v89h-10z"/><path fill="#3e9713" d="M123.9 78l1 6-10.8 2-1-6z"/><path fill="#009c00" d="M154 108h8v3h-8z"/><ellipse cx="21" cy="101" fill="#939794" rx="1" ry="82"/><path fill="#739044" d="M49.2 82.2l-13.8 4.2V90l.7-11.7z"/><ellipse cx="99" cy="144" fill="#fff" rx="5" ry="246"/><path fill="#00b900" d="M38 108h6v4h-6z"/><path fill="#e177a8" d="M144 131h28v13h-28z"/><path fill="#fff" d="M22 117h203v13H22z"/><path fill="#32a00c" d="M82 110l-4-4-5 5z"/><ellipse cx="129" cy="95" fill="#fff" rx="255" ry="7"/></g></g></svg>