<svg xmlns="http://www.w3.org/2000/svg" viewBox="0 0 791 480"><defs/><filter id="prefix__a"><feGaussianBlur stdDeviation="12"/></filter><rect width="100%" height="100%" fill="#f8f1f3"/><g filter="url(#prefix__a)"><g fill-opacity=".5" transform="translate(1.5 1.5) scale(3.08984)"><ellipse cx="184" cy="111" fill="#e480a7" rx="102" ry="6"/><path fill="#e2b2b1" d="M96 22h50v73H96z"/><path fill="#e17da1" d="M95 84h113v11H95z"/><path fill="#d9859c" d="M95 63h87v11H95z"/><circle r="1" fill="#fff" transform="matrix(-.83354 76.2957 -5.2694 -.05757 122.7 59)"/><path fill="#7f6906" d="M99 21h16v10H99z"/><path fill="#fff" d="M260 123L80-6l191 2z"/><path fill="#5ab341" d="M195 85h7v29h-7z"/><path fill="#086f00" d="M138 42l-7 4 12 5z"/><path fill="#009600" d="M133 66h8v6h-8z"/><ellipse cx="132" cy="79" fill="#fff" rx="245" ry="6"/><circle r="1" fill="#fff" transform="matrix(-174.72402 4.32998 -.47732 -19.26087 133.6 136.9)"/><ellipse cx="47" cy="144" fill="#868a89" rx="36" ry="2"/><path fill="#fff" d="M0 53h256v11H0z"/><path fill="#fff" d="M149 46h7v94h-7z"/><path fill="#e56071" d="M95 43h23v9H95z"/><ellipse cx="126" cy="36" fill="#fff" rx="255" ry="6"/><path fill="#aaaead" d="M94 143h95v3H94z"/><path fill="#fff" d="M176 77l36.4 29.3-34.6-.2 22.7 55.6z"/><path fill="#c97000" d="M225 108h7v8h-7z"/><path fill="#fff" d="M109.9 170l10.9-6.6-34.7-70.2-37.4-1.7z"/><path fill="#d18400" d="M104 84h6v10h-6z"/><ellipse cx="234" cy="98" fill="#acb0af" rx="14" ry="3"/><path fill="#fff" d="M239.5 121.1l-95.1 40.7 126.6-8.1L244.6-7.4z"/><circle r="1" fill="#df872e" transform="matrix(-1.1684 4.79298 -4.6232 -1.12701 107.2 67.8)"/><ellipse cy="52" fill="#fff" rx="21" ry="117"/><path fill="#b3b5b5" d="M187 73h32v4h-32z"/><ellipse cx="106" cy="111" fill="#f16eb8" rx="13" ry="6"/><path fill="#bec4c2" d="M23 109h63v4H23z"/><path fill="#feffff" d="M0 0h224v23H0z"/><path fill="#168f00" d="M194 86h8v6h-8z"/><path fill="#fff" d="M233-16l38 18-66 130z"/></g></g></svg>