<svg xmlns="http://www.w3.org/2000/svg" viewBox="0 0 849 450"><defs/><filter id="prefix__a"><feGaussianBlur stdDeviation="12"/></filter><rect width="100%" height="100%" fill="#f8edf1"/><g filter="url(#prefix__a)"><g fill-opacity=".5" transform="translate(1.7 1.7) scale(3.3164)"><circle r="1" fill="#eeb9d1" transform="matrix(6.78437 -30.5569 70.8 15.71931 101.2 89.9)"/><circle r="1" fill="#78ba62" transform="matrix(4.04825 -.13184 1.109 34.05313 81.6 57.8)"/><path fill="#845141" d="M36 9h21v12H36z"/><circle r="1" fill="#8e544c" transform="matrix(.65097 -6.29934 12.1371 1.25425 188.6 115.3)"/><path fill="#d06591" d="M32 34h62v11H32z"/><circle r="1" fill="#fff" transform="matrix(33.86233 -58.53837 192.36668 111.27717 207.2 35.2)"/><path fill="#f17abb" d="M32 110h135v12H32z"/><ellipse cx="126" cy="77" fill="#fff" rx="255" ry="7"/><ellipse cx="109" cy="103" fill="#fff" rx="139" ry="7"/><ellipse cx="97" cy="90" fill="#da8bab" rx="74" ry="6"/><ellipse cx="63" cy="118" fill="#fff" rx="6" ry="134"/><ellipse cx="99" cy="94" fill="#fff" rx="5" ry="176"/><path fill="#009100" d="M77 87h7v7h-7z"/><path fill="#fff" d="M130 44h10v91h-10z"/><circle r="1" fill="#dca2bc" transform="matrix(-.0267 5.09866 -91.32163 -.47816 104.4 64.3)"/><circle cx="80" cy="39" r="5" fill="#0baf00"/><path fill="#adb6b0" d="M122 37h75v5h-75z"/><circle r="1" fill="#589030" transform="matrix(7.19389 .01432 -.00948 4.76261 82.9 65)"/><ellipse cx="212" cy="88" fill="#9ba59e" rx="41" ry="2"/><ellipse cx="13" cy="64" fill="#fdffff" rx="19" ry="146"/><ellipse cx="122" cy="52" fill="#fff" rx="255" ry="7"/><path fill="#20a909" d="M50.9 16.7l-1.8.7-10.3 1.7 6.7-9.4z"/><path fill="#00a400" d="M193 113l-8-3 2 10z"/><path fill="#f56fb8" d="M35 58.4l25.5 2.4-11.7 11.8-18.2-4.4z"/><circle r="1" fill="#fff" transform="rotate(-176.6 89.7 -2.6) scale(148.92299 38.56657)"/><ellipse cx="152" cy="134" fill="#fff" rx="255" ry="13"/><path fill="#fff" d="M59 21h8v113h-8z"/><path fill="#f574bc" d="M31 84h28v12H31z"/><ellipse cx="129" cy="102" fill="#feffff" rx="255" ry="7"/><ellipse cx="117" cy="64" fill="#f66ab6" rx="14" ry="7"/><path fill="#ec8dc0" d="M142.6 100.4L169 85.8l28.8 2.2-57.4-6z"/><ellipse cx="98" cy="86" fill="#fdffff" rx="5" ry="69"/></g></g></svg>