<svg xmlns="http://www.w3.org/2000/svg" viewBox="0 0 698 500"><defs/><filter id="prefix__a"><feGaussianBlur stdDeviation="12"/></filter><rect width="100%" height="100%" fill="#fafafa"/><g filter="url(#prefix__a)"><g transform="translate(1.4 1.4) scale(2.72656)"><ellipse cx="200" cy="176" fill="#818181" fill-opacity=".5" rx="212" ry="2"/><path fill="#cacaca" fill-opacity=".5" d="M66 6h44v19H66z"/><ellipse cx="174" cy="153" fill="#ece5e4" fill-opacity=".5" rx="131" ry="7"/><path fill="#fff" fill-opacity=".5" d="M266.4 2L-16 36.8l262.8 140.5 8.8 20.7z"/><path fill="#cacaca" fill-opacity=".5" d="M155.9 160.9l-12.9.6 24.2 6.7-59.9-.9z"/><circle r="1" fill="#fff" fill-opacity=".5" transform="matrix(111.51747 -85.77451 18.42961 23.96077 35.7 125.4)"/><ellipse cx="84" cy="6" fill="#a2a2a1" fill-opacity=".5" rx="150" ry="1"/><ellipse cx="234" cy="137" fill="#a9a9a9" fill-opacity=".5" rx="1" ry="132"/><ellipse cx="45" cy="99" fill="#adadad" fill-opacity=".5" rx="1" ry="94"/><ellipse cy="24" fill="#fff" fill-opacity=".5" rx="31" ry="56"/><path fill="#a6a6a6" fill-opacity=".5" d="M31.7 118.3l-.3-4 9-.6.2 4z"/><path fill="#f9bab7" fill-opacity=".5" d="M162.1 149v-1l69.8-5v1z"/><path fill="#c3c1c1" fill-opacity=".5" d="M37 152h122v2H37z"/><path fill="#fff" fill-opacity=".5" d="M49 23h183v111H49z"/><path fill="#beb3b2" fill-opacity=".5" d="M122 22l-64-1v-1l64 1z"/><path fill="#bec1c1" fill-opacity=".5" d="M159 152h76v2h-76z"/><path fill="#bdbdbd" fill-opacity=".5" d="M19 64h2v30h-2z"/><path fill="#bcbcbc" fill-opacity=".5" d="M30 39h11v5H30z"/><path fill="#cbcdce" fill-opacity=".5" d="M195 156h47v4h-47z"/><path fill="#caf0d4" fill-opacity=".5" d="M68.1 149.3l-12.9-1.5 63.1-15.2-60.4 19.2z"/><path fill="#fff" fill-opacity=".5" d="M0 154h104v20H0z"/><circle r="1" fill="#fff" fill-opacity=".5" transform="matrix(-3.73038 6.37346 -14.1578 -8.28654 225.2 164.4)"/><ellipse cx="138" cy="166" fill="#bababa" fill-opacity=".5" rx="26" ry="2"/><path fill="none" stroke="#ccf0d4" stroke-opacity=".5" stroke-width=".5" d="M58 140q41.7 36.3 125-94"/><path fill="#dadada" fill-opacity=".5" d="M33.4 83.5l-3.2.5 13.5-4.9-22.2-5.2z"/><ellipse cy="152" fill="#fff" fill-opacity=".5" rx="19" ry="190"/><path fill="#fff" fill-opacity=".5" d="M246 0h10v183h-10z"/><circle r="1" fill="#e3f7e3" fill-opacity=".5" transform="rotate(-49.2 191.6 -82.1) scale(63.94889 1)"/><path fill="#b9c3ca" fill-opacity=".5" d="M70 15h56v2H70z"/><path fill="#b3b3b3" fill-opacity=".5" d="M38 7l5-4H31z"/><path fill="#c4c4c4" fill-opacity=".5" d="M16 174h28v5H16z"/><path fill="#fff" fill-opacity=".5" d="M188.3 175.1L158.1 163l4.9 15.5 30.6-38.3z"/></g></g></svg>