<svg xmlns="http://www.w3.org/2000/svg" viewBox="0 0 800 344"><defs/><filter id="prefix__a"><feGaussianBlur stdDeviation="12"/></filter><rect width="100%" height="100%" fill="#eee"/><g filter="url(#prefix__a)"><g fill-opacity=".5" transform="translate(1.6 1.6) scale(3.125)"><path fill="#4e4e4e" d="M173 19h62v3h-62z"/><path fill="#747474" d="M66 12h86v3H66z"/><ellipse cx="217" cy="83" fill="#b1b1b1" rx="110" ry="3"/><ellipse cx="121" cy="55" fill="#d3d3d3" rx="22" ry="31"/><path fill="#7c7c7c" d="M8 100h181v3H8z"/><ellipse cx="26" cy="13" fill="#444" rx="14" ry="2"/><path fill="#fefefe" d="M91.2 72.2l-46.9 4.1-9.5-108.5 46.9-4.1z"/><ellipse cx="99" cy="89" fill="#656565" rx="145" ry="1"/><path fill="#989898" d="M195.1 15.9l22.2-.3 7-7.4-32.4 5.1z"/><ellipse cx="251" cy="61" fill="#fff" rx="7" ry="142"/><ellipse cx="103" cy="20" fill="#737373" rx="13" ry="2"/><ellipse cx="62" cy="51" fill="#7d7d7d" rx="181" ry="1"/><ellipse cx="49" cy="6" fill="#747474" rx="195" ry="1"/><ellipse cx="42" cy="83" fill="#888" rx="33" ry="2"/><ellipse cx="1" cy="60" fill="#fff" rx="7" ry="153"/><ellipse cx="102" cy="38" fill="#7e7e7e" rx="142" ry="1"/><circle r="1" fill="#fff" transform="rotate(-172.9 118.3 45.3) scale(42.59096 14.07159)"/><path fill="#fff" d="M106.1 6.2l11.3 10 58.5 1.5-62 13.4z"/><ellipse cx="161" cy="26" fill="#9d9d9d" rx="153" ry="1"/><ellipse cx="24" cy="63" fill="#c6c6c6" rx="255" ry="2"/><ellipse cx="29" cy="33" fill="gray" rx="15" ry="2"/><path fill="#9f9f9f" d="M100 56h44v4h-44z"/><ellipse cx="123" cy="76" fill="#7d7d7d" rx="115" ry="1"/><ellipse cx="57" cy="94" fill="#fff" rx="255" ry="5"/><path fill="#acacac" d="M189 31h33v5h-33z"/><path fill="#6f6f6f" d="M215.5 11.7v1l-29 1.6v-1z"/><ellipse cx="117" cy="107" fill="#fff" rx="228" ry="4"/><path fill="#fff" d="M0 0h246v6H0z"/><ellipse cx="84" cy="61" fill="#fff" rx="184" ry="2"/><path fill="#818181" d="M163 12h1l-1 56h-1z"/><ellipse cx="244" cy="49" fill="#848484" rx="1" ry="42"/><ellipse cx="93" cy="41" fill="#fff" rx="173" ry="2"/></g></g></svg>