<svg xmlns="http://www.w3.org/2000/svg" viewBox="0 0 894 280"><defs/><filter id="prefix__a"><feGaussianBlur stdDeviation="12"/></filter><rect width="100%" height="100%" fill="#f9e6ee"/><g filter="url(#prefix__a)"><g fill-opacity=".5" transform="translate(1.7 1.7) scale(3.49219)"><ellipse cx="160" cy="38" fill="#c20000" rx="16" ry="8"/><path fill="#ee79b6" d="M38 7h173v12H38z"/><path fill="#ed75b4" d="M34 32h102v13H34z"/><path fill="#ec6eb1" d="M182 33h67v11h-67z"/><ellipse cx="123" cy="64" fill="#feffff" rx="255" ry="19"/><circle r="1" fill="#b0b9b5" transform="matrix(-50.17196 -.17909 .00984 -2.7557 195 73.8)"/><circle r="1" fill="#fff" transform="matrix(-5.25014 .1008 -1.96622 -102.40213 102.7 12.6)"/><path fill="#fff" d="M60 0h10v80H60z"/><path fill="#d81c00" d="M147 33h28v12h-28z"/><circle r="1" fill="#fff" transform="matrix(35.3893 -32.37708 10.899 11.913 244.7 3)"/><ellipse cx="148" cy="26" fill="#fff" rx="255" ry="6"/><path fill="#fff" d="M174 0h10v67h-10zM8.6 3.3L159.7-16l-25.1 53 2-30.1zM212 0h10v72h-10z"/><circle r="1" fill="#fff" transform="matrix(101.55524 11.707 -2.24512 19.4758 51.9 66.3)"/><path fill="#ec7bb6" d="M32 6h28v12H32z"/><ellipse cx="4" cy="19" fill="#fbffff" rx="28" ry="240"/><path fill="#7e8481" d="M4 9l18 4-17 1z"/><path fill="#949b97" d="M7.7 34.6v5.1L2.4 41l18.8-.1z"/><path fill="#fff" d="M99 0h9v80h-9zM70.5 48.6V11.7L61-16l-.5 81.1z"/><path fill="#999" d="M152 73h97v2h-97z"/><ellipse cx="141" cy="18" fill="#fff" rx="5" ry="121"/><ellipse cx="125" cy="60" fill="#fff" rx="241" ry="12"/><path fill="#ed84ba" d="M186 32h25v14h-25z"/><circle cx="197" cy="59" r="3" fill="#767b79"/><path fill="#ed86bb" d="M221 32h29v14h-29z"/><path fill="#ec7eb8" d="M72 6h24v14H72z"/><ellipse cx="160" cy="58" fill="#818684" rx="3" ry="4"/><path fill="#ec84ba" d="M150 6h22v14h-22z"/><path fill="#858a88" d="M239 61l-4 1-1-10z"/><path fill="#ec84ba" d="M109 6h26v13h-26z"/></g></g></svg>