<svg xmlns="http://www.w3.org/2000/svg" viewBox="0 0 816 300"><defs/><filter id="prefix__a"><feGaussianBlur stdDeviation="12"/></filter><rect width="100%" height="100%" fill="#f9e8f1"/><g filter="url(#prefix__a)"><g fill-opacity=".5" transform="translate(1.6 1.6) scale(3.1875)"><path fill="#ee7eb7" d="M36 6h218v16H36z"/><path fill="#ec6aad" d="M171 37h78v15h-78z"/><path fill="#ec6cae" d="M41 37h76v15H41z"/><ellipse cx="131" cy="78" fill="#fff" rx="255" ry="26"/><path fill="#fff" d="M205 0h12v83h-12z"/><ellipse cx="189" cy="85" fill="#7a827e" rx="54" ry="2"/><ellipse cx="76" cy="59" fill="#fff" rx="7" ry="80"/><path fill="#fff" d="M116.8 22.6L-16 21.8l157.4 20.8L111.5-16z"/><path fill="#fff" d="M56.6 87.6l114.3-4.1.9-97.4-14.6 35.5z"/><ellipse cx="10" cy="47" fill="#fcffff" rx="28" ry="111"/><ellipse cx="191" cy="29" fill="#fff" rx="255" ry="8"/><path fill="#505753" d="M4 13h19v3H4z"/><ellipse cx="210" cy="30" fill="#fff" rx="6" ry="53"/><path fill="#9fa6a2" d="M24.7 45.1l-11-4-14.3 8.1 2.9-.8z"/><path fill="#7b837f" d="M186 63h5v9h-5z"/><path fill="#fff" d="M269 50l-22 59 4-124z"/><ellipse cx="76" cy="37" fill="#fff" rx="6" ry="129"/><path fill="#ec73b2" d="M37 38h15v13H37z"/><ellipse cx="43" cy="82" fill="#fff" rx="100" ry="30"/><ellipse cx="100" cy="44" fill="#ee87bd" rx="17" ry="9"/><path fill="#fff" d="M131.6 4.6l-25.8 34.3L129.6-16l48 25.1z"/><path fill="#ed7fb9" d="M81 7h34v14H81z"/><ellipse cx="186" cy="84" fill="#a9abaa" rx="43" ry="2"/><path fill="#8a918d" d="M229.4 64.8l6 .5-.8 8-6-.6z"/><path fill="#ed7fb9" d="M127 7h33v14h-33z"/><path fill="#ed82ba" d="M171 7h34v14h-34z"/><path fill="#ee81ba" d="M39 7h28v13H39z"/><ellipse cx="87" cy="3" fill="#fff" rx="249" ry="3"/><path fill="#feffff" d="M231 65l-69-17 94 55z"/><path fill="#ed85bb" d="M215 7h33v15h-33z"/><path fill="#fff" d="M155.7 1L-16 4.4 192.8-16l-29.4 35.8z"/><path fill="#ee8ec0" d="M176 36h18v17h-18z"/></g></g></svg>