<svg xmlns="http://www.w3.org/2000/svg" viewBox="0 0 900 600"><defs/><filter id="prefix__a"><feGaussianBlur stdDeviation="12"/></filter><rect width="100%" height="100%" fill="#555"/><g filter="url(#prefix__a)"><g fill-opacity=".5" transform="translate(1.8 1.8) scale(3.51563)"><circle r="1" fill="#c9c9c9" transform="rotate(8.3 -617.4 694) scale(89.67841 60.78394)"/><circle r="1" fill="#060606" transform="matrix(112.584 228.80088 -61.9174 30.46714 212 38.4)"/><circle r="1" transform="matrix(5.11598 32.24819 -123.98045 19.66877 50.3 8)"/><circle r="1" fill="#949494" transform="matrix(-21.9603 -36.51026 22.69357 -13.6498 159.8 93.3)"/><circle r="1" transform="matrix(77.76851 33.01077 -10.01648 23.59735 0 163.8)"/><circle r="1" fill="#151515" transform="matrix(-13.6496 -17.8462 92.39096 -70.66491 183.3 169)"/><circle r="1" fill="#bcbcbc" transform="rotate(-147.7 56.7 40) scale(57.41442 28.65762)"/><path fill="#252525" d="M271-16L72 58l37.5 12.9L90.9-16z"/><path d="M-4 46l-12 28 57-34z"/><path fill="#161616" d="M112.2 90l-38.7 5.5L124.2 79l15.7 1.7z"/><circle r="1" fill="#6a6a6a" transform="matrix(19.0093 -25.4384 15.5533 11.62249 169.4 121.1)"/><circle r="1" fill="#666" transform="matrix(46.26689 56.01046 -12.33127 10.18612 10.5 106)"/><path fill="#a2a2a2" d="M170 63l-25-15-55 35z"/><path fill="#404040" d="M93.4 46l8.8 25.6-17-4.8L74 47.5z"/><ellipse cx="147" cy="21" fill="#232323" rx="57" ry="23"/><ellipse cx="61" cy="63" fill="#b1b1b1" rx="14" ry="28"/><circle r="1" fill="#222" transform="matrix(35.4595 6.64838 -23.07878 123.09205 231.8 87.2)"/><ellipse cx="79" cy="160" fill="#b5b5b5" rx="33" ry="2"/><circle r="1" fill="#b1b1b1" transform="rotate(56.9 -45 165.8) scale(24.64906 27.85749)"/><path fill="#8b8b8b" d="M94.9 63.4L110 78.6 93.2 30.9 200 90.7z"/><path fill="#0f0f0f" d="M164.5 144l2.5 4.5-31.5 17.4-2.5-4.4z"/><path fill="#666" d="M54.2 146.2l42 16.2 6.4-12-71.3-27.5z"/><circle r="1" fill="#797979" transform="rotate(5.6 -852.2 195) scale(15.12966 23.37936)"/><circle r="1" fill="#2c2c2c" transform="matrix(.2147 -1.7158 32.62031 4.08185 71.9 155.8)"/><path fill="#b4b4b4" d="M118 58l18 18-73 17z"/><ellipse cx="54" cy="168" fill="#1e1e1e" rx="23" ry="8"/><circle r="1" fill="#222" transform="rotate(157.4 66.2 101.1) scale(76.84474 11.76822)"/><path fill="#676767" d="M157.2 66.1L117 55.4l54.9 35.4-11.1 58.6z"/><path fill="#121212" d="M-13.2 123.8l8.4-7 18 21.4-8.4 7z"/><path fill="#7e7e7e" d="M141.1 168.5l46.6-39.7L191 95l-22.4 60z"/><path fill="#8b8b8b" d="M161.7 58.4l26.3 62.3 5-15.7-9.1-23.1zM165 91l-25 62-45 9z"/></g></g></svg>