<svg xmlns="http://www.w3.org/2000/svg" viewBox="0 0 557 162"><defs/><filter id="prefix__a"><feGaussianBlur stdDeviation="12"/></filter><rect width="100%" height="100%" fill="#e7f0e6"/><g filter="url(#prefix__a)"><g fill-opacity=".5" transform="translate(1 1) scale(2.17578)"><path fill="#acdc2c" d="M51 14h163v18H51z"/><ellipse cx="177" cy="50" fill="#a9cbff" rx="181" ry="10"/><ellipse cx="22" cy="6" fill="#fff" rx="26" ry="244"/><ellipse cx="16" cy="50" fill="#a59b92" rx="21" ry="5"/><ellipse cx="240" cy="8" fill="#fff" rx="27" ry="33"/><ellipse cx="142" cy="68" fill="#fff" rx="255" ry="9"/><ellipse cx="171" cy="3" fill="#fff" rx="255" ry="10"/><path fill="#615c61" d="M-22 20.5h44v5h-44z"/><ellipse cx="188" cy="59" fill="#60676d" rx="140" ry="1"/><ellipse cx="216" cy="41" fill="#626b73" rx="168" ry="1"/><ellipse cx="144" cy="36" fill="#fff" rx="230" ry="4"/><path fill="#c1de83" d="M48 14h49v19H48z"/><path fill="#fff" d="M4 28h44v21H4z"/><path fill="#98a682" d="M49 31h162v2H49z"/><ellipse cx="17" cy="50" fill="#828281" rx="20" ry="3"/><path fill="#fff" d="M0 53h48v21H0z"/><ellipse cx="117" cy="6" fill="#fff" rx="255" ry="7"/><ellipse cx="150" cy="73" fill="#fff" rx="255" ry="13"/><circle r="1" fill="#fff" transform="rotate(-116.7 127.8 -67.7) scale(21.12727 33.12417)"/><path fill="#acb896" d="M93.3 15.9l71.6-2.6-107.2-.1-16.5-.3z"/><path fill="#cbe9ff" d="M67 42h187v16H67z"/><path fill="#fff" d="M44 47L7 48l44-64z"/><ellipse cx="106" cy="36" fill="#fff" rx="236" ry="4"/><path fill="#555d68" d="M172 40h1v19h-1z"/><path fill="#a1ad8f" d="M126 13h75v2h-75z"/><path fill="#b4b4b5" d="M119 55h2v19h-2z"/><path fill="#cfed8a" d="M48 15h82v17H48z"/><ellipse cx="48" cy="51" fill="#7f8081" rx="1" ry="11"/><path fill="#8c8578" d="M255 42h1v17h-1z"/><path fill="#fff" d="M-16-2.3L8.5 22.3l20.4-1.8L57.2-.7z"/><path fill="#8498a7" d="M89.5 44.5l2 14.9-1 .1-2-14.9z"/><circle r="1" fill="#fff" transform="matrix(86.26614 -.27646 .03336 10.4098 154.2 3.4)"/></g></g></svg>