<svg xmlns="http://www.w3.org/2000/svg" viewBox="0 0 557 162"><defs/><filter id="prefix__a"><feGaussianBlur stdDeviation="12"/></filter><rect width="100%" height="100%" fill="#485148"/><g filter="url(#prefix__a)"><g fill-opacity=".5" transform="translate(1 1) scale(2.17578)"><ellipse cx="170" cy="50" fill="#fff" rx="134" ry="10"/><ellipse cx="125" cy="22" fill="#ffffba" rx="90" ry="10"/><ellipse cx="21" cy="34" rx="28" ry="176"/><ellipse cx="247" cy="2" rx="41" ry="39"/><ellipse cx="227" cy="67" rx="255" ry="9"/><ellipse cx="118" cy="4" rx="255" ry="10"/><path fill="#faff98" d="M49 15h164v16H49z"/><path fill="#ebffff" d="M48 41h208v18H48z"/><ellipse cx="24" cy="34" rx="25" ry="140"/><path d="M52 33h198v9H52z"/><path d="M215.7 38.1l-2.4-45.9 45-2.3 2.4 45.9z"/><ellipse cx="132" cy="67" rx="255" ry="8"/><path fill="#ccf0ff" d="M49 42h202v18H49z"/><ellipse cx="156" rx="192" ry="14"/><ellipse cx="23" cy="37" rx="25" ry="139"/><ellipse cx="146" cy="35" rx="255" ry="4"/><path fill="#ceff8a" d="M53 15h157v17H53z"/><ellipse cx="137" cy="70" rx="230" ry="12"/><path d="M256 9l15 51-18 29z"/><ellipse cx="118" cy="3" rx="107" ry="11"/><path fill="#cbec8a" d="M50 14h159v18H50z"/><path d="M214 0h42v41h-42z"/><ellipse cx="69" cy="38" rx="252" ry="3"/><path fill="#cee7ff" d="M49 42h123v17H49z"/><circle cx="54" cy="14" r="3" fill="#e4e4e3"/><path fill="#cceb8b" d="M214.3 29.3l-71.9-2 1.1-4.8 69.9-9.5z"/><path fill="#8b96a9" d="M49 59h163v1H49z"/><ellipse cx="11" cy="61" rx="37" ry="215"/><path fill="#c3dafd" d="M86.3 44.9l33.6 16.8L154 44.2l-70-3.7z"/><path fill="#cbe5ff" d="M54 42h199v16H54z"/><ellipse cx="156" cy="37" rx="247" ry="4"/><ellipse cx="164" cy="73" rx="113" ry="13"/></g></g></svg>