<svg xmlns="http://www.w3.org/2000/svg" viewBox="0 0 557 223"><defs/><filter id="prefix__a"><feGaussianBlur stdDeviation="12"/></filter><rect width="100%" height="100%" fill="#edf2ec"/><g filter="url(#prefix__a)"><g fill-opacity=".5" transform="translate(1 1) scale(2.17578)"><ellipse cx="130" cy="51" fill="#a9da2e" rx="90" ry="10"/><ellipse cx="153" cy="78" fill="#aac7f7" rx="155" ry="11"/><ellipse cx="185" cy="19" fill="#fff" rx="255" ry="23"/><ellipse cx="30" cy="66" fill="#fff" rx="18" ry="206"/><path fill="#615648" d="M0 77h36v4H0z"/><path fill="#bfdd79" d="M161 42h54v20h-54z"/><path fill="#ccd26f" d="M48 42h27v19H48z"/><ellipse cy="51" fill="#686368" rx="25" ry="3"/><ellipse cx="238" cy="37" fill="#fff" rx="26" ry="32"/><ellipse cx="117" cy="96" fill="#fff" rx="255" ry="8"/><path fill="#6d5f6f" d="M116 69h31v3h-31z"/><ellipse cx="187" cy="16" fill="#fff" rx="93" ry="25"/><ellipse cx="192" cy="65" fill="#fff" rx="255" ry="4"/><path fill="#886d6d" d="M59 42h159v1H59z"/><path fill="#969396" d="M65 23h25v5H65z"/><ellipse cx="22" cy="20" fill="#fff" rx="41" ry="30"/><ellipse cx="179" cy="60" fill="#606461" rx="35" ry="1"/><path fill="#fff" d="M271 68l-59-84 3 83zM0 54h47v23H0z"/><ellipse cx="170" cy="69" fill="#a7848b" rx="122" ry="1"/><ellipse cx="108" cy="60" fill="#9f6079" rx="59" ry="1"/><ellipse cx="111" cy="15" fill="#ff8cc6" rx="56" ry="1"/><path fill="#c6e8ff" d="M143 70h104v17H143z"/><ellipse cx="158" cy="101" fill="#fff" rx="255" ry="13"/><path fill="#bea8bc" d="M45 87h129v2H45z"/><ellipse cx="173" cy="63" fill="#fff" rx="233" ry="3"/><path fill="#fff" d="M-6.4-16L40.9 90.1l6.5 1.8.3-44.8z"/><ellipse cx="248" cy="87" fill="#87abc0" rx="118" ry="1"/><path fill="#4e4b4e" d="M98 3h4v4h-4z"/><path fill="#d1f08b" d="M138 43h74v17h-74z"/><path fill="#a0949e" d="M115 67h29v4h-29z"/><path fill="#fffcff" d="M84-16l-31 2 23 55z"/></g></g></svg>