<svg xmlns="http://www.w3.org/2000/svg" viewBox="0 0 557 223"><defs/><filter id="prefix__a"><feGaussianBlur stdDeviation="12"/></filter><rect width="100%" height="100%" fill="#353a34"/><g filter="url(#prefix__a)"><g fill-opacity=".5" transform="translate(1 1) scale(2.17578)"><circle r="1" fill="#fff" transform="rotate(90.2 39.2 118.2) scale(9.90045 139.20179)"/><path fill="#ffffdc" d="M50 42h162v18H50z"/><ellipse cx="22" cy="64" rx="27" ry="240"/><circle r="1" transform="matrix(-.3486 -33.28835 199.76299 -2.09199 164.5 10)"/><path fill="#faffff" d="M50 70h206v18H50z"/><circle cx="246" cy="35" r="35"/><ellipse cx="134" cy="95" rx="255" ry="8"/><circle r="1" fill="#fdff8e" transform="matrix(.13795 -8.16033 50.88552 .86024 162.5 51.1)"/><ellipse cx="23" cy="61" rx="25" ry="234"/><circle r="1" transform="matrix(-156.52871 .81959 -.13681 -26.1293 108.6 16.1)"/><path fill="#f3ff8c" d="M47.4 45.8l91-1.6.2 16-91 1.6z"/><ellipse cx="140" cy="65" rx="250" ry="5"/><circle r="1" fill="#c8eeff" transform="matrix(-.26564 -7.87136 124.40997 -4.1986 175 79.4)"/><path d="M215 0h41v69h-41z"/><ellipse cx="149" cy="101" rx="207" ry="14"/><path fill="#d0ff8a" d="M126 42h87v18h-87z"/><ellipse cx="152" cy="11" rx="255" ry="30"/><path fill="#d3f3ff" d="M109 70v14H49V70z"/><path d="M0 25h48v77H0z"/><ellipse cx="161" cy="65" rx="251" ry="4"/><path fill="#d0fb8c" d="M49 43h165v15H49z"/><path d="M271 54l-15 57-1-89z"/><path fill="#c8e7ff" d="M142 70h108v18H142z"/><path fill="#cadeff" d="M48 72h148v16H48z"/><ellipse cx="187" cy="99" rx="165" ry="12"/><path fill="#ebd7dd" d="M117.5 90.6l-1-1.7 6-3.5 1 1.7z"/><path d="M214 33h42v35h-42z"/><path fill="#c6e28b" d="M89.3 42.9l68.6 1.1-2.7-4.9-24.7 18.4z"/><ellipse cx="22" cy="84" rx="27" ry="98"/><path fill="#67002f" d="M64 14h97v2H64z"/><ellipse cx="130" cy="60" fill="#89665d" rx="82" ry="1"/><ellipse cx="69" cy="64" rx="255" ry="4"/></g></g></svg>