<svg xmlns="http://www.w3.org/2000/svg" viewBox="0 0 238 207"><defs/><filter id="prefix__a"><feGaussianBlur stdDeviation="12"/></filter><rect width="100%" height="100%" fill="#f3f4f0"/><g filter="url(#prefix__a)"><g fill-opacity=".5" transform="translate(.5 .5)"><ellipse cx="200" cy="104" fill="#adcb2f" rx="60" ry="22"/><ellipse cx="29" cy="161" fill="#424145" rx="56" ry="5"/><ellipse cx="22" cy="106" fill="#4d4c50" rx="34" ry="5"/><circle r="1" fill="#abc6ff" transform="rotate(-90.6 149.6 10.5) scale(21.75135 50.98501)"/><path fill="#6c6b6f" d="M124 88v25L95 92z"/><ellipse cx="57" cy="17" fill="#fff" rx="207" ry="76"/><ellipse cx="137" cy="180" fill="#ff0013" rx="47" ry="1"/><path fill="#000200" d="M166.5 46v202h-1V46z"/><path fill="#ff0039" d="M144 125h94v1h-94z"/><ellipse cx="217" cy="180" fill="#fff" rx="32" ry="55"/><ellipse cx="127" cy="140" fill="#ff000c" rx="33" ry="1"/><path fill="#fff" d="M50 102h96v35H50z"/><ellipse cx="203" cy="85" fill="#ff0064" rx="59" ry="1"/><ellipse cx="184" cy="125" fill="#0f0000" rx="1" ry="81"/><path d="M119 107h7v6h-7z"/><circle r="1" fill="#fff" transform="matrix(-57.79484 2.26112 -.87894 -22.46596 38.2 188.6)"/><path fill="#ff0024" d="M94 138h1v44h-1z"/><path fill="#c8ce6e" d="M146 84h18v41h-18z"/><path fill="#ff0067" d="M236 86h1v40h-1z"/><path fill="#fff" d="M185 0h42v85h-42z"/><ellipse cx="172" cy="11" fill="#444345" rx="4" ry="5"/><ellipse cy="155" fill="#000002" rx="11" ry="2"/><path fill="#696869" d="M121.5 107.6l3.3 7.5-9.3-3.8-24.2-1.3z"/><path fill="#fff" d="M88.9 153.3l-104.9-.1 97.1-64.3-2.3 131.7z"/><path fill="#ff0071" d="M146 86h1v29h-1z"/><circle r="1" fill="#fff" transform="rotate(-94.7 43 0) scale(57.73929 123.05421)"/><path fill="#fff" d="M70 181h96v26H70z"/><path fill="#1f1f21" d="M98 93l-1 6 8 2z"/><ellipse cx="201" cy="125" fill="#ff007e" rx="55" ry="1"/><path fill="#474647" d="M22 157h59v2H22z"/><path fill="#656466" d="M-8.1 98.8l18-.6.2 7-18 .6z"/><ellipse cx="203" cy="85" fill="#ff008c" rx="57" ry="1"/></g></g></svg>