<svg xmlns="http://www.w3.org/2000/svg" viewBox="0 0 238 207"><defs/><filter id="prefix__a"><feGaussianBlur stdDeviation="12"/></filter><rect width="100%" height="100%" fill="#1f201d"/><g filter="url(#prefix__a)"><g fill-opacity=".5" transform="translate(.5 .5)"><ellipse cx="139" cy="160" fill="#fff" rx="51" ry="23"/><ellipse cx="199" cy="105" fill="#ffffe6" rx="60" ry="22"/><path fill="#fff" d="M94 140h88v40H94z"/><circle r="1" fill="#ffff8e" transform="matrix(-59.7584 -11.04514 3.40271 -18.40998 202.7 105)"/><circle r="1" transform="matrix(48.82439 54.75056 -176.88356 157.73778 66.2 74.2)"/><ellipse cx="184" cy="45" rx="237" ry="40"/><path fill="#e5ff93" d="M146 86h90v40h-90z"/><path d="M184 125h54v82h-54z"/><ellipse cx="116" cy="195" rx="237" ry="15"/><path fill="#d5edff" d="M94 141h93v40H94z"/><ellipse cx="78" cy="109" rx="17" ry="237"/><path d="M0 0h145v136H0zm184 126h54v81h-54z"/><path d="M0 0h146v141H0z"/><ellipse cx="43" cy="158" rx="51" ry="237"/><path fill="#dae89e" d="M151.1 129.3l-5.4-42.6-.2.3 25.5-6.6z"/><path fill="#4d0004" d="M236 82h2v44h-2z"/><ellipse cx="220" cy="42" rx="122" ry="43"/><ellipse cx="143" cy="195" rx="83" ry="16"/><path fill="#d1e1ff" d="M94 140h90v34H94z"/><path d="M115 126h46v15h-46z"/><path fill="#c6e6ff" d="M94.4 177.9l92.6 1.8-21.5-24.1 7.3-22.9z"/><path fill="#c5f286" d="M147 87h86v38h-86z"/><path d="M185 126h53v81h-53z"/><ellipse cx="224" cy="125" fill="#ff00a7" rx="78" ry="1"/><path fill="#ff00a5" d="M147 85h91v1h-91z"/><ellipse cx="166" cy="92" fill="#060407" rx="1" ry="98"/><path fill="#ff005c" d="M93.8 141.5h1l-.6 39h-1z"/><path fill="#fff" d="M164 81h6v8h-6z"/><path d="M237 0h1v207h-1z"/><path fill="#f40079" d="M162 30h24v2h-24z"/><ellipse cx="110" cy="131" rx="237" ry="6"/></g></g></svg>