<svg xmlns="http://www.w3.org/2000/svg" viewBox="0 0 543 174"><defs/><filter id="prefix__a"><feGaussianBlur stdDeviation="12"/></filter><rect width="100%" height="100%" fill="#f0f2e6"/><g filter="url(#prefix__a)"><g fill-opacity=".5" transform="translate(1 1) scale(2.1211)"><path fill="#b2d24c" d="M63 27h176v20H63z"/><path fill="#716f7b" d="M6 39v-6h48v6z"/><ellipse cx="165" cy="63" fill="#6f6e79" rx="34" ry="3"/><path fill="#fff6ff" d="M173 14h21v45h-21z"/><ellipse cx="41" cy="73" fill="#fff" rx="109" ry="29"/><path fill="#7d7c82" d="M45.8 64.4l32.7 1.4 8.2 1.4L60 71.4z"/><path fill="#868490" d="M77 2h62v6H77z"/><ellipse cx="31" cy="15" fill="#fff" rx="66" ry="19"/><path fill="#7d7b87" d="M189 74h31v6h-31z"/><ellipse cx="248" cy="23" fill="#fff" rx="12" ry="77"/><ellipse cx="225" cy="5" fill="#fff" rx="35" ry="22"/><path fill="#fff" d="M212 75l-16-29 75 6z"/><circle r="1" fill="#64626e" transform="matrix(5.95186 .09769 -.04378 2.6673 184.6 9.9)"/><path fill="#291113" d="M66.8 57l-1-.1 1.4-12 1 .2z"/><circle r="1" fill="#fffbff" transform="matrix(-98.62655 -3.81728 .3176 -8.20592 123.7 17.3)"/><path d="M171 51h2v7h-2z"/><circle r="1" fill="#93929b" transform="matrix(-7.41934 -.0259 .01245 -3.56603 160.8 10.3)"/><path fill="#fff" d="M12-16l57 66-9-54zm82 82h94v16H94zM-7.5 97l5.2-58.7L51.5 43l-5.2 58.7z"/><path fill="#cfdf7a" d="M66 27h101v20H66z"/><path fill="#0c0a14" d="M197.8 49l1 .2-2.6 17.8-1-.2z"/><ellipse cx="142" cy="27" fill="#c66289" rx="76" ry="1"/><path fill="#fff" d="M73 47h97v12H73z"/><ellipse cx="162" cy="46" fill="#b0648e" rx="74" ry="1"/><path fill="#f3f0ff" d="M174 29h19v17h-19z"/><ellipse cx="98" cy="18" fill="#ff88c7" rx="48" ry="1"/><circle cx="225" cy="76" r="3" fill="#64626e"/><ellipse cx="25" cy="13" fill="#fff" rx="53" ry="21"/><path fill="#868687" d="M50 66h32v4H50z"/><path fill="#fff" d="M122.5-9.9l7.8 34.1L194.1-16l-74.3 30.2z"/><path fill="#8a898d" d="M133.8 58.3l7 .5-.6 7-7-.6z"/></g></g></svg>