<svg xmlns="http://www.w3.org/2000/svg" viewBox="0 0 543 174"><defs/><filter id="prefix__a"><feGaussianBlur stdDeviation="12"/></filter><rect width="100%" height="100%" fill="#202217"/><g filter="url(#prefix__a)"><g transform="translate(1 1) scale(2.1211)"><path fill="#fff" fill-opacity=".5" d="M67 28h169v19H67z"/><path fill="#ffff9e" fill-opacity=".5" d="M68 27h168v19H68z"/><ellipse cx="28" cy="25" fill-opacity=".5" rx="39" ry="255"/><ellipse cx="105" cy="75" fill-opacity=".5" rx="255" ry="30"/><ellipse cx="170" cy="10" fill-opacity=".5" rx="255" ry="18"/><ellipse cx="225" cy="67" fill-opacity=".5" rx="251" ry="22"/><path fill="#fff" fill-opacity=".5" d="M173 28h19v17h-19z"/><circle r="1" fill-opacity=".5" transform="matrix(-140.1674 9.80146 -1.5631 -22.35346 180 2.5)"/><ellipse cx="119" cy="37" fill="#d2ff7e" fill-opacity=".5" rx="53" ry="9"/><ellipse cx="254" cy="48" fill-opacity=".5" rx="18" ry="189"/><ellipse cx="24" cy="48" fill-opacity=".5" rx="42" ry="255"/><path fill="#d4ff87" fill-opacity=".5" d="M189 40l47-13 1 18z"/><ellipse cx="105" cy="66" fill-opacity=".5" rx="255" ry="20"/><path fill="#fcfbff" fill-opacity=".5" d="M179 28h15v18h-15z"/><ellipse cx="169" cy="10" fill-opacity=".5" rx="255" ry="17"/><ellipse cx="120" cy="46" fill="#ce4d29" fill-opacity=".5" rx="53" ry="1"/><ellipse cx="249" cy="27" fill-opacity=".5" rx="13" ry="156"/><ellipse cx="128" cy="27" fill="#b03f3c" fill-opacity=".5" rx="61" ry="1"/><path fill="#cdf986" fill-opacity=".5" d="M197 28h40v16h-40z"/><path fill="#670032" fill-opacity=".5" d="M64 18h123v2H64z"/><ellipse cx="26" cy="37" fill-opacity=".5" rx="40" ry="92"/><path fill="#cdf288" fill-opacity=".5" d="M71 28h99v18H71z"/><ellipse cx="157" cy="75" fill-opacity=".5" rx="255" ry="29"/><path fill="#f2f2ff" fill-opacity=".5" d="M173 29h14v17h-14z"/><ellipse cx="177" cy="27" fill="#1e5250" fill-opacity=".5" rx="25" ry="1"/><ellipse cx="151" cy="49" fill="#30201c" fill-opacity=".5" rx="1" ry="22"/><path fill="#d0e987" fill-opacity=".5" d="M67 28h49v18H67z"/><path fill-opacity=".5" d="M148 0h64v19h-64z"/><ellipse cx="97" cy="27" fill="#b1422c" fill-opacity=".5" rx="30" ry="1"/><path fill-opacity=".5" d="M251.1 62.2L271-16 8.1 11.6l225.4 9.3z"/><path fill="#cdef89" fill-opacity=".5" d="M195 35h32v11h-32z"/><path fill="none" stroke="#6a1a1e" stroke-opacity=".5" stroke-width=".5" d="M109.5 50.5q.1-61.3-.2-63.9"/></g></g></svg>