<svg xmlns="http://www.w3.org/2000/svg" viewBox="0 0 611 211"><defs/><filter id="prefix__a"><feGaussianBlur stdDeviation="12"/></filter><rect width="100%" height="100%" fill="#e9f0e8"/><g filter="url(#prefix__a)"><g fill-opacity=".5" transform="translate(1.2 1.2) scale(2.38672)"><path fill="#a6d62a" d="M80 24.5h216v17H80z"/><ellipse cx="94" cy="58" fill="#b6d4ff" rx="255" ry="9"/><circle cx="9" cy="33" r="63" fill="#fff"/><ellipse cx="25" cy="58" fill="#776e65" rx="31" ry="3"/><ellipse cx="201" cy="79" fill="#fff" rx="132" ry="12"/><path fill="#555155" d="M16 32h37v4H16z"/><path fill="#5a545b" d="M51 82h29v4H51z"/><ellipse cx="169" cy="15" fill="#fff" rx="255" ry="9"/><ellipse cx="80" cy="4" fill="#605961" rx="18" ry="2"/><ellipse cx="164" cy="4" fill="#7d767e" rx="17" ry="3"/><path fill="#3e373c" d="M78 13l3-5-1 12z"/><ellipse cx="115" cy="50" fill="#738086" rx="49" ry="1"/><path fill="#fff" d="M0 36h65v21H0z"/><ellipse cx="110" cy="73" fill="#fff" rx="255" ry="6"/><ellipse cx="229" fill="#fff" rx="49" ry="24"/><ellipse cx="187" cy="66" fill="#7c97ab" rx="121" ry="1"/><ellipse cx="162" cy="15" fill="#ff4fab" rx="80" ry="1"/><path fill="#565156" d="M67 67l-1 11 5 5z"/><path fill="#fff" d="M100 0h43v14h-43z"/><ellipse cx="126" cy="46" fill="#fff" rx="197" ry="4"/><circle r="1" fill="#fff" transform="rotate(2 -2216.4 4881.8) scale(89.65997 10.74297)"/><ellipse cx="118" cy="25" fill="#7b8174" rx="51" ry="1"/><ellipse cx="22" fill="#fff" rx="44" ry="31"/><path fill="#fff" d="M0 61h66v21H0z"/><path fill="#8f8d90" d="M66 4h34v3H66z"/><ellipse cx="244" cy="50" fill="#66798b" rx="79" ry="1"/><ellipse cx="145" cy="1" fill="#fff" rx="170" ry="2"/><path fill="#71787e" d="M67 26h1v57h-1z"/><path fill="#fffdfe" d="M68.9 85.3l.7-21.5 3.2 25.6L26.6 2.2z"/><ellipse cx="98" cy="45" fill="#fff" rx="220" ry="3"/><path fill="#6e7460" d="M79 8h2v34h-2z"/><ellipse cx="234" cy="25" fill="#80897f" rx="64" ry="1"/></g></g></svg>