<svg xmlns="http://www.w3.org/2000/svg" viewBox="0 0 611 211"><defs/><filter id="prefix__a"><feGaussianBlur stdDeviation="12"/></filter><rect width="100%" height="100%" fill="#393f37"/><g filter="url(#prefix__a)"><g fill-opacity=".5" transform="translate(1.2 1.2) scale(2.38672)"><ellipse cx="180" cy="46" fill="#f4ffef" rx="126" ry="22"/><ellipse cx="33" cy="37" rx="35" ry="240"/><path d="M13 42h243v8H13z"/><path fill="#fff" d="M66 51h172v16H66z"/><ellipse cx="147" cy="11" rx="255" ry="14"/><path fill="#ffff94" d="M68 25h188v16H68z"/><ellipse cx="176" cy="78" rx="255" ry="12"/><ellipse cx="247" cy="58" fill="#caf6ff" rx="181" ry="9"/><ellipse cx="158" cy="46" rx="245" ry="4"/><circle r="1" transform="matrix(-39.08096 -.61393 1.02456 -65.22021 28.8 50.8)"/><ellipse cx="170" cy="10" rx="152" ry="16"/><ellipse cx="124" cy="79" rx="255" ry="13"/><path fill="#d1ff8f" d="M66 27h190v14H66z"/><ellipse cx="110" cy="45" rx="220" ry="4"/><path fill="#c9e5ff" d="M271 52.2L70.7 51.1l-4.5 16.1 119.7-1.4z"/><path fill="#fef1ff" d="M67 26h15v16H67z"/><ellipse cx="17" cy="48" rx="50" ry="250"/><ellipse cx="175" cy="86" rx="255" ry="20"/><ellipse cx="132" cy="5" rx="255" ry="20"/><ellipse cx="189" cy="46" rx="254" ry="4"/><ellipse cx="235" cy="58" fill="#cde4ff" rx="168" ry="8"/><ellipse cx="174" cy="50" fill="#556087" rx="107" ry="1"/><path fill="#c6e982" d="M92 25h164v16H92z"/><path fill="#cfebff" d="M68 52h69v14H68z"/><path d="M0 0h67v88H0z"/><path fill="#7485ad" d="M128 66h118v1H128z"/><ellipse cx="89" cy="44" rx="228" ry="3"/><ellipse cx="130" cy="78" rx="219" ry="12"/><ellipse cx="180" cy="37" fill="#19181a" rx="1" ry="49"/><path fill="#cdec8b" d="M79 26h175v14H79z"/><ellipse cx="94" cy="15" fill="#740037" rx="152" ry="1"/><path d="M126-13L-1-16l-4 85z"/></g></g></svg>