<svg xmlns="http://www.w3.org/2000/svg" viewBox="0 0 613 245"><defs/><filter id="prefix__a"><feGaussianBlur stdDeviation="12"/></filter><rect width="100%" height="100%" fill="#ecf1ea"/><g filter="url(#prefix__a)"><g fill-opacity=".5" transform="translate(1.2 1.2) scale(2.39453)"><path fill="#abd546" d="M271 44.5H75v-19h196z"/><ellipse cx="220" cy="72" fill="#aaccf9" rx="217" ry="10"/><ellipse cx="27" cy="49" fill="#fff" rx="39" ry="147"/><path fill="#fffbff" d="M243 0h13v64h-13z"/><path fill="#fff" d="M0 0h220v27H0z"/><path fill="#817870" d="M-16 72.4l55.2-2.3 19.2 4.6-51.9.4z"/><ellipse cx="33" cy="36" fill="#6d6b6e" rx="21" ry="3"/><path fill="#656366" d="M129 5h38v4h-38z"/><path fill="#69656a" d="M48 95h32v5H48z"/><ellipse cx="178" cy="95" fill="#fff" rx="99" ry="14"/><path fill="#c5e971" d="M63 44l7-18 64 11z"/><path fill="#fff" d="M0 45h256v19H0z"/><path fill="#69656b" d="M223 3h24v4h-24z"/><ellipse cx="132" cy="89" fill="#fff" rx="255" ry="7"/><path fill="#fffbff" d="M11 14h245v13H11z"/><path fill="#757376" d="M139 53h10v6h-10z"/><ellipse cx="193" cy="64" fill="#858789" rx="128" ry="1"/><path fill="#06070c" d="M66 80h2v11h-2z"/><path fill="#3c383e" d="M217 12h29v2h-29z"/><ellipse cx="144" cy="49" fill="#ff7cc1" rx="72" ry="1"/><path fill="#8c84ac" d="M74.5 43.5h255v1h-255z"/><ellipse cx="158" cy="18" fill="#ff8cc6" rx="75" ry="1"/><ellipse cx="175" cy="36" fill="#cbed7d" rx="68" ry="8"/><path fill="#898887" d="M3 71h51v4H3z"/><path fill="#fff" d="M10 38h51v33H10z"/><ellipse cx="102" cy="80" fill="#aac0d6" rx="40" ry="2"/><path fill="#fff" d="M80 82h176v20H80z"/><ellipse cx="151" cy="27" fill="#9188b1" rx="84" ry="1"/><path fill="#fff" d="M207-5.4l-50.5-4.2 14.7 23.9 52.1 3z"/><ellipse cx="125" cy="52" fill="#fff" rx="176" ry="3"/><circle cx="67" cy="90" r="2" fill="#0d0c0d"/><circle r="1" fill="#fff" transform="matrix(84.982 -29.59386 5.86627 16.84564 92.7 .6)"/></g></g></svg>