<svg xmlns="http://www.w3.org/2000/svg" viewBox="0 0 613 245"><defs/><filter id="prefix__a"><feGaussianBlur stdDeviation="12"/></filter><rect width="100%" height="100%" fill="#ecf1ea"/><g filter="url(#prefix__a)"><g fill-opacity=".5" transform="translate(1.2 1.2) scale(2.39453)"><path fill="#a2d22f" d="M68 27h174v18H68z"/><ellipse cx="193" cy="72" fill="#acccf9" rx="187" ry="10"/><ellipse cx="28" cy="36" fill="#fff" rx="39" ry="135"/><path fill="#655d55" d="M54 75.6l-68-1.2v-4l68 1.2z"/><ellipse cx="175" cy="92" fill="#fff" rx="107" ry="11"/><path fill="#474548" d="M14 35h39v3H14z"/><path fill="#7d7a7f" d="M49 95h31v6H49z"/><ellipse cx="206" cy="56" fill="#fff" rx="254" ry="8"/><ellipse cx="109" cy="11" fill="#fff" rx="112" ry="16"/><path fill="#858386" d="M137 10.3l-8.1-5.4 23.4.3 18.3 3.2z"/><path fill="#8c878e" d="M220.5 6.7v-4l33 .6v4z"/><path fill="#201b22" d="M220 12h25v2h-25z"/><path fill="#838184" d="M142 60l7-7h-12z"/><path fill="#fff" d="M166.3 25.9l96.5-.2 5.6-41.7-34.2 32.1z"/><ellipse cx="143" cy="64" fill="#868488" rx="77" ry="1"/><path fill="#fff" d="M30.8 107.4l232.3 9.6 7.9-35-121.5 1.6z"/><ellipse cx="67" cy="101" fill="#828188" rx="2" ry="25"/><ellipse cx="191" cy="48" fill="#fff6ff" rx="255" ry="4"/><ellipse cx="119" cy="18" fill="#ffabdb" rx="113" ry="1"/><ellipse cx="130" cy="49" fill="#ff7cbe" rx="60" ry="1"/><circle r="1" fill="#fff" transform="rotate(166.3 32.4 7.3) scale(76.17835 19.66726)"/><circle r="1" fill="#9a999b" transform="matrix(-4.58484 .11205 -.07838 -3.20701 163.5 8)"/><ellipse cx="21" cy="54" fill="#fff" rx="57" ry="16"/><ellipse cx="169" cy="44" fill="#9083b4" rx="102" ry="1"/><path fill="#fff" d="M-16 117l83.1-32.7-75.3-10.6L12.1 52z"/><path fill="#aaa9aa" d="M12 34h35v5H12z"/><ellipse cx="213" cy="27" fill="#9a8abe" rx="146" ry="1"/><path fill="#99b555" d="M67 27h2v17h-2z"/><path fill="#fff" d="M104 117l95-36-131 1z"/><path fill="#fff" d="M44 94.3l45 1.8-24.4-3.6V51z"/><path fill="#ceee88" d="M115 29h129v14H115z"/><path fill="#fff" d="M176.4 27.4l-.8-48 44-.8.8 48z"/></g></g></svg>