<svg xmlns="http://www.w3.org/2000/svg" viewBox="0 0 800 200"><defs/><filter id="prefix__a"><feGaussianBlur stdDeviation="12"/></filter><rect width="100%" height="100%" fill="#756d84"/><g filter="url(#prefix__a)"><g fill-opacity=".5" transform="translate(1.6 1.6) scale(3.125)"><ellipse cx="105" cy="7" fill="#ffecf9" rx="255" ry="16"/><circle r="1" fill="#081533" transform="matrix(3.82063 41.65377 -123.435 11.3219 87 63)"/><path fill="#eabdc5" d="M112-4L39 45l-8-58z"/><circle r="1" transform="matrix(-6.82736 11.3272 -49.71901 -29.96763 13.3 60.2)"/><circle r="1" fill="#dd6043" transform="matrix(-51.46304 9.85979 -1.85747 -9.69501 252 48)"/><circle r="1" fill="#594d66" transform="matrix(44.65418 -5.07855 2.20736 19.40863 100.4 34.2)"/><path fill="#244070" d="M152.5 61.1L128 28.2l143 3.7-9.1 6.1z"/><ellipse cx="229" cy="22" fill="#cb9ab7" rx="80" ry="6"/><path fill="#181e30" d="M138 79l92-27-191 1z"/><path d="M281.1 55.7l.6 6-52.8 4.6-.6-6z"/><circle r="1" fill="#c4949b" transform="rotate(-19.8 184.5 -338.8) scale(11.41429 6.50618)"/><path fill="#495989" d="M17 26h27v23H17z"/><circle r="1" fill="#dfbdc5" transform="matrix(-1.18927 18.03495 -60.29433 -3.97595 31.6 7.5)"/><path fill="#bcc6d4" d="M106.1-16l83.7 54.8.7-40.7L-16 10.6z"/><ellipse cx="244" cy="50" fill="#f08c7d" rx="17" ry="8"/><ellipse cx="226" fill="#96c1da" rx="91" ry="11"/><circle r="1" fill="#3d5a8e" transform="matrix(.36505 11.97108 -15.52679 .47348 198.7 36.8)"/><path fill="#d7949e" d="M77.1 18.1l-17.8-4.9-.5 23.9-29 9.9z"/><path fill="#4c5581" d="M58.6 29.7L32.5 41.4-16 37.6l37.2-14.8z"/><circle r="1" fill="#2a3857" transform="matrix(27.74677 -5.71223 2.76631 13.43717 87.5 42.7)"/><path fill="#775a6c" d="M87 39.2l4.8-8.7-10.1-12.8 37.2-2.8z"/><path fill="#a58eaf" d="M238.3 35.2l29-28.9L177 18.4l46.6 12.5z"/><path fill="#764549" d="M190 49l40 1-25 13z"/><path fill="#7d3127" d="M268.8 29.8l.6 2-60.2 18.4-.6-2z"/><path fill="#ffa294" d="M134.7 38l1.3 2.6-10.7 5.5-1.3-2.7z"/><path fill="#d7a3bc" d="M93.1-16l92.6 44.1-124-21.5L128.3 1z"/><path fill="#09111e" d="M-15.5 37.6L38 54 27.5 88.4-26 72z"/><path fill="#957eae" d="M101 6h36v5h-36z"/><path fill="#ffa89b" d="M219 45h15v4h-15z"/><path fill="#6f5f76" d="M87 17h53v7H87z"/><circle r="1" fill="#de97a3" transform="matrix(-.13 3.23691 -48.92832 -1.96516 36.8 20.6)"/><path fill="#ffa19d" d="M185 17l-10 11 14-3z"/></g></g></svg>