<svg xmlns="http://www.w3.org/2000/svg" viewBox="0 0 354 337"><defs/><filter id="prefix__a"><feGaussianBlur stdDeviation="12"/></filter><rect width="100%" height="100%" fill="#cde8c7"/><g filter="url(#prefix__a)"><g fill-opacity=".5" transform="translate(.7 .7) scale(1.38281)"><circle r="1" fill="#05c400" transform="matrix(-40.18434 -41.43128 41.2602 -40.01841 73.7 66.8)"/><path fill="#04a100" d="M185.5 119v56h-59v-56z"/><circle cx="217" cy="52" r="89" fill="#fff"/><circle r="1" fill="#fffdff" transform="matrix(-149.01115 -68.85282 26.41769 -57.17311 66.5 202.6)"/><path fill="#217e09" d="M181.3 195.9l-1.8-26.4 20.9 2.8 38.3 56.8z"/><path fill="#51cd24" d="M20 14h108v107H20z"/><ellipse cx="255" cy="161" fill="#fff" rx="19" ry="255"/><ellipse cx="4" cy="86" fill="#fff" rx="15" ry="255"/><path fill="#fff" d="M183 127h45v45h-45z"/><circle cx="75" cy="173" r="53" fill="#fff"/><ellipse cx="235" cy="114" fill="#010005" rx="2" ry="118"/><path d="M19 88h3v144h-3z"/><circle r="1" fill="#000002" transform="matrix(-129.0032 -.28379 .0024 -1.09499 105 226.7)"/><path d="M19 12h160v2H19zm9 107h217v2H28z"/><ellipse cx="84" cy="4" fill="#fff" rx="255" ry="7"/><circle cx="181" cy="66" r="53" fill="#fff"/><path fill="#221d20" d="M127 13h3v204h-3z"/><ellipse cx="190" cy="12" fill="#1b0f1d" rx="50" ry="2"/><path fill="#fff" d="M73 228h183v15H73zM31 121h95v104H31z"/><path fill="#5bce30" d="M182 173.1l-52 2.3.7-46.6 52.1-13.9z"/><path fill="#fff9ff" d="M207 200l-78 5 77 18z"/><path fill="#fffeff" d="M129 25h104v93H129z"/><path fill="#2f312e" d="M208.1 232.7l2.9-57.8 33.9-1.6-39.1-1.2z"/><path d="M181 121h2v106h-2z"/><circle cx="156" cy="199" r="25" fill="#fff"/><ellipse cx="10" cy="86" fill="#fff" rx="10" ry="255"/><path fill="#261b26" d="M21.2 93.2L19 64.3 20.7 4l1.8 51.6z"/><path fill="#332835" d="M58 225h179v3H58z"/><path fill="#fff" d="M210 175h23v24h-23z"/><ellipse cx="255" cy="159" fill="#fff" rx="20" ry="185"/></g></g></svg>