<svg xmlns="http://www.w3.org/2000/svg" viewBox="0 0 300 312"><defs/><filter id="prefix__a"><feGaussianBlur stdDeviation="12"/></filter><rect width="100%" height="100%" fill="#fdfdff"/><g filter="url(#prefix__a)"><g transform="translate(.6 .6) scale(1.21875)"><ellipse cx="199" cy="68" fill="#0e0eff" fill-opacity=".5" rx="179" ry="1"/><path fill="#fff" fill-opacity=".5" d="M229.1 271L261-16-16 32.3l244.7 22.2z"/><path fill="#9191ff" fill-opacity=".5" d="M216.7 93l-98.5 170.6-.9-.5 98.5-170.7z"/><path fill="#8b8bff" fill-opacity=".5" d="M159.3 316.3l-1 .5-123.6-223 1-.6z"/><path fill="#fff" fill-opacity=".5" d="M239 271l22-261-70 127z"/><path fill="#8181ff" fill-opacity=".5" d="M43 108.6L16 62l1-.5L44 108z"/><path fill="#fff" fill-opacity=".5" d="M87.2 143.6l-17.5 9.7-34.9-63 17.5-9.6z"/><circle r="1" fill="#adadff" fill-opacity=".5" transform="rotate(-60.4 181.8 -146.8) scale(18.77165 1)"/><ellipse cx="19" cy="37" fill="#fff" fill-opacity=".5" rx="245" ry="31"/><circle cx="123" cy="130" r="59" fill="#fff" fill-opacity=".5"/><path fill="#fff" fill-opacity=".5" d="M126 258l-142-1 103-69z"/><circle r="1" fill="#fff" fill-opacity=".5" transform="matrix(33.02135 -50.2702 34.60154 22.72896 190.7 220.6)"/><path fill="#fff" fill-opacity=".5" d="M21 64.6l240-61L-16-7.5 18.2 271z"/><circle r="1" fill="#fff" fill-opacity=".5" transform="matrix(-22.84707 -73.80697 23.77832 -7.36062 34.7 154.2)"/><path fill="#fff" fill-opacity=".5" d="M228.9 67.6l4.4 45.9L261 14.8l-197.3 52z"/><path fill="#fff" fill-opacity=".5" d="M117 271l-49.3-16 193.3-3.3-18.1-208.2z"/><ellipse cx="133" cy="201" fill="#fff" fill-opacity=".5" rx="10" ry="31"/><path fill="#fff" fill-opacity=".5" d="M127 246L57 131l113 31z"/><circle cx="44" cy="228" r="57" fill="#fff" fill-opacity=".5"/><circle cx="147" cy="116" r="46" fill="#fff" fill-opacity=".5"/><path fill="#fff" fill-opacity=".5" d="M143 181l-65-13 12 20z"/><circle cx="138" cy="170" r="28" fill="#fff" fill-opacity=".5"/><path fill="#c1c1ff" fill-opacity=".5" d="M191.9 130.8l36.4-62.3-10.4 20.4 11.4-16.4z"/><path fill="#fff" fill-opacity=".5" d="M256.6 271l-95.7-82.7-15.9 35.3 33.9-66.3z"/><ellipse cx="73" cy="94" fill="#fff" fill-opacity=".5" rx="34" ry="26"/><path fill="#fff" fill-opacity=".5" d="M5 271l53-134L-15 5zm65.6-113.8l-11.8-24.3 12.6-6.1 11.8 24.3zM37 69h177v25H37zm148 70l-82 72 21 39z"/><ellipse cx="196" cy="159" fill="#fff" fill-opacity=".5" rx="14" ry="22"/><path fill="#fff" fill-opacity=".5" d="M257.5 54.8l-29.4 19.4-18.2 28.7-12.4 23.9z"/><path fill="none" stroke="#adadff" stroke-opacity=".5" stroke-width=".5" d="M141.6 223.1q23.6-45 39.9-68.3"/></g></g></svg>