<svg xmlns="http://www.w3.org/2000/svg" viewBox="0 0 1600 832"><defs/><filter id="prefix__a"><feGaussianBlur stdDeviation="12"/></filter><rect width="100%" height="100%" fill="#181b08"/><g filter="url(#prefix__a)"><g fill-opacity=".5" transform="matrix(6.25 0 0 6.25 3.1 3.1)"><circle r="1" fill="#ffff50" transform="matrix(251.67126 41.06795 -2.29147 14.0425 87.6 125.6)"/><circle r="1" fill="#f8ff5a" transform="matrix(-8.41248 1.60477 -10.57166 -55.4186 18 94.7)"/><path fill="#ffff58" d="M9 122h235v7H9z"/><ellipse cx="91" cy="84" rx="59" ry="34"/><ellipse cx="98" cy="132" rx="136" ry="5"/><path fill="#ffff4c" d="M8.7 129.1L6.4 71.9l27.8 27.2 70.8 28.7z"/><ellipse cx="200" cy="55" rx="188" ry="69"/><path fill="#ffff5f" d="M7 3h5v127H7z"/><ellipse cx="3" cy="109" rx="4" ry="127"/><circle r="1" fill="#ffff5b" transform="matrix(79.28703 3.77405 -.12402 2.60544 170.3 124.7)"/><ellipse cx="113" cy="132" rx="227" ry="4"/><path d="M17 0h239v85H17z"/><path fill="#000004" d="M94 117.9l-46.3-8.5-30.2-28.7 222.8 44.4z"/><path fill="#f2ff45" d="M12.5 127.6l137.8-1.6-119.1-17.7-19.3-42.6z"/><ellipse cx="10" cy="73" fill="#c6ff4b" rx="4" ry="55"/><path d="M0 0h6v133H0z"/><ellipse cx="163" cy="126" fill="#ffff3d" rx="91" ry="3"/><path d="M106 117L233-16l30 140z"/><path fill="#c5ff45" d="M20.4 90L6.2 19.2l6 110.4 48.9-10z"/><ellipse cx="47" cy="15" rx="37" ry="90"/><ellipse cx="87" cy="131" rx="237" ry="3"/><path d="M65 0h166v115H65z"/><path fill="#ffff3f" d="M108 125l-79-22 22 24z"/><path fill="#d3ff3e" d="M7 7h3v116H7z"/><circle r="1" transform="rotate(-96.4 72.4 11.1) scale(28.75562 32.74367)"/><ellipse cy="99" rx="6" ry="186"/><ellipse cx="33" cy="63" rx="18" ry="29"/><path d="M250.2 122l-1.3 26L271 69.6-16-7.9z"/><path fill="#68680e" d="M163 128h80v1h-80z"/><ellipse cx="190" cy="126" fill="#ffff42" rx="58" ry="2"/><path fill="#ffff40" d="M82.9 117.4l-30.3 11.5 116.4-1.6-26.9-4.8z"/><circle r="1" fill="#9eaf86" transform="rotate(-5.6 357.8 -103.8) scale(1 31.2585)"/></g></g></svg>