<svg xmlns="http://www.w3.org/2000/svg" viewBox="0 0 850 638"><defs/><filter id="prefix__a"><feGaussianBlur stdDeviation="12"/></filter><rect width="100%" height="100%" fill="#f7f7f6"/><g filter="url(#prefix__a)"><g fill-opacity=".5" transform="translate(1.7 1.7) scale(3.32031)"><path fill="#371706" d="M18 179h235v2H18z"/><path fill="#433e3f" d="M11 2h240v2H11z"/><path d="M15 0h1v175h-1z"/><ellipse cx="62" cy="60" fill="#10140e" rx="1" ry="131"/><path fill="#808d7e" d="M127.6 172.5l117 4-.2 5-117-4z"/><circle r="1" fill="#767677" transform="matrix(-1 .00175 -.30505 -174.78024 251.7 60.6)"/><circle cx="163" cy="88" r="85" fill="#fff"/><path fill="#93aaa0" d="M88.8 155.4l18.7 13.6 5.2 2.4 28 2.4z"/><path fill="#b1b1b1" d="M202 34h13v26h-13z"/><path fill="#c7c88a" d="M69.5 90.4l18.8 58-3.8 1.2-18.8-58z"/><ellipse cx="40" cy="87" fill="#fff" rx="21" ry="83"/><path fill="#d95a57" d="M63 0h2v37h-2z"/><path fill="#f69694" d="M64.1 26.4l13.5 100.9-15.5-88.6L63.8 61z"/><path fill="#6e9ced" d="M134.2 169.8l44 5.9-51.1-4.3-20-6.3z"/><path fill="#9d9e9f" d="M-4.6 179.9l.2-5 23 1.2-.2 5z"/><path fill="#d0cdd1" d="M13 178h153v2H13z"/><ellipse cx="210" cy="151" fill="#fff" rx="40" ry="25"/><path fill="#6ee16f" d="M62.8 62l4.4 27.7-2 .3-4.4-27.7z"/><circle cx="137" cy="73" r="67" fill="#fff"/><path fill="#c0c0c1" d="M16 47h2v145h-2z"/><path fill="#9fa3f8" d="M62.1 117.5l10.1 19.9 26.9 30.3-35.7-35.2z"/><ellipse cx="251" cy="125" fill="#585859" rx="1" ry="123"/><path fill="#748aff" d="M195.6 175v-1l56.8 5v1z"/><path fill="#c5ab8b" d="M110 171.4L97.6 162l-16.2-20.8 22.4 21.1z"/><path fill="#c3c3c4" d="M12 6L24-8-3 8z"/><path fill="#68ff68" d="M182 47h17v2h-17z"/><path fill="#879b0f" d="M187 178.4v-1l64 2.2v1z"/><path fill="#9f9f9f" d="M2 147l-2 6 20-4z"/><path fill="#fff" d="M192 63h57v113h-57zM22 181h230v11H22zm52-83L64 6l189-2z"/><ellipse cx="191" cy="37" fill="#fa2a28" rx="9" ry="1"/></g></g></svg>