<svg xmlns="http://www.w3.org/2000/svg" viewBox="0 0 425 415"><defs/><filter id="prefix__a"><feGaussianBlur stdDeviation="12"/></filter><rect width="100%" height="100%" fill="#e2e8f2"/><g filter="url(#prefix__a)"><g fill-opacity=".5" transform="translate(.8 .8) scale(1.66016)"><circle r="1" fill="#5b7dc0" transform="matrix(18.17811 70.28955 -26.02787 6.73126 177.9 153.5)"/><path fill="#1349b8" d="M35.2 162.9l100.3-61.4L130.7-16 114.5 96.4z"/><circle r="1" fill="#839fd1" transform="matrix(18.22374 -70.97678 25.41539 6.52556 77.6 156)"/><circle r="1" fill="#fff" transform="rotate(158.5 100.1 47.9) scale(65.56627 95.11352)"/><circle cx="31" cy="38" r="85" fill="#fff"/><path fill="#1540ae" d="M127.5 93.2l58.4 36.1-33.2-8.4-42.2-18.8z"/><path fill="#1d3d98" d="M119 15h7v82h-7z"/><ellipse cx="131" cy="235" fill="#fff" rx="31" ry="124"/><circle r="1" fill="#fff" transform="matrix(-16.44737 200.0532 -27.21065 -2.23712 15.7 107.8)"/><path fill="#042fa4" d="M142 114l4.2-2.8L186 170l-4.1 2.8z"/><circle r="1" fill="#fff" transform="matrix(-28.4943 .66735 -4.22069 -180.21363 247 94)"/><path fill="#fff" d="M119 69l2 25-16 9z"/><ellipse cx="100" cy="129" fill="#3d68c9" rx="7" ry="28"/><path fill="#265fc5" d="M116 17h23v14h-23z"/><circle cx="191" cy="188" r="39" fill="#a1b6d8"/><path fill="#fff" d="M257 74L65-16l193 1z"/><ellipse cx="80" cy="248" fill="#fff" rx="231" ry="27"/><path fill="#a4b9d1" d="M206.4 110.4l-1.9 19.5-57-47.4 17.2-12.8z"/><path fill="#c3cfdf" d="M42 114l-6 102 78-150z"/><ellipse cx="83" cy="156" fill="#3f6acb" rx="25" ry="4"/><circle r="1" fill="#fff" transform="matrix(-27.89625 -16.17089 16.99773 -29.32262 88.5 45.2)"/><path fill="#5e81d0" d="M98 191l-9-20-38 18z"/><path fill="#fffffe" d="M104 128h46v121h-46z"/><path fill="#2d58c6" d="M124.8 108.2l-49.4 24.1-2.2-4.5 49.4-24.1z"/><path fill="#5979c2" d="M147.5 200.6l37.7-43.5-19.3 54.3-8.3-36.4z"/><path fill="#fff" d="M109.8-16L-16 175.1 144.7-16l-20.8 42z"/><path fill="#5070be" d="M160.9 112.8l1.5-41.6 6.2 22.2-7.9 25z"/><circle r="1" fill="#5678c6" transform="rotate(-54.1 275.5 -98.7) scale(2.8674 29.5176)"/><circle cx="173" cy="43" r="40" fill="#fff"/><path fill="#163da6" d="M186 174h3v44h-3z"/><path fill="#3750a3" d="M160.5 169l1.3 10.7-1.3-41.7-14.7-33.5z"/><path fill="#fffffc" d="M99 31h21v69H99z"/></g></g></svg>