<svg xmlns="http://www.w3.org/2000/svg" viewBox="0 0 992 538"><defs/><filter id="prefix__a"><feGaussianBlur stdDeviation="12"/></filter><rect width="100%" height="100%" fill="#fcfcfd"/><g filter="url(#prefix__a)"><g fill-opacity=".5" transform="translate(2 2) scale(3.875)"><circle r="1" fill="#d4dcec" transform="matrix(76.46679 10.7224 -.73451 5.23818 187.6 115.9)"/><path fill="#828281" d="M109 3h51v2h-51z"/><path fill="#a3b1de" d="M83 98h35v3H83z"/><circle r="1" fill="#fff" transform="rotate(9.8 -268.3 1027.4) scale(143.88239 44.79638)"/><path fill="#dadbd9" d="M92 125h155v2H92z"/><path fill="#b2b2b1" d="M-16 78L2 57 0 79z"/><circle r="1" fill="#e6ebf3" transform="matrix(-24.28114 -20.2642 2.62269 -3.14258 75.1 87.4)"/><path fill="#fff" d="M156 0h89v110h-89z"/><ellipse cx="224" cy="9" fill="#d8d8d8" rx="213" ry="1"/><path fill="#8b8b8a" d="M139.5 135.4l-15 .2v-1l15-.2z"/><path fill="#dbe2ef" d="M57.3 73.2L48.1 78 32.8 60.9l26.1 9.7z"/><ellipse cx="10" cy="40" fill="#d2d2d1" rx="1" ry="86"/><path fill="#b9c3e6" d="M192 114h19v3h-19z"/><path fill="#bac5e8" d="M226.7 120.6l1.4 1.1 3.7-4.7-38.9 5z"/><path fill="#c6cee9" d="M207.2 108.8l.1 1-60.5 7.4-.1-1z"/><path fill="#fffffe" d="M222.5 105.9l40.5 22.9-82.8-29.5 38.9 23.5z"/><ellipse cx="132" cy="4" fill="#8b8b8b" rx="24" ry="1"/><circle r="1" fill="#fff" transform="rotate(28.1 -180.1 127.7) scale(27.54869 23.93999)"/><path fill="#e0e6f2" d="M179.5 102.2l-25.1 7.2-28.5-10.3-10.4 14.1z"/><path fill="#dcdcdb" d="M15 125h84v2H15z"/><ellipse cx="253" cy="124" fill="#f3f2f2" rx="2" ry="133"/><path fill="#ced6ed" d="M66.6 82l25.3 7.1-25.4-3.7-1.6-.9z"/><path fill="#fffffd" d="M133 109h53v3h-53z"/><path fill="#fff" d="M50 104h68v21H50z"/><path fill="#8293da" d="M218.4 117.2l.6-.9 6.6 4.5-.6.9z"/><path fill="#bbc6e4" d="M237 116h10v2h-10z"/><circle r="1" fill="#b3bee8" transform="matrix(.3453 .9385 -5.54824 2.04135 186 111.5)"/><ellipse cx="132" fill="#fcfcfb" rx="17" ry="4"/><path fill="#fff" d="M242 118l29 1-18 24z"/><path fill="#fffffe" d="M245.4 121.7l-23.7-25-30.1 15.5 64.7 8.4z"/><ellipse cx="103" cy="99" fill="#8693d8" rx="8" ry="1"/><ellipse cx="118" cy="101" fill="#b9c4e4" rx="11" ry="1"/></g></g></svg>