<svg xmlns="http://www.w3.org/2000/svg" viewBox="0 0 668 450"><defs/><filter id="prefix__a"><feGaussianBlur stdDeviation="12"/></filter><rect width="100%" height="100%" fill="#f2f2f2"/><g filter="url(#prefix__a)"><g fill-opacity=".5" transform="translate(1.3 1.3) scale(2.60938)"><circle cx="45" cy="122" r="10"/><path fill="#131313" d="M117.7 131.6l-7.5 8.5-6-20.4 10.5-4.7z"/><path fill="#b0b0b0" d="M175 3l91 6-68 51z"/><path fill="#8b8b8b" d="M27.8 153.2l76.8-56.3L158.5 60l-39.3 35.8z"/><path fill="#040404" d="M117 74l-4.1-1.4-.7-11.1 12.4 2.3z"/><circle r="1" fill="#494949" transform="rotate(-69.1 110 -80.8) scale(4.64204 10.37755)"/><circle r="1" fill="#fff" transform="matrix(44.76688 -50.95707 35.33196 31.03989 72.3 39.9)"/><circle cx="191" cy="127" r="73" fill="#fff"/><ellipse cx="6" cy="72" fill="#626262" rx="2" ry="40"/><path fill="#262626" d="M196 45l-9 10 23-5z"/><path fill="#7c7c7c" d="M187.3 6.9l16.8 8.2-49.6 12.8 28.1 3.1z"/><path fill="#f3f3f3" d="M179 18h58v30h-58z"/><path fill="#545454" d="M232 14h17v9h-17z"/><circle r="1" fill="#909090" transform="rotate(-32.7 173.2 -275.8) scale(84.91066 1)"/><path fill="#616161" d="M104.6 108.9l-22.3 14.6.6 1.8 16.3-23.1z"/><ellipse cx="115" cy="128" rx="3" ry="7"/><path fill="#b0b0b0" d="M151 72h34v11h-34z"/><path fill="#8b8b8b" d="M123.3 158.4l-.6 2.5 2.2 1.9 48.9-2.3z"/><path fill="#646464" d="M178 5h16v10h-16z"/><path fill="#fff" d="M184-16h8.3l7.6 30.5 57.4 20.6z"/><ellipse cx="61" cy="101" fill="#828282" rx="21" ry="2"/><path fill="#fff" d="M42.9 133.5l4 5.7 73.9-55.4-17.7-8.2z"/><path fill="#8d8d8d" d="M0 168h49v3H0z"/><circle r="1" fill="#757575" transform="matrix(-.5534 -.83292 28.82586 -19.15186 197.7 23.6)"/><circle r="1" fill="#fff" transform="matrix(-72.24115 58.60757 -22.13522 -27.28442 119.4 14.8)"/><ellipse cx="83" cy="158" fill="#fff" rx="41" ry="31"/><ellipse cx="65" cy="149" fill="#8f8f8f" rx="182" ry="1"/><path fill="#525252" d="M166 31l13-5-19-1z"/><path d="M41 126l3-13-7 6z"/><circle r="1" transform="rotate(98.3 -.5 116) scale(3.33564 2.68879)"/><circle r="1" fill="#fff" transform="matrix(23.95934 4.66847 -4.94565 25.38189 135.5 107)"/><ellipse cx="115" cy="66" fill="#080808" rx="3" ry="6"/></g></g></svg>