<svg xmlns="http://www.w3.org/2000/svg" viewBox="0 0 208 231"><defs/><filter id="prefix__a"><feGaussianBlur stdDeviation="12"/></filter><rect width="100%" height="100%" fill="#f5f5f5"/><g filter="url(#prefix__a)"><g fill-opacity=".5" transform="translate(.5 .5)"><ellipse cx="128" cy="23" fill="#484848" rx="132" ry="2"/><path fill="#747474" d="M134 199l-23 13 66 1z"/><path fill="#9f9f9f" d="M65.2 214.8L13 214l75.2-47.7L96 152z"/><path fill="#323232" d="M95 36.9L83.5 63.3l-26.1 40.6 17-30.9z"/><ellipse cx="137" cy="91" rx="24" ry="1"/><ellipse cx="25" cy="91" rx="40" ry="1"/><path fill="#858585" d="M110.6 213.1L84 161.9l32.5 25.5-4 16.8z"/><path fill="#5a5a5a" d="M107 63L90 48l24 41z"/><path fill="#585858" d="M102.6 99l-39 51.5 5.1-.4 18.4-37.2z"/><path fill="#6e6e6e" d="M46.2 144.6l-19.3 11.2 18.9-24.1 6.1 23.5z"/><path fill="#4b4b4b" d="M67.4 147.8l9.7-25.7-13.4.5 11.6 16.3z"/><path fill="#8f8f8f" d="M108 145h84v6h-84z"/><path fill="#fff" d="M79 27l135-5-97 68zM0 0h166v23H0z"/><path fill="#878787" d="M102.6 140.9l15.2-14.9-27.1-11.2 28.7 37.5z"/><path fill="#fff" d="M0 151h63v50H0z"/><ellipse cx="31" cy="150" fill="#353535" rx="37" ry="1"/><path fill="#696969" d="M168 86h24v7h-24z"/><path fill="#454545" d="M140 135l14 18-20-12z"/><ellipse cx="86" cy="24" fill="#0c0c0c" rx="70" ry="1"/><ellipse cx="3" cy="96" fill="#fff" rx="14" ry="187"/><path fill="#606060" d="M168 209h22v7h-22z"/><ellipse cx="37" cy="90" fill="#181818" rx="27" ry="1"/><path fill="#fff" d="M155 73h15v139h-15z"/><ellipse cx="206" cy="81" fill="#fff" rx="17" ry="185"/><path fill="#fff" d="M72 183h32v48H72z"/><path fill="#575757" d="M168 20h22v6h-22z"/><path fill="#fff" d="M171.3 223.9l-18-64.5-13-18.7-26 31.6z"/><path d="M66 123h49v1H66z"/><circle r="1" fill="#fff" transform="matrix(-9.06601 -27.7375 66.80124 -21.83401 14 61.3)"/><path d="M89.1 108.5l1.7-1 10 16-1.6 1z"/><path fill="#fff" d="M-7.3 213.8l136.4 1.4 5.7-13.8 28.7 44.6z"/></g></g></svg>