<svg xmlns="http://www.w3.org/2000/svg" viewBox="0 0 200 100"><defs/><filter id="prefix__a"><feGaussianBlur stdDeviation="12"/></filter><rect width="100%" height="100%" fill="#f3f3f3"/><g fill-opacity=".5" filter="url(#prefix__a)"><path fill="#9d9d9d" d="M59.5-15.5l-75 5 118 70z"/><path fill="#7f7f7f" d="M103.5-15.5l69 37 43-37z"/><path fill="#474747" d="M134.2 41.9l-12-22.5 20-34.9-9.3 32.1z"/><path fill="#fff" d="M45.5 7.5h21v93h-21z"/><path fill="#4c4c4c" d="M95.5 59.5l15-21 24-1z"/><path fill="#262626" d="M56.9 3L72 7.3 57.3-15.5 43.2 3.9z"/><path fill="#fff" d="M175 10.6l-11 5-8-17.2 11-5zm29.5 104.9l10-125-173 113z"/><path fill="#0c0c0c" d="M22.5.5l-36-13 22 18z"/><path fill="#fff" d="M13.5 115.5l-29-90 89-10zm144-52l-43 52-3-75z"/><path d="M223-1.8v3l-47 1.6v-3z"/><path fill="#474747" d="M88.9 53.3l1.7-15-11.7-2 24.3 21.4z"/><path fill="#fff" d="M87.5-15.5l-13 53h57z"/><path fill="#4f4f4f" d="M69 26l10.8-7.7-13.9 23.6 1.3-19z"/><path fill="#fff" d="M44.5-2.5l-28-11 19 30zm82 20l24 25 5-41z"/><path fill="#2e2e2e" d="M142.7 8.6l28.1-15.2-38.5 12.4 4.4-21.3z"/><path fill="#fff" d="M14.5 16.6l-30 81 100.2 17.9L5.4-12.7z"/><path fill="#505050" d="M25.5 13.5h18v6h-18z"/><path fill="#1b1b1b" d="M154.7 1.8l4 14.3-.8-31.6-22.6 14.1z"/><path fill="#fff" d="M37.5 16.5h29v84h-29z"/><path d="M174.5 12.5l5 1-3-11z"/><path fill="#fff" d="M-15.5 102.5l109 9-6-71z"/><path d="M21.8.9l.8-.5L27.2 8l-.8.5z"/><path fill="#fff" d="M33.8 21.9l-49.3-31 83.1 124.6L65.9 3.8z"/><path fill="#0d0d0d" d="M130.5 25.5h4v14h-4z"/><path fill="#020202" d="M65.5 1.5l-13 6 21-23z"/><path d="M76.5 41.5l-7-4h5zm27.9 13.4l.1 3-8 .2v-3z"/><path fill="#fff" d="M188.7 7.3l10-22.8-70.8 102.2 87.6 28.8z"/><path fill="#383838" d="M158.5 15.5l9 4-13-13z"/></g></svg>