<svg xmlns="http://www.w3.org/2000/svg" viewBox="0 0 298 268"><defs/><filter id="prefix__a"><feGaussianBlur stdDeviation="12"/></filter><rect width="100%" height="100%" fill="#f9f9f9"/><g filter="url(#prefix__a)"><g fill-opacity=".5" transform="translate(.6 .6) scale(1.16406)"><path fill="#4b4b4b" d="M185.1 215l2.8-78h1l-2.8 78z"/><circle r="1" fill="#c7c7c7" transform="matrix(-49.57738 6.22896 -1.35886 -10.81543 173 130.2)"/><ellipse cx="187" cy="51" fill="#7f7f7f" rx="2" ry="42"/><path fill="#363636" d="M129 15h59v2h-59z"/><ellipse cx="125" cy="72" fill="#a6a6a6" rx="2" ry="161"/><path fill="#d5d5d5" d="M44 146h50v52H44z"/><ellipse cx="160" cy="77" rx="35" ry="1"/><ellipse cx="155" cy="139" fill="#1a1a1a" rx="33" ry="1"/><ellipse cx="218" cy="152" rx="1" ry="33"/><path fill="#2d2d2d" d="M218.7 183.4l-36.9 22.1-.5-.9 36.9-22.1z"/><path fill="#636363" d="M201.4 129.3l-14.6 10.8 26-14.6 7.8-7.3z"/><path fill="#757575" d="M127 202.3v-1l86-1.6v1z"/><circle r="1" fill="#fff" transform="matrix(2.53554 17.59546 -81.1372 11.69205 201.7 217.2)"/><ellipse cx="185" cy="120" fill="#333" rx="33" ry="1"/><path fill="#fff" d="M0 85h128v52H0z"/><path fill="#afafaf" d="M49.7 94.8l.2-21.6-5.8-8.8 3-44.2z"/><path fill="#383838" d="M47 61h29v2H47z"/><path fill="#fff" d="M47 157h29v28H47z"/><ellipse cx="77" cy="49" fill="#818181" rx="2" ry="23"/><path d="M41 186h39v1H41z"/><path fill="#3e3e3e" d="M122.7 142.6l-.6-.8 33.2-22.4.6.8z"/><path fill="#4c4c4c" d="M67.5 31l-20.8 3-.2-1 20.8-3z"/><path fill="#fff" d="M188 0h68v118h-68z"/><path fill="#444" d="M62 145l-18 11 9-1z"/><ellipse cx="13" cy="189" fill="#fff" rx="32" ry="253"/><path fill="#707070" d="M95 148l-6-4-11 11z"/><ellipse cx="92" cy="162" fill="#323232" rx="1" ry="17"/><path fill="#636363" d="M76 152h2v37h-2z"/><path fill="#4f4f4f" d="M124 170h61v1h-61z"/><path fill="#242424" d="M46 155h1v32h-1z"/><path fill="#6b6b6b" d="M124 19h2v60h-2z"/><ellipse cx="135" cy="6" fill="#fff" rx="255" ry="9"/></g></g></svg>