<svg xmlns="http://www.w3.org/2000/svg" viewBox="0 0 654 294"><defs/><filter id="prefix__a"><feGaussianBlur stdDeviation="12"/></filter><rect width="100%" height="100%" fill="#f0f0f0"/><g filter="url(#prefix__a)"><g fill-opacity=".5" transform="translate(1.3 1.3) scale(2.55469)"><path fill="#989898" d="M137.4 10.7L81.9 89.3l5.5-50.4L76 42.3z"/><path fill="#8f8f8f" d="M47.7 60.6l2.7 1.6L89 85.8 7.7 84.3z"/><path fill="#7e7e7e" d="M126 16l39 68V36z"/><path fill="#898989" d="M242 83l-36-23-42 24z"/><path fill="#fff" d="M91 39h70v20H91z"/><ellipse cx="196" cy="44" fill="#282a29" rx="5" ry="8"/><path fill="#575956" d="M150.8 82.2l-.6 18-9-.4.6-18z"/><path fill="#fff" d="M204 62l38 68h-72z"/><ellipse cx="125" cy="75" fill="#181818" rx="1" ry="73"/><ellipse cx="165" cy="55" rx="1" ry="51"/><path fill="#fff" d="M35.2 84.3l7-10.1L181.1 130-16 113.5z"/><path fill="#585d54" d="M98 82h10v16H98z"/><path fill="#2b3137" d="M46 34h5v17h-5z"/><ellipse cx="88" cy="61" fill="#5a5a5a" rx="3" ry="26"/><circle r="1" fill="#fff" transform="matrix(-19.8872 18.99301 -64.33564 -67.36454 224 25.4)"/><circle r="1" fill="#fff" transform="rotate(178.1 8.8 8.9) scale(29.55894 60.29721)"/><path fill="#3d3d3d" d="M130.3 19.3l-16.7 9-2-3.6 16.8-9z"/><path fill="#848484" d="M85.7 45.4l16.5 13.5L95 73.3l-8.8-59.4z"/><path fill="#fff" d="M78.3 76.1l20.9-17.2-25.3-2.1-16.5 22.1z"/><ellipse cx="152" cy="112" fill="#fff" rx="255" ry="15"/><path fill="#fff" d="M50 0h36v62H50z"/><path fill="#232323" d="M157 70l-4-9 4-9z"/><path fill="#595959" d="M205 60l18 10-31-3z"/><path fill="#fff" d="M191 55l-41 3 40 22z"/><path fill="#4f4f4f" d="M62 69l-13-9-17 8z"/><path fill="#fff" d="M8 130l54-38-14-29z"/><path d="M86 48h1v53h-1z"/><ellipse cx="86" cy="11" fill="#191919" rx="1" ry="49"/><path fill="#fff" d="M271-16H167l58 96zM138.6 30.5l18.7-22.2 6 5.2-18.6 22.2z"/><path fill="#444" d="M60.7 76.9l-1.3-9.6L55.8 81l7.9 5.6z"/><path fill="#fff" d="M126 38l35 1-31 70z"/></g></g></svg>