<svg xmlns="http://www.w3.org/2000/svg" viewBox="0 0 2880 466"><defs/><filter id="prefix__a"><feGaussianBlur stdDeviation="12"/></filter><rect width="100%" height="100%"/><g filter="url(#prefix__a)"><g transform="translate(5.6 5.6) scale(11.25)"><path fill="none" stroke="#000" stroke-opacity=".5" stroke-width=".5" d="M186.8 6.7q7.8 9.2 17 19.7"/><path fill-opacity=".5" d="M6 27h9v14H6z"/><path fill="none" stroke="#000" stroke-opacity=".5" stroke-width=".5" d="M191.2 33.4q-16.7 18.9-31.8-3.7"/><circle cx="123" cy="12" r="8" fill-opacity=".5"/><circle r="1" fill-opacity=".5" transform="matrix(-12.07217 -1.74708 2.32901 -16.09331 221.8 36.8)"/><circle cx="174" cy="31" r="30" fill-opacity=".5"/><path fill-opacity=".5" d="M11 11L.5 17-11-3-.6-9z"/><path fill="none" stroke="#000" stroke-opacity=".5" stroke-width=".5" d="M201.3 3.2q-21.3-18.7 3.3-30"/><path fill-opacity=".5" d="M253 38h3v3h-3z"/><path fill="none" stroke="#000" stroke-opacity=".5" stroke-width=".5" d="M251.4 14.1q.3 3.7 12.4 26.8"/><path fill="none" d="M35.9 56l-16.7-4-3.6-7.4 3.8-2.3z"/><path fill="none" stroke="#000" stroke-opacity=".5" stroke-width=".5" d="M254.5 41q-12.6-17.6-22.1-6"/><circle cx="143" cy="10" r="13" fill-opacity=".5"/><path fill-opacity=".5" d="M199.3 11l9.9 27.2-24.5 8.9-9.9-27.3z"/><path fill="none" stroke="#000" stroke-opacity=".5" stroke-width=".5" d="M203.8 14.6Q177-8.8 159.3 19.1"/><path fill-opacity=".5" d="M34.6 22.2l-12.8-7.4 13.3 21.8L52.7 5.5z"/><path fill-opacity=".5" d="M22 5h11v7H22z"/><path fill="none" stroke="#000" stroke-opacity=".5" stroke-width=".5" d="M169.4 1.7q-17 22.1-32.4 40.8"/><path fill-opacity=".5" d="M243 38l-5-14 30 23z"/><path fill="none" stroke="#000" stroke-opacity=".5" stroke-width=".5" d="M88.7.8q-19.5 27.6 24 55.2"/><path fill-opacity=".5" d="M211 13l27-29-14 36zm-2 28.7L186.2 19 199 6.2 221.7 29z"/><circle cx="2" cy="22" r="25" fill-opacity=".5"/><ellipse cx="207" fill-opacity=".5" rx="23" ry="31"/><path fill-opacity=".5" d="M209 14l14-13-36-17zm-51 18.7l-24.2-6.5.3-1 24.1 6.6z"/><ellipse cx="80" cy="24" fill-opacity=".5" rx="24" ry="8"/><path fill-opacity=".5" d="M201.1 5.6l22-12.4L197.4.9l14.2-15.2zM69.7 31.5h1l-.4 13h-1z"/><path fill-opacity=".5" d="M218.2-7.7l6.8 25.2-23.2 6.2L195-1.5z"/><path fill="none" stroke="#000" stroke-opacity=".5" stroke-width=".5" d="M204.8 28.9q8 3 9.6 21.9"/><path fill-opacity=".5" d="M70-4l7 21L56-9z"/></g></g></svg>