<svg xmlns="http://www.w3.org/2000/svg" viewBox="0 0 360 144"><defs/><filter id="prefix__a"><feGaussianBlur stdDeviation="12"/></filter><rect width="100%" height="100%" fill="#81a500"/><g filter="url(#prefix__a)"><g fill-opacity=".5" transform="translate(.7 .7) scale(1.40625)"><circle r="1" fill="#eb0000" transform="matrix(35.23534 -32.95875 26.87614 28.73257 195.3 52.4)"/><circle r="1" fill="#eb0000" transform="matrix(23.52096 -21.07535 16.49289 18.40674 101.2 64.4)"/><ellipse cx="26" cy="10" fill="#50ff00" rx="149" ry="42"/><circle r="1" fill="#b70000" transform="rotate(-24 233 -434.6) scale(45.63408 31.51646)"/><circle r="1" fill="#b90000" transform="matrix(-20.2357 21.07395 -19.40988 -18.63782 102.6 64.6)"/><ellipse cx="142" cy="95" fill="#4eff00" rx="13" ry="247"/><ellipse cx="57" cy="48" fill="#5f0" rx="17" ry="224"/><circle r="1" fill="#46ff00" transform="matrix(16.3929 1.83327 -11.45658 102.4432 254.7 37)"/><circle r="1" fill="#65ff00" transform="matrix(9.87365 33.60212 -234.0618 68.77672 46.9 22.2)"/><circle cx="28" cy="78" r="14" fill="#ce0000"/><ellipse cx="138" cy="96" fill="#47ff00" rx="255" ry="6"/><path fill="#670000" d="M212 7h27v63h-27z"/><ellipse cx="182" cy="57" fill="#e10000" rx="29" ry="35"/><path fill="#ff6d00" d="M181 10h46v22h-46z"/><path fill="#c90000" d="M75 53h40v39H75z"/><circle r="1" fill="#63ff00" transform="matrix(-17.75875 -10.95334 33.23427 -53.88305 235.3 101)"/><path fill="#64ff00" d="M.9-16l17.6 133L-16 73.9 210.9 1.7z"/><path fill="#c20000" d="M155 37h63v55h-63z"/><path fill="#470000" d="M110.6 56.1l1.2 29 18.9-9.1-1.5-43.1z"/><circle r="1" fill="#5bff00" transform="rotate(-64.9 141.3 -53.2) scale(55.28097 13.17799)"/><path fill="#ff3500" d="M88 36l42 2-48 14z"/><path fill="#5fff00" d="M271 6.8L128 9.7 237.3-16l7.3 133z"/><path fill="#a20000" d="M34.9 93.1L10.7 88l13.8-24.7 19.9 3z"/><path fill="#65ff00" d="M33 107L68-4l8 121z"/><ellipse cx="184" cy="98" fill="#68ff00" rx="255" ry="7"/><path fill="#650000" d="M209 36l4 56 28-87z"/><ellipse cx="6" cy="81" fill="#62ff00" rx="8" ry="187"/><ellipse cx="155" cy="60" fill="#2a0000" rx="2" ry="33"/><ellipse cx="199" cy="8" rx="15" ry="1"/><path d="M153 91h57v1h-57z"/><ellipse cx="143" cy="64" fill="#6aff00" rx="11" ry="182"/><path fill="#000d00" d="M156 32h43v2h-43z"/></g></g></svg>