<svg xmlns="http://www.w3.org/2000/svg" viewBox="0 0 614 360"><defs/><filter id="prefix__a"><feGaussianBlur stdDeviation="12"/></filter><rect width="100%" height="100%" fill="#f2dad8"/><g filter="url(#prefix__a)"><g fill-opacity=".5" transform="translate(1.2 1.2) scale(2.39844)"><circle r="1" fill="#cb382e" transform="matrix(79.81853 -15.70722 4.79948 24.38924 104.8 81.3)"/><circle r="1" fill="#b2271d" transform="matrix(28.86539 -32.24676 8.44344 7.55806 197 43.4)"/><ellipse cx="76" cy="36" fill="#fff" rx="95" ry="31"/><circle r="1" fill="#bf251a" transform="matrix(-2.76661 10.16765 -40.3111 -10.96863 159 110)"/><circle r="1" fill="#c00900" transform="matrix(-.02291 21.45438 -20.04693 -.0214 48.2 86.4)"/><ellipse cx="75" cy="138" fill="#fff" rx="104" ry="29"/><path fill="#ad231a" d="M236.1 48.8l-3.7 18.3-42.3-3 1.7-10.2z"/><ellipse cx="229" cy="86" fill="#fff" rx="85" ry="22"/><path fill="#a61c12" d="M184.3 120.6l-.5-14 36-1.2.4 14z"/><circle r="1" fill="#b23b32" transform="matrix(4.8991 -5.05547 14.96365 14.50078 187.6 131)"/><ellipse cx="155" cy="15" fill="#fff" rx="48" ry="28"/><circle r="1" fill="#fff" transform="matrix(-22.3705 126.94295 -22.6638 -3.99393 241.8 116.3)"/><ellipse cx="4" cy="60" fill="#fff" rx="25" ry="255"/><path fill="#d96a64" d="M52 67h86v43H52z"/><ellipse cx="62" cy="27" fill="#fff" rx="125" ry="39"/><ellipse cx="42" cy="88" fill="#c50900" rx="13" ry="22"/><path fill="#a63d35" d="M187.7 38.3L202 49.9 160.1 56l-18.3 4.2z"/><circle r="1" fill="#b6625d" transform="matrix(-43.65655 18.38392 -1.48435 -3.5249 174.7 70.4)"/><circle r="1" fill="#fff" transform="rotate(178 40.5 69.7) scale(88.07233 27.64426)"/><ellipse cx="86" cy="108" fill="#153a3c" rx="47" ry="2"/><path fill="#fff" d="M271 48v-63l-72 64z"/><path fill="#ad0000" d="M214 11h14v15h-14z"/><path fill="#fff" d="M-6 65h133l128-81zm194.9 62.8l82.1-27.4-29.6 64.6-57.6-58.5z"/><path fill="#f89693" d="M56 68h63v40H56z"/><path fill="#c90f00" d="M132.5 70l5.8 21-5 10.7-18.2-36.1z"/><circle r="1" fill="#faffff" transform="matrix(-1.91713 -7.4627 42.89399 -11.01925 189 77.9)"/><ellipse cx="94" cy="67" fill="#504542" rx="48" ry="2"/><path fill="#a80a00" d="M222 52h12v13h-12z"/><path fill="#fff" d="M271 52.1l-62.4 106.1L254.2-16h-62.8z"/><path fill="#ff918e" d="M147.9 60.7l37-15 7.2 17.6-37 15z"/><path fill="#ca564d" d="M160.9 122.4l22.8-16.8 9 39.4 10.5-2.9z"/></g></g></svg>