<svg xmlns="http://www.w3.org/2000/svg" viewBox="0 0 616 345"><defs/><filter id="prefix__a"><feGaussianBlur stdDeviation="12"/></filter><rect width="100%" height="100%" fill="#f3f3f2"/><g filter="url(#prefix__a)"><g transform="translate(1.2 1.2) scale(2.40625)"><path fill-opacity=".5" d="M31 124h217v2H31zm0-18.5h-1l3-85h1zm144.7 10.8l72.7 6.4v1l-72.8-6.4zm-74.9-6v-1l84.4 10.4v1z"/><ellipse cx="99" cy="31" fill="#969697" fill-opacity=".5" rx="57" ry="4"/><path fill="#8d8d8e" fill-opacity=".5" d="M91 72h114v6H91z"/><ellipse cx="31" cy="120" fill-opacity=".5" rx="1" ry="102"/><circle r="1" fill="#fff" fill-opacity=".5" transform="rotate(50.5 66.5 247.8) scale(105.91176 49.32797)"/><path fill="#7d7f82" fill-opacity=".5" d="M46.2 82.1l16.9 15.2 14 6.3 28.8 9.4z"/><path fill="#414447" fill-opacity=".5" d="M32.4 31.1v21l31.4 51.3-25.3-37.9z"/><ellipse cx="79" cy="7" fill="#ffcd9a" fill-opacity=".5" rx="45" ry="5"/><ellipse cx="134" cy="124" fill-opacity=".5" rx="118" ry="1"/><path fill="#747575" fill-opacity=".5" d="M91 81h31v5H91z"/><path fill="#111519" fill-opacity=".5" d="M38.6 67.7l.8-.6 22 27.2-.8.6z"/><path fill="#9b9b9c" fill-opacity=".5" d="M13 68h9v26h-9z"/><ellipse cx="144" cy="51" fill="#fff" fill-opacity=".5" rx="108" ry="18"/><path fill="#131314" fill-opacity=".5" d="M31 98h2v37h-2z"/><ellipse cx="183" cy="97" fill="#fff" fill-opacity=".5" rx="84" ry="19"/><circle r="1" fill="#41464a" fill-opacity=".5" transform="rotate(-73.5 114.7 -6.4) scale(1 19.79531)"/><path fill="#87a9c6" fill-opacity=".5" d="M39.9 84.2L58 30.4l-4.8 28.7 1-6z"/><ellipse cx="3" cy="23" fill="#fff" fill-opacity=".5" rx="27" ry="48"/><path fill="#fff" fill-opacity=".5" d="M-12 139l143-13-34 32zm64.7-55l30.7-47.2L94 106.7l-21.9-7zm51.8-100L88.8 10.8l14.8 44.9 1.3-28.4z"/><path fill="#b9b9ba" fill-opacity=".5" d="M131.6 131.2L149 128l3.2 14.3-20-7.7z"/><ellipse cx="210" cy="142" fill="#fff" fill-opacity=".5" rx="61" ry="16"/><path fill="none" stroke="#161615" stroke-opacity=".5" stroke-width=".5" d="M30.5 34.9q7.7 29.9 13.1 38.8"/><path fill="#fff" fill-opacity=".5" d="M50 20l-5 43L28-1z"/><circle r="1" fill="#fff" fill-opacity=".5" transform="matrix(-43.82492 33.26493 -75.47889 -99.43976 232.6 19.7)"/><path fill="#6a8faf" fill-opacity=".5" d="M87.3 110.9l12.1-16.5-19.9 18.3 11.2-2.9z"/><path fill="#171718" fill-opacity=".5" d="M213 120h25v2h-25z"/><path fill="#fff" fill-opacity=".5" d="M65 34h191v37H65z"/></g></g></svg>