<svg xmlns="http://www.w3.org/2000/svg" viewBox="0 0 706 346"><defs/><filter id="prefix__a"><feGaussianBlur stdDeviation="12"/></filter><rect width="100%" height="100%" fill="#f2f1f2"/><g filter="url(#prefix__a)"><g fill-opacity=".5" transform="translate(1.4 1.4) scale(2.75781)"><path fill="#ce0000" d="M163 61h8v9h-8z"/><path fill="#ba0000" d="M163 20h10v10h-10z"/><circle r="1" fill="#b80000" transform="matrix(4.55797 .99804 -1.3584 6.2037 202 62.8)"/><path fill="#5d5eb4" d="M255 2h1v103h-1z"/><path fill="#d20000" d="M170 60l-3 12-7-8z"/><path fill="#5d5eb5" d="M253.5.5h-121v-1h121z"/><path fill="#bdbebd" d="M25 115h64v8H25z"/><path fill="#909190" d="M146 116h14v9h-14z"/><circle r="1" fill="#fff" transform="matrix(32.63886 -17.86926 10.39565 18.98804 125 105.5)"/><path fill="#c4c5c4" d="M172 117h51v7h-51z"/><path fill="#d00" d="M196.2 63l7.7-6.5 3.9 4.6-7.7 6.4z"/><ellipse cx="244" cy="108" fill="#6365a3" rx="112" ry="1"/><ellipse cx="38" fill="#6061b6" rx="84" ry="1"/><path fill="#6160b6" d="M-16 79l14 53L1 23z"/><path fill="#ec0000" d="M165 20h7v8h-7z"/><path fill="#fff" d="M1 89V37l62 103z"/><ellipse cx="123" cy="71" fill="#a2a2dd" rx="1" ry="77"/><ellipse cx="138" cy="11" fill="#fff" rx="192" ry="10"/><ellipse cx="248" cy="85" fill="#fff" rx="7" ry="84"/><ellipse cx="171" cy="101" fill="#fff" rx="243" ry="7"/><path fill="#e0e1e0" d="M101.8 31l-37 39.7 25.5-55.5-34.9 13.2z"/><circle cx="166" cy="65" r="4" fill="red"/><path fill="#5e5db1" d="M-16 35l12 16L1 1z"/><path fill="#abafd7" d="M21 108h103v2H21z"/><path fill="#f30000" d="M199 61h8v6h-8z"/><circle r="1" fill="#eff1f0" transform="matrix(-2.20375 -20.62102 29.86913 -3.19209 196.8 37.7)"/><ellipse cx="36" cy="119" fill="#232323" rx="1" ry="4"/><ellipse cx="131" cy="87" fill="#acb0cc" rx="1" ry="87"/><ellipse cx="113" cy="60" fill="#747574" rx="1" ry="14"/><path fill="#fff" d="M93 110h53v15H93zm64.4 12.3l-2.2-54.6 16.9 3.5-40.4 15.4z"/><path fill="#e4e5e4" d="M29 5h29v21H29z"/></g></g></svg>