<svg xmlns="http://www.w3.org/2000/svg" viewBox="0 0 900 675"><defs/><filter id="prefix__a"><feGaussianBlur stdDeviation="12"/></filter><rect width="100%" height="100%" fill="#797573"/><g filter="url(#prefix__a)"><g fill-opacity=".5" transform="translate(1.8 1.8) scale(3.51563)"><circle r="1" fill="#c8c5bb" transform="rotate(-19.7 316.2 -274.2) scale(70.84065 59.90858)"/><circle r="1" fill="#1b1b20" transform="rotate(68.8 12.5 45.7) scale(34.11505 199.60247)"/><circle r="1" fill="#121415" transform="matrix(-20.43119 -9.27005 18.94677 -41.7587 197.6 111.2)"/><circle r="1" fill="#f1eaed" transform="matrix(14.9372 43.628 -20.4093 6.98766 203.8 14.2)"/><circle r="1" fill="#dbd5c9" transform="matrix(-65.18162 -24.94818 5.9412 -15.52247 160 179)"/><circle r="1" fill="#2d282e" transform="rotate(85.4 -78.4 83.4) scale(242.07899 21.93519)"/><path fill="#0c0f10" d="M152.4-7.7l59.7 76.5-16.5 12.9-59.7-76.5z"/><circle r="1" fill="#0e1218" transform="matrix(22.35277 16.80387 -5.66763 7.53916 122.5 140.5)"/><circle r="1" fill="#171518" transform="matrix(-22.12892 7.07607 -10.45387 -32.69228 255 169.8)"/><circle r="1" fill="#dfd8df" transform="matrix(-33.60163 -43.1969 5.84401 -4.5459 231.7 78.6)"/><path d="M94 106l11 26 2-57z"/><path fill="#fff" d="M84 85h12v60H84z"/><circle r="1" fill="#b3acab" transform="matrix(8.86871 6.5188 -47.58816 64.74287 191.3 171.4)"/><path fill="#181b1c" d="M151 161l48-21-84-1z"/><ellipse cx="72" cy="161" fill="#705840" rx="11" ry="69"/><path fill="#c7c5bc" d="M145 49h28v88h-28z"/><path fill="#eae8df" d="M78.2 120.2l86.1 57.1 32.9-15.4-88.9 6.4z"/><circle r="1" fill="#aba6a4" transform="matrix(-9.2572 -28.3844 43.82984 -14.29452 94.3 53.8)"/><path fill="#c9c3ca" d="M227.4 104l4.8 4.7 20.7 26-36.9-8.6z"/><path fill="#261e1e" d="M224 55l47-9V13z"/><path fill="#fff" d="M88 81.1l24.1-21 6 6.8-24.2 21z"/><path fill="#b19d90" d="M89 204.8l-20.3-39.3-9.1-61.6-43.2 10.4z"/><path fill="#fffeff" d="M214 64l-10-52-22 9z"/><circle r="1" fill="#24282d" transform="rotate(-133.2 73 16.6) scale(4.43512 15.43282)"/><path fill="#2e2116" d="M84 207h26.1l-18-23.2-28.4-54.3z"/><path fill="#6f6664" d="M176.4 169.3L132.2 207l117.7-31.6-35.4 31.6z"/><path fill="#8a857c" d="M191.6 89.5l-14 35.7-28.5 5.6 32.2-62.2z"/><circle r="1" fill="#2b2c28" transform="matrix(3.0967 -2.60766 22.78369 27.0565 105.8 174.2)"/><path fill="#575754" d="M117 88h25v22h-25z"/><path fill="#534b4b" d="M264.2 136l-46 30-10.4-16 46-30z"/><path fill="#7d7782" d="M152.4-16l23.3 39.9 22.7-17.2 43.9-4.2z"/><circle r="1" fill="#686068" transform="matrix(33.2492 -44.28377 10.27774 7.71674 48.1 61.5)"/></g></g></svg>