<svg xmlns="http://www.w3.org/2000/svg" viewBox="0 0 874 360"><defs/><filter id="prefix__a"><feGaussianBlur stdDeviation="12"/></filter><rect width="100%" height="100%" fill="#f6f6f6"/><g filter="url(#prefix__a)"><g fill-opacity=".5" transform="translate(1.7 1.7) scale(3.41406)"><ellipse cx="149" cy="79" fill="#3e3e3e" rx="126" ry="1"/><ellipse cx="129" cy="50" fill="#21262a" rx="107" ry="1"/><ellipse cx="143" cy="21" fill="#393e42" rx="120" ry="1"/><path fill="#4a4a4a" d="M121 72h8v11h-8z"/><path fill="#121212" d="M150 76h8v7h-8z"/><path fill="#383838" d="M76 50L62 39l8 13z"/><path fill="#a7aca6" d="M93 90h96v4H93z"/><path fill="#67879d" d="M122.7 62.2l-7.6-17.9-8.9 7.2-31-16z"/><path fill="#949893" d="M32 7h59v4H32z"/><path fill="#9b9f9a" d="M119 36h68v4h-68z"/><circle r="1" fill="#4583af" transform="rotate(122.8 20.4 25.8) scale(4.80719 5.89066)"/><circle r="1" fill="#fff" transform="matrix(11.28823 -170.42552 15.97786 1.0583 255 54)"/><path fill="#939792" d="M45 62h31v3H45z"/><ellipse cx="177" cy="5" fill="#fff" rx="76" ry="16"/><ellipse cx="192" cy="63" fill="#fff" rx="105" ry="13"/><path fill="#fff" d="M180 23h76v26h-76z"/><ellipse cx="34" cy="96" fill="#fff" rx="51" ry="16"/><path fill="#908e8b" d="M153.6 78.5l2.9-.6-26.6-13.8-51.7-26.2z"/><circle cx="114" cy="50" r="4" fill="#0044a1"/><path fill="#adb0ac" d="M101 9.1L67.4 14l-.4-3 33.6-5z"/><circle cx="71" cy="50" r="4" fill="#363635"/><path fill="#bdc0bb" d="M32 61h45v5H32z"/><path fill="#0052a1" d="M47 18.5l7.2 5.4-1.2 1.6-7.2-5.4z"/><path fill="#fff" d="M127 81h11v24h-11zM56.2 25.9l5-5.3L74.4-16 50.8 8z"/><ellipse cx="225" cy="99" fill="#fff" rx="41" ry="19"/><path fill="#979a93" d="M6 50.4l6-5.3 4 4.5-6 5.3z"/><path fill="#fff" d="M48.2-16L11.8 36.7l-9.8 75L-16 1.9z"/><path fill="#bebdbb" d="M79 36.6l20 13.1-47.4-25.4 14.3 4z"/><path fill="#6d7071" d="M115.8 51.3l11.3 31-1 .4-11.2-31z"/><path fill="#fdfefc" d="M155.1 19.1l-21.6 40.3L144.4 21l-29.1 36.3z"/><path fill="#fff" d="M195.5 24.9L91.6 22l-27 6.9 20.5 11.5z"/></g></g></svg>