<svg xmlns="http://www.w3.org/2000/svg" viewBox="0 0 1000 830"><defs/><filter id="prefix__a"><feGaussianBlur stdDeviation="12"/></filter><rect width="100%" height="100%" fill="#f4f5f5"/><g filter="url(#prefix__a)"><g fill-opacity=".5" transform="translate(2 2) scale(3.90625)"><path fill="#000025" d="M12.8 15.7l33 .6-.6 36-33-.6z"/><path fill="#000e46" d="M12 30h34v20H12z"/><path fill="#acabab" d="M165 171l90-1-69 23z"/><path fill="#b8aca6" d="M12 59h34v20H12z"/><circle cx="54" cy="172" r="98" fill="#fff"/><path fill="#a4a3a3" d="M202 91h39v12h-39z"/><ellipse cx="62" cy="44" fill="#525559" rx="1" ry="166"/><path fill="#908f8f" d="M87 28h65v5H87z"/><circle r="1" fill="#797878" transform="rotate(-90.8 58.3 -52.1) scale(3.30453 12.45404)"/><path fill="#c9b6ae" d="M132 96l-52 16 58 1z"/><ellipse cx="248" cy="125" fill="#605f5f" rx="1" ry="113"/><path fill="#82b7f2" d="M41.9 30.8l-30-.6.2-15 30 .6z"/><ellipse cx="200" cy="37" fill="#fff" rx="47" ry="54"/><path d="M12 46h34v5H12z"/><path fill="#798188" d="M152 24h2v100h-2z"/><path fill="#949494" d="M196.4-15.1L191 8.8l17 .1-6.8-24.9z"/><path fill="#074d7c" d="M13 31h34v17H13z"/><circle cx="247" cy="127" r="4" fill="#464545"/><ellipse cx="62" cy="34" fill="#003288" rx="3" ry="4"/><circle r="1" fill="#fff" transform="rotate(89.4 11.8 155) scale(27.15625 78.71563)"/><path fill="#fff" d="M0 51h57v7H0z"/><ellipse cx="28" cy="6" fill="#fff" rx="72" ry="11"/><ellipse cx="25" cy="2" fill="#9d9d9d" rx="7" ry="8"/><path fill="#030000" d="M151 58h4v6h-4z"/><path fill="#666" d="M188 126l64.7 47.1-.6.8-64.8-47z"/><path fill="#fff" d="M160 190h86v22h-86z"/><path fill="#afaeae" d="M84 28h11v13H84z"/><ellipse cx="152" cy="168" fill="#8a8f94" rx="1" ry="79"/><path fill="#00468d" d="M158.5 96.2l-9.4-3.4.4-1 9.4 3.4z"/><path fill="#001f74" d="M11 17h30v2H11z"/><path fill="#fff" d="M64 36l2 76 129-33z"/><circle r="1" fill="#bac0c4" transform="rotate(-143.7 54.3 12.7) scale(158.79372 1)"/></g></g></svg>