<svg xmlns="http://www.w3.org/2000/svg" viewBox="0 0 850 574"><defs/><filter id="prefix__a"><feGaussianBlur stdDeviation="12"/></filter><rect width="100%" height="100%" fill="#dbdde0"/><g filter="url(#prefix__a)"><g fill-opacity=".5" transform="translate(1.7 1.7) scale(3.32031)"><ellipse cx="115" cy="130" fill="#0d0c2e" rx="103" ry="11"/><ellipse cx="149" cy="169" fill="#001510" rx="247" ry="5"/><path fill="#18182e" d="M28 76h21v63H28z"/><path fill="#fff" d="M69 0h23v165H69z"/><circle cx="196" r="108" fill="#fff"/><path fill="#000948" d="M166 105h44v34h-44z"/><path fill="#fff" d="M139 18h25v132h-25z"/><path fill="#0c154e" d="M94 106h44v33H94z"/><ellipse cx="12" cy="76" fill="#fff" rx="18" ry="71"/><path fill="#492012" d="M103 79h21v17h-21z"/><path fill="#323b72" d="M23 105h47v37H23z"/><ellipse cx="237" cy="111" fill="#fff" rx="29" ry="54"/><path fill="#914700" d="M162 79h16v18h-16z"/><path fill="#dadff0" d="M50.9 123.1l-25-1.3 1.2-23 25 1.4z"/><ellipse cx="127" cy="119" fill="#ffe88b" rx="100" ry="4"/><path fill="#fff" d="M69 59h23v84H69z"/><ellipse cx="201" cy="20" fill="#fff" rx="151" ry="63"/><path fill="#fff" d="M139 70h22v81h-22z"/><path fill="#fffcf7" d="M0 140h139v22H0z"/><path fill="#767574" d="M85 43h71v5H85z"/><ellipse cx="81" cy="62" fill="#fff" rx="94" ry="16"/><path fill="#527cff" d="M88 105h49v10H88z"/><path fill="#001" d="M23 128h42v11H23z"/><path fill="#00001b" d="M164 127h45v13h-45z"/><ellipse cx="39" cy="87" fill="#261800" rx="9" ry="11"/><path fill="#004aa5" d="M7 160l28 6-38 2z"/><path fill="#2859ff" d="M24 107h45v7H24z"/><path fill="#fff" d="M210 0h46v165h-46z"/><path fill="#5d88ff" d="M164 104h45v11h-45z"/><path fill="#fff" d="M0 0h23v150H0z"/><path fill="#00001d" d="M138 138l-44-17-1 15z"/><ellipse cx="41" cy="102" fill="#fff" rx="255" ry="3"/></g></g></svg>