<svg xmlns="http://www.w3.org/2000/svg" viewBox="0 0 850 699"><defs/><filter id="prefix__a"><feGaussianBlur stdDeviation="12"/></filter><rect width="100%" height="100%" fill="#e8ebec"/><g filter="url(#prefix__a)"><g fill-opacity=".5" transform="translate(1.7 1.7) scale(3.32031)"><ellipse cx="123" cy="209" fill="#000707" rx="255" ry="8"/><path fill="#000010" d="M155 54h25v18h-25z"/><path fill="#000006" d="M88 56h25v17H88z"/><path fill="#000019" d="M27 54h24v19H27z"/><circle r="1" fill="#fff" transform="matrix(-22.43388 55.69965 -84.03286 -33.8455 195.1 137.8)"/><path fill="#aca9a8" d="M17 40V16h148v24z"/><ellipse cx="88" cy="168" fill="#fff" rx="255" ry="35"/><circle r="1" fill="#fff" transform="matrix(36.70136 -120.04364 42.59003 13.0212 231.5 81.7)"/><path fill="#a5a3a2" d="M229.9 26.5l-36.8-1-38.9 14 47.4 1.8z"/><ellipse cx="171" cy="207" fill="#016756" rx="125" ry="5"/><circle r="1" fill="#fff" transform="matrix(.57365 12.6327 -133.23228 6.05004 190.3 3)"/><path fill="#000015" d="M27 65h26v7H27z"/><circle r="1" fill="#8abd78" transform="matrix(-.05896 -3.37789 32.31625 -.56408 30 9.4)"/><circle r="1" fill="#fff" transform="matrix(-4.62015 -91.20305 22.04255 -1.11663 4.6 102.4)"/><ellipse cx="99" cy="56" fill="#305fff" rx="14" ry="3"/><ellipse cx="174" cy="33" fill="#fff" rx="202" ry="2"/><ellipse cx="79" cy="23" fill="#fff" rx="248" ry="3"/><ellipse cx="166" cy="68" fill="#00001a" rx="13" ry="4"/><circle r="1" fill="#e0e4e2" transform="rotate(-121.7 126.5 40.6) scale(37.59675 19.27056)"/><circle r="1" fill="#00003a" transform="matrix(13.20852 1.45823 -.45966 4.16351 98.2 68.3)"/><path fill="#2f6ba3" d="M15.4 225L123 202.4l-111.4 1.1-27.6-15.9z"/><path fill="#fff" d="M60 41h29v87H60z"/><path fill="#7a7a79" d="M205 120h43v3h-43z"/><path fill="#6989ff" d="M150 52l29 1 1 9z"/><circle r="1" fill="#fff" transform="matrix(-17.60227 -22.12176 101.65896 -80.89 238 57.6)"/><path fill="#7194ff" d="M27 54h27v7H27z"/><path fill="#fff" d="M121 43h26v98h-26z"/><circle r="1" fill="#979797" transform="rotate(179.4 18.3 14.6) scale(185.71701 1)"/><ellipse cx="99" cy="38" fill="#a1a1a1" rx="120" ry="3"/><path fill="#ffcc4e" d="M156.6 61.5l19.3 1.9 10.4-.6-21.2-3.7z"/><circle r="1" fill="#989898" transform="matrix(-33.26154 -.05157 .00418 -2.6966 99.2 19.2)"/><ellipse cx="74" cy="177" fill="#fff" rx="62" ry="25"/></g></g></svg>