<svg xmlns="http://www.w3.org/2000/svg" viewBox="0 0 794 360"><defs/><filter id="prefix__a"><feGaussianBlur stdDeviation="12"/></filter><rect width="100%" height="100%" fill="#f6f6f6"/><g filter="url(#prefix__a)"><g fill-opacity=".5" transform="translate(1.6 1.6) scale(3.10156)"><path fill="#717171" d="M73 16h6v80h-6z"/><path fill="#303030" d="M184 20h10v8h-10z"/><circle cx="187" cy="80" r="4"/><circle cx="208" cy="51" r="4"/><path fill="#949494" d="M198.7 93.4l-25.1-37.6 7-19.8L165 49.9z"/><path fill="#8b8c8a" d="M51 80l27 13 22-5z"/><path fill="#1c1c1c" d="M79.5 45.4l-11 .2v-5l11-.2z"/><path fill="#767676" d="M34 28.7l13.6-3 33.7-7.6-7.1 6.5z"/><path fill="#5c5c5b" d="M73 68l-15-8 32 7z"/><path fill="#fff" d="M80 131h191L77 26z"/><path fill="#838383" d="M82.4 88.5l-6.2 5.9L32 60.6l37.6 25.8z"/><path fill="#fff" d="M171.2-25.3l16.4 45.1-80.8 29.5L90.4 4.2z"/><path fill="#a9aba8" d="M138 52h34v5h-34z"/><ellipse cx="39" cy="111" fill="#fff" rx="45" ry="30"/><path fill="#bbbfbb" d="M219 48h29v7h-29z"/><path fill="#6a6a6a" d="M183.4 84.3L209.8 49l.8.6L184.2 85z"/><path fill="#fff" d="M183.9 48.5L203.5-16 271 115.5 248.9-16zM71 71h58v15H71z"/><path fill="#191919" d="M166.3 54.6l-1.3-4.9 8.7-2.3 1.3 4.9z"/><path fill="#707070" d="M219 68.9l.5 1L184.9 83l-.4-1z"/><path fill="#d2d2d2" d="M60.4 56.2l11.8 6.1L28 56.4l50.2-20.8z"/><path fill="#c5c8c4" d="M197 85h39v7h-39z"/><path fill="#838382" d="M200.6 87.5l-.4.8-42.8-21.8.4-.8z"/><path fill="#969696" d="M51.2 82.7l-39-22.5.6-.9 39 22.5z"/><path fill="#fff" d="M91.4 12.4L-20 44.4l-9.3-32.8L82-20.4z"/><path fill="#2f2f2f" d="M70 21l6 2 4-6z"/><path fill="#b0b4b0" d="M198 15h25v5h-25z"/><path fill="#9c9c9c" d="M175.3 42.2L188.2 23l33.4 12.7-31.8-9.8z"/><ellipse cx="74" cy="55" fill="#fff" rx="16" ry="8"/><path fill="#fff" d="M68 24h7v16h-7z"/><path fill="#bec1bd" d="M102.9 40.4l-2.7-2.4-23.5 5.2 23.4 3.6z"/><path fill="#9a9b9a" d="M195.7 18.8L149 39.2l3.8-3.9-1 .4z"/></g></g></svg>