<svg xmlns="http://www.w3.org/2000/svg" viewBox="0 0 850 393"><defs/><filter id="prefix__a"><feGaussianBlur stdDeviation="12"/></filter><rect width="100%" height="100%" fill="#f4f4f3"/><g filter="url(#prefix__a)"><g fill-opacity=".5" transform="translate(1.7 1.7) scale(3.32031)"><ellipse cx="61" cy="54" fill="#0d0d0e" rx="31" ry="1"/><ellipse cx="70" cy="38" fill="#111112" rx="35" ry="1"/><ellipse cx="220" cy="66" fill="#474748" rx="43" ry="1"/><ellipse cx="64" cy="66" fill="#303031" rx="34" ry="1"/><path fill="#c4c4c5" d="M96.1 112.5l-58 1-.2-14 58-1z"/><path fill="#373738" d="M155 26h75v1h-75z"/><ellipse cx="206" cy="54" fill="#0f0f10" rx="31" ry="1"/><ellipse cx="63" cy="27" fill="#afafb0" rx="44" ry="3"/><path fill="#888889" d="M258.5 81v2h-81v-2z"/><ellipse cx="131" cy="74" fill="#fff" rx="27" ry="98"/><ellipse cx="68" cy="82" fill="#4a4a4b" rx="36" ry="1"/><ellipse cx="205" cy="38" fill="#252526" rx="32" ry="1"/><path fill="#c86c6a" d="M34 74h74v2H34z"/><path fill="#c4c4c5" d="M163 99h57v14h-57z"/><path fill="#545454" d="M31 10h1v74h-1z"/><path fill="#d15c55" d="M48 45h32v2H48z"/><ellipse cx="199" cy="74" fill="#c14638" rx="27" ry="1"/><ellipse cx="13" cy="60" fill="#fff" rx="18" ry="196"/><path fill="#707071" d="M30 9h78v2H30z"/><circle r="1" fill="#fff" transform="matrix(15.4018 -8.84088 39.37026 68.58734 251 35.1)"/><ellipse cx="186" cy="10" fill="#6e6e6f" rx="39" ry="1"/><path fill="#fff" d="M280.2 71.9l15.4 42.3-65.8 24-15.4-42.4z"/><ellipse cx="216" cy="105" fill="#fff" rx="255" ry="2"/><ellipse cx="72" cy="84" fill="#bcbcbd" rx="35" ry="3"/><path fill="#fff" d="M0 27h152v10H0z"/><path fill="#c02018" d="M175 46h34v1h-34z"/><ellipse cx="104" cy="26" fill="#727373" rx="1" ry="58"/><path fill="#fff" d="M105.9 9.9l-108-4.8 215-21.1-109.5 49.9z"/><ellipse cx="185" cy="11" fill="#9d9d9d" rx="40" ry="1"/><path fill="#fff" d="M175 103l3-45-88-3z"/><ellipse cx="111" cy="92" fill="#fff" rx="255" ry="6"/><ellipse cx="63" cy="26" fill="#444" rx="31" ry="1"/></g></g></svg>