<svg xmlns="http://www.w3.org/2000/svg" viewBox="0 0 737 289"><defs/><filter id="prefix__a"><feGaussianBlur stdDeviation="12"/></filter><rect width="100%" height="100%" fill="#f3f3f3"/><g filter="url(#prefix__a)"><g fill-opacity=".5" transform="translate(1.4 1.4) scale(2.8789)"><ellipse cx="207" cy="65" fill="#bbb" rx="126" ry="9"/><path fill="#242424" d="M87 80h121v1H87z"/><ellipse cx="74" cy="15" fill="#4b413e" rx="127" ry="1"/><path fill="#6f6f6f" d="M81 34h104v4H81z"/><ellipse cx="97" cy="48" fill="#a0a0a0" rx="108" ry="2"/><path fill="#181818" d="M142.7 77.2l-.4 8-9-.4.4-8z"/><ellipse cx="113" cy="65" fill="#fff" rx="195" ry="3"/><ellipse cx="170" cy="60" fill="#999" rx="86" ry="3"/><path fill="#272727" d="M75 53l3-7-12-13z"/><ellipse cx="70" cy="80" fill="#404040" rx="49" ry="1"/><ellipse cx="242" cy="19" fill="#fff" rx="60" ry="39"/><path fill="#ee4724" d="M47 11h9v9h-9z"/><circle r="1" fill="#fff" transform="matrix(52.3596 45.2985 -22.71069 26.25082 9.6 26.8)"/><path fill="#fff" d="M141 93.6l154-35.5 6 26.3-154 35.5z"/><path fill="#969696" d="M101 68h139v5H101z"/><ellipse cx="75" cy="97" fill="#fff" rx="167" ry="15"/><path fill="#fff" d="M117 78L74 51 57 77zM90 49h117v7H90z"/><path fill="#675b58" d="M53 14.6l.8-.5L77 51.4l-.9.5z"/><ellipse cx="126" cy="64" fill="#fff" rx="139" ry="3"/><ellipse cx="164" cy="22" fill="#fff" rx="135" ry="7"/><ellipse cx="131" fill="#fff" rx="147" ry="14"/><path fill="#fff" d="M256.9 43l24.8 16.8-38.6 57.2-24.8-16.8z"/><ellipse cx="102" cy="47" fill="#878787" rx="98" ry="1"/><path fill="#fff" d="M82.3 38.2l-.4-4.2-15.2 11.3 153.1-.4z"/><circle r="1" fill="#9a9c97" transform="matrix(.75188 -3.5524 2.4285 .514 63.3 59.8)"/><path fill="#a7a7a7" d="M90 57h52v3H90z"/><path fill="#686c6a" d="M6 49l1-7 4 3z"/><path fill="#fff" d="M201.9 81.4L199 68.2l72 46.8L30.5 91.1zM2.6 76.2L106 80.8 34.9 55.9 12.1 42.8z"/><path fill="#9f9897" d="M17 14h161v2H17z"/><path fill="#fff" d="M203 0h53v58h-53z"/></g></g></svg>