<svg xmlns="http://www.w3.org/2000/svg" viewBox="0 0 1077 601"><defs/><filter id="prefix__a"><feGaussianBlur stdDeviation="12"/></filter><rect width="100%" height="100%" fill="#f7f6f6"/><g filter="url(#prefix__a)"><g fill-opacity=".5" transform="translate(2.1 2.1) scale(4.20703)"><path fill="#585959" d="M72 132h98v4H72z"/><path fill="#c1c2c2" d="M144 98h54v24h-54z"/><ellipse cx="47" cy="110" fill="#939494" rx="39" ry="3"/><ellipse cx="99" cy="58" fill="#766d6a" rx="148" ry="1"/><path fill="#535454" d="M13 98h19v4H13z"/><ellipse cx="158" cy="39" fill="#8a6d65" rx="146" ry="1"/><ellipse cx="54" cy="119" fill="#adaeae" rx="43" ry="3"/><path fill="#fff" d="M83 0h58v131H83z"/><ellipse cx="95" cy="77" fill="#c7b6b1" rx="159" ry="2"/><circle r="1" fill="#828282" transform="matrix(-3.07675 -4.32941 2.68012 -1.90466 104.3 57.5)"/><path fill="#fff" d="M161 81h95v27h-95z"/><path fill="#7f6660" d="M83.5 81L55.9 57.8l.6-.8 27.6 23.2z"/><ellipse cx="166" cy="110" fill="#888" rx="28" ry="2"/><ellipse cx="171" cy="12" fill="#fff" rx="255" ry="26"/><ellipse cx="167" cy="115" fill="#fff" rx="184" ry="3"/><path fill="#a7a09e" d="M230.8 60.1l9.7 2.8-46.1-25.8 46.4 22.2z"/><path fill="#8b8d8c" d="M157.9 50l.9 18.9 5.6-10.8-1.9-3.3z"/><ellipse cx="164" cy="100" fill="#7d7d7d" rx="22" ry="2"/><path fill="#4f4f4f" d="M146 118h14v4h-14z"/><ellipse cx="192" cy="11" fill="#a7aaa6" rx="17" ry="2"/><path fill="#818282" d="M38 60l9-2-15 10z"/><path fill="#db3713" d="M89.5 35.4l3 2.6-4 4.6-3-2.6z"/><path fill="#a0a1a1" d="M193 108h21v5h-21z"/><path fill="#9b928f" d="M205.1 56.1l26.2 24.1 4 1.8-13.7-12.4z"/><circle r="1" fill="#fff" transform="rotate(121 78 128.2) scale(110.95942 22.93469)"/><path fill="#a5aaa5" d="M43.1 8.8L44 12l28.3.7-9.7-3.3z"/><ellipse cx="37" cy="100" fill="#8f9090" rx="21" ry="2"/><path fill="#fff" d="M84 61h58v59H84z"/><path fill="#ed421e" d="M212 62l-3.7-1.3 1.6-4.7 3.8 1.3z"/><path fill="#e92300" d="M199.4 40.8l.2-4 5 .4-.2 4z"/><path fill="#e82600" d="M157.5 41l1-4.9 4 .9-1 4.9z"/><path fill="#131515" d="M44.2 56l-1.5 4.8-2.9-.9 1.5-4.7z"/></g></g></svg>