<svg xmlns="http://www.w3.org/2000/svg" viewBox="0 0 598 227"><defs/><filter id="prefix__a"><feGaussianBlur stdDeviation="12"/></filter><rect width="100%" height="100%" fill="#f8f8f7"/><g filter="url(#prefix__a)"><g fill-opacity=".5" transform="translate(1.2 1.2) scale(2.33594)"><ellipse cx="139" cy="74" fill="#876e69" rx="112" ry="2"/><path fill="#4d484d" d="M28 33h208v2H28z"/><circle r="1" fill="#0661a2" transform="rotate(149.2 53 32.5) scale(5.97534 6.49797)"/><path fill="#4a4d4f" d="M133.9 60.7l10.4 15-9.6 5.6-3-4.1z"/><path fill="#e72902" d="M63 40.8l-5-7.3 9-6.3 5 7.3z"/><path fill="#eb2c05" d="M76 69h9v11h-9z"/><path fill="#ed4622" d="M183.4 78.9L186 71l9-3 .7 9.4z"/><path fill="#637a8d" d="M111.1 31.5l4.6 4L145 85l-30.1-56z"/><ellipse cx="142" cy="13" fill="#fff" rx="221" ry="17"/><path fill="#fff" d="M18 75h238v1H18z"/><ellipse cx="133" cy="74" fill="#706c6b" rx="107" ry="1"/><path fill="#fff" d="M0 79h256v18H0z"/><path fill="#6f7371" d="M7 68h7v6H7z"/><path fill="#7f8482" d="M7 37v-8l9-5z"/><circle cx="137" cy="75" r="4" fill="#252525"/><path fill="#80827d" d="M114 22l4-6-5-5z"/><path fill="#6c6b68" d="M187 57h5v6h-5z"/><circle r="1" fill="#fff" transform="matrix(64.55102 .01493 -.00365 15.78384 56.7 54.7)"/><path fill="#848886" d="M62 12h6v7h-6z"/><path fill="#777878" d="M229 33.9v-1l18 1.2v1z"/><ellipse cx="189" cy="75" fill="#ef4a2a" rx="4" ry="5"/><path fill="#fff" d="M217.9 35l-91.5 35.3 47.8-6.1-56.8-26.1z"/><path fill="#fff" d="M194 35h62v36h-62z"/><path fill="#ef5638" d="M76 71h9v7h-9z"/><ellipse cx="85" cy="61" fill="#a8adaa" rx="3" ry="5"/><path fill="#005dac" d="M117.6 36l-5.9-3.8 2.7-4.2 5.9 3.8z"/><path fill="#fff" d="M144 75h41v20h-41z"/><path fill="#606664" d="M191 55h2v7h-2z"/><path fill="#fff" d="M28.8 44.2l-8.7-5.1L112.8-16-10.3 6.7z"/><path fill="#4c4d4d" d="M131 74l8 2-5-7z"/><path fill="#fff" d="M271 74h-75l-22 38zM90 75h42v22H90z"/></g></g></svg>