<svg xmlns="http://www.w3.org/2000/svg" viewBox="0 0 992 269"><defs/><filter id="prefix__a"><feGaussianBlur stdDeviation="12"/></filter><rect width="100%" height="100%" fill="#f8f8f7"/><g filter="url(#prefix__a)"><g transform="translate(2 2) scale(3.875)"><path fill="#847a81" fill-opacity=".5" d="M92.5 15v-1l57 3v1z"/><path fill="#9d8f8d" fill-opacity=".5" d="M26 47h208v2H26z"/><ellipse cx="44" cy="15" fill="#a29a9a" fill-opacity=".5" rx="188" ry="1"/><path fill="#050809" fill-opacity=".5" d="M144 45h5v5h-5z"/><ellipse cx="147" cy="56" fill="#b8bcb8" fill-opacity=".5" rx="28" ry="3"/><circle cx="126" cy="16" r="3" fill="#00308d" fill-opacity=".5"/><path fill="#e11200" fill-opacity=".5" d="M62 13h4v6h-4z"/><path fill="#f82900" fill-opacity=".5" d="M97 14h6v4h-6z"/><path fill="#a7aba6" fill-opacity=".5" d="M149 30v-4h26v4z"/><circle r="1" fill="#eb4d2c" fill-opacity=".5" transform="rotate(-123.9 112.3 -28.9) scale(3.21241 2.89015)"/><path fill="#f48872" fill-opacity=".5" d="M73 40.5l1.9 9.8-5.9 1.2-1.9-9.8z"/><path fill="#fff" fill-opacity=".5" d="M0 19h131v26H0z"/><ellipse cx="214" cy="31" fill="#fff" fill-opacity=".5" rx="39" ry="15"/><path fill="#d1d4d2" fill-opacity=".5" d="M25 6h115v3H25z"/><ellipse cx="162" cy="16" fill="#bdbab9" fill-opacity=".5" rx="140" ry="1"/><path fill="none" stroke="#97a3a9" stroke-opacity=".5" stroke-width=".5" d="M150.4 51.6q-3.3-3.3-44-67.6"/><path fill="#c3c7c1" fill-opacity=".5" d="M187 55h22v4h-22z"/><path fill="#5d605a" fill-opacity=".5" d="M10.8 44.2L8 48.3l-.8-.5 2.8-4.1z"/><circle r="1" fill="#abaeab" fill-opacity=".5" transform="rotate(175.5 15.2 29) scale(3.97174 2.26535)"/><circle cx="71" cy="47" r="3" fill="#e34a2d" fill-opacity=".5"/><circle r="1" fill="#fff" fill-opacity=".5" transform="matrix(-33.70184 38.3797 -17.49639 -15.36386 241.7 51)"/><path fill="#c5c9c5" fill-opacity=".5" d="M78 56l-15-2-4 6z"/><ellipse cx="201" cy="6" fill="#fff" fill-opacity=".5" rx="65" ry="9"/><path fill="#fff" fill-opacity=".5" d="M-12.6 84l34.3-62.2-.4-37.8H-2z"/><path fill="#fff" fill-opacity=".5" d="M0 59h256v10H0z"/><path fill="#d2d6d2" fill-opacity=".5" d="M236.2 51.6l16.1-5.7-23.6-1.7 2.2 3z"/><path fill="#6e7471" fill-opacity=".5" d="M12.7 11.7L8 17l-.8-.7L12 11z"/><path fill="#fff" fill-opacity=".5" d="M17.5 47.2l101.6-1.5-2.7-51.8-17.2 28.2z"/><path fill="#515152" fill-opacity=".5" d="M144 48h6v3h-6z"/><path fill="#a4a7a4" fill-opacity=".5" d="M129 56h20v3h-20z"/><path fill="#fff" fill-opacity=".5" d="M96-16L70 11l16 3zm-42 0l-2 28-20 1z"/></g></g></svg>