<svg xmlns="http://www.w3.org/2000/svg" viewBox="0 0 669 227"><defs/><filter id="prefix__a"><feGaussianBlur stdDeviation="12"/></filter><rect width="100%" height="100%" fill="#f7f7f7"/><g filter="url(#prefix__a)"><g fill-opacity=".5" transform="translate(1.3 1.3) scale(2.61328)"><path fill="#878787" d="M59 27h66v7H59z"/><ellipse cx="196" cy="69" fill="#343434" rx="167" ry="1"/><circle cx="187" cy="68" r="5"/><path fill="#6e6e6e" d="M131.7 62.8l-1.4 14.8 11.3-6.3-37.4-56.4z"/><ellipse cx="89" cy="25" fill="#fff" rx="20" ry="43"/><ellipse cx="165" cy="30" fill="#212121" rx="138" ry="1"/><path fill="#101010" d="M63 34l7-3-4-7z"/><path fill="#262626" d="M118 36l-3-12-6 8z"/><ellipse cx="253" cy="42" fill="#fff" rx="13" ry="142"/><path fill="#727372" d="M183.5 53.4l4.1-2.2-5.7 22.2 6.4.8z"/><path fill="#898989" d="M43 68h199v2H43z"/><circle cx="133" cy="69" r="5" fill="#363636"/><path fill="#2c2e2f" d="M12 62.6l1 .3-3 8.5-1-.3z"/><ellipse cx="160" cy="3" fill="#fff" rx="85" ry="27"/><circle cx="143" cy="57" r="3" fill="#797772"/><ellipse cx="52" cy="50" fill="#fff" rx="73" ry="16"/><path fill="#fff" d="M266 70l-78-6 83-52z"/><path fill="#6e726e" d="M13 22L7 34l8-7z"/><circle cx="124" cy="18" r="4" fill="#929292"/><circle cx="114" cy="30" r="5" fill="#494949"/><path fill="#fff" d="M12 73h121v13H12z"/><circle cx="145" cy="74" r="4" fill="#979797"/><path fill="#575757" d="M58.3 31.1l7.8-7.8 3.6 3.6-7.8 7.8z"/><path fill="#a3a5a2" d="M182 54.6l18.6 4-.6 2.8-18.6-4z"/><ellipse cx="198" cy="31" fill="#b4b4b4" rx="73" ry="1"/><path fill="#fff" d="M-16 22l62-38 22 41zm87 4h38v4H71z"/><path fill="#8b8f8d" d="M63 10h5v7h-5z"/><path fill="#fff" d="M120.8 40L271 29 134.8 58.2 114.2 2.4z"/><path fill="#b3b3b3" d="M75 22l3-7 9 4z"/><path fill="#fff" d="M127.8 67.8l3 12L271 70l-118.3 31z"/><circle cx="65" cy="31" r="5" fill="#525252"/></g></g></svg>