<svg xmlns="http://www.w3.org/2000/svg" viewBox="0 0 686 397"><defs/><filter id="prefix__a"><feGaussianBlur stdDeviation="12"/></filter><rect width="100%" height="100%" fill="#f4f4f4"/><g filter="url(#prefix__a)"><g fill-opacity=".5" transform="translate(1.3 1.3) scale(2.67969)"><circle r="1" fill="#7c848a" transform="matrix(-103.56733 .54228 -.0202 -3.85763 128.8 65.3)"/><path fill="#916a62" d="M129.2 92.5l7.6 7.4 46.2 5.6-56.2 5.3z"/><circle cx="114" cy="25" r="6" fill="#090909"/><circle r="1" fill="#828382" transform="matrix(.00698 .99998 -218.82305 1.5277 58.5 25.9)"/><path d="M32 105h113v1H32z"/><path fill="#757575" d="M118.2 60l-53.3 51.5-16.3-7.8 28.6-8.5z"/><path fill="#313131" d="M70.3 24.7L60.1 19l-2.5 13.1 6.9-.6z"/><path fill="#5d829f" d="M127.1 37.3l28.8 23.9 11.2 2.2-14.5 7.8z"/><path d="M185 61h7v9h-7z"/><path fill="#969a95" d="M96 133h53v6H96z"/><path fill="#383938" d="M131.1 99l-.6.8L81 61l.6-.8z"/><ellipse cx="230" cy="82" fill="#fff" rx="37" ry="175"/><ellipse cx="135" cy="65" fill="#181513" rx="5" ry="6"/><path fill="#555453" d="M71.1 99.4l45.2-33.1-2.2-5.1-25 23.1z"/><path fill="#1b1816" d="M56.8 68.3l2.9-7.5 7.5 2.9-2.9 7.5z"/><ellipse cx="250" cy="25" fill="#3b3a3b" rx="225" ry="1"/><path fill="#fff" d="M64 79L43 33.4 1.8-15.5-5.6 163z"/><ellipse cx="191" cy="65" fill="#3a3d40" rx="167" ry="1"/><ellipse cx="193" cy="105" fill="#25130f" rx="51" ry="1"/><path fill="#ff4d26" d="M150 101h11v9h-11z"/><path fill="#fff" d="M160 32h23v116h-23z"/><circle cx="90" cy="64" r="5" fill="#2b2826"/><path fill="#fff" d="M140 62h11v54h-11zM69 32h16v55H69z"/><circle cx="63" cy="104" r="5" fill="#2b2b2b"/><path fill="#3a484b" d="M140 103l-3 8-14-20z"/><path fill="#b3b3b3" d="M134 88h27v8h-27z"/><ellipse cx="112" cy="66" fill="#565554" rx="5" ry="7"/><ellipse cx="35" cy="134" fill="#fff" rx="40" ry="29"/><path fill="#392f26" d="M150.7 60l-.7.7L115.3 26l.7-.7z"/><ellipse cx="135" cy="52" fill="#d0cfcf" rx="59" ry="4"/><path fill="#fff" d="M107.7 67.5l-1.2 16.1L123.6 56l20.4 49.7z"/></g></g></svg>