<svg xmlns="http://www.w3.org/2000/svg" viewBox="0 0 1240 563"><defs/><filter id="prefix__a"><feGaussianBlur stdDeviation="12"/></filter><rect width="100%" height="100%" fill="#f7f7f6"/><g filter="url(#prefix__a)"><g fill-opacity=".5" transform="translate(2.4 2.4) scale(4.84375)"><ellipse cx="22" cy="53" fill="#d7ccc7" rx="6" ry="64"/><path fill="#c8c2be" d="M100 50h10v61h-10z"/><ellipse cx="71" cy="106" fill="#6e6364" rx="78" ry="1"/><path fill="#c4c7c8" d="M49.4 110.9L39.3-16l17.8 86.6-21.7 13.6z"/><path fill="#75696a" d="M7 72h145v1H7z"/><ellipse cx="89" cy="36" fill="#817879" rx="87" ry="1"/><path fill="#b6bbb6" d="M179 69h77v5h-77z"/><path fill="#fff" d="M253-16L-16-1l285 62z"/><path fill="#a2a2a2" d="M169 13h45v4h-45z"/><path fill="#6b6b6c" d="M170.3 81.7l-4.8-3.6 2.9-2.1 7.7.9z"/><circle cx="170" cy="52" r="3" fill="#00388a"/><path fill="#9fb1b8" d="M122 50h9v26h-9z"/><circle cx="134" cy="105" r="4" fill="#656667"/><path fill="#bcbebc" d="M86 8h10v34H86z"/><circle r="1" fill="#fff" transform="rotate(-18 450 -592.6) scale(114.20454 23.84817)"/><path fill="#0564ab" d="M50 109l-6-2 4-5z"/><path fill="#babdba" d="M137 82h10v20h-10z"/><path fill="#e48f7a" d="M177 45l-12-12h8z"/><ellipse cx="50" cy="18" fill="#585859" rx="1" ry="12"/><path fill="#fff" d="M0 39h176v10H0z"/><path fill="#999a9b" d="M85 62l14 12 7-3z"/><path fill="#c3c8c2" d="M194 41h28v6h-28z"/><ellipse cx="157" cy="78" fill="#fff" rx="11" ry="191"/><path fill="#414143" d="M88 34h6v5h-6z"/><path fill="#fff" d="M0 75h158v7H0z"/><ellipse cx="193" cy="85" fill="#bbc0bb" rx="14" ry="3"/><ellipse cx="46" cy="81" fill="#858f91" rx="1" ry="33"/><ellipse cx="106" cy="31" fill="#fff" rx="122" ry="4"/><path fill="#aab8c3" d="M106.6 76.6L53.2 40l-3.5-6-8.8.9z"/><ellipse cx="41" cy="112" fill="#fff" rx="255" ry="4"/><ellipse cy="35" fill="#fff" rx="15" ry="103"/><path fill="#1b1c1c" d="M98 72h5v3h-5z"/></g></g></svg>