<svg xmlns="http://www.w3.org/2000/svg" viewBox="0 0 990 470"><defs/><filter id="prefix__a"><feGaussianBlur stdDeviation="12"/></filter><rect width="100%" height="100%" fill="#f8f8f7"/><g filter="url(#prefix__a)"><g fill-opacity=".5" transform="translate(2 2) scale(3.86719)"><path fill="#050506" d="M149 93l-8 2-4-18z"/><path fill="#585257" d="M33 42h168v2H33z"/><path fill="#477091" d="M115.8 32.6l-2.7-2 22.2 45.1-23.9-35.2z"/><ellipse cx="189" cy="92" fill="#a29896" rx="179" ry="2"/><path fill="#f16041" d="M60.5 43.7l12 6.4.1-3.8.1-11.8z"/><path fill="#e94220" d="M186 90l14-3-1 10z"/><path fill="#c2c4c3" d="M59 6h20v29H59z"/><path fill="#262627" d="M186.3 61.1h1l2.4 19.8h-1z"/><path fill="#3f3f40" d="M143 52h2v33h-2zM125 6h2v30h-2z"/><path fill="#4f4f50" d="M160 51h2v34h-2z"/><circle cx="115" cy="43" r="5" fill="#0043a1"/><path fill="#858586" d="M104 0h3v35h-3z"/><path fill="#49494a" d="M203 50.5h1l-1 29h-1z"/><circle r="1" fill="#fff" transform="matrix(-98.33425 -112.19693 23.27894 -20.40267 226 34.2)"/><ellipse cx="28" cy="108" fill="#fff" rx="235" ry="16"/><circle r="1" fill="#fff" transform="matrix(-21.02057 -10.31473 4.18147 -8.52149 119.5 78.8)"/><ellipse cx="218" cy="42" fill="#929293" rx="20" ry="2"/><path fill="#393b3b" d="M143 87h6v10h-6z"/><path fill="#020102" d="M77 9h1v19h-1z"/><path fill="#69696a" d="M59 2h2v33h-2z"/><ellipse cx="55" cy="68" fill="#fff" rx="74" ry="22"/><ellipse cx="115" cy="21" fill="#cacec9" rx="6" ry="13"/><path fill="#201710" d="M145 92.9l-25-43.3 1-.5 25 43.3z"/><path fill="#fff" d="M50-16l87 19-148 7z"/><ellipse cx="107" cy="91" fill="#696e6f" rx="74" ry="1"/><ellipse cx="76" cy="35" fill="#fff" rx="63" ry="3"/><circle cx="17" cy="40" r="4" fill="#8a8f89"/><path fill="#3a3a3b" d="M187 55h2v9h-2z"/><path fill="#fff" d="M129 0h127v42H129z"/><path fill="#6e716f" d="M16 91.2l-1.7-2.4 5.7-4 1.7 2.4z"/><path fill="#a1a6a2" d="M144.6 115.1l-4.1-5.3 6.8-4.7 2.3-2.1z"/></g></g></svg>