<svg xmlns="http://www.w3.org/2000/svg" viewBox="0 0 1280 781"><defs/><filter id="prefix__a"><feGaussianBlur stdDeviation="12"/></filter><rect width="100%" height="100%" fill="#f8f8f8"/><g filter="url(#prefix__a)"><g fill-opacity=".5" transform="matrix(5 0 0 5 2.5 2.5)"><ellipse cx="52" cy="103" fill="#bdbabb" rx="196" ry="2"/><path fill="#a49997" d="M137 128h110v2H137z"/><path fill="#666" d="M33 51h85v1H33z"/><ellipse cx="216" cy="49" fill="#beb4b1" rx="73" ry="2"/><ellipse cx="40" cy="25" fill="#7b8286" rx="80" ry="1"/><ellipse cx="187" cy="23" fill="#bdc4c7" rx="63" ry="2"/><path fill="#a6adb0" d="M176.4 84.7l19.3 35.1 5.2-9.9.9 28.3z"/><path fill="#767676" d="M99.7 52l-.4.9-35-14.9.4-.9z"/><path fill="#a0a0a0" d="M42 129h81v2H42z"/><path fill="#00358c" d="M29 23h5v5h-5z"/><ellipse cx="126" cy="87" fill="#fff" rx="21" ry="137"/><ellipse cx="48" cy="147" fill="#a4a6a4" rx="27" ry="2"/><path fill="#8f928f" d="M140 147h50v2h-50z"/><ellipse cx="30" cy="65" fill="#b6b9b6" rx="25" ry="2"/><path fill="#b5c0c7" d="M154.1 23.2l7.1-35.8-4.1 32.6 39.5 27.6z"/><path fill="#001f86" d="M183 102h4v4h-4z"/><path fill="#979a97" d="M138 69h50v2h-50z"/><ellipse cx="98" cy="78" fill="#fff" rx="47" ry="26"/><path fill="#c9ced0" d="M106.5 111.2l-3.8 21.9-61.9-37.3 51.4 25.6z"/><circle cx="200" cy="49" r="3" fill="#3c3f3f"/><circle cx="59" cy="104" r="3" fill="#004a97"/><path fill="#c7cbc7" d="M53 84h12v17H53z"/><ellipse cx="174" cy="103" fill="#857f80" rx="33" ry="1"/><path fill="#bfc1bf" d="M155 84h11v13h-11z"/><ellipse cx="197" cy="7" fill="#fff" rx="161" ry="16"/><ellipse cx="228" cy="78" fill="#fff" rx="39" ry="25"/><path fill="#d0bdb5" d="M29 87h11v19H29z"/><path fill="#afbfc4" d="M155.7 6.4l11 .2-.4 19-11-.2z"/><circle r="1" fill="#fff" transform="matrix(18.2074 104.07834 -19.06397 3.33504 0 62.5)"/><circle cx="160" cy="103" r="3" fill="#f24420"/><circle cx="227" cy="49" r="3" fill="#eb4c2a"/><circle cx="100" cy="130" r="3" fill="#3e3d3c"/></g></g></svg>