<svg xmlns="http://www.w3.org/2000/svg" viewBox="0 0 718 420"><defs/><filter id="prefix__a"><feGaussianBlur stdDeviation="12"/></filter><rect width="100%" height="100%" fill="#f8f8f8"/><g filter="url(#prefix__a)"><g fill-opacity=".5" transform="translate(1.4 1.4) scale(2.80469)"><path fill="#b8c2c8" d="M137 77l-68-2-20-36z"/><ellipse cx="140" cy="74" fill="#2b2f33" rx="104" ry="1"/><ellipse cx="138" cy="103" fill="#929292" rx="111" ry="2"/><path fill="#272727" d="M125 97h7v9h-7z"/><path fill="#797979" d="M133.9 88.4l22 11.3 4.3-3-.1 11z"/><circle cx="54" cy="45" r="4" fill="#002082"/><ellipse cx="122" cy="133" fill="#171717" rx="1" ry="18"/><path fill="#b2bec2" d="M111 37h14v45h-14z"/><path fill="#b6b9b6" d="M48 8h14v28H48z"/><path fill="#070707" d="M162 115h1v23h-1z"/><path fill="#6d6d6d" d="M133 118h2v31h-2z"/><ellipse cx="181" cy="45" fill="#494d4e" rx="155" ry="1"/><path fill="#606060" d="M150 115h2v32h-2z"/><circle cx="74" cy="73" r="4" fill="#292421"/><path fill="#fffffd" d="M73 0h49v71H73z"/><circle r="1" fill="#fff" transform="rotate(-175.6 128 7.5) scale(191.1245 21.57728)"/><path fill="#888988" d="M83 24h2v43h-2z"/><path fill="#fff" d="M35 104h86v45H35z"/><path d="M72 36h1v19h-1z"/><path fill="#fff" d="M172 104h84v45h-84z"/><path fill="#1f70b0" d="M114 71h8v9h-8z"/><circle r="1" fill="#b4b2af" transform="rotate(-151 71.4 25.6) scale(48.20471 1)"/><path fill="#fff" d="M65 144h191v5H65zm54.8-43.3L15.9 102l65.5-27.3 38.3 3.9z"/><path fill="#282828" d="M152.6 102l2.6-3 6.2 5-2.6 3z"/><path fill="#fff" d="M62 0h179v36H62z"/><circle r="1" fill="#fff" transform="rotate(179.1 110 45.2) scale(77.87733 13.31218)"/><ellipse cx="60" cy="5" fill="#3c3c3b" rx="1" ry="29"/><ellipse cx="222" cy="60" fill="#fff" rx="89" ry="14"/><circle r="1" fill="#fff" transform="matrix(-73.4484 8.6282 -2.7575 -23.47346 26 128.5)"/><ellipse cx="111" cy="55" fill="#a09d9e" rx="2" ry="12"/><ellipse cx="1" cy="60" fill="#fff" rx="26" ry="255"/></g></g></svg>