<svg xmlns="http://www.w3.org/2000/svg" viewBox="0 0 1650 1334"><defs/><filter id="prefix__a"><feGaussianBlur stdDeviation="12"/></filter><rect width="100%" height="100%" fill="#f4f5f5"/><g filter="url(#prefix__a)"><g fill-opacity=".5" transform="translate(3.2 3.2) scale(6.44531)"><path fill="#000024" d="M6 17h34v33H6z"/><path fill="#000b3f" d="M8 30h31v20H8z"/><path fill="#b29b96" d="M5 73h29v18H5z"/><ellipse cx="64" cy="166" fill="#fff" rx="76" ry="83"/><path fill="#757474" d="M76 28h64v4H76z"/><ellipse cx="54" cy="44" fill="#626669" rx="1" ry="156"/><path fill="#686767" d="M160 167h54v4h-54z"/><path fill="#989797" d="M208 100l-22-14 41 1z"/><circle r="1" fill="#fff" transform="rotate(161.9 105 38.7) scale(61.14772 43.06998)"/><path fill="#a0d1ff" d="M37.1 23.8l-30 7.8-.2 6.9-5.8-23.2z"/><ellipse cx="231" cy="108" fill="#575656" rx="1" ry="92"/><circle r="1" fill="#a3a2a2" transform="matrix(-13.22924 .4851 -.15327 -4.17998 102.1 6)"/><path fill="#c8aba4" d="M95 97h31v12H95z"/><path fill="#222121" d="M138 57h6v6h-6z"/><path fill="#6a6568" d="M140 14h1v184h-1z"/><path fill="#4c4b4b" d="M236 124.5h-8v-5h8z"/><circle r="1" fill="#040303" transform="matrix(.01579 -2.25815 2.59866 .01817 231.3 163.3)"/><path fill="#000914" d="M7 42h33v7H7z"/><circle r="1" fill="#fff" transform="rotate(172.7 88.8 103.6) scale(175.90072 19.27427)"/><path fill="#0d63a0" d="M7 32h27v14H7z"/><path fill="#a5afb7" d="M87.8 31.7l-17.6 9.1-35-11 48.5 10.7z"/><path fill="#989797" d="M173.7 4.8l3.6-.7L193 2.6l-6.1 8.5z"/><path fill="#7c7b7b" d="M156 173h15v5h-15z"/><path fill="#aaa9a9" d="M63.4-15.4L9 7.5l17.4 3.8L20.2-16z"/><circle r="1" fill="#0058a3" transform="matrix(-3.7843 -1.07749 .60025 -2.10816 142 89.6)"/><ellipse cx="246" cy="109" fill="#414040" rx="1" ry="12"/><path fill="#dcdddb" d="M143 37h15v59h-15z"/><ellipse cx="95" cy="73" fill="#fff" rx="40" ry="25"/><path fill="#c0c2bf" d="M59 6h11v23H59z"/><circle r="1" fill="#fff" transform="matrix(-1.69474 242.75022 -.99998 -.00698 6 32.2)"/><circle r="1" fill="#fff" transform="matrix(-26.53016 15.19223 -17.76516 -31.02325 146.3 0)"/><path fill="#f15939" d="M138 146h6v7h-6z"/></g></g></svg>