<svg xmlns="http://www.w3.org/2000/svg" viewBox="0 0 980 791"><defs/><filter id="prefix__a"><feGaussianBlur stdDeviation="12"/></filter><rect width="100%" height="100%" fill="#f4f5f5"/><g filter="url(#prefix__a)"><g fill-opacity=".5" transform="translate(2 2) scale(3.82813)"><path fill="#00002e" d="M12 15h33v35H12z"/><path fill="#00001c" d="M8 48l32-20 5 19z"/><circle cx="29" cy="189" r="115" fill="#fff"/><path fill="#b4a49d" d="M10 57h28v18H10z"/><path fill="#868585" d="M235 92h2v109h-2z"/><ellipse cx="145" cy="93" fill="#5c585a" rx="1" ry="108"/><ellipse cx="117" cy="29" fill="#9b9a9a" rx="38" ry="3"/><path fill="#9d9c9c" d="M216.6 164.5l3.2.9-76.2 3.9 83.8 2z"/><path fill="#003468" d="M11 31h33v17H11z"/><ellipse cx="209" cy="91" fill="#acabab" rx="21" ry="7"/><ellipse cx="213" cy="16" fill="#fff" rx="75" ry="70"/><path fill="#fff" d="M101-16L6 16l80-2z"/><path fill="#91c9fa" d="M9 19h36v10H9z"/><path fill="#6a6969" d="M96 3h21v5H96z"/><ellipse cx="152" cy="66" fill="#555" rx="1" ry="31"/><path fill="#8b8f93" d="M58 13h2v178h-2z"/><path fill="#cc9887" d="M79 104h53v4H79z"/><path fill="#fff" d="M44 0h15v206H44z"/><path fill="#909090" d="M183 .2l14.9 1.6-.9 8-14.9-1.6z"/><ellipse cx="161" cy="45" fill="#8e8e8d" rx="1" ry="43"/><path fill="#90a6b5" d="M51.5 29.6l8.5-.2 6.6 7.9 30.1 23.8z"/><path fill="#747373" d="M145.9 65.3l4-8.6-17.5-1.2h5.9z"/><path fill="#fff" d="M60 193l193 28 16-57z"/><path fill="#1f1e1e" d="M237 119l-7 1 8 4z"/><path fill="#8a8a88" d="M131 96l-25 2 13 3z"/><path fill="#0053a0" d="M144 91l5-7-7 4z"/><path fill="#807f7f" d="M29 3.5v5H17v-5z"/><ellipse cx="39" cy="51" fill="#fff" rx="42" ry="3"/><path fill="#a7a6a6" d="M174.5 166l1 13-14 1-1-13z"/><path fill="#c0c2be" d="M241 98h11v21h-11z"/><path fill="#cecfcd" d="M62 2l34 41-30-6z"/><path fill="#030202" d="M234 160h5v5h-5z"/></g></g></svg>