<svg xmlns="http://www.w3.org/2000/svg" viewBox="0 0 1156 500"><defs/><filter id="prefix__a"><feGaussianBlur stdDeviation="12"/></filter><rect width="100%" height="100%" fill="#f4f4f4"/><g filter="url(#prefix__a)"><g fill-opacity=".5" transform="translate(2.3 2.3) scale(4.51563)"><path fill="#635d61" d="M16 102h165v1H16z"/><ellipse cx="93" cy="68" fill="#746160" rx="80" ry="1"/><path fill="#dad0ca" d="M18 0h11v107H18z"/><path fill="#9d8b8a" d="M15 32h162v2H15z"/><ellipse cx="216" cy="11" fill="#fff" rx="80" ry="61"/><path fill="#a98a82" d="M200 58h35v4h-35z"/><path fill="#c5c6c4" d="M172 5h11v36h-11z"/><path fill="#949494" d="M205 35h43v3h-43z"/><path d="M202 89h4v4h-4z"/><ellipse cx="51" cy="55" fill="#cbcccb" rx="4" ry="52"/><path fill="#050605" d="M148 101h5v4h-5z"/><path fill="#636565" d="M96.3 37.4l-5 1-1.6-7.8 5-1z"/><path fill="#060808" d="M100 66h4v5h-4z"/><path fill="#a7b4bd" d="M200 72h49v5h-49z"/><path fill="#cabab2" d="M117 42h9v29h-9z"/><path fill="#0058a5" d="M162 99h5v4h-5z"/><ellipse cx="27" cy="39" fill="#fff" rx="161" ry="5"/><circle cx="49" cy="102" r="3" fill="#004c9e"/><path fill="#a4a4a4" d="M215 88h31v4h-31z"/><path fill="#343434" d="M172 80h1v21h-1z"/><path fill="#18191a" d="M175.5 34.8l-1-4.9 4-.7 1 4.9z"/><path fill="#cfc1ba" d="M102 76h10v29h-10z"/><ellipse cx="3" cy="70" fill="#fff" rx="16" ry="211"/><path fill="#00469a" d="M140 70l-4-2 7-2z"/><path fill="#fff" d="M52 71h91v30H52z"/><ellipse cx="128" cy="16" fill="#4a4a4a" rx="1" ry="11"/><ellipse cx="229" cy="105" fill="#fff" rx="55" ry="15"/><path fill="#4d4f4b" d="M159 72h1v21h-1z"/><path fill="#fff" d="M214.5 57.4l-6.6 67.4-1.9-79.4 65-8.4z"/><path fill="#9d9d9b" d="M136 0h1v72h-1z"/><path fill="#c9cbc9" d="M98.5 41h11v22h-11z"/><ellipse cx="102" cy="86" fill="#575c5c" rx="1" ry="11"/></g></g></svg>