<svg xmlns="http://www.w3.org/2000/svg" viewBox="0 0 1000 563"><defs/><filter id="prefix__a"><feGaussianBlur stdDeviation="12"/></filter><rect width="100%" height="100%" fill="#3d3d3d"/><g filter="url(#prefix__a)"><g fill-opacity=".5" transform="translate(2 2) scale(3.90625)"><ellipse cx="96" cy="85" fill="#fff" rx="48" ry="35"/><circle r="1" fill="#0c0c0c" transform="matrix(10.39932 183.60092 -61.74794 3.49746 199.6 71.6)"/><ellipse cx="31" cy="122" rx="71" ry="24"/><circle r="1" fill="#dadada" transform="rotate(64.2 -15.2 134) scale(44.08543 27.21373)"/><path fill="#fff" d="M25 73l-11 9 29 16z"/><path fill="#c8c8c8" d="M79 107L29 95l55-43z"/><circle r="1" transform="matrix(-63.98389 -46.3166 10.0682 -13.90867 11.5 102.1)"/><path fill="#4d4d4d" d="M91 91l-38 17 46 51z"/><circle r="1" transform="matrix(21.21783 11.61642 -4.50594 8.23026 146.4 68)"/><path d="M98 42L33 81l29-37zm-1 117l61-10 18-73z"/><ellipse cx="201" cy="66" fill="#666" rx="28" ry="12"/><circle r="1" fill="#161616" transform="matrix(-39.86852 63.89908 -29.21158 -18.22597 9.2 11.8)"/><path fill="#4e4e4e" d="M169-16l-59 4 96 76z"/><circle r="1" fill="#030303" transform="matrix(31.76676 31.93146 -20.0116 19.90837 251.3 119.6)"/><path d="M91 96l-4 13-9-17z"/><path fill="#767676" d="M244 148l-23 5-38-39z"/><path fill="#747474" d="M93.1 109.4l34.6 5.4-2.8 17.8-34.6-5.4z"/><path fill="#e5e5e5" d="M53 72l90 15-38 15z"/><path fill="#ccc" d="M133.4 128.5l-12.1-4.7 9.3-24.3 12.1 4.7z"/><path fill="#0a0a0a" d="M132.5 56.4l-15.6-1.9 23.4-26-57.1 17.2z"/><path fill="#d1d1d1" d="M79.4 94.8l-39 1.6 7.1-21.7 34.8 31.2z"/><path fill="#545454" d="M193 110l42 3-67-29z"/><path d="M207.4 96.3l-56.2-18.2 3.4-10.4 56.2 18.2z"/><path fill="#656565" d="M98.4 24.5L108.6-9l21 6.5L119.4 31z"/><path d="M64 159l-9.1-61.1-67.1-2-1-44.7z"/><path fill="#bfbfbf" d="M168.6 35.5l2.6-3.3 18.4.8-3.3 3z"/><circle r="1" fill="#131313" transform="matrix(-23.04336 4.121 -4.9819 -27.85722 155.1 61.6)"/><path fill="#141414" d="M63.3 79l26 23.3-.6.8-26-23.4z"/><path fill="#ebebeb" d="M37.6 100.4l-7.1-5.2L19 76.1l4.7-4.7z"/><path fill="#787878" d="M231.3 35.8l.9-8.1-1.1 14L271 22.5z"/><path fill="#ccc" d="M114.6 72.3L94.2 50.8l28 2.8 20.7-24.1z"/></g></g></svg>