<svg xmlns="http://www.w3.org/2000/svg" viewBox="0 0 1184 1600"><defs/><filter id="a"><feGaussianBlur stdDeviation="12"/></filter><rect width="100%" height="100%" fill="#444"/><g filter="url(#a)"><g fill-opacity=".5" transform="matrix(6.25 0 0 6.25 3.1 3.1)"><circle r="1" fill="#fff" transform="matrix(-37.75782 -8.07893 13.82735 -64.62374 84.7 75.4)"/><circle cx="88" cy="253" r="92"/><path fill="#929292" d="M232.2 200l-44.5 32.3-70-96.3 44.6-32.3z"/><circle r="1" fill="#fff" transform="rotate(41.7 -28.9 128.6) scale(21.1685 36.14108)"/><circle r="1" fill="#bebebe" transform="matrix(18.5415 -9.4169 24.4605 48.16172 83.7 115.7)"/><path fill="#181818" d="M44 36l71-28H73z"/><path fill="gray" d="M89 84l32-63 33 34z"/><circle r="1" fill="#323232" transform="rotate(-21.2 368.4 -250) scale(28.33468 10.89302)"/><circle r="1" fill="#0f0f0f" transform="matrix(-5.43693 1.932 -6.03096 -16.972 45.5 102.1)"/><circle r="1" fill="#535353" transform="matrix(-19.96136 -30.40779 9.67046 -6.34823 81.5 196.7)"/><path fill="#090909" d="M87 75l24-12-4 13z"/><path d="M175.6 271l28.4-3.1-83-117.4-18.1-2.5z"/><circle r="1" transform="matrix(-10.79063 -42.86695 11.85668 -2.9846 37.9 233.6)"/><path fill="#d1d1d1" d="M49 80h75v18H49z"/><circle r="1" fill="#585858" transform="rotate(-36 239 -189.7) scale(27.69202 50.83212)"/><path fill="#fff" d="M85 153l-10-12 27 13z"/><path fill="#b1b1b1" d="M132 63.4l-43.4-9.1L105 17.4 132.1 30z"/><circle r="1" fill="#666" transform="matrix(-60.91431 43.89192 -7.70023 -10.68658 0 175)"/><path fill="#1f1f1f" d="M118.7 74l20.4 17.1 5-29.5-26.4 10.5z"/><path fill="#7b7b7b" d="M140 120l27 10-67 41z"/><circle r="1" fill="#e9e9e9" transform="rotate(133 25.2 39.8) scale(27.82571 15.45146)"/><path fill="#1f1f1f" d="M112 169l-74 1 27-26z"/><path fill="#474747" d="M19 227l2-71-28 91z"/><path fill="#737373" d="M101.9 116.6l70.7 46.2 25.1 106.4-29.1-58.8z"/><path fill="#0b0b0b" d="M107 99h10v5h-10z"/><path d="M145.6 176.4l23.7 39.4-29-19.5-29.9-50z"/><ellipse cx="73" cy="92" fill="#c2c2c2" rx="20" ry="38"/><circle cx="129" cy="255" r="27" fill="#030303"/><path fill="#383838" d="M62.6-16l57.7 39.3-33.2-9.6L-16 90.2z"/><circle r="1" fill="#262626" transform="rotate(-128.7 74 59) scale(27.89507 7.212)"/><path fill="#efefef" d="M115 72l-11 14 18 15z"/><path fill="#585858" d="M150.5 31.3l27.3 25.5-79.3 7.6-4.3 29.4z"/></g></g></svg>