<svg xmlns="http://www.w3.org/2000/svg" viewBox="0 0 1080 1440"><defs/><filter id="a"><feGaussianBlur stdDeviation="12"/></filter><rect width="100%" height="100%" fill="#433b3b"/><g filter="url(#a)"><g fill-opacity=".5" transform="translate(2.8 2.8) scale(5.625)"><circle r="1" fill="#fff" transform="matrix(-8.05054 -131.4044 178.8894 -10.95973 118.2 112.6)"/><circle r="1" fill="#f4f0e6" transform="matrix(20.5079 -112.748 65.52372 11.91821 119.5 65)"/><path d="M6.9 219.3l-21-.7L-7 10.7l21 .7zM182 81h10v151h-10z"/><ellipse cx="138" cy="255" rx="162" ry="14"/><ellipse cx="155" cy="65" fill="#7a766d" rx="23" ry="27"/><path fill="#bdad97" d="M6 213h77v30H6z"/><path fill="#3b0c11" d="M27 28h37v19H27z"/><path fill="#f5efdc" d="M18 111.8L22 52l32 2.2-4.2 59.8z"/><path fill="#050d20" d="M178 81h14v71h-14z"/><path fill="#e1d8c7" d="M121 242h64L174 71z"/><circle r="1" transform="matrix(-10.7489 -.78333 4.30031 -59.00945 0 139.3)"/><path fill="#f5eee3" d="M174 1L54 3l67 114z"/><path fill="#fff" d="M178 34h14v48h-14z"/><circle r="1" fill="#b2afa8" transform="matrix(-29.2115 32.95556 -67.62545 -59.94256 91 173.8)"/><path fill="#4c4c4a" d="M138 92l9-16-13-37z"/><circle r="1" fill="#937532" transform="matrix(-9.18823 -4.422 4.11175 -8.54358 80 35)"/><path fill="#fffcee" d="M141 44h16v30h-16z"/><path fill="#696e6d" d="M175.9 13.6l.5 51.6-7.9-73.3 38.5-3.3z"/><path fill="#585653" d="M171.5 59.3l-4.4 30.4-21.7-2.8 23.4-47.5z"/><path fill="#424445" d="M139.7 49.1l-4.5 15-1.4-22.4 19-2.4z"/><path fill="#000619" d="M179.3 152.4l10.9-1.8 12.5 79-10.9 1.8z"/><circle r="1" fill="#886d52" transform="rotate(-88.5 105.2 91.8) scale(87.24143 4.75972)"/><path fill="#444449" d="M55.2 4.8l-.2-3 93.8-6.6.2 3z"/><circle cx="39" cy="212" r="31" fill="#a19a8e"/><path fill="#faf7f3" d="M172.5 89.5v13h-61v-13z"/><path fill="#00000a" d="M0 81h6v140H0z"/><path fill="#56393f" d="M27.6 43.8l22 9.8-8.4-43.3-8.6 12.5z"/><path fill="#6d6f66" d="M41.6-16H-9.7l24 128.3 1.8-97z"/><circle r="1" fill="#23282d" transform="matrix(-2.38968 -23.52592 2.71377 -.27565 179.5 100.2)"/><path fill="#f8e9d9" d="M29 3h147v7H29z"/><path fill="#fcf4ea" d="M172 39l-1-27-60 28z"/></g></g></svg>