<svg xmlns="http://www.w3.org/2000/svg" viewBox="0 0 1440 1080"><defs/><filter id="a"><feGaussianBlur stdDeviation="12"/></filter><rect width="100%" height="100%" fill="#4d493b"/><g filter="url(#a)"><g fill-opacity=".5" transform="translate(2.8 2.8) scale(5.625)"><circle r="1" fill="#e0dbda" transform="matrix(-115.4052 -151.23883 102.34214 -78.0938 153.7 49.2)"/><ellipse cx="26" cy="149" fill="#716b61" rx="86" ry="149"/><circle r="1" fill="#cec8c4" transform="matrix(32.0129 -59.70382 82.51537 44.24435 164.2 20.5)"/><path d="M247.7-8L271 14.5l-16 37.6-4.6-23.3z"/><ellipse cx="144" cy="107" fill="#797978" rx="21" ry="90"/><circle r="1" fill="#e6decf" transform="rotate(18.4 99.4 612.5) scale(51.89797 29.14871)"/><circle r="1" fill="#736f64" transform="rotate(50.4 -78 81.5) scale(153.10724 37.48895)"/><ellipse cx="255" cy="83" fill="#d1c9be" rx="36" ry="19"/><circle r="1" fill="#b7b4a2" transform="matrix(-14.65148 6.99786 -29.1185 -60.96567 95.5 46.7)"/><ellipse cx="156" cy="137" fill="#817e7a" rx="119" ry="21"/><circle r="1" fill="#a19ea1" transform="matrix(-26.28042 -6.3579 13.23575 -54.71001 168.2 64)"/><path d="M254.2 65.1l-6.6-76.2L271 13.8l-9.1 100z"/><path fill="#374246" d="M192 3h53v3h-53z"/><path fill="#fff4d9" d="M244.4 57.3l3.7-42.1 3.2 27.5 3 19.4z"/><circle cx="34" cy="106" r="40" fill="#6e695f"/><path fill="#283431" d="M119.5 6.1L97 1.7 98.5-6 121-1.7z"/><ellipse cx="197" cy="80" fill="#757179" rx="51" ry="3"/><ellipse cx="189" cy="188" fill="#7e7767" rx="85" ry="8"/><path fill="#3e3a31" d="M-10.6 198.8l11-32.2 48.2 16.6-11 32.2z"/><path fill="#ddd7c9" d="M88-5l100-11 26 36z"/><path fill="#fffee6" d="M237 10l13 20-3-33z"/><ellipse cx="168" cy="155" fill="#53525e" rx="42" ry="3"/><circle cx="105" cy="18" r="15" fill="#d6d3c0"/><path fill="#b8ad9d" d="M207 149h49v14h-49z"/><circle cx="142" cy="51" r="6" fill="#424260"/><ellipse cx="177" cy="137" fill="#55515f" rx="57" ry="2"/><path fill="#9f9c8d" d="M87 126l52-31-19 59z"/><path fill="#878682" d="M131 38l6-31-15-17z"/><circle r="1" fill="#989185" transform="matrix(-25.87472 -18.32032 11.49706 -16.23788 58.1 21.7)"/><ellipse cx="197" cy="38" fill="#e3ded5" rx="50" ry="2"/><ellipse cx="199" cy="184" fill="#3c3c38" rx="145" ry="1"/><path fill="#c7c4bc" d="M263.4 96.6v2l-134.8 4.8v-2z"/></g></g></svg>