<svg xmlns="http://www.w3.org/2000/svg" viewBox="0 0 1026 1622"><defs/><filter id="a"><feGaussianBlur stdDeviation="12"/></filter><rect width="100%" height="100%" fill="#544c6c"/><g filter="url(#a)"><g fill-opacity=".5" transform="translate(3.2 3.2) scale(6.33594)"><circle cx="90" cy="110" r="176" fill="#fffffe"/><circle r="1" fill="#faf4d3" transform="matrix(-75.58492 -142.15456 62.54474 -33.25563 123.6 69.6)"/><circle cx="24" cy="230" r="136" fill="#b5b49b"/><ellipse cx="20" cy="194" fill="#94938e" rx="46" ry="52"/><circle r="1" fill="#c6c3bc" transform="rotate(140.4 6.2 36.5) scale(42.67959 161)"/><circle r="1" fill="#cdc6b5" transform="matrix(92.7274 -100.84029 26.10367 24.00355 132.1 239)"/><circle r="1" fill="#ece4d6" transform="matrix(-36.98184 18.76196 -29.89147 -58.9193 161 98.7)"/><ellipse cx="101" fill="#fff4d6" rx="136" ry="13"/><circle r="1" fill="#6c7771" transform="rotate(-177.7 73.1 7.1) scale(37.02417 2.42053)"/><circle r="1" fill="#f5eccc" transform="matrix(-4.52646 91.36524 -6.27587 -.31092 0 60.3)"/><path fill="#fcf4dd" d="M161.2 41.4l-.5 13-109.9-3.8.5-13z"/><circle r="1" fill="#a19dae" transform="matrix(-60.93229 -1.04995 .04702 -2.72861 90.2 55.1)"/><ellipse cx="30" cy="74" fill="#9596a8" rx="96" ry="3"/><ellipse cx="91" cy="65" fill="#a6a2b0" rx="68" ry="3"/><ellipse cx="23" cy="130" fill="#9c9d9d" rx="19" ry="41"/><ellipse cx="103" cy="167" fill="#9697a1" rx="67" ry="3"/><circle r="1" fill="#8f8d88" transform="matrix(-.12042 3.1346 -66.57201 -2.55744 72.6 241.7)"/><path fill="#d3c8a8" d="M130 246l-35 25-95-29z"/><circle r="1" fill="#e8e6d3" transform="rotate(-89.2 123.5 7.6) scale(2.41147 81.91319)"/><path fill="#a39f99" d="M13.8 4.1l11 1.1L18.2 68l-11-1.1z"/><path fill="#fffae3" d="M113 80h49v13h-49z"/><path fill="#eeebd7" d="M38 98h124v4H38z"/><circle r="1" fill="#92929d" transform="matrix(112.98801 1.03816 -.01909 2.0774 119 177.8)"/><ellipse cx="149" cy="231" fill="#98959a" rx="99" ry="3"/><ellipse cx="49" cy="135" fill="#8c8d9e" rx="55" ry="3"/><path fill="#d7d2ca" d="M157.7 142.5L66.9 52l96.8 120.4-74.4-34.9z"/><ellipse cx="84" cy="95" fill="#a1a0b0" rx="52" ry="3"/><circle r="1" fill="#eae8d4" transform="matrix(.06864 -1.71604 127.38074 5.09476 131.5 112.3)"/><path fill="#7f8095" d="M27 143h53v5H27z"/><path fill="#8f909a" d="M11 154h105v5H11z"/><ellipse cx="127" cy="213" fill="#d0ccb8" rx="120" ry="3"/><circle r="1" fill="#a1a1aa" transform="matrix(54.56911 1.64922 -.0856 2.83217 52.2 83.6)"/></g></g></svg>