<svg xmlns="http://www.w3.org/2000/svg" viewBox="0 0 956 538"><defs/><filter id="a"><feGaussianBlur stdDeviation="12"/></filter><rect width="100%" height="100%" fill="#4a424d"/><g filter="url(#a)"><g fill-opacity=".5" transform="translate(1.9 1.9) scale(3.73438)"><circle r="1" fill="#fffff3" transform="matrix(-139.15524 40.40304 -68.35024 -235.41037 93.3 58.4)"/><circle cx="188" cy="55" r="52" fill="#e3dbcb"/><circle r="1" fill="#726f68" transform="matrix(0 -94.13952 29.50809 0 55.6 109.6)"/><ellipse cx="255" cy="31" fill="#000500" rx="18" ry="63"/><path fill="#e7dac0" d="M261.2 179.2l-25.6 4.6-22.8-129 25.6-4.6z"/><path fill="#e0d5c3" d="M39.6-8.5L24 103.5l-49.5-7 15.7-112z"/><path fill="#fff9e3" d="M213 25l29 67-14-108z"/><circle r="1" fill="#dcd7c7" transform="rotate(18.7 66.2 401.6) scale(42.21555 28.01134)"/><circle r="1" fill="#837f79" transform="matrix(95.0504 -10.26952 2.39982 22.2117 93.6 140.5)"/><circle r="1" fill="#b2ada4" transform="matrix(-40.27626 16.3545 -21.33297 -52.53677 157.7 77.2)"/><path fill="#171c07" d="M258.4 159l-1.6-23.8 2-31.9-20.6-53z"/><path fill="#82796e" d="M225 131.8l-13.1-5.3 59.1 20-50.7 12.5z"/><ellipse cx="47" cy="14" fill="#757272" rx="8" ry="86"/><circle r="1" fill="#1a231a" transform="matrix(-9.44691 -52.50375 7.20423 -1.29625 243.5 35)"/><ellipse cx="77" cy="84" fill="#94928d" rx="23" ry="83"/><ellipse cx="212" cy="70" fill="#c9c1ba" rx="16" ry="66"/><path fill="#f8f5e2" d="M225.6 11.6L128 1.4l.3-3L226 8.6z"/><circle r="1" fill="#6f6d74" transform="matrix(68.78791 0 0 3.90241 110.7 135.2)"/><ellipse cx="180" cy="119" fill="#7f7980" rx="50" ry="3"/><ellipse cx="184" cy="27" fill="#f2eedc" rx="41" ry="3"/><ellipse cx="153" cy="106" fill="#8b8788" rx="80" ry="4"/><circle r="1" fill="#626066" transform="matrix(9.8714 .26592 -.74123 27.51553 38.3 142.5)"/><ellipse cx="52" cy="35" fill="#c6c1b5" rx="183" ry="3"/><path fill="#6b7c74" d="M215.5 6.7l-61.7-5.4.7-8 61.7 5.4z"/><path fill="#ddd4bf" d="M232.4 102.9l-45.1-15.4 52.4-9.6 15.3 64.4z"/><path fill="#938994" d="M138 53h81v5h-81z"/><circle r="1" fill="#a09aa1" transform="matrix(-54.63925 -2.19454 .09961 -2.48009 162 20.3)"/><path fill="#c0bfb0" d="M86 44h51v18H86z"/><ellipse cx="85" cy="79" fill="#75737b" rx="57" ry="4"/><ellipse cx="225" cy="1" fill="#fff6df" rx="5" ry="32"/><circle r="1" fill="#d0cdba" transform="rotate(-178.4 71.8 36) scale(86.7131 2.73873)"/><path fill="#b8b0a1" d="M-14.4 55.9l46.2 9L14.4 154l-46.2-9z"/></g></g></svg>