<svg xmlns="http://www.w3.org/2000/svg" viewBox="0 0 619 1100"><defs/><filter id="a"><feGaussianBlur stdDeviation="12"/></filter><rect width="100%" height="100%" fill="#514035"/><g filter="url(#a)"><g fill-opacity=".5" transform="translate(2.1 2.1) scale(4.29688)"><ellipse cx="103" cy="226" fill="#e7f0ff" rx="79" ry="255"/><path fill="#f0f0e0" d="M11.5 301.4L-7 241.2l165.4-50.6 18.4 60.2z"/><circle r="1" fill="#7b6b4d" transform="matrix(-51.3582 77.6771 -60.94397 -40.29466 66.5 31)"/><ellipse cx="107" cy="175" fill="#b1b7db" rx="64" ry="59"/><circle r="1" fill="#b19e6c" transform="rotate(-153.2 18.4 2.5) scale(51.07573 28.33453)"/><ellipse cx="15" cy="133" fill="#473f3a" rx="23" ry="104"/><ellipse cx="5" cy="253" fill="#fff" rx="50" ry="12"/><path fill="#6e697e" d="M43 46.8l84 13.3-12 75L31 122z"/><ellipse cx="141" cy="135" fill="#eeebe0" rx="4" ry="82"/><path fill="#91949d" d="M99 198h38v37H99z"/><path fill="#ffffe1" d="M52.4 245.3l-1 19-69.8-3.6 1-19z"/><path fill="#71707f" d="M18 150h28v83H18z"/><circle r="1" fill="#66574c" transform="matrix(-8.26793 11.33343 -26.27953 -19.17136 73 60.4)"/><ellipse cx="72" cy="183" fill="#bfc1dc" rx="18" ry="40"/><ellipse cx="99" cy="10" fill="#9a895e" rx="86" ry="33"/><circle r="1" fill="#9a9798" transform="rotate(-160.5 70.7 15.4) scale(16.14967 98.69325)"/><circle r="1" fill="#b1b0c2" transform="matrix(-2.46407 -10.28408 55.61708 -13.32589 69.3 220.2)"/><ellipse cy="215" fill="#312613" rx="14" ry="27"/><ellipse cx="128" cy="246" fill="#af9b65" rx="56" ry="3"/><ellipse cx="87" cy="126" fill="#9695ad" rx="50" ry="20"/><ellipse cx="99" cy="186" fill="#f0fbfd" rx="38" ry="2"/><path fill="#898997" d="M36 226h97v6H36z"/><circle r="1" fill="#7e6d4c" transform="rotate(-94 54.2 -40.4) scale(29.76204 19.36275)"/><path fill="#422300" d="M15.6 33.1l-29.9 29 27.6-75.7-23.9 41.1z"/><path fill="#fff1bd" d="M61 248h72v8H61z"/><circle r="1" fill="#564f4e" transform="matrix(12.33276 -79.87278 7.23375 1.11693 29.4 132.8)"/><path fill="#6e4500" d="M53 243l7 15 12 7z"/><path fill="#b1a47a" d="M94 2L12 13l14-29z"/><path fill="#4e4b6a" d="M79 95h57v4H79z"/><path fill="#d5d6e2" d="M48.6 136.5l87 3-.2 2-87-3z"/><path fill="#625c65" d="M59 67h73v14H59z"/><ellipse cx="83" cy="73" fill="#afa599" rx="48" ry="2"/></g></g></svg>