<svg xmlns="http://www.w3.org/2000/svg" viewBox="0 0 1416 797"><defs/><filter id="a"><feGaussianBlur stdDeviation="12"/></filter><rect width="100%" height="100%" fill="#3a3647"/><g filter="url(#a)"><g fill-opacity=".5" transform="translate(2.8 2.8) scale(5.53125)"><circle r="1" fill="#fff" transform="matrix(-144.12687 -19.11971 30.96373 -233.40863 103 118.6)"/><circle cx="179" cy="25" r="66" fill="#fffae1"/><ellipse cx="15" fill="#f6e7c6" rx="16" ry="128"/><ellipse cx="232" cy="123" fill="#e6dabc" rx="19" ry="81"/><circle r="1" fill="#bab5a9" transform="matrix(-108.04724 -75.09479 19.76083 -28.4321 143.6 67.6)"/><circle r="1" fill="#8f8776" transform="matrix(39.12377 -38.64787 50.72801 51.35266 84.1 132)"/><path fill="#fffae7" d="M67 0l174-16 1 52z"/><path fill="#1f240c" d="M244.7 32.3l-4-48.3L271 159l-20.9-47.2z"/><path fill="#b1aea8" d="M66 66l5-82 198 169z"/><ellipse cx="117" cy="27" fill="#d6d2c8" rx="49" ry="12"/><circle r="1" fill="#beac93" transform="matrix(16.43196 63.69363 -14.093 3.63578 10.2 112.3)"/><path fill="#6e7082" d="M199.6 105.6l-.2 8-65-1.2.2-8z"/><path fill="#76747e" d="M99.4 61.9l52 7.2-18.1.5-45.5 2z"/><path fill="#f0e4c9" d="M239.3-12.1l-20.8 39 27.1 56 1.1-22.2z"/><ellipse cx="202" cy="65" fill="#bdb7b8" rx="29" ry="40"/><path fill="#8f877b" d="M23.8 63.5l9 95.5L46.6 53.3l13.9-30.7z"/><ellipse cx="181" cy="135" fill="#83807b" rx="63" ry="5"/><circle r="1" fill="#dcd5ca" transform="matrix(-2.21762 -34.95344 17.51293 -1.1111 17.4 7.8)"/><ellipse cx="114" cy="80" fill="#7f7f8a" rx="83" ry="4"/><path fill="#7c7980" d="M77 119h162v6H77z"/><path fill="#c0baaa" d="M148 112h103v22H148z"/><ellipse cx="161" cy="75" fill="#d8d5c3" rx="53" ry="5"/><path fill="#948f9d" d="M128 53h76v5h-76z"/><ellipse cx="77" cy="86" fill="#c4c1b2" rx="169" ry="3"/><path fill="#eeead7" d="M240 49.6l-.1 6-90-3.2.2-6z"/><ellipse cx="178" cy="69" fill="#8f8c99" rx="57" ry="3"/><ellipse cx="104" cy="139" fill="#63635d" rx="80" ry="2"/><path fill="#e3d3af" d="M246.2 84.6l.3-15.7 7 80.7-20.7-63z"/><path fill="#6b6977" d="M27 106h88v6H27z"/><path fill="#beb39f" d="M33 127h84v7H33z"/><circle r="1" fill="#9d8a73" transform="matrix(-3.19149 35.70506 -10.99645 -.98291 0 135.4)"/><ellipse cx="65" cy="142" fill="#c9bca0" rx="185" ry="2"/></g></g></svg>